<?xml version="1.0" encoding="utf-8" ?>
<svg xmlns="http://www.w3.org/2000/svg" xmlns:xlink="http://www.w3.org/1999/xlink" width="1024" height="1024">
	<path fill="#264E85" d="M0 0L1024 0L1024 337.597C1002.86 339.513 987.808 344.061 971.601 358.372C968.693 352.392 970.787 329.416 970.22 321.115C968.177 320.32 966.224 319.424 964.02 319.241Q905.938 306.214 848.296 291.358C833.299 287.523 817.601 284.764 802.88 280.048L808.098 199.574L688.402 199.641C688.861 217.091 691.664 234.511 692.596 251.957Q551.918 217.478 411.595 181.574Q351.045 166.818 290.72 151.168C275.882 156.629 260.678 161.363 245.681 166.381L152.013 197.619Q99.9799 215.312 47.7071 232.284C31.8401 237.46 16.0712 243.284 0 247.787L0 0Z"/>
	<path fill="#C7503F" d="M0 247.787C16.0712 243.284 31.8401 237.46 47.7071 232.284Q99.9799 215.312 152.013 197.619L245.681 166.381C260.678 161.363 275.882 156.629 290.72 151.168Q351.045 166.818 411.595 181.574Q551.918 217.478 692.596 251.957C699.892 254.542 707.757 255.749 715.24 257.74C735.487 263.126 755.845 268.043 776.156 273.183C785.045 275.433 794.11 277.386 802.88 280.048C817.601 284.764 833.299 287.523 848.296 291.358Q905.938 306.214 964.02 319.241C963.315 319.602 962.819 319.765 962.009 319.846C957.045 320.336 951.309 319.646 946.291 319.563Q930.631 319.393 914.971 319.444L792.079 318.929Q732.165 318.499 672.25 318.786L455.25 318.731L0 318.707L0 247.787Z"/>
	<path fill="#000300" d="M692.596 251.957C691.664 234.511 688.861 217.091 688.402 199.641L808.098 199.574L802.88 280.048C794.11 277.386 785.045 275.433 776.156 273.183C755.845 268.043 735.487 263.126 715.24 257.74C707.757 255.749 699.892 254.542 692.596 251.957Z"/>
	<path fill="#D9A14B" d="M0 318.707L455.25 318.731L672.25 318.786Q732.165 318.5 792.079 318.929L772.771 493.68L772.269 496.522L772.452 497.478C770.285 511.492 769.186 526.004 767.842 540.135C767.643 541.011 767.461 541.835 767.36 542.729C766.217 549.758 765.812 556.845 764.962 563.91C762.493 577.964 761.079 592.389 759.521 606.575C758.845 612.727 758.48 619.048 757.357 625.128C749.408 624.911 741.193 625.899 733.247 626.385L693.998 628.654Q621.848 633.643 549.638 637.673L548.862 637.595C541.923 638.766 534.441 638.654 527.389 639.182Q499.724 641.306 472.017 642.768L301.597 652.736L300.894 652.587C289.89 654.52 277.716 654.037 266.53 654.644L192.952 658.631C128.633 661.823 64.3344 666.257 0 668.979L0 610.482L0 602.312L0 584.436L2.47205 584.539C25.0476 584.293 47.6391 584.504 70.216 584.556C81.2175 584.582 94.9215 583.709 105.526 584.923C111.735 584.363 118.293 584.71 124.545 584.691L164.708 584.854L288.891 585.526L288.865 571.908C262.5 572.428 236.088 571.643 209.72 571.574L0 570.533L0 495.643L0 495.047L0 384.49L0 377.571L0 360.617L734.331 360.532L734.532 346.042Q641.072 346.779 547.611 346.28L366.8 346.523L360.092 346.502L19.926 346.735Q9.96345 346.875 0 346.823L0 346.298L0 318.707ZM410.703 472.968C420.883 472.998 431.226 472.499 441.382 473.127C442.193 474.343 442.021 475.48 442.112 476.914Q441.909 489.914 442.027 502.915C442.038 507.626 442.552 513.154 441.684 517.756C441.894 518.822 441.977 519.384 442.767 520.158C447.981 522.486 458.144 521.096 463.908 520.822C464.695 514.946 464.167 508.567 464.215 502.63Q464.286 479.213 464.07 455.796L464.327 419.479C464.377 412.828 464.905 405.625 463.884 399.045C459.607 396.936 447.068 398.053 441.985 398.31L441.594 449.35L410.075 449.166C409.899 432.236 411.074 414.982 410.15 398.104C402.794 397.744 395.315 398.037 387.945 398.066C387.244 414.026 388.013 430.28 388.027 446.275Q387.816 483.668 387.995 521.059C391.252 521.254 407.713 521.968 409.6 520.517C411.657 513.65 410.503 482.412 410.703 472.968ZM734.269 500.212C733.344 499.217 733.171 499.294 731.762 499.238C721.583 498.837 711.372 500.384 701.207 498.839Q701.071 484.304 701.406 469.772Q717.5 469.425 733.594 469.768Q733.778 458.156 733.55 446.545C722.91 447.048 712.266 447.062 701.617 447.127L701.515 421.083C712.498 421.707 723.605 421.634 734.605 421.533C734.7 414.207 735.01 406.763 734.607 399.445L679.424 399.556C679.002 440.513 679.337 481.523 679.527 522.483C686.765 522.501 731.111 523.487 733.904 521.925L734.145 521.315C733.964 514.345 733.68 507.164 734.269 500.212ZM671.421 586.442C676.447 585.81 681.735 586.142 686.795 586.19L690.585 586.146L732.522 586.321C732.56 581.061 732.686 575.782 732.612 570.523Q711.178 571.02 689.739 570.846C680.346 570.794 670.839 570.402 661.457 570.704C661.409 575.925 661.318 581.148 661.483 586.368C664.728 586.391 668.203 586.146 671.421 586.442ZM57.2907 395.89C50.3265 410.692 44.653 426.188 38.4057 441.31L5.35763 519.534C13.4031 519.995 21.5296 519.907 29.585 519.739C32.3944 513.517 34.8878 507.265 37.2932 500.876L58.0349 501.038L77.3519 500.999C79.8637 507.268 82.135 513.842 85.1186 519.893C93.2309 519.986 101.51 520.496 109.606 520.216C102.419 499.953 92.9097 480.434 84.6859 460.574C77.5911 443.44 70.7478 426.294 63.3358 409.286C61.5497 405.188 59.9903 399.373 57.2907 395.89ZM149.255 396.175C134.47 398.198 121.482 405.054 112.38 417.041C100.974 432.062 97.7083 452.697 100.298 471.092C102.55 487.093 110.139 501.096 123.124 510.858C136.185 520.677 150.444 523.283 166.52 520.889C176.102 519.462 184.562 515.133 192.599 509.877Q192.891 493.757 192.843 477.634C190.6 480.055 188.395 482.531 186.011 484.812C176.528 492.981 166.899 498.758 153.912 497.695Q153.136 497.639 152.365 497.543Q151.593 497.448 150.827 497.313Q150.061 497.179 149.303 497.006Q148.545 496.833 147.796 496.622Q147.048 496.411 146.311 496.162Q145.574 495.913 144.851 495.628Q144.128 495.342 143.42 495.02Q142.712 494.698 142.021 494.341Q141.331 493.983 140.659 493.591Q139.987 493.199 139.336 492.774Q138.685 492.349 138.057 491.891Q137.428 491.433 136.823 490.944Q136.219 490.455 135.639 489.936Q135.06 489.417 134.508 488.869Q133.956 488.321 133.433 487.747Q132.909 487.172 132.415 486.571C124.495 477.034 122.771 464.488 123.922 452.487C124.867 442.634 129.314 433.237 137.088 426.945C144.009 421.345 153.46 418.928 162.247 419.943C178.398 421.809 181.11 428.317 192.406 436.817C192.513 427.299 192.733 417.626 192.339 408.116C178.461 399.819 165.845 394.397 149.255 396.175ZM293.968 397.441C282.468 408.554 271.67 420.457 260.445 431.855C256.037 436.33 251.667 441.058 246.909 445.154C236.77 434.976 226.873 424.45 216.992 414.014C211.628 408.35 206.327 402.187 200.508 397.026L200.975 520.344L223.756 520.434Q223.991 509.07 223.963 497.704L224.017 451.727Q230.965 459.522 238.11 467.136C241.194 470.431 244.691 473.611 247.306 477.288C255.566 468.932 263.183 459.884 271.593 451.699C271.649 474.429 271.105 497.259 271.724 519.976L294.533 520.107L294.575 441.183C294.611 427.608 295.257 413.77 294.647 400.234C294.606 399.326 294.65 398.143 293.968 397.441ZM515.739 398.162C501.076 400.143 489.346 407.152 480.377 418.923C468.764 434.163 466.366 453.525 468.894 472.112C471.01 487.67 478.843 503.349 491.563 512.883Q492.528 513.619 493.526 514.309Q494.525 514.998 495.555 515.639Q496.586 516.28 497.645 516.871Q498.705 517.463 499.792 518.003Q500.878 518.543 501.989 519.031Q503.101 519.519 504.234 519.953Q505.367 520.388 506.519 520.767Q507.672 521.147 508.841 521.472Q510.01 521.797 511.194 522.065Q512.377 522.334 513.572 522.546Q514.767 522.758 515.97 522.913Q517.174 523.068 518.384 523.165Q519.593 523.262 520.806 523.302Q522.019 523.341 523.232 523.323Q524.446 523.305 525.657 523.229Q526.868 523.153 528.074 523.02C540.815 521.765 552.204 514.393 560.187 504.574C572.496 489.437 575.968 469.378 573.917 450.377C572.123 433.751 564.428 418.616 551.205 408.177C540.791 399.955 528.879 396.921 515.739 398.162ZM302.333 398.494L302.048 520.122L353.616 520.348Q353.658 510.296 353.514 500.245C343.955 500.079 334.39 500.226 324.835 500.039L324.716 494.125C324.656 486.103 324.42 478.041 324.57 470.022C333.306 470.059 342.431 470.577 351.117 469.75C351.41 462.64 351.589 455.36 351.304 448.253C342.506 447.847 333.662 448.002 324.855 447.998L324.805 421.517Q339.681 421.722 354.558 421.542C354.505 413.88 354.618 406.178 354.37 398.522L302.333 398.494ZM576.019 398.636C575.717 404.061 576.195 409.62 576.384 415.052Q576.961 430.508 577.381 445.969C577.951 470.799 577.477 495.713 577.551 520.555L600.758 520.56C600.567 496.929 601.02 473.294 600.939 449.661C608.348 458.598 616.323 467.979 624.673 476.028C632.579 467.531 641.176 459.323 650.021 451.802L649.97 500.021L649.961 522.659L671.754 522.591L672.542 398.277C664.706 404.29 657.677 411.842 650.591 418.738C641.808 427.286 632.749 435.657 624.484 444.713L593.29 413.878C588.713 409.352 583.888 403.372 578.651 399.711C577.818 399.129 576.999 398.838 576.019 398.636ZM537.569 551.089C530.818 552.528 524.907 555.715 521.163 561.734C517.285 567.969 516.29 576.398 518.046 583.499Q518.199 584.118 518.383 584.728Q518.566 585.339 518.78 585.939Q518.994 586.54 519.238 587.129Q519.482 587.718 519.754 588.294Q520.027 588.87 520.329 589.432Q520.63 589.993 520.959 590.539Q521.288 591.085 521.644 591.614Q522 592.143 522.382 592.653Q522.764 593.164 523.171 593.654Q523.578 594.145 524.009 594.615Q524.44 595.084 524.894 595.532Q525.348 595.979 525.823 596.404Q526.299 596.828 526.796 597.228Q527.292 597.628 527.808 598.002Q528.324 598.377 528.857 598.725Q529.391 599.074 529.942 599.395C534.916 602.258 540.912 603.368 546.498 601.794C551.058 600.51 554.792 597.756 557.62 594.007C555.467 591.966 553.334 589.898 551.156 587.884L550.318 587.953C547.597 590.757 544.81 593.022 540.673 593.248C537.821 593.403 534.473 591.492 532.461 589.602C528.958 586.31 527.173 581.262 527.139 576.517C527.102 571.446 528.696 567.092 532.42 563.579C533.787 562.29 535.28 561.405 536.941 560.551C540.963 560.433 544.206 560.217 547.37 563.145C548.179 563.893 548.876 564.693 549.555 565.557C552.202 563.683 554.447 561.827 556.692 559.478C551.208 554.501 546.013 550.689 538.203 551.049C537.991 551.059 537.78 551.075 537.569 551.089ZM620.498 551.166C615.615 551.764 611.448 552.99 608.331 557.084C606.398 559.623 605.131 562.621 605.658 565.856C606.533 571.224 611.177 574.725 615.41 577.541C618.66 579.703 625.643 583.308 626.147 587.612C626.323 589.109 625.588 590.38 624.575 591.418C623.322 592.702 621.873 593.142 620.116 593.136C616.064 593.122 613.671 590.703 610.93 588.081C607.915 590.015 605.538 592.029 603.322 594.89C608.53 598.694 611.735 601.734 618.494 602.57C623.42 602.438 628.271 601.354 631.895 597.75C634.563 595.096 636.331 590.827 636.231 587.054C636.11 582.491 633.624 578.841 630.301 575.897C627.172 573.123 616.547 568.311 616.137 564.215C616.061 563.462 616.347 562.944 616.845 562.377C617.861 561.221 620.54 559.722 622.101 559.828C624.723 560.005 627.052 563.377 628.623 565.239L635.171 558.388C631.193 554.039 627.068 551.444 621.046 551.184L620.498 551.166ZM334.152 552.139C329.821 552.75 325.378 553.753 322.689 557.56C320.776 560.269 319.998 564.136 320.643 567.38C321.546 571.916 324.778 575.199 328.563 577.585C332.061 579.79 339.962 582.66 341.041 586.986C341.335 588.162 340.779 589.4 340.091 590.331C338.958 591.864 336.822 592.441 335.014 592.563C332.239 592.749 329.787 591.991 327.691 590.146C326.473 589.074 325.441 587.825 324.546 586.478L318.377 590.874C320.645 595.556 323.499 599.261 328.659 600.953C329.552 601.246 330.475 601.517 331.393 601.726C336.372 601.955 341.893 601.532 345.678 597.866C348.596 595.04 350.768 590.575 350.606 586.463C350.434 582.122 347.978 578.402 344.727 575.676C340.472 572.11 332.947 570.1 330.159 565.411C330.063 564.187 329.946 563.672 330.871 562.689C332.043 561.443 333.645 561.041 335.297 561.184C338.132 561.428 340.721 563.513 343.423 562.653C344.87 561.079 346.271 559.531 347.994 558.25C344.564 554.547 340.943 552.329 335.78 552.134C335.238 552.114 334.694 552.13 334.152 552.139ZM568.187 551.947Q568.008 576.464 568.098 600.98L595.445 600.929L595.497 591.72Q586.499 591.713 577.502 591.837L577.487 585.497C577.59 583.523 577.635 581.526 577.849 579.562L593.473 579.621L593.425 570.991L577.531 571.048L577.519 561.541L594.82 561.515C594.83 558.384 594.91 555.232 594.786 552.104L568.187 551.947ZM494.508 553.192Q494.296 576.938 494.547 600.683L503.865 600.583C503.884 584.846 504.036 569.097 503.869 553.363C500.75 553.274 497.629 553.148 494.508 553.192ZM363.327 553.404C363.049 569.221 363.451 585.044 363.429 600.863Q376.98 600.977 390.53 600.806L390.578 591.657L372.935 591.747L372.904 586.125C372.817 584.447 372.461 582.547 373.421 581.081C377.058 578.686 383.922 580.38 388.294 580.322C388.324 577.203 388.407 574.07 388.325 570.952L373.305 570.895L373.302 562.053C379.164 562.012 385.044 562.063 390.903 561.908L390.949 553.287L363.327 553.404ZM403.517 553.403L403.538 600.951L413.41 600.944C413.488 594.434 413.39 587.864 413.717 581.364C418.699 587.275 422.393 594.57 426.717 601.013C429.911 601.13 433.14 601.347 436.334 601.308C432.254 594.333 427.722 587.355 424.24 580.066C428.378 578.193 430.879 576.534 432.622 572.08C433.986 568.595 434.17 564.169 432.624 560.709C431.207 557.541 428.325 555.396 425.078 554.346C418.693 552.282 410.177 553.265 403.517 553.403ZM442.812 553.616C444.712 563.095 452.496 577.844 456.563 587.056C458.984 592.539 460.995 598.34 463.698 603.676C469.164 592.984 472.877 581.333 477.813 570.368Q481.593 561.954 484.803 553.306L474.913 553.386C470.937 562.59 467.311 571.885 463.71 581.24C459.343 572.695 455.198 562.7 452.468 553.489C449.254 553.528 446.023 553.497 442.812 553.616Z"/>
	<path fill="#E2DF78" d="M792.079 318.929L914.971 319.444Q930.631 319.393 946.291 319.563C951.309 319.646 957.045 320.336 962.009 319.846C962.819 319.765 963.315 319.602 964.02 319.241C966.224 319.424 968.177 320.32 970.22 321.115C970.787 329.416 968.693 352.392 971.601 358.372C953.352 375.599 942.841 395.844 942.025 421.251C941.278 444.493 948.7 464.553 964.712 481.396C967.626 484.462 970.764 487.269 973.927 490.072C961.679 505.186 956.297 521.151 958.249 540.741C959.948 557.79 968.207 571.252 980.205 583.145C969.598 595.228 958.322 606.77 947.204 618.38C942.205 623.6 936.988 630.051 931.447 634.618C929.553 633.578 773.617 625.756 757.357 625.128C758.48 619.048 758.845 612.727 759.521 606.575C761.079 592.389 762.493 577.964 764.962 563.91C765.812 556.845 766.217 549.758 767.36 542.729C767.461 541.835 767.643 541.011 767.842 540.135C769.186 526.004 770.285 511.492 772.452 497.478L772.269 496.522L772.771 493.68L792.079 318.929Z"/>
	<path fill="#000300" d="M971.601 358.372C987.808 344.061 1002.86 339.513 1024 337.597L1024 636.887C1014.15 641.059 1004.39 645.408 994.509 649.502L994.398 678.145Q983.163 678.106 971.93 678.272C972.885 707.015 975.671 735.772 977.157 764.499L933.487 764.525C938.334 758.591 943.788 753.054 948.987 747.423L934.393 730.689C939.102 724.664 944.306 718.867 949.482 713.236C945.048 707.914 940.383 702.754 935.831 697.53C939.3 692.315 943.664 687.713 947.841 683.067C946.626 681.226 945.29 679.444 944.016 677.642Q917.473 677.126 890.926 676.957Q910.993 655.602 931.447 634.618C936.988 630.051 942.205 623.6 947.204 618.38C958.322 606.77 969.598 595.228 980.205 583.145C968.207 571.252 959.948 557.79 958.249 540.741C956.297 521.151 961.679 505.186 973.927 490.072C970.764 487.269 967.626 484.462 964.712 481.396C948.7 464.553 941.278 444.493 942.025 421.251C942.841 395.844 953.352 375.599 971.601 358.372Z"/>
	<path fill="#000300" d="M19.926 346.735L360.092 346.502L366.8 346.523L547.611 346.28Q641.072 346.779 734.532 346.042L734.331 360.532L0 360.617L0 346.823Q9.96345 346.875 19.926 346.735Z"/>
	<path fill="#000300" d="M5.35763 519.534L38.4057 441.31C44.653 426.188 50.3265 410.692 57.2907 395.89C59.9903 399.373 61.5497 405.188 63.3358 409.286C70.7478 426.294 77.5911 443.44 84.6859 460.574C92.9097 480.434 102.419 499.953 109.606 520.216C101.51 520.496 93.2309 519.986 85.1186 519.893C82.135 513.842 79.8637 507.268 77.3519 500.999L58.0349 501.038L37.2932 500.876C34.8878 507.265 32.3944 513.517 29.585 519.739C21.5296 519.907 13.4031 519.995 5.35763 519.534ZM57.6603 449.401C53.953 459.142 50.6486 469.054 46.8377 478.747L56.038 478.647C59.9477 478.613 63.867 478.637 67.775 478.538C64.602 468.937 61.7677 458.628 57.6603 449.401Z"/>
	<path fill="#000300" d="M192.599 509.877C184.562 515.133 176.102 519.462 166.52 520.889C150.444 523.283 136.185 520.677 123.124 510.858C110.139 501.096 102.55 487.093 100.298 471.092C97.7083 452.697 100.974 432.062 112.38 417.041C121.482 405.054 134.47 398.198 149.255 396.175C165.845 394.397 178.461 399.819 192.339 408.116C192.733 417.626 192.513 427.299 192.406 436.817C181.11 428.317 178.398 421.809 162.247 419.943C153.46 418.928 144.009 421.345 137.088 426.945C129.314 433.237 124.867 442.634 123.922 452.487C122.771 464.488 124.495 477.034 132.415 486.571Q132.909 487.172 133.433 487.747Q133.956 488.321 134.508 488.869Q135.06 489.417 135.64 489.936Q136.219 490.455 136.823 490.944Q137.428 491.433 138.057 491.891Q138.685 492.349 139.336 492.774Q139.987 493.199 140.659 493.591Q141.331 493.983 142.021 494.341Q142.712 494.698 143.42 495.02Q144.128 495.342 144.851 495.628Q145.574 495.913 146.311 496.162Q147.048 496.411 147.796 496.622Q148.545 496.833 149.303 497.006Q150.061 497.179 150.827 497.314Q151.593 497.448 152.365 497.543Q153.136 497.639 153.912 497.695C166.899 498.758 176.528 492.981 186.011 484.812C188.395 482.531 190.6 480.055 192.843 477.634Q192.891 493.757 192.599 509.877Z"/>
	<path fill="#000300" d="M246.909 445.154C251.667 441.058 256.037 436.33 260.445 431.855C271.67 420.457 282.468 408.554 293.968 397.441C294.65 398.143 294.606 399.326 294.647 400.234C295.257 413.77 294.611 427.608 294.575 441.183L294.533 520.107L271.724 519.976C271.105 497.259 271.649 474.429 271.593 451.699C263.183 459.884 255.566 468.932 247.306 477.288C244.691 473.611 241.194 470.431 238.11 467.136Q230.965 459.522 224.017 451.727L223.963 497.704Q223.991 509.07 223.756 520.434L200.975 520.344L200.508 397.026C206.327 402.187 211.628 408.35 216.992 414.014C226.873 424.45 236.77 434.976 246.909 445.154Z"/>
	<path fill="#000300" d="M442.112 476.914C442.021 475.48 442.193 474.343 441.382 473.127C431.226 472.499 420.883 472.998 410.703 472.968C410.503 482.412 411.657 513.65 409.6 520.517C407.713 521.968 391.252 521.254 387.995 521.059Q387.816 483.667 388.027 446.275C388.013 430.28 387.244 414.026 387.945 398.066C395.315 398.037 402.794 397.744 410.15 398.104C411.074 414.982 409.899 432.236 410.075 449.166L441.594 449.35L441.985 398.31C447.068 398.053 459.607 396.936 463.884 399.045C464.905 405.625 464.377 412.828 464.327 419.479L464.07 455.796Q464.286 479.213 464.215 502.63C464.167 508.567 464.695 514.946 463.908 520.822C458.144 521.096 447.981 522.486 442.767 520.158C441.977 519.384 441.894 518.822 441.684 517.756C442.552 513.154 442.038 507.626 442.027 502.915Q441.909 489.914 442.112 476.914Z"/>
	<path fill="#000300" d="M528.074 523.02Q526.868 523.153 525.657 523.229Q524.446 523.305 523.232 523.323Q522.019 523.341 520.806 523.302Q519.593 523.262 518.384 523.165Q517.174 523.068 515.97 522.913Q514.767 522.758 513.572 522.546Q512.377 522.334 511.194 522.065Q510.01 521.797 508.841 521.472Q507.672 521.147 506.519 520.767Q505.367 520.388 504.234 519.953Q503.101 519.519 501.989 519.031Q500.878 518.543 499.792 518.003Q498.705 517.463 497.645 516.871Q496.586 516.28 495.555 515.639Q494.525 514.998 493.526 514.309Q492.528 513.619 491.563 512.883C478.843 503.349 471.01 487.67 468.894 472.112C466.366 453.525 468.764 434.163 480.377 418.923C489.346 407.152 501.076 400.143 515.739 398.162C528.879 396.921 540.791 399.955 551.205 408.177C564.428 418.616 572.123 433.751 573.917 450.377C575.968 469.378 572.496 489.437 560.187 504.574C552.204 514.393 540.815 521.765 528.074 523.02ZM518.317 423.117C509.819 424.557 503.606 428.823 498.658 435.809C491.74 445.577 489.686 458.101 491.841 469.765C493.533 478.921 498.307 487.937 506.235 493.147C512.07 496.982 518.339 497.756 525.117 497.395C533.95 495.877 540.369 491.615 545.496 484.297C552.096 474.877 553.339 461.847 551.322 450.764C549.682 441.752 544.979 432.946 537.225 427.774C531.542 423.983 525.118 422.361 518.317 423.117Z"/>
	<path fill="#000300" d="M302.048 520.122L302.333 398.494L354.37 398.522C354.618 406.178 354.505 413.88 354.558 421.542Q339.681 421.722 324.805 421.517L324.855 447.998C333.662 448.002 342.506 447.847 351.304 448.253C351.589 455.36 351.41 462.64 351.117 469.75C342.431 470.577 333.306 470.059 324.57 470.022C324.42 478.041 324.656 486.103 324.716 494.125L324.835 500.039C334.39 500.226 343.955 500.079 353.514 500.245Q353.659 510.296 353.616 520.348L302.048 520.122Z"/>
	<path fill="#000300" d="M577.551 520.555C577.477 495.713 577.951 470.799 577.381 445.969Q576.961 430.508 576.384 415.052C576.195 409.62 575.717 404.061 576.019 398.636C576.999 398.838 577.818 399.129 578.651 399.711C583.888 403.372 588.713 409.352 593.29 413.878L624.484 444.713C632.749 435.657 641.808 427.286 650.591 418.738C657.677 411.842 664.706 404.29 672.542 398.277L671.754 522.591L649.961 522.659L649.97 500.021L650.021 451.802C641.176 459.323 632.579 467.531 624.673 476.028C616.323 467.979 608.348 458.598 600.939 449.661C601.02 473.294 600.567 496.929 600.758 520.56L577.551 520.555Z"/>
	<path fill="#000300" d="M701.207 498.839C711.372 500.384 721.583 498.837 731.762 499.238C733.171 499.294 733.344 499.217 734.269 500.212C733.68 507.164 733.964 514.345 734.145 521.315L733.904 521.925C731.111 523.487 686.765 522.501 679.527 522.483C679.337 481.523 679.002 440.513 679.424 399.556L734.607 399.445C735.01 406.763 734.7 414.207 734.605 421.533C723.605 421.634 712.498 421.707 701.515 421.083L701.617 447.127C712.266 447.062 722.91 447.048 733.55 446.545Q733.778 458.156 733.594 469.768Q717.5 469.425 701.406 469.772Q701.071 484.304 701.207 498.839Z"/>
	<path fill="#D9A14B" d="M525.117 497.395C518.339 497.756 512.07 496.982 506.235 493.147C498.307 487.937 493.533 478.921 491.841 469.765C489.686 458.101 491.74 445.577 498.658 435.809C503.606 428.823 509.819 424.557 518.317 423.117C525.118 422.361 531.542 423.983 537.225 427.774C544.979 432.946 549.682 441.752 551.322 450.764C553.339 461.847 552.096 474.877 545.496 484.297C540.369 491.615 533.95 495.877 525.117 497.395Z"/>
	<path fill="#D9A14B" d="M46.8377 478.747C50.6486 469.054 53.953 459.142 57.6603 449.401C61.7677 458.628 64.602 468.937 67.775 478.538C63.867 478.637 59.9477 478.613 56.038 478.647L46.8377 478.747Z"/>
	<path fill="#000300" d="M557.62 594.007C554.792 597.756 551.058 600.51 546.498 601.794C540.912 603.368 534.916 602.258 529.942 599.395Q529.391 599.074 528.857 598.725Q528.324 598.377 527.808 598.002Q527.292 597.628 526.796 597.228Q526.299 596.828 525.823 596.404Q525.348 595.979 524.894 595.532Q524.44 595.084 524.009 594.615Q523.578 594.145 523.171 593.654Q522.764 593.164 522.382 592.653Q522 592.143 521.644 591.614Q521.288 591.085 520.959 590.539Q520.63 589.993 520.329 589.432Q520.027 588.87 519.754 588.294Q519.482 587.718 519.238 587.129Q518.994 586.54 518.78 585.939Q518.566 585.339 518.383 584.728Q518.199 584.118 518.046 583.499C516.29 576.398 517.285 567.969 521.163 561.734C524.907 555.715 530.818 552.528 537.569 551.089C537.78 551.075 537.991 551.059 538.203 551.049C546.013 550.689 551.208 554.501 556.692 559.478C554.447 561.827 552.202 563.683 549.555 565.557C548.876 564.693 548.179 563.893 547.37 563.145C544.206 560.217 540.963 560.433 536.941 560.551C535.28 561.405 533.787 562.29 532.42 563.579C528.696 567.092 527.102 571.446 527.139 576.517C527.173 581.262 528.958 586.31 532.461 589.602C534.473 591.492 537.821 593.403 540.673 593.248C544.81 593.022 547.597 590.757 550.318 587.953L551.156 587.884C553.334 589.898 555.467 591.966 557.62 594.007Z"/>
	<path fill="#000300" d="M610.93 588.081C613.671 590.703 616.064 593.122 620.116 593.136C621.873 593.142 623.322 592.702 624.575 591.418C625.588 590.38 626.323 589.109 626.147 587.612C625.643 583.308 618.66 579.703 615.41 577.541C611.177 574.725 606.533 571.224 605.658 565.856C605.131 562.621 606.398 559.623 608.331 557.084C611.448 552.99 615.615 551.764 620.498 551.166L621.046 551.184C627.068 551.444 631.193 554.039 635.171 558.388L628.623 565.239C627.052 563.377 624.723 560.005 622.101 559.828C620.54 559.722 617.861 561.221 616.845 562.377C616.347 562.944 616.061 563.462 616.137 564.215C616.547 568.311 627.172 573.123 630.301 575.897C633.624 578.841 636.11 582.491 636.231 587.054C636.331 590.827 634.563 595.096 631.895 597.75C628.271 601.354 623.42 602.438 618.494 602.57C611.735 601.734 608.53 598.694 603.322 594.89C605.538 592.029 607.915 590.015 610.93 588.081Z"/>
	<path fill="#000300" d="M324.546 586.478C325.441 587.825 326.473 589.074 327.691 590.146C329.787 591.991 332.239 592.749 335.014 592.563C336.822 592.441 338.958 591.864 340.091 590.331C340.779 589.4 341.335 588.162 341.041 586.986C339.962 582.66 332.061 579.79 328.563 577.585C324.778 575.199 321.546 571.916 320.643 567.38C319.998 564.136 320.776 560.269 322.689 557.56C325.378 553.753 329.821 552.75 334.152 552.139C334.694 552.13 335.238 552.114 335.78 552.134C340.943 552.329 344.564 554.547 347.994 558.25C346.271 559.531 344.87 561.079 343.423 562.653C340.721 563.513 338.132 561.428 335.297 561.184C333.645 561.041 332.043 561.443 330.871 562.689C329.946 563.672 330.063 564.187 330.159 565.411C332.947 570.1 340.472 572.11 344.727 575.676C347.978 578.402 350.434 582.122 350.606 586.463C350.768 590.575 348.596 595.04 345.678 597.866C341.893 601.532 336.372 601.955 331.393 601.726C330.475 601.517 329.552 601.246 328.659 600.953C323.499 599.261 320.645 595.556 318.377 590.874L324.546 586.478Z"/>
	<path fill="#000300" d="M568.098 600.98Q568.009 576.463 568.187 551.947L594.786 552.104C594.91 555.232 594.83 558.384 594.82 561.515L577.519 561.541L577.531 571.048L593.425 570.991L593.473 579.621L577.849 579.562C577.635 581.526 577.59 583.523 577.487 585.497L577.502 591.837Q586.499 591.713 595.497 591.72L595.445 600.929L568.098 600.98Z"/>
	<path fill="#000300" d="M494.547 600.683Q494.296 576.938 494.508 553.192C497.629 553.148 500.75 553.274 503.869 553.363C504.036 569.097 503.884 584.846 503.865 600.583L494.547 600.683Z"/>
	<path fill="#000300" d="M363.429 600.863C363.451 585.044 363.049 569.221 363.327 553.404L390.949 553.287L390.903 561.908C385.044 562.063 379.164 562.012 373.302 562.053L373.305 570.895L388.325 570.952C388.407 574.07 388.324 577.203 388.294 580.322C383.922 580.38 377.058 578.686 373.421 581.081C372.461 582.547 372.817 584.447 372.904 586.125L372.935 591.747L390.578 591.657L390.53 600.806Q376.98 600.977 363.429 600.863Z"/>
	<path fill="#000300" d="M403.538 600.951L403.517 553.403C410.177 553.265 418.693 552.282 425.078 554.346C428.325 555.396 431.207 557.541 432.624 560.709C434.17 564.169 433.986 568.595 432.622 572.08C430.879 576.534 428.378 578.193 424.24 580.066C427.722 587.355 432.254 594.333 436.334 601.308C433.14 601.347 429.911 601.13 426.717 601.013C422.393 594.57 418.699 587.275 413.717 581.364C413.39 587.864 413.488 594.434 413.41 600.944L403.538 600.951ZM413.646 561.647Q413.502 567.469 413.548 573.292C416.803 573.456 419.155 573.491 422.11 571.875C423.2 570.251 424.145 568.554 423.762 566.515C423.425 564.721 421.962 563.519 420.419 562.743C418.314 561.684 415.962 561.561 413.646 561.647Z"/>
	<path fill="#000300" d="M463.698 603.676C460.995 598.34 458.984 592.539 456.563 587.056C452.496 577.844 444.712 563.095 442.812 553.616C446.023 553.497 449.254 553.528 452.468 553.489C455.198 562.7 459.343 572.695 463.71 581.24C467.311 571.885 470.937 562.59 474.913 553.386L484.803 553.306Q481.593 561.954 477.813 570.368C472.877 581.333 469.164 592.984 463.698 603.676Z"/>
	<path fill="#D9A14B" d="M413.548 573.292Q413.502 567.469 413.646 561.647C415.962 561.561 418.314 561.684 420.419 562.743C421.962 563.519 423.425 564.721 423.762 566.515C424.145 568.554 423.2 570.251 422.11 571.875C419.155 573.491 416.803 573.456 413.548 573.292Z"/>
	<path fill="#000300" d="M0 570.533L209.72 571.574C236.088 571.643 262.5 572.428 288.865 571.908L288.891 585.526L164.708 584.854L124.545 584.691C118.293 584.71 111.735 584.363 105.526 584.923C94.9215 583.709 81.2175 584.582 70.216 584.556C47.6391 584.504 25.0476 584.293 2.47205 584.539L0 584.436L0 570.533Z"/>
	<path fill="#000300" d="M686.795 586.19C681.735 586.142 676.447 585.81 671.421 586.442C668.203 586.146 664.728 586.391 661.483 586.368C661.318 581.148 661.409 575.925 661.457 570.704C670.839 570.402 680.346 570.794 689.739 570.846Q711.178 571.02 732.612 570.523C732.686 575.782 732.56 581.061 732.522 586.321L690.585 586.146L686.795 586.19Z"/>
	<path fill="#264E85" d="M549.638 637.673Q621.848 633.643 693.998 628.654L733.247 626.385C741.193 625.899 749.408 624.911 757.357 625.128C773.617 625.756 929.553 633.578 931.447 634.618Q910.993 655.602 890.926 676.957Q917.473 677.126 944.016 677.642C945.29 679.444 946.626 681.226 947.841 683.067C943.664 687.713 939.3 692.315 935.831 697.53C940.383 702.754 945.048 707.914 949.482 713.236C944.306 718.867 939.102 724.664 934.393 730.689L948.987 747.423C943.788 753.054 938.334 758.591 933.487 764.525L977.157 764.499C975.671 735.772 972.885 707.015 971.93 678.272Q983.163 678.106 994.398 678.145L994.509 649.502C1004.39 645.408 1014.15 641.059 1024 636.887L1024 1024L0 1024L0 668.979C64.3344 666.257 128.633 661.823 192.952 658.631L266.53 654.644C277.716 654.037 289.89 654.52 300.894 652.587L301.597 652.736L472.017 642.768Q499.724 641.306 527.389 639.182C534.441 638.654 541.923 638.766 548.862 637.595L549.638 637.673Z"/>
</svg>
