<?xml version="1.0" encoding="utf-8" ?>
<svg xmlns="http://www.w3.org/2000/svg" xmlns:xlink="http://www.w3.org/1999/xlink" width="1024" height="1024">
	<path fill="#248CA0" d="M0 0L1024 0L1024 1024L0 1024L0 0ZM85.5554 336.055L85.5978 463.855C85.5775 484.223 86.2799 504.935 85.2908 525.268C84.5558 531.041 84.957 537.142 85.1337 542.955C85.4285 547.99 85.5677 553.138 85.2371 558.178C84.888 563.476 83.6675 580.442 86.9252 584.211C92.7277 590.925 114.972 579.213 126.587 596.618C129.443 600.898 130.842 605.767 131.053 610.875C131.401 619.292 130.993 627.821 130.984 636.254L130.898 690.627C130.882 701.085 129.55 713.627 132.102 723.763C133.53 729.434 136.779 734.268 141.025 738.227Q141.553 738.724 142.106 739.194Q142.659 739.664 143.235 740.105Q143.812 740.546 144.409 740.957Q145.007 741.369 145.625 741.749Q146.243 742.129 146.88 742.477Q147.517 742.825 148.17 743.14Q148.824 743.456 149.493 743.737Q150.161 744.019 150.844 744.266Q151.526 744.513 152.22 744.725Q152.914 744.937 153.618 745.114Q154.321 745.29 155.033 745.43Q155.745 745.571 156.463 745.675Q157.182 745.778 157.904 745.846Q158.627 745.913 159.352 745.943Q160.077 745.973 160.802 745.966Q161.528 745.96 162.252 745.916C170.568 745.43 178.122 740.488 183.43 734.285C187.136 729.955 188.896 724.972 189.855 719.431C191.567 709.546 190.588 698.345 190.574 688.28L190.448 632.427C190.429 622.485 189.046 610.845 193.023 601.499C197.014 592.122 204.859 587.201 214.842 586.303C222.896 585.579 231.063 586.832 239.081 585.538C238.897 576.507 239.486 567.018 238.749 558.048C238.785 552.888 238.894 547.72 238.593 542.567C238.404 537.112 238.581 531.584 238.58 526.122C238.3 499.154 238.561 472.158 238.562 445.187L238.564 335.933L85.5554 336.055ZM252.944 335.978L252.915 478.336C252.958 515.839 253.612 553.45 252.727 590.939L702.24 591.066L847.898 591.133C874.166 591.157 900.697 591.94 926.939 590.972L926.695 335.967L430.766 336.366L303.458 336.451L270.91 336.485C265.207 336.492 258.51 337.11 252.944 335.978Z"/>
	<path fill="#F4F2D8" d="M85.2908 525.268C86.2799 504.935 85.5775 484.223 85.5978 463.855L85.5554 336.055L238.564 335.933L238.562 445.187C238.561 472.158 238.3 499.154 238.58 526.122C229.356 524.432 209.178 525.529 199.089 525.496L125.394 525.451C112.064 525.45 98.6057 525.835 85.2908 525.268ZM157.769 371.592C150.874 372.988 145.241 375.821 141.35 381.961Q141.043 382.456 140.761 382.965Q140.48 383.475 140.224 383.998Q139.969 384.522 139.74 385.057Q139.511 385.593 139.31 386.139Q139.108 386.686 138.935 387.241Q138.761 387.797 138.616 388.361Q138.471 388.925 138.354 389.496Q138.238 390.066 138.151 390.642Q138.063 391.218 138.005 391.797Q137.947 392.377 137.918 392.958Q137.889 393.54 137.889 394.122Q137.89 394.705 137.92 395.286Q137.95 395.868 138.009 396.447Q138.069 397.026 138.157 397.602Q138.246 398.178 138.363 398.748Q138.481 399.318 138.627 399.882Q138.767 400.411 138.933 400.932Q139.099 401.454 139.29 401.967Q139.481 402.479 139.697 402.982Q139.913 403.485 140.154 403.976Q140.394 404.468 140.658 404.947Q140.923 405.426 141.21 405.892Q141.497 406.357 141.807 406.809Q142.117 407.26 142.449 407.695Q142.78 408.13 143.133 408.549Q143.485 408.967 143.858 409.368Q144.23 409.769 144.622 410.151Q145.014 410.533 145.424 410.895Q145.834 411.257 146.261 411.599Q146.689 411.941 147.132 412.261Q147.576 412.582 148.035 412.88Q148.493 413.178 148.966 413.454C153.523 416.083 158.175 416.652 163.31 416.317C170.177 414.358 175.755 411.384 179.303 404.84Q179.588 404.316 179.846 403.778Q180.104 403.24 180.334 402.69Q180.565 402.14 180.767 401.579Q180.969 401.017 181.142 400.447Q181.315 399.876 181.459 399.297Q181.603 398.718 181.717 398.133Q181.831 397.547 181.916 396.957Q182 396.366 182.054 395.772Q182.108 395.178 182.132 394.582Q182.156 393.986 182.149 393.389Q182.143 392.793 182.106 392.198Q182.069 391.602 182.002 391.01Q181.935 390.417 181.838 389.828Q181.741 389.24 181.614 388.657Q181.487 388.074 181.33 387.499Q181.174 386.923 180.988 386.356Q180.823 385.839 180.631 385.33Q180.44 384.822 180.223 384.324Q180.007 383.826 179.765 383.34Q179.523 382.853 179.257 382.38Q178.991 381.906 178.702 381.447Q178.412 380.987 178.1 380.543Q177.787 380.099 177.453 379.671Q177.118 379.243 176.762 378.833Q176.406 378.422 176.03 378.03Q175.654 377.639 175.259 377.266Q174.863 376.894 174.45 376.542Q174.036 376.19 173.605 375.86Q173.174 375.53 172.727 375.221Q172.279 374.913 171.817 374.628Q171.355 374.343 170.879 374.081Q170.403 373.82 169.914 373.583C166.071 371.745 161.989 371.128 157.769 371.592Z"/>
	<path fill="#F4F2D8" d="M252.727 590.939C253.612 553.45 252.958 515.839 252.915 478.336L252.944 335.978C258.51 337.11 265.207 336.492 270.91 336.485L303.458 336.451L430.766 336.366L926.695 335.967L926.939 590.972C900.697 591.94 874.166 591.157 847.898 591.133L702.24 591.066L252.727 590.939ZM364.76 464.58C364.692 461.595 364.758 458.666 364.932 455.685L339.292 455.717L339.012 438.215C349.137 438.306 359.28 438.286 369.403 438.494L369.257 428.52L328.636 428.49C328.59 451.927 328.439 475.378 328.695 498.814C342.601 499.016 356.5 498.481 370.405 498.881C370.619 495.543 370.937 492.174 371 488.832C360.43 488.754 349.798 488.436 339.237 488.904Q339.201 477.067 338.978 465.232C345.656 466.354 353.797 465.635 360.622 465.548C362.271 465.527 363.584 465.797 364.76 464.58ZM881.876 357.582C876.737 358.903 872.467 361.09 869.727 365.878C867.483 369.8 866.89 374.667 868.276 378.984Q868.411 379.404 868.568 379.816Q868.725 380.228 868.904 380.631Q869.082 381.034 869.282 381.428Q869.481 381.821 869.701 382.204Q869.92 382.586 870.16 382.956Q870.399 383.327 870.658 383.684Q870.916 384.041 871.193 384.385Q871.47 384.728 871.765 385.056Q872.059 385.384 872.37 385.697Q872.682 386.009 873.009 386.305Q873.336 386.6 873.679 386.878Q874.021 387.157 874.377 387.416Q874.734 387.676 875.103 387.917Q875.473 388.158 875.854 388.379Q876.236 388.6 876.629 388.8Q877.021 389.001 877.424 389.181C880.499 390.568 883.893 391.045 887.238 390.798C892.401 389.534 896.708 387.532 899.506 382.722C901.865 378.666 902.254 373.682 900.93 369.218Q900.696 368.421 900.385 367.651Q900.074 366.881 899.689 366.146Q899.304 365.411 898.848 364.717Q898.392 364.023 897.869 363.377Q897.347 362.731 896.764 362.14Q896.181 361.549 895.542 361.018Q894.904 360.488 894.216 360.023Q893.528 359.557 892.798 359.162C889.104 357.201 885.888 357.237 881.876 357.582ZM901.27 416.095C898.124 416.965 895.566 418.074 893.837 421.002Q893.586 421.417 893.381 421.858Q893.177 422.298 893.021 422.757Q892.865 423.217 892.759 423.691Q892.654 424.164 892.6 424.647Q892.547 425.129 892.545 425.614Q892.544 426.1 892.595 426.582Q892.646 427.065 892.749 427.539Q892.852 428.014 893.005 428.474C893.99 431.444 896.333 433.429 899.128 434.667C900.365 435.215 901.464 435.395 902.8 435.538C906.063 434.741 908.494 433.61 910.223 430.577Q910.47 430.148 910.673 429.697Q910.875 429.245 911.03 428.775Q911.185 428.305 911.291 427.821Q911.397 427.338 911.453 426.846Q911.509 426.354 911.514 425.859Q911.52 425.364 911.474 424.871Q911.429 424.379 911.333 423.893Q911.238 423.407 911.093 422.934Q910.946 422.473 910.753 422.028Q910.561 421.584 910.324 421.162Q910.087 420.74 909.808 420.343Q909.529 419.947 909.212 419.582Q908.894 419.216 908.541 418.885Q908.188 418.553 907.804 418.259Q907.419 417.965 907.006 417.712Q906.593 417.458 906.157 417.248C904.588 416.481 902.986 416.278 901.27 416.095ZM721.306 426.773C720.684 434.594 721.365 442.826 721.432 450.684L721.519 495.894L729.865 495.877C730.202 480.207 729.823 464.529 730.099 448.862C736.091 455.19 742.067 461.927 748.718 467.577C754.658 461.773 759.908 454.589 766.403 449.475L766.459 469.25L766.507 495.923L775.891 495.885L776.048 449.532C776.071 442.725 776.948 434.584 775.817 427.936L775.092 427.706C768.201 431.675 756.449 448.287 748.489 454.48C741.28 447.636 734.644 440.12 727.632 433.06C725.648 431.062 723.573 428.378 721.306 426.773ZM685.058 427.202C679.564 440.943 674.257 454.776 668.646 468.469C665.033 477.287 660.177 486.77 657.872 495.954L667.436 496.118L670.955 485.414L687.655 485.362C691.836 485.267 696.031 485.244 700.208 485.06C702.382 488.447 703.824 492.144 705.361 495.847L713.614 496.029C710.663 487.241 689.205 430.652 685.058 427.202ZM420.676 428.2C419.251 442.339 420.822 457.957 420.509 472.296C414.948 467.454 410.564 460.605 405.86 454.903Q394.217 440.669 381.118 427.762C381.77 435.713 381.508 443.797 381.521 451.773C381.545 466.974 381.374 482.197 381.594 497.395L389.125 497.482L390.774 497.442C392.427 495.571 391.441 460.562 391.415 455.242C404.567 468.965 416.067 484.224 429.944 497.196C430.987 487.35 430.458 477.162 430.373 467.265L430.186 428.489C427.039 428.421 423.808 428.487 420.676 428.2ZM813.876 427.638C813.949 450.406 814.192 473.2 813.956 495.966L823.565 495.961L823.67 468.967C823.657 463.502 823.326 457.835 823.845 452.404C836.358 467.143 848.306 482.363 860.772 497.145C862.471 494.723 861.508 438.069 861.511 429.473L851.931 429.511Q851.763 450.519 851.821 471.528C845.875 464.857 818.346 429.93 813.876 427.638ZM270.029 428.473L269.969 498.93C282.834 498.864 301.261 501.418 310.889 491.517Q311.562 490.819 312.199 490.088C315.885 484.704 318.059 479.29 316.77 472.633C315.426 465.689 310.507 460.906 304.795 457.226L304.261 456.888C306.874 451.929 309.095 446.338 307.494 440.662C306.323 436.509 303.105 433.288 299.325 431.366C291.156 427.211 278.962 428.489 270.029 428.473ZM575.404 428.401C574.334 436.077 575.058 444.573 575.116 452.35L575.44 497.505L584.171 497.463C584.432 482.316 583.338 466.284 584.475 451.261C587.663 457.946 615.675 489.918 622.133 496.642C623.521 491.504 622.53 481.055 622.517 475.365L622.511 429.463L613.813 429.423Q613.62 451.719 613.715 474.016Q602.787 461.488 592.23 448.647C587.816 443.216 580.494 432.216 575.404 428.401ZM470.698 429.572C468.97 438.899 470.017 454.721 470.008 464.591C469.999 475.418 469.166 487.035 470.247 497.783C482.828 498.017 499.484 500.689 509.239 491.387C509.721 490.928 510.182 490.462 510.624 489.964C514.6 484.673 516.728 479.513 515.698 472.736C514.781 466.7 511.462 460.772 506.381 457.287C505.473 456.665 504.521 456.107 503.569 455.556C506.475 451.397 508.34 446.619 507.361 441.481C506.621 437.602 504.405 434.347 501.048 432.266C493.761 427.75 479.198 429.485 470.698 429.572ZM640.816 429.556C639.76 443.525 640.598 458.053 640.615 472.075C640.622 477.822 641.126 484.119 640.086 489.785C639.651 492.152 639.053 494.012 637.216 495.64C635.614 497.06 633.775 497.427 631.689 497.197Q629.844 496.993 628.045 496.537C627.075 498.452 625.85 500.262 626.022 502.469C626.697 503.712 627.071 504.337 628.46 504.826C629.999 505.369 631.819 505.683 633.44 505.872C638.34 505.36 642.756 503.591 645.877 499.607C648.037 496.849 648.919 493.681 649.437 490.276C650.615 482.54 650.018 474.095 650.012 466.26C650.002 453.99 650.108 441.704 649.947 429.436C646.907 429.446 643.852 429.389 640.816 429.556ZM789.985 429.48L790.068 496.031L799.61 496.079C799.69 473.978 800.23 451.74 799.555 429.656C796.366 429.562 793.176 429.437 789.985 429.48ZM527.52 430.248C526.538 431.053 526.553 431.067 526.455 432.389C525.941 439.352 525.376 493.093 527.546 496.165C533.003 498.784 556.735 497.547 563.894 497.374L563.962 489.38C554.396 489.265 544.8 488.989 535.236 489.202L535.131 473.544L535.154 464.688L561.283 464.613L561.346 455.823L535.286 455.776C535.251 450.177 535.102 444.553 535.301 438.957C544.701 438.949 554.13 439.099 563.526 438.863L563.519 430.144C551.579 430.033 539.432 429.571 527.52 430.248Z"/>
	<path fill="#248CA0" d="M887.238 390.798C883.893 391.045 880.499 390.568 877.424 389.181Q877.021 389.001 876.629 388.8Q876.236 388.6 875.854 388.379Q875.473 388.158 875.103 387.917Q874.734 387.676 874.377 387.416Q874.021 387.157 873.679 386.878Q873.336 386.6 873.009 386.305Q872.682 386.009 872.37 385.697Q872.059 385.384 871.765 385.056Q871.47 384.728 871.193 384.385Q870.916 384.041 870.658 383.684Q870.399 383.327 870.16 382.956Q869.92 382.586 869.701 382.204Q869.481 381.821 869.282 381.428Q869.082 381.034 868.904 380.631Q868.725 380.228 868.568 379.816Q868.411 379.404 868.276 378.984C866.89 374.667 867.483 369.8 869.727 365.878C872.467 361.09 876.737 358.903 881.876 357.582C885.888 357.237 889.104 357.201 892.798 359.162Q893.528 359.557 894.216 360.022Q894.904 360.488 895.542 361.018Q896.181 361.549 896.764 362.14Q897.347 362.731 897.87 363.377Q898.392 364.023 898.848 364.717Q899.304 365.411 899.689 366.146Q900.074 366.881 900.385 367.651Q900.696 368.421 900.93 369.218C902.254 373.682 901.865 378.666 899.506 382.722C896.708 387.532 892.401 389.534 887.238 390.798Z"/>
	<path fill="#248CA0" d="M163.31 416.317C158.175 416.652 153.523 416.083 148.966 413.454Q148.493 413.178 148.035 412.88Q147.576 412.582 147.132 412.261Q146.689 411.941 146.261 411.599Q145.834 411.257 145.424 410.895Q145.014 410.533 144.622 410.151Q144.23 409.769 143.858 409.368Q143.485 408.967 143.133 408.549Q142.78 408.13 142.449 407.695Q142.117 407.26 141.807 406.809Q141.497 406.357 141.21 405.892Q140.923 405.426 140.658 404.947Q140.394 404.468 140.154 403.976Q139.913 403.485 139.697 402.982Q139.481 402.479 139.29 401.967Q139.099 401.454 138.933 400.932Q138.767 400.411 138.627 399.882Q138.481 399.318 138.363 398.748Q138.246 398.178 138.157 397.602Q138.069 397.026 138.009 396.447Q137.95 395.868 137.92 395.286Q137.89 394.705 137.889 394.122Q137.889 393.54 137.918 392.958Q137.947 392.377 138.005 391.797Q138.063 391.218 138.151 390.642Q138.238 390.066 138.354 389.496Q138.471 388.925 138.616 388.361Q138.761 387.797 138.935 387.241Q139.108 386.686 139.31 386.139Q139.511 385.593 139.74 385.057Q139.969 384.522 140.224 383.998Q140.48 383.475 140.761 382.965Q141.043 382.456 141.35 381.961C145.241 375.821 150.874 372.988 157.769 371.592C161.989 371.128 166.071 371.745 169.914 373.583Q170.403 373.82 170.879 374.081Q171.355 374.343 171.817 374.628Q172.279 374.913 172.727 375.221Q173.174 375.53 173.605 375.86Q174.036 376.19 174.45 376.542Q174.863 376.894 175.259 377.266Q175.654 377.639 176.03 378.03Q176.406 378.422 176.762 378.833Q177.118 379.243 177.453 379.671Q177.787 380.099 178.1 380.543Q178.412 380.987 178.702 381.447Q178.991 381.906 179.257 382.38Q179.523 382.853 179.765 383.34Q180.007 383.826 180.223 384.324Q180.44 384.822 180.631 385.33Q180.823 385.839 180.988 386.356Q181.174 386.923 181.33 387.499Q181.487 388.074 181.614 388.657Q181.741 389.24 181.838 389.828Q181.935 390.417 182.002 391.01Q182.069 391.602 182.106 392.198Q182.143 392.793 182.149 393.389Q182.156 393.986 182.132 394.582Q182.108 395.178 182.054 395.772Q182 396.366 181.916 396.957Q181.831 397.547 181.717 398.133Q181.603 398.718 181.459 399.297Q181.315 399.876 181.142 400.447Q180.969 401.017 180.767 401.579Q180.565 402.14 180.334 402.69Q180.104 403.24 179.846 403.778Q179.588 404.316 179.303 404.84C175.755 411.384 170.177 414.358 163.31 416.317Z"/>
	<path fill="#248CA0" d="M902.8 435.538C901.464 435.395 900.365 435.215 899.128 434.667C896.333 433.429 893.99 431.444 893.005 428.474Q892.852 428.014 892.749 427.539Q892.646 427.065 892.595 426.582Q892.544 426.1 892.545 425.614Q892.547 425.129 892.6 424.647Q892.654 424.164 892.759 423.691Q892.865 423.217 893.021 422.757Q893.177 422.298 893.381 421.858Q893.586 421.417 893.837 421.002C895.566 418.074 898.124 416.965 901.27 416.095C902.986 416.278 904.588 416.481 906.157 417.248Q906.593 417.458 907.006 417.712Q907.419 417.965 907.804 418.259Q908.188 418.553 908.541 418.884Q908.894 419.216 909.212 419.582Q909.529 419.947 909.808 420.344Q910.087 420.74 910.324 421.162Q910.561 421.584 910.753 422.028Q910.946 422.473 911.093 422.934Q911.238 423.407 911.333 423.893Q911.429 424.379 911.474 424.872Q911.52 425.364 911.514 425.859Q911.509 426.354 911.453 426.846Q911.397 427.338 911.291 427.821Q911.185 428.305 911.03 428.775Q910.875 429.245 910.673 429.697Q910.47 430.148 910.223 430.577C908.494 433.61 906.063 434.741 902.8 435.538Z"/>
	<path fill="#248CA0" d="M721.519 495.894L721.432 450.684C721.365 442.826 720.684 434.594 721.306 426.773C723.573 428.378 725.648 431.062 727.632 433.06C734.644 440.12 741.28 447.636 748.489 454.48C756.449 448.287 768.201 431.675 775.092 427.706L775.817 427.936C776.948 434.584 776.071 442.725 776.048 449.532L775.891 495.885L766.507 495.923L766.459 469.25L766.403 449.475C759.908 454.589 754.658 461.773 748.718 467.577C742.067 461.927 736.091 455.19 730.099 448.862C729.823 464.529 730.202 480.207 729.865 495.877L721.519 495.894Z"/>
	<path fill="#248CA0" d="M657.872 495.954C660.177 486.77 665.033 477.287 668.646 468.469C674.257 454.776 679.564 440.943 685.058 427.202C689.205 430.652 710.663 487.241 713.614 496.029L705.361 495.847C703.824 492.144 702.382 488.447 700.208 485.06C696.031 485.244 691.836 485.267 687.655 485.362L670.955 485.414L667.436 496.118L657.872 495.954ZM685.522 450.298C681.982 458.938 677.719 467.663 674.852 476.533L686.625 476.529L696.134 476.459C693.549 469.122 689.908 456.417 685.522 450.298Z"/>
	<path fill="#FBAF33" d="M420.509 472.296C420.822 457.957 419.251 442.339 420.676 428.2C423.808 428.487 427.039 428.421 430.186 428.489L430.373 467.265C430.458 477.162 430.987 487.35 429.944 497.196C416.067 484.224 404.567 468.965 391.415 455.242C391.441 460.562 392.427 495.571 390.774 497.442L389.125 497.482L381.594 497.395C381.374 482.197 381.545 466.974 381.521 451.773C381.508 443.797 381.77 435.713 381.118 427.762Q394.217 440.669 405.86 454.903C410.564 460.605 414.948 467.454 420.509 472.296Z"/>
	<path fill="#248CA0" d="M813.956 495.966C814.192 473.2 813.949 450.406 813.876 427.638C818.346 429.93 845.875 464.857 851.821 471.528Q851.763 450.519 851.931 429.511L861.511 429.473C861.508 438.069 862.471 494.723 860.772 497.145C848.306 482.363 836.358 467.143 823.845 452.404C823.326 457.835 823.657 463.502 823.67 468.967L823.565 495.961L813.956 495.966Z"/>
	<path fill="#FBAF33" d="M269.969 498.93L270.029 428.473C278.962 428.489 291.156 427.211 299.325 431.366C303.105 433.288 306.323 436.509 307.494 440.662C309.095 446.338 306.874 451.929 304.261 456.888L304.795 457.226C310.507 460.906 315.426 465.689 316.77 472.633C318.059 479.29 315.885 484.704 312.199 490.088Q311.562 490.819 310.889 491.517C301.261 501.418 282.834 498.864 269.969 498.93ZM280.485 438.078C279.451 443.31 279.985 449.193 280.089 454.513C285.355 454.856 290.427 455.157 295.3 452.721C297.148 450.717 298.745 448.106 298.621 445.266C298.541 443.421 297.547 442.014 296.155 440.872C291.654 437.18 285.901 437.674 280.485 438.078ZM280.357 464.613Q280.492 476.782 280.153 488.946C287.55 488.899 296.363 489.912 302.764 485.577C305.115 483.039 306.692 480.368 306.598 476.789C306.519 473.748 305.141 470.348 302.917 468.25C297.682 463.311 287.006 464.571 280.357 464.613Z"/>
	<path fill="#FBAF33" d="M364.932 455.685C364.758 458.666 364.692 461.595 364.76 464.58C363.584 465.797 362.271 465.527 360.622 465.548C353.797 465.635 345.656 466.354 338.978 465.232Q339.201 477.067 339.237 488.904C349.798 488.436 360.43 488.754 371 488.832C370.937 492.174 370.619 495.543 370.405 498.881C356.5 498.481 342.601 499.016 328.695 498.814C328.439 475.378 328.59 451.927 328.636 428.49L369.257 428.52L369.403 438.494C359.28 438.286 349.137 438.306 339.012 438.215L339.292 455.717L364.932 455.685Z"/>
	<path fill="#248CA0" d="M575.44 497.505L575.116 452.35C575.058 444.573 574.334 436.077 575.404 428.401C580.494 432.216 587.816 443.216 592.23 448.647Q602.787 461.488 613.715 474.016Q613.621 451.719 613.813 429.423L622.511 429.463L622.517 475.365C622.53 481.055 623.521 491.504 622.133 496.642C615.675 489.918 587.663 457.946 584.475 451.261C583.338 466.284 584.432 482.316 584.171 497.463L575.44 497.505Z"/>
	<path fill="#248CA0" d="M470.247 497.783C469.166 487.035 469.999 475.418 470.008 464.591C470.017 454.721 468.97 438.899 470.698 429.572C479.198 429.485 493.761 427.75 501.048 432.266C504.405 434.347 506.621 437.602 507.361 441.481C508.34 446.619 506.475 451.397 503.569 455.556C504.521 456.107 505.473 456.665 506.381 457.287C511.462 460.772 514.781 466.7 515.698 472.736C516.728 479.513 514.6 484.673 510.624 489.964C510.182 490.462 509.721 490.928 509.239 491.387C499.484 500.689 482.828 498.017 470.247 497.783ZM478.275 438.496C478.257 442.993 478.176 447.5 478.238 451.997C483.775 452.064 492.557 453.385 497.043 449.929C498.521 448.287 499.761 446.686 499.746 444.359C499.738 442.963 499.074 441.998 498.063 441.107C493.692 437.256 483.863 438.398 478.275 438.496ZM478.049 460.558C478.048 470.458 477.926 480.374 478.08 490.273C486.755 490.337 495.617 491.589 502.835 485.735C505.717 482.695 507.429 479.999 507.267 475.705C507.107 471.479 505.733 467.005 502.464 464.148C496.405 458.852 485.58 460.617 478.049 460.558Z"/>
	<path fill="#248CA0" d="M628.045 496.537Q629.844 496.993 631.689 497.197C633.775 497.427 635.614 497.06 637.216 495.64C639.053 494.012 639.651 492.152 640.086 489.785C641.126 484.119 640.622 477.822 640.615 472.075C640.598 458.053 639.76 443.525 640.816 429.556C643.852 429.389 646.907 429.446 649.947 429.436C650.108 441.704 650.002 453.99 650.012 466.26C650.018 474.095 650.615 482.54 649.437 490.276C648.919 493.681 648.037 496.849 645.877 499.607C642.756 503.591 638.34 505.36 633.44 505.872C631.819 505.683 629.999 505.369 628.46 504.826C627.071 504.337 626.697 503.712 626.022 502.469C625.85 500.262 627.075 498.452 628.045 496.537Z"/>
	<path fill="#248CA0" d="M790.068 496.031L789.985 429.48C793.176 429.437 796.366 429.562 799.555 429.656C800.23 451.74 799.69 473.978 799.61 496.079L790.068 496.031Z"/>
	<path fill="#248CA0" d="M563.894 497.374C556.735 497.547 533.003 498.784 527.546 496.165C525.376 493.093 525.941 439.352 526.455 432.389C526.553 431.067 526.538 431.053 527.52 430.248C539.432 429.571 551.579 430.033 563.519 430.144L563.526 438.863C554.13 439.099 544.701 438.949 535.301 438.957C535.102 444.553 535.251 450.177 535.286 455.776L561.346 455.823L561.283 464.613L535.154 464.688L535.131 473.544L535.236 489.202C544.8 488.989 554.396 489.265 563.962 489.38L563.894 497.374Z"/>
	<path fill="#F4F2D8" d="M280.089 454.513C279.985 449.193 279.451 443.31 280.485 438.078C285.901 437.674 291.654 437.18 296.155 440.872C297.547 442.014 298.541 443.421 298.621 445.266C298.745 448.106 297.148 450.717 295.3 452.721C290.427 455.157 285.355 454.856 280.089 454.513Z"/>
	<path fill="#F4F2D8" d="M478.238 451.997C478.176 447.5 478.257 442.993 478.275 438.496C483.863 438.398 493.692 437.256 498.063 441.107C499.074 441.998 499.738 442.963 499.746 444.359C499.761 446.686 498.521 448.287 497.043 449.929C492.557 453.385 483.775 452.064 478.238 451.997Z"/>
	<path fill="#F4F2D8" d="M674.852 476.533C677.719 467.663 681.982 458.938 685.522 450.298C689.908 456.417 693.549 469.122 696.134 476.459L686.625 476.529L674.852 476.533Z"/>
	<path fill="#F4F2D8" d="M478.08 490.273C477.926 480.374 478.048 470.458 478.049 460.558C485.58 460.617 496.405 458.852 502.464 464.148C505.733 467.005 507.107 471.479 507.267 475.705C507.429 479.999 505.717 482.695 502.835 485.735C495.617 491.589 486.755 490.337 478.08 490.273Z"/>
	<path fill="#F4F2D8" d="M280.153 488.946Q280.492 476.782 280.357 464.613C287.006 464.571 297.682 463.311 302.917 468.25C305.141 470.348 306.519 473.748 306.598 476.789C306.692 480.368 305.115 483.039 302.764 485.577C296.363 489.912 287.55 488.899 280.153 488.946Z"/>
	<path fill="#FBAF33" d="M85.2908 525.268C98.6057 525.835 112.064 525.45 125.394 525.451L199.089 525.496C209.178 525.529 229.356 524.432 238.58 526.122C238.581 531.584 238.404 537.112 238.593 542.567L85.1337 542.955C84.957 537.142 84.5558 531.041 85.2908 525.268Z"/>
	<path fill="#F4F2D8" d="M85.1337 542.955L238.593 542.567C238.894 547.72 238.785 552.888 238.749 558.048C187.599 557.185 136.394 558.654 85.2371 558.178C85.5677 553.138 85.4285 547.99 85.1337 542.955Z"/>
	<path fill="#FBAF33" d="M85.2371 558.178C136.394 558.654 187.599 557.185 238.749 558.048C239.486 567.018 238.897 576.507 239.081 585.538C231.063 586.832 222.896 585.579 214.842 586.303C204.859 587.201 197.014 592.122 193.023 601.499C189.046 610.845 190.429 622.485 190.448 632.427L190.574 688.28C190.588 698.345 191.567 709.546 189.855 719.431C188.896 724.972 187.136 729.955 183.43 734.285C178.122 740.488 170.568 745.43 162.252 745.916Q161.528 745.96 160.802 745.966Q160.077 745.973 159.352 745.943Q158.627 745.913 157.904 745.846Q157.182 745.778 156.463 745.675Q155.745 745.571 155.033 745.43Q154.321 745.29 153.618 745.114Q152.914 744.937 152.22 744.725Q151.526 744.513 150.844 744.266Q150.161 744.019 149.493 743.737Q148.824 743.456 148.17 743.14Q147.517 742.825 146.88 742.477Q146.243 742.129 145.625 741.749Q145.007 741.369 144.409 740.957Q143.812 740.546 143.235 740.105Q142.659 739.664 142.106 739.194Q141.553 738.724 141.025 738.227C136.779 734.268 133.53 729.434 132.102 723.763C129.55 713.627 130.882 701.085 130.898 690.627L130.984 636.254C130.993 627.821 131.401 619.292 131.053 610.875C130.842 605.767 129.443 600.898 126.587 596.618C114.972 579.213 92.7277 590.925 86.9252 584.211C83.6675 580.442 84.888 563.476 85.2371 558.178ZM158.105 697.095C154.378 698.752 151.319 700.635 149.746 704.627C148.498 707.794 148.748 711.472 150.115 714.559Q150.38 715.165 150.706 715.739Q151.033 716.314 151.418 716.851Q151.803 717.388 152.242 717.882Q152.681 718.376 153.169 718.822Q153.658 719.267 154.19 719.659Q154.722 720.051 155.292 720.385Q155.863 720.719 156.465 720.992Q157.067 721.265 157.694 721.473C160.01 722.239 162.474 722.02 164.873 721.918C167.745 720.984 170.347 718.442 171.781 715.806C173.5 712.646 173.643 708.531 172.434 705.177Q172.22 704.573 171.944 703.994Q171.668 703.416 171.334 702.869Q170.999 702.322 170.61 701.813Q170.221 701.303 169.781 700.837Q169.341 700.371 168.856 699.953Q168.37 699.534 167.843 699.169Q167.317 698.803 166.755 698.494Q166.194 698.185 165.603 697.936C163.104 696.903 160.76 696.923 158.105 697.095Z"/>
	<path fill="#248CA0" d="M164.873 721.918C162.474 722.02 160.01 722.239 157.694 721.473Q157.067 721.265 156.465 720.992Q155.863 720.719 155.292 720.385Q154.722 720.051 154.19 719.659Q153.658 719.267 153.169 718.822Q152.681 718.376 152.242 717.882Q151.803 717.388 151.418 716.851Q151.033 716.314 150.706 715.739Q150.38 715.165 150.115 714.559C148.748 711.472 148.498 707.794 149.746 704.627C151.319 700.635 154.378 698.752 158.105 697.095C160.76 696.923 163.104 696.903 165.603 697.936Q166.194 698.185 166.755 698.494Q167.317 698.803 167.843 699.169Q168.37 699.534 168.856 699.953Q169.341 700.371 169.781 700.837Q170.221 701.303 170.61 701.812Q170.999 702.322 171.334 702.869Q171.668 703.416 171.944 703.994Q172.22 704.573 172.434 705.177C173.643 708.531 173.5 712.646 171.781 715.806C170.347 718.442 167.745 720.984 164.873 721.918Z"/>
</svg>
