<?xml version="1.0" encoding="utf-8" ?>
<svg xmlns="http://www.w3.org/2000/svg" xmlns:xlink="http://www.w3.org/1999/xlink" width="1024" height="1024">
	<path fill="#A1B4D4" d="M0 0L1024 0L1024 1024L0 1024L0 0ZM449.045 339.721C441.24 339.23 432.748 339.085 424.971 339.884C425.375 317.93 425.172 296.009 425.154 274.056C425.138 255.875 425.476 237.615 424.487 219.457C415.316 222.802 406.258 226.182 397.496 230.51Q395.214 231.651 392.957 232.84Q390.7 234.029 388.469 235.265Q386.237 236.501 384.032 237.784Q381.827 239.066 379.649 240.395Q377.471 241.724 375.322 243.098Q373.172 244.472 371.052 245.891Q368.932 247.309 366.842 248.773Q364.752 250.236 362.694 251.742Q360.635 253.249 358.608 254.798Q356.582 256.348 354.588 257.939Q352.595 259.531 350.635 261.164Q348.675 262.797 346.75 264.471Q344.825 266.145 342.935 267.859Q341.046 269.573 339.193 271.327Q337.34 273.08 335.524 274.872Q333.708 276.664 331.93 278.493Q330.152 280.323 328.413 282.189Q326.674 284.056 324.975 285.958Q323.275 287.861 321.616 289.798Q319.957 291.736 318.339 293.708Q316.72 295.681 315.144 297.686Q313.568 299.692 312.034 301.73Q310.5 303.769 309.009 305.839Q307.518 307.909 306.071 310.01Q304.624 312.111 303.221 314.242Q301.819 316.373 300.461 318.533Q299.104 320.692 297.792 322.88Q296.48 325.068 295.214 327.283Q293.948 329.498 292.729 331.739Q291.51 333.98 290.339 336.246Q289.167 338.512 288.043 340.803Q286.919 343.093 285.844 345.406C274.76 369.232 267.794 393.49 263.129 419.32C261.019 430.999 259.178 443.154 259.248 455.049C246.108 454.772 234.581 453.657 224.348 463.333C218.53 468.835 215.583 475.793 215.438 483.78C215.288 491.979 218.411 500.459 224.239 506.304C228.71 510.789 234.301 512.911 240.522 513.452C247.202 514.034 254.21 513.581 260.936 513.58L300.322 513.561L429.905 513.374L659.833 513.42C698.858 513.44 738.067 514.238 777.078 513.459C785.455 513.291 792.204 512.512 798.319 505.999C803.906 500.049 806.933 490.805 806.525 482.696C806.153 475.284 802.196 467.985 796.654 463.121C787.152 454.78 775.802 456.142 764.091 456.166C758.34 385.151 730.641 312.824 675.375 265.762C651.755 245.648 626.209 230.617 596.94 220.334L596.985 339.667L572.024 339.813Q572.641 295.093 572.465 250.369C572.444 234.345 572.112 218.26 572.504 202.243C566.417 198.584 559.769 195.557 553.083 193.175C529.404 184.74 498.722 183.959 474.635 190.885C465.666 193.464 457.405 197.471 449.01 201.468L449.045 339.721ZM228.55 523.256L119.97 523.466Q119.234 601.234 119.657 679.005L796.75 678.808Q844.722 678.607 892.693 678.942C896.09 666.449 897.461 652.997 899.555 640.216C904.389 610.709 912.139 586.806 895.835 558.604C886.364 542.222 869.741 529.978 851.449 525.312C839.56 522.278 826.732 522.951 814.548 522.953L780.835 522.971L660.897 523.087L341.923 523.175C304.138 523.25 266.331 522.803 228.55 523.256Z"/>
	<path fill="#FAEDC3" d="M449.045 339.721L449.01 201.468C457.405 197.471 465.666 193.464 474.635 190.885C498.722 183.959 529.404 184.74 553.083 193.175C559.769 195.557 566.417 198.584 572.504 202.243C572.112 218.26 572.444 234.345 572.465 250.369Q572.641 295.093 572.024 339.813C561.149 340.576 549.936 340.026 539.021 340.001L472.447 340.101C467.429 340.112 462.372 340.25 457.356 340.096C454.552 340.01 451.867 339.626 449.045 339.721Z"/>
	<path fill="#FACB4E" d="M424.971 339.884C432.748 339.085 441.24 339.23 449.045 339.721C451.867 339.626 454.552 340.01 457.356 340.096C462.372 340.25 467.429 340.112 472.447 340.101L539.021 340.001C549.936 340.026 561.149 340.576 572.024 339.813L596.985 339.667L596.94 220.334C626.209 230.617 651.755 245.648 675.375 265.762C730.641 312.824 758.34 385.151 764.091 456.166C775.802 456.142 787.152 454.78 796.654 463.121C802.196 467.985 806.153 475.284 806.525 482.696C806.933 490.805 803.906 500.049 798.319 505.999C792.204 512.512 785.455 513.291 777.078 513.459C738.067 514.238 698.858 513.44 659.833 513.42L429.905 513.374L300.322 513.561L260.936 513.58C254.21 513.581 247.202 514.034 240.522 513.452C234.301 512.911 228.71 510.789 224.239 506.304C218.411 500.459 215.288 491.979 215.438 483.78C215.583 475.793 218.53 468.835 224.348 463.333C234.581 453.657 246.108 454.772 259.248 455.049C259.178 443.154 261.019 430.999 263.129 419.32C267.794 393.49 274.76 369.232 285.844 345.406Q286.919 343.093 288.043 340.802Q289.167 338.512 290.339 336.246Q291.51 333.98 292.729 331.739Q293.948 329.498 295.214 327.283Q296.48 325.068 297.792 322.88Q299.104 320.692 300.461 318.533Q301.819 316.373 303.221 314.242Q304.624 312.111 306.071 310.01Q307.518 307.909 309.009 305.839Q310.5 303.769 312.034 301.73Q313.568 299.692 315.144 297.686Q316.72 295.681 318.339 293.708Q319.957 291.736 321.616 289.798Q323.275 287.861 324.975 285.958Q326.674 284.056 328.413 282.189Q330.152 280.323 331.93 278.493Q333.708 276.664 335.524 274.872Q337.34 273.08 339.193 271.327Q341.046 269.573 342.935 267.859Q344.825 266.145 346.75 264.471Q348.675 262.797 350.635 261.164Q352.595 259.531 354.588 257.939Q356.582 256.348 358.608 254.798Q360.635 253.249 362.694 251.742Q364.752 250.236 366.842 248.773Q368.932 247.309 371.052 245.891Q373.172 244.472 375.322 243.098Q377.471 241.724 379.649 240.395Q381.827 239.066 384.032 237.784Q386.237 236.501 388.469 235.265Q390.7 234.029 392.957 232.84Q395.214 231.651 397.496 230.51C406.258 226.182 415.316 222.802 424.487 219.457C425.476 237.615 425.138 255.875 425.154 274.056C425.172 296.009 425.375 317.93 424.971 339.884ZM429.733 379.22C414.748 379.732 400.564 384.101 390.082 395.294C380.977 405.017 376.964 419.958 377.264 433.03C372.25 426.986 367.038 421.641 361.067 416.522C355.91 420.913 350.36 425.875 346.316 431.344C356.129 440.418 365.292 450.524 374.59 460.133L379.942 465.041C384.927 460.311 390.481 455.584 394.334 449.854C390.886 444.918 386.406 441.012 382.025 436.929C388.33 431.494 393.569 424.573 399.465 418.668C402.543 420.92 405.584 423.266 408.735 425.41C413.609 422.915 417.728 420.76 421.61 416.836C419.879 411.582 417.492 406.512 415.873 401.248C424.609 393.036 433.155 391.064 444.938 390.775C445.422 386.944 445.393 383.214 445.317 379.358C440.112 379.084 434.941 379.142 429.733 379.22ZM574.675 379.092C574.589 382.483 574.2 386.218 574.969 389.525C576.609 391.184 587.824 391.147 591.364 392.065C596.973 393.519 601.4 396.566 606.111 399.824C602.929 404.867 600.852 410.72 598.668 416.25C602.215 419.547 605.972 422.275 609.891 425.098C613.975 423.089 616.72 420.225 619.823 416.988C624.958 421.212 629.659 426.159 635.041 430.032C636.514 430.744 637.458 431.547 639.154 431.112C642.336 430.296 646.134 426.96 647.324 423.906C647.901 422.424 647.897 421.238 647.123 419.836C645.032 416.045 641.692 412.684 639.242 409.077C636.882 405.602 635.207 401.678 632.856 398.193C627.144 389.721 617.287 383.384 607.463 380.888C596.987 378.226 585.411 378.972 574.675 379.092ZM637.375 380.451C634.855 381.462 632.139 382.189 630.924 384.867C630.251 386.35 630.155 387.637 630.782 389.149C631.468 390.804 633.678 392.635 635.347 393.178C635.59 393.257 635.837 393.322 636.082 393.393C638.372 392.671 640.862 391.45 641.872 389.106C642.48 387.696 642.322 385.976 641.65 384.615C640.822 382.937 638.931 381.434 637.375 380.451ZM387.351 381.838C383.698 384.132 381.074 386.548 378.911 390.349C380.48 392.382 382.275 395.536 384.951 395.933L385.453 395.648L394.393 386.377C392.298 384.619 390.106 382.396 387.351 381.838ZM477.102 383.063C473.557 384.503 470.895 386.197 469.296 389.819Q469.068 390.327 468.892 390.855Q468.716 391.383 468.593 391.925Q468.471 392.468 468.402 393.02Q468.334 393.573 468.32 394.129Q468.307 394.685 468.349 395.24Q468.391 395.795 468.487 396.343Q468.584 396.891 468.735 397.427Q468.885 397.963 469.088 398.481Q469.293 398.993 469.552 399.48Q469.81 399.968 470.118 400.425Q470.426 400.882 470.781 401.305Q471.136 401.727 471.533 402.11Q471.93 402.492 472.366 402.831Q472.801 403.17 473.27 403.461Q473.738 403.751 474.235 403.991Q474.732 404.231 475.251 404.417C477.441 405.211 479.557 405.457 481.864 405.282C485.64 403.395 488.461 401.447 489.904 397.238C490.883 394.383 490.696 391.089 489.222 388.433C487.764 385.806 485.222 384.02 482.333 383.281C480.582 382.834 478.885 382.933 477.102 383.063ZM537.017 383.125C533.518 385.136 530.948 387.348 529.818 391.354Q529.667 391.892 529.57 392.441Q529.473 392.991 529.431 393.548Q529.389 394.105 529.402 394.663Q529.415 395.221 529.484 395.775Q529.553 396.33 529.676 396.874Q529.799 397.419 529.976 397.949Q530.152 398.478 530.38 398.988Q530.608 399.497 530.886 399.982C532.359 402.518 534.839 404.171 537.695 404.762C539.699 405.177 541.81 404.907 543.768 404.372C547.212 402.716 550.053 400.639 551.255 396.838C552.106 394.15 551.769 391.275 550.45 388.8C548.914 385.919 545.998 383.825 542.842 383.063C540.925 382.6 538.948 382.898 537.017 383.125ZM661.633 414.277C653.655 421.645 633.847 440.847 628.443 448.994C633.262 454.272 639.567 458.144 643.964 463.782Q653.92 453.317 663.597 442.594C667.855 437.798 671.771 432.633 676.606 428.401C672.864 424.543 666.346 416.384 661.633 414.277ZM590.872 420.859C586.85 426.656 582.178 431.962 577.725 437.428C573.09 443.116 568.646 448.955 563.996 454.636C559.658 459.937 554.684 465.295 551.325 471.272C554.702 473.88 567.885 485.222 570.851 485.738L571.438 485.22C575.408 480.584 579.489 475.967 583.2 471.12C592.426 459.065 601.111 446.203 611.553 435.168C604.92 430.145 598.155 424.9 590.872 420.859ZM427.321 421.892C422.122 427.375 415.965 431.817 410.68 437.228C414.426 442.279 418.639 446.949 422.469 451.933C431.903 464.211 441.021 476.572 450.738 488.648C451.962 487.79 453.257 486.965 454.405 486.013C460.686 480.227 466.945 474.462 472.885 468.322C462.167 456.388 450.704 445.016 439.421 433.616C436.223 430.384 431.051 424.013 427.321 421.892ZM536.711 425.033C536.45 425.149 536.185 425.256 535.928 425.381C529.576 428.457 534.122 442.739 514.747 445.91C510.121 446.667 505.447 446.685 500.903 445.396C494.913 443.698 490.426 439.857 487.523 434.408C485.71 431.004 484.733 427.547 480.678 426.271C479.428 425.878 478.54 426.011 477.358 426.556C475.674 428.336 475.43 430.216 475.497 432.607C475.573 435.315 476.737 437.539 477.944 439.889C483.587 448.144 491.711 454.212 501.65 456.152C510.91 457.961 521.362 456.256 529.232 450.944C535.211 446.908 540.967 439.657 542.458 432.484C542.828 430.704 542.848 428.436 541.687 426.927C540.488 425.367 538.525 425.182 536.711 425.033Z"/>
	<path fill="#F2F2DC" d="M377.264 433.03C376.964 419.958 380.977 405.017 390.082 395.294C400.564 384.101 414.748 379.732 429.733 379.22C434.941 379.142 440.112 379.084 445.317 379.358C445.393 383.214 445.422 386.944 444.938 390.775C433.155 391.064 424.609 393.036 415.873 401.248C417.492 406.512 419.879 411.582 421.61 416.836C417.728 420.76 413.609 422.915 408.735 425.41C405.584 423.266 402.543 420.92 399.465 418.668C393.569 424.573 388.33 431.494 382.025 436.929C386.406 441.012 390.886 444.918 394.334 449.854C390.481 455.584 384.927 460.311 379.942 465.041L374.59 460.133C365.292 450.524 356.129 440.418 346.316 431.344C350.36 425.875 355.91 420.913 361.067 416.522C367.038 421.641 372.25 426.986 377.264 433.03Z"/>
	<path fill="#F2F2DC" d="M606.111 399.824C601.4 396.566 596.973 393.519 591.364 392.065C587.824 391.147 576.609 391.184 574.969 389.525C574.2 386.218 574.589 382.483 574.675 379.092C585.411 378.972 596.987 378.226 607.463 380.888C617.287 383.384 627.144 389.721 632.856 398.193C635.207 401.678 636.882 405.602 639.242 409.077C641.692 412.684 645.032 416.045 647.123 419.836C647.897 421.238 647.901 422.424 647.324 423.906C646.134 426.96 642.336 430.296 639.154 431.112C637.458 431.547 636.514 430.744 635.041 430.032C629.659 426.159 624.958 421.212 619.823 416.988C616.72 420.225 613.975 423.089 609.891 425.098C605.972 422.275 602.215 419.547 598.668 416.25C600.852 410.72 602.929 404.867 606.111 399.824Z"/>
	<path fill="#F2F2DC" d="M636.082 393.393C635.837 393.322 635.59 393.257 635.347 393.178C633.678 392.635 631.468 390.804 630.782 389.149C630.155 387.637 630.251 386.35 630.924 384.867C632.139 382.189 634.855 381.462 637.375 380.451C638.931 381.434 640.822 382.937 641.65 384.615C642.322 385.976 642.48 387.696 641.872 389.106C640.862 391.45 638.372 392.671 636.082 393.393Z"/>
	<path fill="#F2F2DC" d="M378.911 390.349C381.074 386.548 383.698 384.132 387.351 381.838C390.106 382.396 392.298 384.619 394.393 386.377L385.453 395.648L384.951 395.933C382.275 395.536 380.48 392.382 378.911 390.349Z"/>
	<path fill="#E47837" d="M481.864 405.282C479.557 405.457 477.441 405.211 475.251 404.417Q474.732 404.231 474.235 403.991Q473.738 403.751 473.27 403.461Q472.801 403.17 472.366 402.831Q471.93 402.492 471.533 402.11Q471.136 401.727 470.781 401.305Q470.426 400.882 470.118 400.425Q469.81 399.968 469.552 399.48Q469.293 398.993 469.088 398.481Q468.885 397.963 468.735 397.427Q468.584 396.891 468.487 396.343Q468.391 395.795 468.349 395.24Q468.307 394.685 468.32 394.129Q468.334 393.573 468.402 393.02Q468.471 392.468 468.593 391.925Q468.716 391.383 468.892 390.855Q469.068 390.327 469.296 389.819C470.895 386.197 473.557 384.503 477.102 383.063C478.885 382.933 480.582 382.834 482.333 383.281C485.222 384.02 487.764 385.806 489.222 388.433C490.696 391.089 490.883 394.383 489.904 397.238C488.461 401.447 485.64 403.395 481.864 405.282Z"/>
	<path fill="#E47837" d="M543.768 404.372C541.81 404.907 539.699 405.177 537.695 404.762C534.839 404.171 532.359 402.518 530.886 399.982Q530.608 399.497 530.38 398.988Q530.152 398.478 529.976 397.949Q529.799 397.419 529.676 396.874Q529.553 396.33 529.484 395.775Q529.415 395.221 529.402 394.663Q529.389 394.105 529.431 393.548Q529.473 392.991 529.57 392.441Q529.667 391.892 529.818 391.354C530.948 387.348 533.518 385.136 537.017 383.125C538.948 382.898 540.925 382.6 542.842 383.063C545.998 383.825 548.914 385.919 550.45 388.8C551.769 391.275 552.106 394.15 551.255 396.838C550.053 400.639 547.212 402.716 543.768 404.372Z"/>
	<path fill="#F2F2DC" d="M628.443 448.994C633.847 440.847 653.655 421.645 661.633 414.277C666.346 416.384 672.864 424.543 676.606 428.401C671.771 432.633 667.855 437.798 663.597 442.594Q653.92 453.317 643.964 463.782C639.567 458.144 633.262 454.272 628.443 448.994Z"/>
	<path fill="#F2F2DC" d="M551.325 471.272C554.684 465.295 559.658 459.937 563.996 454.636C568.646 448.955 573.09 443.116 577.725 437.428C582.178 431.962 586.85 426.656 590.872 420.859C598.155 424.9 604.92 430.145 611.553 435.168C601.111 446.203 592.426 459.065 583.2 471.12C579.489 475.967 575.408 480.584 571.438 485.22L570.851 485.738C567.885 485.222 554.702 473.88 551.325 471.272Z"/>
	<path fill="#F2F2DC" d="M410.68 437.228C415.965 431.817 422.122 427.375 427.321 421.892C431.051 424.013 436.223 430.384 439.421 433.616C450.704 445.016 462.167 456.388 472.885 468.322C466.945 474.462 460.686 480.227 454.405 486.013C453.257 486.965 451.962 487.79 450.738 488.648C441.021 476.572 431.903 464.211 422.469 451.933C418.639 446.949 414.426 442.279 410.68 437.228Z"/>
	<path fill="#E47837" d="M477.944 439.889C476.737 437.539 475.573 435.315 475.497 432.607C475.43 430.216 475.674 428.336 477.358 426.556C478.54 426.011 479.428 425.878 480.678 426.271C484.733 427.547 485.71 431.004 487.523 434.408C490.426 439.857 494.913 443.698 500.903 445.396C505.447 446.685 510.121 446.667 514.747 445.91C534.122 442.739 529.576 428.457 535.928 425.381C536.185 425.256 536.45 425.149 536.711 425.033C538.525 425.182 540.488 425.367 541.687 426.927C542.848 428.436 542.828 430.704 542.458 432.484C540.967 439.657 535.211 446.908 529.232 450.944C521.362 456.256 510.91 457.961 501.65 456.152C491.711 454.212 483.587 448.144 477.944 439.889Z"/>
	<path fill="#F2F2DC" d="M119.97 523.466L228.55 523.256C266.331 522.803 304.138 523.25 341.923 523.175L660.897 523.087L780.835 522.971L814.548 522.953C826.732 522.951 839.56 522.278 851.449 525.312C869.741 529.978 886.364 542.222 895.835 558.604C912.139 586.806 904.389 610.709 899.555 640.216C897.461 652.997 896.09 666.449 892.693 678.942Q844.722 678.606 796.75 678.808L119.657 679.005Q119.234 601.234 119.97 523.466ZM263.269 553.689C251.24 554.975 239.848 559.941 232.062 569.499C224.455 578.837 220.53 592.106 221.866 604.076Q221.99 605.163 222.167 606.242Q222.344 607.321 222.574 608.39Q222.804 609.459 223.087 610.516Q223.369 611.573 223.703 612.614Q224.037 613.656 224.421 614.679Q224.806 615.703 225.24 616.707Q225.675 617.71 226.158 618.691Q226.642 619.672 227.172 620.629Q227.703 621.585 228.281 622.514Q228.858 623.442 229.48 624.342Q230.102 625.241 230.768 626.109Q231.434 626.977 232.141 627.81Q232.849 628.644 233.597 629.443Q234.344 630.241 235.13 631.001Q235.916 631.762 236.739 632.483Q237.561 633.203 238.418 633.883C248.204 641.534 259.36 644.454 271.617 643.909C284.479 642.159 295.385 636.617 303.351 626.151C310.657 616.551 314.258 604.717 312.569 592.691C310.87 580.589 303.706 569.024 293.955 561.722C285.102 555.093 274.159 552.778 263.269 553.689ZM171.616 554.25L154.491 554.362C154.767 583.22 155.382 612.306 154.575 641.145C165.106 642.003 191.063 642.774 200.288 639.167C208.054 634.968 213.792 629.83 216.333 621.04C218.361 614.026 217.834 606.41 214.261 599.971C211.856 595.638 208.431 592.599 204.383 589.853C206.943 582.581 207.586 574.209 204.169 567.069Q203.93 566.575 203.666 566.094Q203.402 565.613 203.115 565.145Q202.828 564.678 202.517 564.225Q202.207 563.773 201.874 563.336Q201.542 562.9 201.188 562.48Q200.834 562.061 200.46 561.66Q200.085 561.259 199.691 560.877Q199.297 560.495 198.885 560.133Q198.472 559.771 198.042 559.431Q197.612 559.09 197.165 558.771Q196.719 558.452 196.257 558.156Q195.795 557.86 195.318 557.587Q194.842 557.315 194.353 557.066Q193.864 556.818 193.363 556.594Q192.862 556.37 192.35 556.171Q191.839 555.973 191.318 555.8C185.046 553.677 178.138 554.12 171.616 554.25ZM417.642 554.203Q417.919 598.085 417.638 641.967Q427.434 641.723 437.232 641.895C449.988 641.998 462.64 642.626 472.23 632.677C477.968 626.039 481.199 618.929 480.489 609.991C479.928 602.935 476.261 595.867 470.858 591.268C469.659 590.248 468.386 589.36 467.042 588.543C469.071 581.219 470.167 573.555 466.312 566.542C463.064 560.634 457.099 556.938 450.7 555.285C441.128 552.812 427.627 553.833 417.642 554.203ZM551.208 554.237C546.211 554.303 541.206 554.436 536.21 554.378Q536.493 572.756 536.547 591.136C536.577 597.454 537.492 605.164 536.031 611.243C535.454 613.641 533.954 616.011 532.223 617.741Q531.711 618.259 531.15 618.724Q530.589 619.189 529.985 619.595Q529.381 620.002 528.74 620.347Q528.098 620.692 527.425 620.971Q526.753 621.25 526.056 621.461Q525.359 621.672 524.644 621.813Q523.929 621.954 523.204 622.023Q522.479 622.092 521.751 622.089C517.433 622.058 513.454 620.041 510.589 616.864Q509.914 616.122 509.342 615.298Q508.77 614.475 508.31 613.584Q507.85 612.693 507.51 611.749Q507.17 610.806 506.956 609.826C505.565 603.512 506.374 595.757 506.396 589.287L506.546 554.474Q496.048 554.611 485.55 554.426L485.552 583.161C485.487 600.574 482.995 618.315 496.396 631.834Q497.04 632.476 497.715 633.085Q498.39 633.694 499.094 634.269Q499.798 634.844 500.53 635.383Q501.262 635.923 502.019 636.425Q502.777 636.928 503.559 637.392Q504.34 637.857 505.144 638.282Q505.948 638.707 506.771 639.091Q507.595 639.476 508.437 639.82Q509.279 640.163 510.136 640.465Q510.994 640.766 511.866 641.024Q512.737 641.283 513.62 641.498Q514.504 641.713 515.397 641.884Q516.29 642.055 517.19 642.182Q518.09 642.308 518.996 642.39Q519.901 642.472 520.81 642.509Q521.718 642.546 522.627 642.538Q523.567 642.531 524.505 642.477Q525.444 642.423 526.379 642.322Q527.313 642.222 528.242 642.074Q529.17 641.927 530.09 641.734Q531.01 641.54 531.919 641.301Q532.828 641.062 533.724 640.777Q534.62 640.493 535.501 640.164Q536.382 639.835 537.245 639.463Q538.108 639.091 538.952 638.676Q539.795 638.261 540.617 637.804Q541.439 637.347 542.236 636.85Q543.034 636.353 543.806 635.817Q544.578 635.28 545.323 634.706Q546.067 634.132 546.782 633.521Q547.496 632.91 548.18 632.265Q548.863 631.619 549.513 630.94Q550.262 630.158 550.957 629.328Q551.652 628.499 552.291 627.625Q552.929 626.751 553.509 625.836Q554.088 624.922 554.605 623.971Q555.122 623.02 555.575 622.037Q556.028 621.053 556.415 620.042Q556.802 619.031 557.121 617.997Q557.44 616.962 557.689 615.909C559.519 608.17 558.776 599.318 558.792 591.385Q558.754 572.815 558.934 554.245L551.208 554.237ZM599.51 554.149C598.315 583.216 600.178 612.457 599.214 641.548L652.584 641.525C652.925 634.85 652.867 628.166 652.875 621.484C642.064 621.476 631.229 621.609 620.421 621.438C620.322 599.056 619.772 576.489 620.494 554.126Q610.002 554.261 599.51 554.149ZM659.324 554.027Q659.748 597.803 659.509 641.58C682.917 641.417 699.311 643.653 718.907 628.297C726.964 620.438 731.786 610.083 731.933 598.753Q731.945 597.729 731.908 596.705Q731.87 595.681 731.783 594.661Q731.695 593.64 731.558 592.625Q731.42 591.61 731.234 590.603Q731.047 589.596 730.811 588.599Q730.575 587.602 730.291 586.618Q730.006 585.634 729.674 584.665Q729.342 583.696 728.963 582.744Q728.584 581.792 728.159 580.861Q727.734 579.929 727.264 579.019Q726.793 578.109 726.279 577.223Q725.765 576.337 725.208 575.477Q724.651 574.617 724.053 573.786Q723.455 572.954 722.817 572.153Q722.178 571.351 721.502 570.582Q720.825 569.813 720.112 569.078C703.474 552.157 680.837 554.826 659.324 554.027ZM801.047 554.102L801.331 641.566L821.829 641.5L821.408 614.869Q831.584 628.098 841.468 641.546L857.125 641.478L866.289 641.487C859.014 631.407 849.482 622.372 842.915 611.88C851.043 606.574 857.733 601.142 859.679 591.045C861.103 583.658 859.68 576.05 855.435 569.803C849.847 561.578 840.413 556.337 830.744 554.659C821.304 553.021 810.655 554.001 801.047 554.102ZM321.703 554.327C322.29 568.32 322.059 582.386 322.014 596.39C321.965 611.56 322.058 626.756 321.686 641.92L342.955 641.856C355.881 641.798 367.968 641.984 377.747 632.11C377.91 631.945 378.068 631.776 378.229 631.609C383.228 625.379 385.553 618.758 384.67 610.731C383.939 604.081 381.024 598.267 375.669 594.166C374.516 593.284 373.298 592.489 372.076 591.706C375.343 586.026 377.063 580.35 375.425 573.781C373.842 567.432 369.967 562.033 364.333 558.673C353.109 551.98 334.543 554.696 321.703 554.327ZM567.338 554.35C567.333 583.373 567.854 612.507 567.19 641.514L588.87 641.493C588.631 612.501 588.016 583.382 588.84 554.402L567.338 554.35ZM739.908 554.353L739.649 641.552L792.967 641.506C792.945 634.62 792.869 627.73 792.928 620.845C782.254 620.859 771.167 621.427 760.536 620.726L760.54 606.609L782.991 606.346L782.805 587.003L760.519 587.004L760.421 574.902C771.057 574.901 781.718 575.047 792.346 574.597L792.458 554.418C774.965 554.375 757.393 553.988 739.908 554.353Z"/>
	<path fill="#E47837" d="M271.617 643.909C259.36 644.454 248.204 641.534 238.418 633.883Q237.561 633.203 236.739 632.483Q235.916 631.762 235.13 631.001Q234.344 630.241 233.597 629.443Q232.849 628.644 232.141 627.81Q231.434 626.977 230.768 626.109Q230.102 625.241 229.48 624.342Q228.858 623.442 228.281 622.514Q227.703 621.585 227.172 620.629Q226.642 619.672 226.158 618.691Q225.675 617.71 225.24 616.707Q224.806 615.703 224.421 614.679Q224.037 613.656 223.703 612.614Q223.369 611.573 223.087 610.516Q222.804 609.459 222.574 608.39Q222.344 607.321 222.167 606.242Q221.99 605.163 221.866 604.076C220.53 592.106 224.455 578.837 232.062 569.499C239.848 559.941 251.24 554.975 263.269 553.689C274.159 552.778 285.102 555.093 293.955 561.722C303.706 569.024 310.87 580.589 312.569 592.691C314.258 604.717 310.657 616.551 303.351 626.151C295.385 636.617 284.479 642.159 271.617 643.909ZM265.123 574.645C258.052 575.955 251.955 578.709 247.657 584.765C243.911 590.044 242.64 596.625 243.764 602.969Q243.865 603.555 243.995 604.135Q244.125 604.715 244.284 605.288Q244.443 605.861 244.63 606.425Q244.817 606.989 245.032 607.543Q245.247 608.097 245.49 608.64Q245.732 609.183 246.002 609.713Q246.271 610.243 246.567 610.758Q246.862 611.274 247.183 611.775Q247.504 612.275 247.849 612.759Q248.194 613.243 248.563 613.709Q248.933 614.175 249.324 614.622Q249.716 615.069 250.13 615.496Q250.544 615.923 250.978 616.328Q251.413 616.734 251.867 617.117Q252.321 617.501 252.794 617.861Q253.267 618.222 253.757 618.558C258.676 621.892 264.501 623.026 270.357 622.746C277.314 621.309 282.908 618.763 286.928 612.596C290.611 606.946 292.276 599.772 290.798 593.133Q290.664 592.548 290.501 591.971Q290.337 591.394 290.144 590.826Q289.951 590.258 289.729 589.7Q289.507 589.143 289.257 588.598Q289.006 588.052 288.728 587.521Q288.45 586.989 288.145 586.472Q287.841 585.956 287.51 585.455Q287.178 584.955 286.822 584.472Q286.466 583.989 286.085 583.526Q285.705 583.062 285.301 582.618Q284.897 582.175 284.471 581.752Q284.044 581.33 283.597 580.93Q283.15 580.53 282.682 580.154Q282.215 579.778 281.729 579.426Q281.243 579.074 280.74 578.748Q280.237 578.421 279.717 578.121C275.48 575.625 270.06 574.217 265.123 574.645Z"/>
	<path fill="#E47837" d="M154.491 554.362L171.616 554.25C178.138 554.12 185.046 553.677 191.318 555.8Q191.839 555.973 192.35 556.171Q192.862 556.37 193.363 556.594Q193.864 556.818 194.353 557.066Q194.842 557.315 195.318 557.587Q195.795 557.86 196.257 558.156Q196.719 558.452 197.165 558.771Q197.612 559.09 198.042 559.431Q198.472 559.771 198.885 560.133Q199.297 560.495 199.691 560.877Q200.085 561.259 200.46 561.66Q200.834 562.061 201.188 562.48Q201.542 562.9 201.874 563.336Q202.207 563.773 202.517 564.225Q202.828 564.678 203.115 565.145Q203.402 565.613 203.666 566.094Q203.93 566.575 204.169 567.069C207.586 574.209 206.943 582.581 204.383 589.853C208.431 592.599 211.856 595.638 214.261 599.971C217.834 606.41 218.361 614.026 216.333 621.04C213.792 629.83 208.054 634.968 200.288 639.167C191.063 642.774 165.106 642.003 154.575 641.145C155.382 612.306 154.767 583.22 154.491 554.362ZM175.281 573.946L175.328 586.212C178.728 586.305 181.411 586.591 184.416 584.739C185.667 582.76 186.808 580.426 186.088 578.026C185.562 576.269 183.875 575.203 182.263 574.559C180.082 573.687 177.584 573.908 175.281 573.946ZM175.39 603.604C175.403 609.724 175.459 615.849 175.399 621.969C182.042 622.087 188.519 622.947 194.331 619.082C196.001 617.142 197.587 614.248 197.505 611.596C197.442 609.561 196.514 608.197 194.984 606.944C189.748 602.658 181.761 603.538 175.39 603.604Z"/>
	<path fill="#E47837" d="M417.638 641.967Q417.919 598.085 417.642 554.203C427.627 553.833 441.128 552.812 450.7 555.285C457.099 556.938 463.064 560.634 466.312 566.542C470.167 573.555 469.071 581.219 467.042 588.543C468.386 589.36 469.659 590.248 470.858 591.268C476.261 595.867 479.928 602.935 480.489 609.991C481.199 618.929 477.968 626.039 472.23 632.677C462.64 642.626 449.988 641.998 437.232 641.895Q427.434 641.723 417.638 641.967ZM438.475 574.962L438.471 583.624C442.228 583.727 445.711 584.187 449.039 582.139C449.464 580.788 450.139 579.06 449.605 577.661C449.088 576.305 447.889 575.568 446.534 575.249C444.029 574.659 441.045 574.931 438.475 574.962ZM447.839 604.23L438.946 604.47L439.005 621.39L451.237 621.211C453.632 621.086 455 620.621 456.66 618.838C458.385 616.985 459.136 614.717 458.987 612.203C458.847 609.842 458.092 607.637 456.198 606.114C455.501 605.554 454.716 605.087 453.952 604.626C451.943 604.451 449.853 604.139 447.839 604.23Z"/>
	<path fill="#E47837" d="M536.21 554.378C541.206 554.436 546.211 554.303 551.208 554.237L558.934 554.245Q558.754 572.815 558.792 591.385C558.776 599.318 559.519 608.17 557.689 615.909Q557.44 616.962 557.121 617.997Q556.802 619.031 556.415 620.042Q556.028 621.053 555.575 622.037Q555.122 623.02 554.605 623.971Q554.088 624.922 553.509 625.836Q552.929 626.751 552.291 627.625Q551.652 628.499 550.957 629.328Q550.262 630.158 549.513 630.94Q548.863 631.619 548.18 632.265Q547.496 632.91 546.782 633.521Q546.067 634.132 545.323 634.706Q544.578 635.28 543.806 635.817Q543.034 636.353 542.236 636.85Q541.439 637.347 540.617 637.804Q539.795 638.261 538.952 638.676Q538.108 639.091 537.245 639.463Q536.382 639.835 535.501 640.164Q534.62 640.493 533.724 640.777Q532.828 641.062 531.919 641.301Q531.01 641.54 530.09 641.734Q529.17 641.927 528.242 642.074Q527.313 642.222 526.379 642.322Q525.444 642.423 524.505 642.477Q523.567 642.531 522.627 642.538Q521.718 642.546 520.81 642.509Q519.901 642.472 518.996 642.39Q518.09 642.308 517.19 642.182Q516.29 642.055 515.397 641.884Q514.504 641.713 513.62 641.498Q512.737 641.283 511.866 641.024Q510.994 640.766 510.136 640.465Q509.279 640.163 508.437 639.82Q507.595 639.476 506.771 639.091Q505.948 638.707 505.144 638.282Q504.34 637.856 503.559 637.392Q502.777 636.928 502.019 636.425Q501.262 635.923 500.53 635.383Q499.798 634.844 499.094 634.269Q498.39 633.694 497.715 633.085Q497.04 632.476 496.396 631.834C482.995 618.315 485.487 600.574 485.552 583.161L485.55 554.426Q496.048 554.611 506.546 554.474L506.396 589.287C506.374 595.757 505.565 603.512 506.956 609.826Q507.17 610.806 507.51 611.749Q507.85 612.693 508.31 613.584Q508.77 614.475 509.342 615.298Q509.914 616.122 510.589 616.864C513.454 620.041 517.433 622.058 521.751 622.089Q522.479 622.092 523.204 622.023Q523.929 621.954 524.644 621.813Q525.359 621.672 526.056 621.461Q526.753 621.25 527.425 620.971Q528.098 620.692 528.74 620.347Q529.381 620.002 529.985 619.595Q530.589 619.189 531.15 618.724Q531.711 618.259 532.223 617.741C533.954 616.011 535.454 613.641 536.031 611.243C537.492 605.164 536.577 597.454 536.547 591.136Q536.493 572.756 536.21 554.378Z"/>
	<path fill="#E47837" d="M599.214 641.548C600.178 612.457 598.315 583.216 599.51 554.149Q610.002 554.261 620.494 554.126C619.772 576.489 620.322 599.056 620.421 621.438C631.229 621.609 642.064 621.476 652.875 621.484C652.867 628.166 652.925 634.85 652.584 641.525L599.214 641.548Z"/>
	<path fill="#E47837" d="M659.509 641.58Q659.748 597.803 659.324 554.027C680.837 554.826 703.474 552.157 720.112 569.078Q720.825 569.813 721.502 570.582Q722.178 571.351 722.817 572.153Q723.455 572.954 724.053 573.785Q724.651 574.617 725.208 575.477Q725.765 576.337 726.279 577.223Q726.793 578.109 727.264 579.019Q727.734 579.929 728.159 580.861Q728.584 581.792 728.963 582.744Q729.342 583.696 729.674 584.665Q730.006 585.634 730.291 586.618Q730.575 587.602 730.811 588.599Q731.047 589.596 731.234 590.603Q731.42 591.61 731.558 592.625Q731.695 593.64 731.783 594.661Q731.87 595.681 731.908 596.705Q731.945 597.729 731.933 598.753C731.786 610.083 726.964 620.438 718.907 628.297C699.311 643.653 682.917 641.417 659.509 641.58ZM680.428 574.953L680.513 620.967C689.114 620.622 696.875 620.08 703.725 614.177C708.092 609.489 711.012 603.798 710.795 597.239C710.604 591.455 707.879 585.825 703.588 581.965C697.317 576.323 688.566 574.924 680.428 574.953Z"/>
	<path fill="#E47837" d="M801.331 641.566L801.047 554.102C810.655 554.001 821.304 553.021 830.744 554.659C840.413 556.337 849.847 561.578 855.435 569.803C859.68 576.05 861.103 583.658 859.679 591.045C857.733 601.142 851.043 606.574 842.915 611.88C849.482 622.372 859.014 631.407 866.289 641.487L857.125 641.478L841.468 641.546Q831.584 628.098 821.408 614.869L821.829 641.5L801.331 641.566ZM821.619 573.987L821.664 596.48C827.096 596.491 831.971 596.885 836.614 593.609C838.721 591.39 840.104 588.747 840.155 585.614C840.195 583.15 838.73 580.851 837.031 579.177C832.732 574.938 827.255 574.583 821.619 573.987Z"/>
	<path fill="#E47837" d="M321.686 641.92C322.058 626.756 321.965 611.56 322.014 596.39C322.059 582.386 322.29 568.32 321.703 554.327C334.543 554.696 353.109 551.98 364.333 558.673C369.967 562.033 373.842 567.432 375.425 573.781C377.063 580.35 375.343 586.026 372.076 591.706C373.298 592.489 374.516 593.284 375.669 594.166C381.024 598.267 383.939 604.081 384.67 610.731C385.553 618.758 383.228 625.379 378.229 631.609C378.068 631.776 377.91 631.945 377.747 632.11C367.968 641.984 355.881 641.798 342.955 641.856L321.686 641.92ZM342.342 574.663L342.309 584.292C345.945 584.201 349.831 584.562 353.084 582.708C353.75 581.549 354.592 580.068 354.31 578.654C354.07 577.448 353.497 576.621 352.422 576.026C349.67 574.503 345.451 574.785 342.342 574.663ZM342.606 604.552L342.582 621.28C348.34 621.349 355.568 622.328 360.411 618.7C362.093 616.445 364.118 612.991 363.442 610.045C363.002 608.127 361.36 606.861 359.661 606.075C354.757 603.805 347.925 604.535 342.606 604.552Z"/>
	<path fill="#E47837" d="M567.19 641.514C567.854 612.507 567.333 583.373 567.338 554.35L588.84 554.402C588.016 583.382 588.631 612.501 588.87 641.493L567.19 641.514Z"/>
	<path fill="#E47837" d="M739.649 641.552L739.908 554.353C757.393 553.988 774.965 554.375 792.458 554.418L792.346 574.597C781.718 575.047 771.057 574.901 760.421 574.902L760.519 587.004L782.805 587.003L782.991 606.346L760.54 606.609L760.536 620.726C771.167 621.427 782.254 620.859 792.928 620.845C792.869 627.73 792.945 634.62 792.967 641.506L739.649 641.552Z"/>
	<path fill="#F2F2DC" d="M175.328 586.212L175.281 573.946C177.584 573.908 180.082 573.687 182.263 574.559C183.875 575.203 185.562 576.269 186.088 578.026C186.808 580.426 185.667 582.76 184.416 584.739C181.411 586.591 178.728 586.305 175.328 586.212Z"/>
	<path fill="#F2F2DC" d="M821.664 596.48L821.619 573.987C827.255 574.583 832.732 574.938 837.031 579.177C838.73 580.851 840.195 583.15 840.155 585.614C840.104 588.747 838.721 591.39 836.614 593.609C831.971 596.885 827.096 596.491 821.664 596.48Z"/>
	<path fill="#F2F2DC" d="M270.357 622.746C264.501 623.026 258.676 621.892 253.757 618.558Q253.267 618.222 252.794 617.861Q252.321 617.501 251.867 617.117Q251.413 616.734 250.978 616.328Q250.544 615.923 250.13 615.496Q249.716 615.069 249.324 614.622Q248.933 614.175 248.563 613.709Q248.194 613.243 247.849 612.759Q247.504 612.275 247.183 611.775Q246.862 611.274 246.567 610.758Q246.271 610.243 246.002 609.713Q245.732 609.183 245.49 608.64Q245.247 608.097 245.032 607.543Q244.817 606.989 244.63 606.425Q244.443 605.861 244.284 605.288Q244.125 604.715 243.995 604.135Q243.865 603.555 243.764 602.969C242.64 596.625 243.911 590.044 247.657 584.765C251.955 578.709 258.052 575.955 265.123 574.645C270.06 574.217 275.48 575.625 279.717 578.121Q280.237 578.421 280.74 578.748Q281.243 579.074 281.729 579.426Q282.215 579.778 282.682 580.154Q283.15 580.53 283.597 580.93Q284.044 581.33 284.471 581.752Q284.897 582.175 285.301 582.618Q285.705 583.062 286.085 583.526Q286.466 583.989 286.822 584.472Q287.178 584.955 287.51 585.455Q287.841 585.956 288.145 586.472Q288.45 586.989 288.728 587.521Q289.006 588.052 289.257 588.598Q289.507 589.143 289.729 589.7Q289.951 590.258 290.144 590.826Q290.337 591.394 290.501 591.971Q290.664 592.548 290.798 593.133C292.276 599.772 290.611 606.946 286.928 612.596C282.908 618.763 277.314 621.309 270.357 622.746Z"/>
	<path fill="#F2F2DC" d="M342.309 584.292L342.342 574.663C345.451 574.785 349.67 574.503 352.422 576.026C353.497 576.621 354.07 577.448 354.31 578.654C354.592 580.068 353.75 581.549 353.084 582.708C349.831 584.562 345.945 584.201 342.309 584.292Z"/>
	<path fill="#F2F2DC" d="M438.471 583.624L438.475 574.962C441.045 574.931 444.029 574.659 446.534 575.249C447.889 575.568 449.088 576.305 449.605 577.661C450.139 579.06 449.464 580.788 449.039 582.139C445.711 584.187 442.228 583.727 438.471 583.624Z"/>
	<path fill="#F2F2DC" d="M680.513 620.967L680.428 574.953C688.566 574.924 697.317 576.323 703.588 581.965C707.879 585.825 710.604 591.455 710.795 597.239C711.012 603.798 708.092 609.489 703.725 614.177C696.875 620.08 689.114 620.622 680.513 620.967Z"/>
	<path fill="#F2F2DC" d="M175.399 621.969C175.459 615.849 175.403 609.724 175.39 603.604C181.761 603.538 189.748 602.658 194.984 606.944C196.514 608.197 197.442 609.561 197.505 611.596C197.587 614.248 196.001 617.142 194.331 619.082C188.519 622.947 182.042 622.087 175.399 621.969Z"/>
	<path fill="#F2F2DC" d="M438.946 604.47L447.839 604.23C449.853 604.139 451.943 604.451 453.952 604.626C454.716 605.087 455.501 605.554 456.198 606.114C458.092 607.637 458.847 609.842 458.987 612.203C459.136 614.717 458.385 616.985 456.66 618.838C455 620.621 453.632 621.086 451.237 621.211L439.005 621.39L438.946 604.47Z"/>
	<path fill="#F2F2DC" d="M342.582 621.28L342.606 604.552C347.925 604.535 354.757 603.805 359.661 606.075C361.36 606.861 363.002 608.127 363.442 610.045C364.118 612.991 362.093 616.445 360.411 618.7C355.568 622.328 348.34 621.349 342.582 621.28Z"/>
</svg>
