<?xml version="1.0" encoding="utf-8" ?>
<svg xmlns="http://www.w3.org/2000/svg" xmlns:xlink="http://www.w3.org/1999/xlink" width="1024" height="1024">
	<path fill="#F4D35E" d="M0 0L1024 0L1024 1024L0 1024L0 0ZM427.274 331.892Q374.763 331.639 322.252 331.962L275.456 331.889C265.078 331.876 254.586 331.54 244.245 332.525C204.509 336.31 164.905 355.47 136.401 383.31C99.3277 419.518 78.9499 465.393 78.3386 517.312Q78.3218 519.584 78.3612 521.856Q78.4005 524.128 78.496 526.399Q78.5914 528.669 78.7429 530.936Q78.8944 533.203 79.1019 535.466Q79.3093 537.729 79.5726 539.986Q79.8359 542.243 80.1548 544.493Q80.4738 546.743 80.8482 548.984Q81.2226 551.225 81.6522 553.457Q82.0819 555.688 82.5665 557.908Q83.0512 560.128 83.5905 562.335Q84.1298 564.543 84.7235 566.736Q85.3171 568.93 85.9648 571.108Q86.6125 573.286 87.3137 575.447Q88.015 577.609 88.7694 579.752Q89.5238 581.896 90.331 584.02Q91.1381 586.144 91.9975 588.247Q92.8568 590.351 93.7679 592.433Q94.6789 594.514 95.6411 596.573Q96.6033 598.631 97.616 600.666Q98.6288 602.7 99.6914 604.708Q100.754 606.717 101.866 608.699Q102.978 610.68 104.139 612.634Q105.299 614.588 106.508 616.512Q107.716 618.436 108.972 620.33Q110.227 622.224 111.529 624.086Q112.831 625.949 114.179 627.778Q115.526 629.608 116.919 631.404Q118.311 633.199 119.747 634.96Q121.184 636.721 122.663 638.446Q124.143 640.171 125.664 641.858Q127.186 643.546 128.748 645.196Q130.311 646.845 131.914 648.456Q133.19 649.743 134.492 651.003Q135.794 652.264 137.122 653.497Q138.45 654.73 139.804 655.935Q141.157 657.14 142.535 658.317Q143.913 659.494 145.315 660.642Q146.718 661.79 148.143 662.909Q149.569 664.027 151.017 665.116Q152.466 666.205 153.937 667.264Q155.408 668.322 156.9 669.35Q158.393 670.378 159.906 671.375Q161.42 672.371 162.954 673.336Q164.487 674.301 166.041 675.234Q167.594 676.167 169.167 677.068Q170.74 677.969 172.331 678.837Q173.921 679.704 175.53 680.539Q177.138 681.374 178.764 682.175Q180.39 682.976 182.031 683.743Q183.673 684.51 185.33 685.243Q186.988 685.976 188.66 686.675Q190.332 687.373 192.018 688.037Q193.705 688.7 195.405 689.329Q197.104 689.957 198.817 690.551Q200.529 691.144 202.253 691.701Q203.978 692.258 205.713 692.78Q207.449 693.302 209.195 693.787Q210.941 694.273 212.696 694.722Q214.452 695.171 216.217 695.584Q217.981 695.996 219.754 696.372Q221.527 696.748 223.307 697.087Q225.087 697.426 226.874 697.728Q228.661 698.03 230.453 698.295Q232.246 698.56 234.044 698.788C241.799 699.73 249.592 699.711 257.392 699.776L373.905 699.872L407.344 699.853C413.904 699.857 420.98 699.412 427.46 700.339C436.103 700.775 444.868 700.571 453.528 700.628L501.211 700.806L627.04 700.643L809.007 700.908Q855.818 701.194 902.625 700.556L902.944 570.018C902.938 539.338 903.27 508.628 902.797 477.954C894.548 485.796 885.367 498.867 873.379 500.52C865.331 501.63 858.939 496.924 852.879 492.384C842.93 484.038 833.533 479.235 820.286 480.423C810.452 481.306 801.244 486.147 794.511 493.333C794.183 493.652 793.303 494.411 793.058 494.776C792.239 495.418 791.559 495.803 790.509 495.975C785.607 496.78 779.824 496.193 774.838 496.159C764.819 496.09 754.794 496.023 744.784 496.544L744.491 496.088L743.038 496.32C743.683 495.346 744.868 494.55 745.758 493.784Q749.788 490.6 753.875 487.491C755.317 485.781 757.676 484.245 759.438 482.797C765.801 477.572 772.687 472.51 777.106 465.429C783.452 455.259 784.039 443.602 781.405 432.173C777.717 422.991 772.392 416.183 766.361 408.444C764.857 405.906 763.298 403.424 762.174 400.689L762.795 399.192C762.088 395.597 761.222 391.06 761.436 387.419C761.652 383.725 765.33 379.071 764.37 375.649C767.575 370.624 782.195 357.523 786.984 352.706C794.586 346.164 801.217 338.299 808.726 331.566L593.977 331.715L486.4 331.556C466.728 331.587 446.931 331.164 427.274 331.892ZM855.174 294.093C852.6 294.977 850.553 296.011 848.4 297.666C842.28 302.373 836.876 308.541 831.413 314.007C823.436 321.987 815.128 329.894 807.667 338.362C834.07 365.416 861.918 391.163 888.725 417.834C899.292 428.348 910.789 438.588 920.243 450.108L925.174 445.031Q936.075 433.904 947.183 422.984C952.344 417.894 958.821 412.71 962.738 406.623C964.354 404.111 965.011 401.173 964.972 398.207C964.921 394.318 963.569 390.801 961.507 387.549C956.398 379.493 934.889 359.311 927.061 352.053Q924.846 350 922.561 348.025C921.655 349.248 921.182 350.314 919.753 350.891C917.837 349.761 914.858 347.112 914.188 344.976C914.543 344.102 916.42 342.466 916.24 342.087C914.331 338.083 895.207 320.504 890.606 315.887L887.204 318.343C885.168 316.152 883.196 313.873 880.886 311.968L884.113 309.531C878.383 302.538 872.402 295.194 862.791 294.003C860.258 293.689 857.706 293.879 855.174 294.093ZM804.361 346.453C798.837 352.312 792.808 357.715 786.92 363.205C813.969 391.419 842.33 418.51 870.153 445.962C875.084 450.826 893.571 470.519 897.388 472.685C902.857 466.808 908.733 461.346 914.743 456.026C906.031 446.232 896.125 437.339 886.76 428.173C871.562 413.299 856.796 398.001 841.577 383.14C829.166 371.022 815.939 359.365 804.361 346.453ZM781.405 369.9C777.369 374.15 766.895 382.619 766.827 388.374C766.822 388.851 766.902 389.947 767.078 390.349C767.521 391.363 858.507 480.386 866.089 487.257C868.682 489.607 870.559 491.492 874.243 491.332C874.81 491.307 875.376 491.261 875.94 491.203C882.439 488.369 886.36 483.451 890.851 478.21C882.37 469.559 873.423 461.391 864.801 452.884L827.742 415.661C812.314 400.416 796.558 385.413 781.405 369.9Z"/>
	<path fill="#0D3B66" d="M807.667 338.362C815.128 329.894 823.436 321.987 831.413 314.007C836.876 308.541 842.28 302.373 848.4 297.666C850.553 296.011 852.6 294.977 855.174 294.093C857.706 293.879 860.258 293.689 862.791 294.003C872.402 295.194 878.383 302.538 884.113 309.531L880.886 311.968C883.196 313.873 885.168 316.152 887.204 318.343L890.606 315.887C895.207 320.504 914.331 338.083 916.24 342.087C916.42 342.466 914.543 344.102 914.188 344.976C914.858 347.112 917.837 349.761 919.753 350.891C921.182 350.314 921.655 349.248 922.561 348.025Q924.846 350 927.061 352.053C934.889 359.311 956.398 379.493 961.507 387.549C963.569 390.801 964.921 394.318 964.972 398.207C965.011 401.173 964.354 404.111 962.738 406.623C958.821 412.71 952.344 417.894 947.183 422.984Q936.075 433.904 925.174 445.031L920.243 450.108C910.789 438.588 899.292 428.348 888.725 417.834C861.918 391.163 834.07 365.416 807.667 338.362Z"/>
	<path fill="#F3F3F3" d="M427.274 331.892C446.931 331.164 466.728 331.587 486.4 331.556L593.977 331.715L808.726 331.566C801.217 338.299 794.586 346.164 786.984 352.706C786.038 352.025 785.279 351.538 784.115 351.335C778.513 350.356 771.852 350.941 766.138 350.937C751.582 350.928 737.038 351.35 722.492 351.399L722.427 409.922C729.676 409.937 762.055 410.788 766.361 408.444C772.392 416.183 777.717 422.991 781.405 432.173C761.883 433.101 742.135 432.559 722.585 432.536L722.44 493.35C729.821 493.365 738.559 492.513 745.758 493.784C744.868 494.55 743.683 495.346 743.038 496.32L744.491 496.088L744.784 496.544C754.794 496.023 764.819 496.09 774.838 496.159C779.824 496.193 785.607 496.78 790.509 495.975C791.559 495.803 792.239 495.418 793.058 494.776C793.303 494.411 794.183 493.652 794.511 493.333C796.435 494.038 799.074 493.81 801.105 493.85C807.656 493.98 848.342 495.249 851.661 493.557C852.163 493.301 852.473 492.775 852.879 492.384C858.939 496.924 865.331 501.63 873.379 500.52C885.367 498.867 894.548 485.796 902.797 477.954C903.27 508.628 902.938 539.338 902.944 570.018L902.625 700.556Q855.818 701.194 809.007 700.908L627.04 700.643L501.211 700.806L453.528 700.628C444.868 700.571 436.103 700.775 427.46 700.339C427.982 672.762 427.491 645.109 427.537 617.522L284.137 617.63L148.477 617.488L148.421 494.28L151.029 492.36C155.317 494.722 206.75 493.058 216.44 493.039L340.372 493.282L373.829 493.526C378.068 493.542 383.407 494.154 387.498 493.301C388.297 493.135 388.402 493.051 389.044 492.751C393.052 493.921 420.427 493.002 427.343 493.02C426.565 439.32 427.603 385.593 427.274 331.892ZM595.78 350.237Q521.605 351.35 447.427 350.507Q446.959 379.931 447.246 409.358L461.375 409.393C511.235 409.413 561.151 408.893 611.004 409.424L611.01 350.478L595.78 350.237ZM659.579 350.725Q646.018 351.095 632.452 350.977L632.536 409.129Q653.69 408.902 674.844 409.109L700.693 408.996Q700.378 379.861 700.481 350.724C686.848 351.293 673.21 350.487 659.579 350.725ZM632.711 432.222L632.682 493L700.848 493.431C701.819 491.674 700.933 438.84 701.068 432.542C678.302 432.415 655.466 432.861 632.711 432.222ZM446.974 432.592C448.039 452.651 447.484 472.889 447.451 492.978L608.024 493.125L607.997 492.458L608.527 493.13C609.427 493.026 610.4 493.156 611.015 492.468C610.989 472.481 610.756 452.471 611.038 432.487Q529.006 432.982 446.974 432.592ZM880.275 500.01C870.042 503.8 837.297 501.728 824.251 501.756L692.941 500.986L284.015 500.966Q219.946 500.62 155.876 501.055C155.454 509.755 155.321 608.946 155.672 609.789C155.794 610.082 156.046 610.301 156.233 610.557L157.121 610.81C180.968 611.514 204.909 610.749 228.764 610.619L332 610.591L588.59 611.409L779.266 611.14Q811.445 611.429 843.626 611.301C856.792 611.33 870.006 611.617 883.16 611.047C883.221 598.96 884.697 503.172 882.15 500.189C881.487 500.071 880.95 499.952 880.275 500.01ZM576.62 620.239L449.452 620.58L449.535 680.489Q467.579 680.245 485.625 680.326L611.003 680.533L610.503 620.334Q593.562 620.006 576.62 620.239ZM634.498 620.09C634.616 640.386 634.365 660.704 634.678 680.996C648.854 680.133 663.189 680.456 677.391 680.404L753.251 680.368L844.642 680.369C857.375 680.361 870.301 679.743 883.005 680.101C883.511 679.053 883.442 678.533 883.411 677.433C882.868 658.354 883.041 639.161 883.176 620.073Q839.203 619.838 795.229 620.072L634.498 620.09Z"/>
	<path fill="#0D3B66" d="M427.46 700.339C420.98 699.412 413.904 699.857 407.344 699.853L373.905 699.872L257.392 699.776C249.592 699.711 241.799 699.73 234.044 698.788Q232.246 698.56 230.453 698.295Q228.661 698.03 226.874 697.728Q225.087 697.426 223.307 697.087Q221.527 696.748 219.754 696.372Q217.981 695.996 216.217 695.584Q214.452 695.171 212.696 694.722Q210.941 694.273 209.195 693.787Q207.449 693.302 205.713 692.78Q203.978 692.259 202.253 691.701Q200.529 691.144 198.817 690.551Q197.104 689.957 195.405 689.329Q193.705 688.7 192.018 688.037Q190.332 687.373 188.66 686.675Q186.988 685.976 185.33 685.243Q183.673 684.51 182.031 683.743Q180.39 682.976 178.764 682.175Q177.138 681.374 175.53 680.539Q173.921 679.704 172.331 678.837Q170.74 677.969 169.167 677.068Q167.594 676.168 166.041 675.234Q164.487 674.301 162.954 673.336Q161.42 672.371 159.906 671.375Q158.393 670.378 156.9 669.35Q155.408 668.322 153.937 667.263Q152.466 666.205 151.017 665.116Q149.569 664.027 148.143 662.909Q146.717 661.79 145.315 660.642Q143.913 659.494 142.535 658.317Q141.157 657.14 139.804 655.935Q138.45 654.73 137.122 653.497Q135.794 652.264 134.492 651.003Q133.19 649.743 131.914 648.456Q130.311 646.845 128.748 645.196Q127.186 643.546 125.664 641.858Q124.143 640.171 122.663 638.446Q121.184 636.721 119.747 634.96Q118.311 633.199 116.919 631.404Q115.526 629.608 114.179 627.778Q112.831 625.949 111.529 624.086Q110.227 622.224 108.972 620.33Q107.716 618.436 106.508 616.512Q105.299 614.588 104.139 612.634Q102.978 610.68 101.866 608.699Q100.754 606.717 99.6914 604.708Q98.6287 602.7 97.616 600.666Q96.6033 598.631 95.6411 596.573Q94.6789 594.514 93.7679 592.433Q92.8568 590.351 91.9975 588.247Q91.1381 586.144 90.331 584.02Q89.5238 581.896 88.7694 579.752Q88.015 577.609 87.3137 575.447Q86.6124 573.286 85.9648 571.108Q85.3171 568.93 84.7234 566.736Q84.1298 564.543 83.5905 562.335Q83.0512 560.128 82.5665 557.908Q82.0819 555.688 81.6522 553.457Q81.2226 551.225 80.8482 548.984Q80.4738 546.743 80.1548 544.493Q79.8359 542.243 79.5726 539.986Q79.3093 537.729 79.1019 535.466Q78.8944 533.203 78.7429 530.936Q78.5914 528.669 78.496 526.399Q78.4005 524.128 78.3612 521.856Q78.3218 519.584 78.3386 517.312C78.9499 465.393 99.3277 419.518 136.401 383.31C164.905 355.47 204.509 336.31 244.245 332.525C254.586 331.54 265.078 331.876 275.456 331.889L322.252 331.962Q374.763 331.639 427.274 331.892C427.603 385.593 426.565 439.32 427.343 493.02C420.427 493.002 393.052 493.921 389.044 492.751C379.998 485.509 369.774 479.835 360.593 472.779C359.562 455.994 360.18 438.821 360.133 421.983C350.283 421.371 340.344 421.561 330.477 421.518L330.501 451.848C322.188 445.505 313.95 439.05 305.414 433.009C293.757 424.759 281.621 416.861 270.536 407.861C252.687 422.004 233.099 434.61 214.447 447.719C193.315 462.572 172.559 478.088 151.029 492.36L148.421 494.28L148.477 617.488L284.137 617.63L427.537 617.522C427.491 645.109 427.982 672.762 427.46 700.339Z"/>
	<path fill="#FAF0CA" d="M786.92 363.205C792.808 357.715 798.837 352.312 804.361 346.453C815.939 359.365 829.166 371.022 841.577 383.14C856.796 398.001 871.562 413.299 886.76 428.173C896.125 437.339 906.031 446.232 914.743 456.026C908.733 461.346 902.857 466.808 897.388 472.685C893.571 470.519 875.084 450.826 870.153 445.962C842.33 418.51 813.969 391.419 786.92 363.205Z"/>
	<path fill="#FAF0CA" d="M447.427 350.507Q521.605 351.35 595.78 350.237L611.01 350.478L611.004 409.424C561.151 408.893 511.235 409.413 461.375 409.393L447.246 409.358Q446.959 379.931 447.427 350.507Z"/>
	<path fill="#FAF0CA" d="M632.452 350.977Q646.018 351.095 659.579 350.725C673.21 350.487 686.848 351.293 700.481 350.724Q700.378 379.861 700.693 408.996L674.844 409.109Q653.69 408.902 632.536 409.129L632.452 350.977Z"/>
	<path fill="#FAF0CA" d="M722.492 351.399C737.038 351.35 751.582 350.928 766.138 350.937C771.852 350.941 778.513 350.356 784.115 351.335C785.279 351.538 786.038 352.025 786.984 352.706C782.195 357.523 767.575 370.624 764.37 375.649C760.502 380.409 758.446 385.781 759.186 391.98Q759.33 393.131 759.591 394.261Q759.853 395.392 760.23 396.489Q760.606 397.586 761.094 398.639Q761.581 399.692 762.174 400.689C763.298 403.424 764.857 405.906 766.361 408.444C762.055 410.788 729.676 409.937 722.427 409.922L722.492 351.399Z"/>
	<path fill="#FAF0CA" d="M875.94 491.203C875.376 491.261 874.81 491.307 874.243 491.332C870.559 491.492 868.682 489.607 866.089 487.257C858.507 480.386 767.521 391.363 767.078 390.349C766.902 389.947 766.822 388.851 766.827 388.374C766.895 382.619 777.369 374.15 781.405 369.9C796.558 385.413 812.314 400.416 827.742 415.661L864.801 452.884C873.423 461.391 882.37 469.559 890.851 478.21C886.36 483.451 882.439 488.369 875.94 491.203Z"/>
	<path fill="#EBCE62" d="M764.37 375.649C765.33 379.071 761.652 383.725 761.436 387.419C761.222 391.06 762.088 395.597 762.795 399.192L762.174 400.689Q761.581 399.692 761.094 398.639Q760.606 397.586 760.23 396.489Q759.853 395.392 759.592 394.261Q759.33 393.131 759.186 391.98C758.446 385.781 760.502 380.409 764.37 375.649Z"/>
	<path fill="#FAF0CA" d="M151.029 492.36C172.559 478.088 193.315 462.572 214.447 447.719C233.099 434.61 252.687 422.004 270.536 407.861C281.621 416.861 293.757 424.759 305.414 433.009C313.95 439.05 322.188 445.505 330.501 451.848L330.477 421.518C340.344 421.561 350.283 421.371 360.133 421.983C360.18 438.821 359.562 455.994 360.593 472.779C369.774 479.835 379.998 485.509 389.044 492.751C388.402 493.051 388.297 493.135 387.498 493.301C383.407 494.154 378.068 493.542 373.829 493.526L340.372 493.282L216.44 493.039C206.75 493.058 155.317 494.722 151.029 492.36Z"/>
	<path fill="#FAF0CA" d="M632.682 493L632.711 432.222C655.466 432.861 678.302 432.415 701.068 432.542C700.933 438.84 701.819 491.674 700.848 493.431L632.682 493Z"/>
	<path fill="#FAF0CA" d="M722.585 432.536C742.135 432.559 761.883 433.101 781.405 432.173C784.039 443.602 783.452 455.259 777.106 465.429C772.687 472.51 765.801 477.572 759.438 482.797C757.676 484.245 755.317 485.781 753.875 487.491Q749.788 490.6 745.758 493.784C738.559 492.513 729.821 493.365 722.44 493.35L722.585 432.536Z"/>
	<path fill="#FAF0CA" d="M447.451 492.978C447.484 472.889 448.039 452.651 446.974 432.592Q529.006 432.983 611.038 432.487C610.756 452.471 610.989 472.481 611.015 492.468C610.4 493.156 609.427 493.026 608.527 493.13L607.997 492.458L608.024 493.125L447.451 492.978Z"/>
	<path fill="#FAF0CA" d="M794.511 493.333C801.244 486.147 810.452 481.306 820.286 480.423C833.533 479.235 842.93 484.038 852.879 492.384C852.473 492.775 852.163 493.301 851.661 493.557C848.342 495.249 807.656 493.98 801.105 493.85C799.074 493.81 796.435 494.038 794.511 493.333Z"/>
	<path fill="#FAF0CA" d="M155.876 501.055Q219.946 500.62 284.015 500.966L692.941 500.986L824.251 501.756C837.297 501.728 870.042 503.8 880.275 500.01C880.95 499.952 881.487 500.071 882.15 500.189C884.697 503.172 883.221 598.96 883.16 611.047C870.006 611.617 856.792 611.33 843.626 611.301Q811.445 611.428 779.266 611.14L588.59 611.409L332 610.591L228.764 610.619C204.909 610.749 180.968 611.514 157.121 610.81L156.233 610.557C156.046 610.301 155.794 610.082 155.672 609.789C155.321 608.946 155.454 509.755 155.876 501.055ZM538.034 519.258C530.145 522.136 523.737 527.801 520.252 535.482C519.935 536.181 519.926 536.241 519.71 536.863C517.52 543.472 516.927 550.791 519.195 557.492C520.317 562.09 523.139 566.845 526.569 570.063Q527.143 570.597 527.744 571.102Q528.344 571.608 528.969 572.082Q529.594 572.557 530.241 573Q530.889 573.442 531.557 573.853Q532.226 574.263 532.915 574.639Q533.603 575.015 534.31 575.357Q535.016 575.698 535.738 576.004Q536.461 576.31 537.198 576.579Q537.934 576.849 538.684 577.081Q539.433 577.314 540.193 577.509Q540.953 577.703 541.721 577.86Q542.49 578.017 543.266 578.135Q544.041 578.254 544.822 578.333Q545.602 578.413 546.386 578.453Q547.169 578.494 547.954 578.495Q548.738 578.497 549.522 578.459C555.266 578.221 564.302 576.335 568.159 571.772C569.191 570.552 569.599 569.447 569.502 567.875C568.714 566.649 567.824 565.7 566.455 565.103C562.753 563.491 559.284 567.975 555.842 569.03C549.904 570.851 542.433 569.782 536.97 566.958C531.769 564.27 528.81 559.929 527.153 554.433C525.435 548.737 525.756 542.96 528.723 537.757C533.918 528.647 543.143 523.649 553.528 526.619C558.044 527.911 563.08 532.249 567.874 530.785C568.685 530.538 569.654 529.964 569.997 529.155C570.393 528.22 570.303 527.359 569.904 526.436C568.255 522.614 564.147 521.128 560.579 519.679C553.419 516.919 545.284 516.924 538.034 519.258ZM213.299 517.208C204.309 517.941 196.488 520.699 190.512 527.781C185.091 534.207 182.739 542.932 183.53 551.249C184.3 559.328 188.122 566.818 194.492 571.913Q195.074 572.379 195.678 572.815Q196.282 573.251 196.907 573.657Q197.532 574.063 198.176 574.437Q198.82 574.811 199.482 575.153Q200.144 575.495 200.823 575.804Q201.501 576.112 202.193 576.387Q202.886 576.662 203.591 576.902Q204.297 577.142 205.013 577.347Q205.73 577.551 206.456 577.72Q207.181 577.889 207.914 578.022Q208.648 578.155 209.386 578.251Q210.125 578.347 210.868 578.407Q211.611 578.467 212.356 578.489Q213.1 578.512 213.845 578.498Q214.59 578.483 215.334 578.432Q216.077 578.381 216.817 578.293C224.807 577.356 231.892 573.196 237.9 568.023C235.798 565.985 233.732 563.843 231.505 561.946L227.507 565.56C221.886 569.09 216.495 571.1 209.755 569.607C203.811 568.291 198.244 564.654 195.159 559.345C192.042 553.98 191.533 547.111 193.281 541.213C194.932 535.643 198.757 530.687 203.928 527.968C209.16 525.217 215.431 524.845 221.028 526.661C224.741 527.866 227.997 529.955 230.955 532.47C232.883 530.435 234.785 528.372 236.849 526.474C229.748 520.848 222.601 517.032 213.299 517.208ZM708.174 521.028C705.144 524.751 706.194 532.55 706.213 537.328C704.041 537.725 701.456 537.906 700.102 539.887C699.598 540.624 699.853 541.015 699.959 541.844C701.572 543.933 703.602 544.485 706.039 545.274C705.998 549.718 704.785 574.668 707.445 576.689C708.532 577.515 710.383 577.651 711.691 577.818C715.764 572.212 713.679 552.223 714.056 544.498C715.593 544.305 718.166 544.245 719.242 543.021C720.174 541.962 720.063 541.565 719.892 540.283C718.154 537.965 716.77 537.756 713.993 537.285C714.013 533.752 715.363 524.824 713.034 522.154C711.79 520.728 709.883 520.944 708.174 521.028ZM844.386 521.979C841.151 526.014 842.068 533.282 842.051 538.204C840.508 538.241 838.409 538.033 837.281 539.282C836.355 540.308 836.272 540.769 836.219 542.061C836.756 543.058 837.211 544.158 838.427 544.447C839.547 544.713 841.023 544.657 842.166 544.698C842.226 550.153 841.436 573.614 843.51 576.449C844.798 577.095 845.844 577.238 847.236 576.847C848.136 576.594 849.027 576.135 849.831 575.663C851.742 567.25 850.378 554.551 850.488 545.574C853.068 545.595 856.229 546.099 858.217 544.128C858.891 543.46 859.1 542.892 859.35 542.015C859.17 540.606 858.724 539.764 857.619 538.878C855.712 537.349 853.239 537.471 850.927 537.444C850.985 533.912 852.263 525.778 849.631 523.142C848.252 521.761 846.186 521.899 844.386 521.979ZM303.971 525.241C302.746 532.478 303.459 540.669 303.465 548.035C303.473 557.834 303.173 567.758 303.56 577.543L311.192 577.322Q310.948 560.667 311.037 544.011C314.751 549.17 338.932 577.635 342.952 578.799L342.872 547.071C342.896 541.625 343.428 535.791 343.062 530.381C342.997 529.419 342.559 528.519 341.881 527.831Q341.719 527.666 341.539 527.521Q341.359 527.376 341.164 527.253Q340.969 527.129 340.761 527.028Q340.553 526.928 340.335 526.851Q340.117 526.775 339.891 526.724Q339.666 526.673 339.436 526.648Q339.207 526.623 338.975 526.624Q338.744 526.625 338.515 526.653C337.76 526.745 337.428 527.184 336.858 527.638C334.374 533.362 335.514 553.631 335.507 561.013C330.583 555.195 308.235 527.863 303.971 525.241ZM352.811 525.368C351.69 531.051 352.525 538.236 352.558 544.096L352.519 577.483L360.121 577.604C360.136 566.638 360.061 555.661 360.197 544.696C364.239 549.717 387.399 577.224 391.485 578.801C392.23 569.501 391.514 559.946 391.466 550.616C391.431 544.006 392.091 536.952 391.493 530.401C391.371 529.064 391.413 528.575 390.608 527.521C388.329 526.897 386.461 527.188 384.257 527.96C382.853 530.299 383.817 555.856 383.819 560.276Q372.695 546.96 361 534.143C358.482 531.344 355.851 527.527 352.811 525.368ZM266.736 526.134C259.127 527.443 252.651 530.369 248.017 536.842Q247.622 537.404 247.257 537.984Q246.891 538.565 246.555 539.164Q246.219 539.762 245.914 540.377Q245.609 540.992 245.335 541.621Q245.062 542.251 244.82 542.893Q244.579 543.535 244.37 544.189Q244.161 544.843 243.986 545.507Q243.81 546.17 243.669 546.842Q243.527 547.513 243.42 548.191Q243.312 548.869 243.239 549.551Q243.166 550.234 243.127 550.919Q243.089 551.604 243.085 552.291Q243.081 552.977 243.112 553.663Q243.143 554.348 243.208 555.032Q243.274 555.715 243.374 556.394Q243.474 557.073 243.608 557.746C244.972 564.659 249.336 570.481 255.246 574.216C260.513 577.544 265.546 578.298 271.645 577.97C279.371 576.531 285.678 573.15 290.241 566.588C294.325 560.717 295.795 554.053 294.527 547.005C293.291 540.13 289.58 534.132 283.707 530.278C278.712 527 272.658 525.669 266.736 526.134ZM422.227 526.087C414.36 527.847 408.23 530.779 403.778 537.895Q403.411 538.483 403.073 539.088Q402.735 539.693 402.427 540.314Q402.12 540.936 401.843 541.571Q401.566 542.207 401.321 542.855Q401.076 543.504 400.863 544.163Q400.65 544.823 400.47 545.492Q400.29 546.162 400.143 546.839Q399.997 547.516 399.883 548.2Q399.77 548.884 399.691 549.573Q399.611 550.261 399.566 550.953Q399.52 551.645 399.509 552.338Q399.497 553.031 399.52 553.724Q399.543 554.416 399.6 555.107Q399.657 555.798 399.748 556.485Q399.839 557.172 399.963 557.854Q400.088 558.536 400.246 559.211Q400.392 559.802 400.567 560.386Q400.742 560.97 400.945 561.545Q401.148 562.119 401.379 562.683Q401.61 563.247 401.868 563.799Q402.126 564.351 402.41 564.89Q402.695 565.429 403.005 565.953Q403.315 566.478 403.651 566.987Q403.986 567.495 404.346 567.987Q404.706 568.479 405.089 568.953Q405.473 569.427 405.878 569.881Q406.284 570.336 406.712 570.77Q407.139 571.204 407.587 571.617Q408.035 572.03 408.503 572.421Q408.971 572.812 409.457 573.179Q409.943 573.547 410.446 573.89Q410.949 574.233 411.469 574.552C417.316 578.1 423.648 578.842 430.32 578.116C437.748 576.248 444.278 572.835 448.422 566.088C452.249 559.857 453.055 551.997 451.134 544.996Q450.964 544.367 450.764 543.748Q450.563 543.128 450.332 542.52Q450.101 541.911 449.84 541.314Q449.579 540.718 449.288 540.135Q448.998 539.552 448.678 538.985Q448.359 538.417 448.012 537.866Q447.665 537.315 447.292 536.782Q446.918 536.249 446.518 535.735Q446.118 535.221 445.693 534.728Q445.268 534.235 444.819 533.763Q444.37 533.291 443.898 532.843Q443.426 532.394 442.932 531.97Q442.438 531.545 441.924 531.145Q441.41 530.746 440.877 530.372Q440.343 529.999 439.792 529.652Q439.241 529.306 438.673 528.987C433.526 526.154 427.974 525.576 422.227 526.087ZM463.138 527.272C461.89 527.362 461.543 527.105 460.635 528.033C460.215 537.946 460.441 547.946 460.44 557.87C460.44 563.255 459.979 569.149 460.59 574.473C460.687 575.317 460.967 575.82 461.494 576.469C462.669 577.188 463.824 577.63 465.222 577.391C466.614 577.153 467.223 576.598 468.101 575.565C469.412 568.906 467.872 560.954 468.078 554.078C471.889 559.343 475.236 564.771 478.443 570.422C479.642 572.571 481.298 576.643 483.764 577.504C484.966 577.923 486.605 577.713 487.666 577.038C488.368 576.591 488.428 575.986 488.726 575.254C488.482 569.601 481.118 559.913 478.252 554.756C482.424 552.833 485.266 550.432 486.855 546C488.135 542.43 488.107 538.111 486.379 534.691C484.633 531.236 481.332 529.007 477.681 527.942C473.047 526.591 467.905 527.08 463.138 527.272ZM596.928 537.139C590.696 538.181 584.99 540.53 581.251 545.903Q580.952 546.341 580.676 546.795Q580.4 547.248 580.148 547.715Q579.895 548.182 579.667 548.661Q579.439 549.14 579.236 549.63Q579.033 550.12 578.855 550.62Q578.678 551.12 578.526 551.629Q578.374 552.138 578.249 552.653Q578.123 553.169 578.024 553.69Q577.926 554.212 577.854 554.737Q577.782 555.263 577.737 555.792Q577.692 556.321 577.675 556.851Q577.657 557.381 577.667 557.912Q577.677 558.443 577.714 558.972Q577.751 559.501 577.815 560.028Q577.879 560.555 577.97 561.078Q578.061 561.601 578.179 562.118Q578.294 562.64 578.436 563.156Q578.578 563.671 578.746 564.179Q578.914 564.686 579.108 565.184Q579.302 565.683 579.521 566.17Q579.74 566.658 579.984 567.134Q580.228 567.61 580.496 568.072Q580.764 568.535 581.055 568.983Q581.346 569.432 581.66 569.865Q581.974 570.297 582.31 570.713Q582.646 571.13 583.002 571.528Q583.359 571.926 583.735 572.306Q584.112 572.686 584.507 573.045Q584.902 573.405 585.316 573.744Q585.729 574.083 586.159 574.401Q586.59 574.718 587.036 575.013Q587.482 575.308 587.942 575.58C591.497 577.653 595.28 578.407 599.354 578.44C605.701 577.397 610.976 574.591 614.775 569.242Q615.061 568.839 615.326 568.422Q615.591 568.005 615.836 567.575Q616.08 567.145 616.302 566.704Q616.525 566.263 616.725 565.811Q616.925 565.359 617.103 564.898Q617.28 564.437 617.435 563.967Q617.589 563.498 617.72 563.021Q617.851 562.545 617.958 562.062Q618.065 561.58 618.147 561.092Q618.23 560.605 618.289 560.115Q618.347 559.624 618.381 559.131Q618.415 558.638 618.425 558.144Q618.434 557.649 618.419 557.155Q618.404 556.661 618.364 556.169Q618.324 555.676 618.26 555.186Q618.195 554.696 618.107 554.21C617.115 548.521 613.824 543.285 608.944 540.147C605.266 537.782 601.25 536.93 596.928 537.139ZM644.266 537.113C642.529 537.567 636.667 541.081 635.799 540.705C635.722 540.551 635.646 540.397 635.568 540.245C635.014 539.171 634.521 538.008 633.299 537.56C632.018 537.09 630.99 537.463 629.769 537.845C626.976 540.775 627.922 566.711 628.048 571.869C628.083 573.263 628.109 574.869 629.099 575.961C629.9 576.845 630.991 577.332 632.192 577.241C633.511 577.142 634.392 576.39 635.139 575.361C640.225 568.366 629.824 551.173 641.417 545.169C641.613 545.13 641.807 545.088 642.003 545.052C644.411 544.606 646.487 544.666 648.541 546.148C650.617 547.644 651.58 550.106 651.887 552.569C652.578 558.107 649.941 574.352 653.772 577.655C655.063 577.932 655.791 578.04 656.995 577.37C658.386 576.597 659.528 574.937 659.806 573.381C660.464 569.692 660.197 552.571 659.478 548.832C658.969 546.182 658.038 543.567 656.336 541.44C654.317 538.915 651.459 537.404 648.251 537.1C646.919 536.973 645.598 537.018 644.266 537.113ZM679.732 537.078C676.365 538.028 673.68 539.224 671.961 542.448C670.64 544.925 669.685 548.468 670.661 551.218C672.962 557.7 688.685 560.741 685.079 568.454C684.622 569.431 683.513 570.555 682.494 570.885C681.333 571.26 680.076 570.764 679.127 570.082C677.041 568.581 675.28 565.886 672.643 565.451C671.292 566.045 670.627 566.791 670.074 568.181C669.479 569.679 669.434 571.353 670.177 572.808C671.506 575.411 674.868 577.143 677.56 577.917C679.227 578.396 680.899 578.353 682.605 578.188C687.412 576.766 690.779 575.29 693.286 570.556C694.553 568.165 694.835 565.706 693.972 563.13C690.749 553.498 680.421 552.968 678.152 548.971C677.524 547.864 677.828 546.941 678.163 545.849C679.304 544.65 680.236 544.242 681.782 543.686C685.863 544.138 686.45 550.66 691.509 545.929C692.516 544.988 692.529 544.613 692.655 543.33C691.436 540.575 688.501 538.777 685.78 537.686C683.917 536.939 681.709 536.977 679.732 537.078ZM741.479 537.045C739.649 538.074 737.408 539.721 735.321 539.988L734.709 539.438L733.452 538.327C732.517 537.499 732.029 537.141 730.731 537.002C729.555 537.368 729.098 537.446 728.209 538.342C726.964 544.482 726.669 570.351 727.97 576.298C729.884 577.788 731.289 577.68 733.61 577.449C738.847 570.067 730.133 546.349 742.5 545.115C743.639 545.001 744.83 545.244 745.95 545.439C747.214 543.735 748.6 542.214 748.973 540.075C748.676 538.812 748.642 538.482 747.416 537.792C745.913 536.946 743.152 537.094 741.479 537.045ZM814.914 537.099C809.085 538.292 804.282 541.2 800.975 546.239Q800.682 546.684 800.412 547.143Q800.143 547.602 799.897 548.074Q799.651 548.546 799.43 549.03Q799.208 549.514 799.012 550.009Q798.815 550.504 798.645 551.008Q798.474 551.513 798.329 552.025Q798.184 552.537 798.066 553.056Q797.947 553.575 797.855 554.1Q797.763 554.624 797.699 555.153Q797.634 555.681 797.596 556.212Q797.558 556.743 797.548 557.276Q797.537 557.808 797.554 558.34Q797.571 558.872 797.614 559.403Q797.658 559.933 797.729 560.461Q797.8 560.989 797.898 561.512Q797.996 562.035 798.12 562.553C799.529 568.383 803.249 572.779 808.392 575.733C812.942 578.347 818.432 578.325 823.4 576.896C825.868 576.186 829.289 574.911 830.575 572.494C830.964 571.763 831.133 571.102 830.944 570.258C830.662 568.997 829.693 568.463 829.06 567.49C828.901 567.248 828.819 566.963 828.699 566.7L828.254 566.696C823.717 568.719 818.995 571.379 813.98 569.295C810.699 567.931 808.165 565.53 806.948 562.159C805.607 558.442 806.139 553.223 808.031 549.769C809.351 547.358 811.537 545.972 814.168 545.327C821.27 543.585 823.364 547.411 827.766 547.725C828.823 547.8 829.646 546.855 830.211 546.076C831.033 544.942 831.142 543.853 831.035 542.491C828.755 539.338 824.235 537.723 820.495 537.214C818.647 536.963 816.77 536.965 814.914 537.099ZM757.756 537.427C755.619 539.518 755.466 541.126 755.424 544.025C755.316 551.59 754.617 568.092 759.816 573.641C762.576 576.586 766.704 577.906 770.658 578.006C774.863 578.112 779.319 576.737 782.344 573.723C788.291 567.799 786.481 554.396 786.397 546.697C786.377 544.159 786.92 540.39 785.057 538.432C784.367 537.708 783.729 537.684 782.804 537.41C781.564 537.616 780.721 537.826 779.958 538.916C775.338 545.517 784.125 566.841 774.164 570.077C772.023 570.773 768.786 570.147 766.883 568.993C765.146 567.938 764.154 566.144 763.721 564.202C762.476 558.609 765.651 541.611 761.914 538.388C760.836 537.457 759.097 537.462 757.756 537.427Z"/>
	<path fill="#0D3B66" d="M237.9 568.023C231.892 573.196 224.807 577.356 216.817 578.293Q216.077 578.381 215.334 578.432Q214.59 578.483 213.845 578.498Q213.1 578.512 212.356 578.489Q211.611 578.467 210.868 578.407Q210.125 578.347 209.386 578.251Q208.648 578.155 207.914 578.022Q207.181 577.889 206.455 577.72Q205.73 577.551 205.013 577.347Q204.297 577.142 203.591 576.902Q202.886 576.662 202.193 576.387Q201.501 576.112 200.823 575.804Q200.144 575.495 199.482 575.153Q198.82 574.811 198.176 574.437Q197.532 574.063 196.907 573.657Q196.282 573.251 195.678 572.815Q195.074 572.379 194.492 571.913C188.122 566.818 184.3 559.328 183.53 551.249C182.739 542.932 185.091 534.207 190.512 527.781C196.488 520.699 204.309 517.941 213.299 517.208C222.601 517.032 229.748 520.848 236.849 526.474C234.785 528.372 232.883 530.435 230.955 532.47C227.997 529.955 224.741 527.866 221.028 526.661C215.431 524.845 209.16 525.217 203.928 527.968C198.757 530.687 194.932 535.643 193.281 541.213C191.533 547.111 192.042 553.98 195.159 559.345C198.244 564.654 203.811 568.291 209.755 569.607C216.495 571.1 221.886 569.09 227.507 565.56L231.505 561.946C233.732 563.843 235.798 565.985 237.9 568.023Z"/>
	<path fill="#0D3B66" d="M519.71 536.863C519.926 536.241 519.935 536.181 520.252 535.482C523.737 527.801 530.145 522.136 538.034 519.258C545.284 516.924 553.419 516.919 560.579 519.679C564.147 521.128 568.255 522.614 569.904 526.436C570.303 527.359 570.393 528.22 569.997 529.155C569.654 529.964 568.685 530.538 567.874 530.785C563.08 532.249 558.044 527.911 553.528 526.619C543.143 523.649 533.918 528.647 528.723 537.757C525.756 542.96 525.435 548.737 527.153 554.433C528.81 559.929 531.769 564.27 536.97 566.958C542.433 569.782 549.904 570.851 555.842 569.03C559.284 567.975 562.753 563.491 566.455 565.103C567.824 565.7 568.714 566.649 569.502 567.875C569.599 569.447 569.191 570.552 568.159 571.772C564.302 576.335 555.266 578.221 549.522 578.459Q548.738 578.497 547.954 578.495Q547.169 578.494 546.386 578.453Q545.602 578.413 544.822 578.333Q544.041 578.254 543.266 578.135Q542.49 578.017 541.721 577.86Q540.953 577.703 540.193 577.509Q539.433 577.314 538.684 577.081Q537.934 576.849 537.198 576.579Q536.461 576.31 535.738 576.004Q535.016 575.698 534.31 575.357Q533.603 575.015 532.915 574.639Q532.226 574.263 531.557 573.853Q530.889 573.442 530.241 573Q529.594 572.557 528.969 572.082Q528.344 571.608 527.744 571.102Q527.143 570.597 526.569 570.063C523.139 566.845 520.317 562.09 519.195 557.492C516.927 550.791 517.52 543.472 519.71 536.863Z"/>
	<path fill="#0D3B66" d="M706.213 537.328C706.194 532.55 705.144 524.751 708.174 521.028C709.883 520.944 711.79 520.728 713.034 522.154C715.363 524.824 714.013 533.752 713.993 537.285C716.77 537.756 718.154 537.965 719.892 540.283C720.063 541.565 720.174 541.962 719.242 543.021C718.166 544.245 715.593 544.305 714.056 544.498C713.679 552.223 715.764 572.212 711.691 577.818C710.383 577.651 708.532 577.515 707.445 576.689C704.785 574.668 705.998 549.718 706.039 545.274C703.602 544.485 701.572 543.933 699.959 541.844C699.853 541.015 699.598 540.624 700.102 539.887C701.456 537.906 704.041 537.725 706.213 537.328Z"/>
	<path fill="#0D3B66" d="M842.051 538.204C842.068 533.282 841.151 526.014 844.386 521.979C846.186 521.899 848.252 521.761 849.631 523.142C852.263 525.778 850.985 533.912 850.927 537.444C853.239 537.471 855.712 537.349 857.619 538.878C858.724 539.764 859.17 540.606 859.35 542.015C859.1 542.892 858.891 543.46 858.217 544.128C856.229 546.099 853.068 545.595 850.488 545.574C850.378 554.551 851.742 567.25 849.831 575.663C849.027 576.135 848.136 576.594 847.236 576.847C845.844 577.238 844.798 577.095 843.51 576.449C841.436 573.614 842.226 550.153 842.166 544.698C841.023 544.657 839.547 544.713 838.427 544.447C837.211 544.158 836.756 543.058 836.219 542.061C836.272 540.769 836.355 540.308 837.281 539.282C838.409 538.033 840.508 538.241 842.051 538.204Z"/>
	<path fill="#0D3B66" d="M303.56 577.543C303.173 567.758 303.473 557.834 303.465 548.035C303.459 540.669 302.746 532.478 303.971 525.241C308.235 527.863 330.583 555.195 335.507 561.013C335.514 553.631 334.374 533.362 336.858 527.638C337.428 527.184 337.76 526.745 338.515 526.653Q338.744 526.625 338.975 526.624Q339.207 526.623 339.436 526.648Q339.666 526.673 339.891 526.724Q340.117 526.775 340.335 526.851Q340.553 526.928 340.761 527.028Q340.969 527.129 341.164 527.253Q341.359 527.376 341.539 527.521Q341.719 527.666 341.881 527.831C342.559 528.519 342.997 529.419 343.062 530.381C343.428 535.791 342.896 541.625 342.872 547.071L342.952 578.799C338.932 577.635 314.751 549.17 311.037 544.011Q310.948 560.667 311.192 577.322L303.56 577.543Z"/>
	<path fill="#0D3B66" d="M352.519 577.483L352.558 544.096C352.525 538.236 351.69 531.051 352.811 525.368C355.851 527.527 358.482 531.344 361 534.143Q372.695 546.96 383.819 560.276C383.817 555.856 382.853 530.299 384.257 527.96C386.461 527.188 388.329 526.897 390.608 527.521C391.413 528.575 391.371 529.064 391.493 530.401C392.091 536.952 391.431 544.006 391.466 550.616C391.514 559.946 392.23 569.501 391.485 578.801C387.399 577.224 364.239 549.717 360.197 544.696C360.061 555.661 360.136 566.638 360.121 577.604L352.519 577.483Z"/>
	<path fill="#0D3B66" d="M271.645 577.97C265.546 578.298 260.513 577.544 255.246 574.216C249.336 570.481 244.972 564.659 243.608 557.746Q243.474 557.073 243.374 556.394Q243.274 555.715 243.208 555.032Q243.143 554.348 243.112 553.663Q243.081 552.977 243.085 552.291Q243.089 551.604 243.127 550.919Q243.166 550.234 243.239 549.551Q243.312 548.869 243.42 548.191Q243.527 547.513 243.669 546.842Q243.81 546.17 243.986 545.507Q244.161 544.843 244.37 544.189Q244.579 543.535 244.82 542.893Q245.062 542.251 245.335 541.621Q245.609 540.992 245.914 540.377Q246.219 539.762 246.555 539.164Q246.891 538.565 247.257 537.984Q247.622 537.404 248.017 536.842C252.651 530.369 259.127 527.443 266.736 526.134C272.658 525.669 278.712 527 283.707 530.278C289.58 534.132 293.291 540.13 294.527 547.005C295.795 554.053 294.325 560.717 290.241 566.588C285.678 573.15 279.371 576.531 271.645 577.97ZM265.449 534.097C260.387 535.414 256.486 537.719 253.7 542.334C251.058 546.709 250.35 552.34 251.673 557.261Q251.884 558.057 252.173 558.828Q252.462 559.599 252.826 560.338Q253.19 561.077 253.625 561.776Q254.06 562.475 254.562 563.128Q255.065 563.781 255.629 564.38Q256.193 564.98 256.814 565.521Q257.436 566.062 258.107 566.538Q258.779 567.015 259.494 567.423C263.387 569.67 267.701 570.205 272.123 569.928C277.044 568.821 281.074 566.56 283.842 562.209C286.652 557.793 287.307 552.126 286.013 547.095Q285.904 546.661 285.772 546.233Q285.641 545.805 285.488 545.384Q285.334 544.963 285.16 544.551Q284.986 544.138 284.791 543.735Q284.595 543.332 284.38 542.939Q284.165 542.547 283.929 542.166Q283.694 541.785 283.44 541.416Q283.186 541.047 282.913 540.692Q282.64 540.337 282.35 539.996Q282.059 539.656 281.752 539.33Q281.445 539.004 281.121 538.695Q280.797 538.385 280.458 538.093Q280.119 537.8 279.766 537.525Q279.412 537.25 279.045 536.994Q278.678 536.737 278.299 536.5Q277.919 536.262 277.528 536.044C273.683 533.927 269.731 533.752 265.449 534.097Z"/>
	<path fill="#0D3B66" d="M430.32 578.116C423.648 578.842 417.316 578.1 411.469 574.552Q410.949 574.233 410.446 573.89Q409.943 573.547 409.457 573.179Q408.971 572.812 408.503 572.421Q408.035 572.03 407.587 571.617Q407.139 571.204 406.712 570.77Q406.284 570.336 405.878 569.881Q405.473 569.427 405.089 568.953Q404.706 568.479 404.346 567.987Q403.986 567.495 403.651 566.987Q403.315 566.478 403.005 565.953Q402.695 565.429 402.41 564.89Q402.126 564.351 401.868 563.799Q401.61 563.247 401.379 562.683Q401.148 562.119 400.945 561.545Q400.742 560.97 400.567 560.386Q400.392 559.802 400.246 559.211Q400.088 558.536 399.963 557.854Q399.839 557.172 399.748 556.485Q399.657 555.798 399.6 555.107Q399.543 554.416 399.52 553.724Q399.497 553.031 399.509 552.338Q399.52 551.645 399.566 550.953Q399.611 550.261 399.69 549.573Q399.77 548.884 399.883 548.2Q399.997 547.516 400.143 546.839Q400.29 546.162 400.47 545.492Q400.65 544.823 400.863 544.163Q401.076 543.504 401.321 542.855Q401.566 542.207 401.843 541.571Q402.12 540.936 402.427 540.314Q402.735 539.693 403.073 539.088Q403.411 538.483 403.778 537.895C408.23 530.779 414.36 527.847 422.227 526.087C427.974 525.576 433.526 526.154 438.673 528.987Q439.241 529.306 439.792 529.652Q440.343 529.999 440.877 530.372Q441.41 530.746 441.924 531.145Q442.438 531.545 442.932 531.97Q443.426 532.394 443.898 532.843Q444.37 533.291 444.819 533.763Q445.268 534.235 445.693 534.728Q446.118 535.221 446.518 535.735Q446.918 536.249 447.292 536.782Q447.665 537.315 448.012 537.866Q448.359 538.417 448.678 538.985Q448.998 539.552 449.288 540.135Q449.579 540.718 449.84 541.314Q450.101 541.911 450.332 542.52Q450.563 543.128 450.764 543.748Q450.964 544.367 451.134 544.996C453.055 551.997 452.249 559.857 448.422 566.088C444.278 572.835 437.748 576.248 430.32 578.116ZM423.483 533.609C417.835 534.756 413.111 537.301 409.946 542.279Q409.692 542.679 409.458 543.092Q409.224 543.505 409.012 543.93Q408.8 544.354 408.61 544.789Q408.42 545.224 408.252 545.667Q408.085 546.111 407.94 546.563Q407.796 547.015 407.675 547.474Q407.553 547.932 407.456 548.397Q407.359 548.861 407.285 549.33Q407.211 549.799 407.162 550.271Q407.113 550.742 407.088 551.216Q407.062 551.69 407.062 552.164Q407.061 552.639 407.084 553.113Q407.108 553.587 407.156 554.059Q407.204 554.531 407.276 555Q407.348 555.469 407.443 555.933Q407.539 556.398 407.659 556.857C408.924 561.59 412.036 565.422 416.28 567.826C420.26 570.079 424.228 570.61 428.705 570.517C434.321 569.111 438.882 566.461 441.873 561.313Q442.11 560.914 442.326 560.504Q442.542 560.094 442.736 559.673Q442.931 559.252 443.103 558.821Q443.276 558.391 443.426 557.952Q443.576 557.513 443.703 557.067Q443.83 556.621 443.934 556.169Q444.038 555.717 444.118 555.26Q444.198 554.804 444.255 554.343Q444.312 553.883 444.344 553.421Q444.377 552.958 444.386 552.494Q444.395 552.031 444.38 551.567Q444.365 551.104 444.325 550.641Q444.286 550.179 444.223 549.72Q444.16 549.26 444.074 548.805Q443.987 548.349 443.877 547.899Q443.767 547.448 443.634 547.004C442.078 541.962 438.268 537.676 433.51 535.423C430.295 533.901 427.009 533.374 423.483 533.609Z"/>
	<path fill="#0D3B66" d="M468.078 554.078C467.872 560.954 469.412 568.906 468.101 575.565C467.223 576.598 466.614 577.153 465.222 577.391C463.824 577.63 462.669 577.188 461.494 576.469C460.967 575.82 460.687 575.317 460.59 574.473C459.979 569.149 460.44 563.255 460.44 557.87C460.441 547.946 460.215 537.946 460.635 528.033C461.543 527.105 461.89 527.362 463.138 527.272C467.905 527.08 473.047 526.591 477.681 527.942C481.332 529.007 484.633 531.236 486.379 534.691C488.107 538.111 488.135 542.43 486.855 546C485.266 550.432 482.424 552.833 478.252 554.756C481.118 559.913 488.482 569.601 488.726 575.254C488.428 575.986 488.368 576.591 487.666 577.038C486.605 577.713 484.966 577.923 483.764 577.504C481.298 576.643 479.642 572.571 478.443 570.422C475.236 564.771 471.889 559.343 468.078 554.078ZM467.945 534.51C467.982 539.027 467.975 543.549 468.069 548.064C472.125 548.057 474.798 548.196 478.294 545.858C479.49 543.889 480.358 542.274 479.711 539.906C479.172 537.935 477.556 536.707 475.805 535.835C473.246 534.561 470.746 534.489 467.945 534.51Z"/>
	<path fill="#FAF0CA" d="M428.705 570.517C424.228 570.61 420.26 570.079 416.28 567.826C412.036 565.422 408.924 561.59 407.659 556.857Q407.539 556.398 407.443 555.933Q407.348 555.469 407.276 555Q407.204 554.531 407.156 554.059Q407.108 553.587 407.084 553.113Q407.061 552.639 407.062 552.164Q407.062 551.69 407.088 551.216Q407.113 550.742 407.162 550.271Q407.211 549.799 407.285 549.33Q407.359 548.861 407.456 548.397Q407.554 547.932 407.675 547.474Q407.796 547.015 407.94 546.563Q408.085 546.111 408.252 545.667Q408.42 545.224 408.61 544.789Q408.8 544.354 409.012 543.93Q409.224 543.505 409.458 543.092Q409.692 542.679 409.946 542.279C413.111 537.301 417.835 534.756 423.483 533.609C427.009 533.374 430.295 533.901 433.51 535.423C438.268 537.676 442.078 541.962 443.634 547.004Q443.767 547.448 443.877 547.899Q443.987 548.349 444.074 548.805Q444.16 549.26 444.223 549.72Q444.286 550.179 444.325 550.641Q444.365 551.104 444.38 551.567Q444.395 552.031 444.386 552.494Q444.377 552.958 444.344 553.421Q444.312 553.883 444.255 554.343Q444.198 554.804 444.118 555.26Q444.038 555.717 443.934 556.169Q443.83 556.621 443.703 557.067Q443.576 557.513 443.426 557.952Q443.276 558.391 443.103 558.821Q442.931 559.252 442.736 559.673Q442.542 560.094 442.326 560.504Q442.11 560.914 441.873 561.313C438.882 566.461 434.321 569.111 428.705 570.517Z"/>
	<path fill="#FAF0CA" d="M272.123 569.928C267.701 570.205 263.387 569.67 259.494 567.423Q258.779 567.015 258.107 566.538Q257.436 566.062 256.815 565.521Q256.193 564.98 255.629 564.38Q255.065 563.781 254.562 563.128Q254.06 562.475 253.625 561.776Q253.19 561.077 252.826 560.338Q252.462 559.599 252.173 558.828Q251.884 558.057 251.673 557.261C250.35 552.34 251.058 546.709 253.7 542.334C256.486 537.719 260.387 535.414 265.449 534.097C269.731 533.752 273.683 533.927 277.528 536.044Q277.919 536.262 278.299 536.499Q278.678 536.737 279.045 536.994Q279.412 537.25 279.766 537.525Q280.119 537.8 280.458 538.093Q280.797 538.385 281.121 538.695Q281.445 539.004 281.752 539.33Q282.059 539.655 282.35 539.996Q282.64 540.337 282.913 540.692Q283.186 541.047 283.44 541.416Q283.694 541.785 283.929 542.166Q284.165 542.547 284.38 542.939Q284.595 543.332 284.791 543.735Q284.986 544.138 285.16 544.551Q285.334 544.963 285.487 545.384Q285.641 545.805 285.772 546.233Q285.904 546.661 286.013 547.095C287.307 552.126 286.652 557.793 283.842 562.209C281.074 566.56 277.044 568.821 272.123 569.928Z"/>
	<path fill="#FAF0CA" d="M468.069 548.064C467.975 543.549 467.982 539.027 467.945 534.51C470.746 534.489 473.246 534.561 475.805 535.835C477.556 536.707 479.172 537.935 479.711 539.906C480.358 542.274 479.49 543.889 478.294 545.858C474.798 548.196 472.125 548.057 468.069 548.064Z"/>
	<path fill="#0D3B66" d="M599.354 578.44C595.28 578.407 591.497 577.653 587.942 575.58Q587.482 575.308 587.036 575.013Q586.59 574.718 586.16 574.401Q585.729 574.083 585.316 573.744Q584.903 573.405 584.507 573.045Q584.112 572.686 583.735 572.306Q583.359 571.926 583.002 571.528Q582.646 571.13 582.31 570.713Q581.974 570.297 581.66 569.864Q581.346 569.432 581.055 568.983Q580.764 568.535 580.496 568.072Q580.228 567.61 579.984 567.134Q579.74 566.658 579.521 566.17Q579.302 565.683 579.108 565.184Q578.914 564.686 578.746 564.179Q578.578 563.671 578.436 563.156Q578.294 562.64 578.179 562.118Q578.061 561.601 577.97 561.078Q577.879 560.555 577.815 560.028Q577.751 559.501 577.714 558.972Q577.677 558.443 577.667 557.912Q577.657 557.381 577.675 556.851Q577.692 556.321 577.737 555.792Q577.782 555.263 577.854 554.737Q577.926 554.212 578.024 553.69Q578.123 553.169 578.249 552.653Q578.374 552.138 578.526 551.629Q578.678 551.12 578.855 550.62Q579.033 550.12 579.236 549.63Q579.439 549.14 579.667 548.661Q579.895 548.182 580.148 547.715Q580.4 547.248 580.676 546.795Q580.952 546.341 581.251 545.903C584.99 540.53 590.696 538.181 596.928 537.139C601.25 536.93 605.266 537.782 608.944 540.147C613.824 543.285 617.115 548.521 618.107 554.21Q618.195 554.696 618.26 555.186Q618.324 555.676 618.364 556.169Q618.404 556.661 618.419 557.155Q618.434 557.649 618.425 558.144Q618.415 558.638 618.381 559.131Q618.347 559.624 618.289 560.115Q618.23 560.605 618.147 561.092Q618.065 561.58 617.958 562.062Q617.851 562.545 617.72 563.021Q617.589 563.498 617.435 563.967Q617.28 564.437 617.103 564.898Q616.925 565.359 616.725 565.811Q616.525 566.263 616.302 566.704Q616.08 567.145 615.836 567.575Q615.591 568.005 615.326 568.422Q615.061 568.839 614.775 569.242C610.976 574.591 605.701 577.397 599.354 578.44ZM595.091 545.084C591.063 546.875 587.956 549.229 586.437 553.526Q586.219 554.135 586.063 554.763Q585.907 555.391 585.816 556.031Q585.725 556.672 585.699 557.318Q585.674 557.964 585.714 558.61Q585.754 559.256 585.859 559.894Q585.964 560.532 586.134 561.157Q586.304 561.781 586.536 562.385Q586.768 562.989 587.06 563.566C588.676 566.709 591.617 568.908 595.017 569.799C596.88 570.288 598.727 570.188 600.626 570.031C604.403 568.757 607.233 567.058 608.992 563.331C610.566 559.995 610.495 555.96 609.066 552.585Q608.819 551.998 608.515 551.438Q608.212 550.879 607.854 550.352Q607.497 549.825 607.089 549.336Q606.681 548.847 606.227 548.4Q605.772 547.954 605.276 547.555Q604.78 547.156 604.247 546.807Q603.714 546.459 603.149 546.165Q602.584 545.872 601.993 545.635C599.706 544.725 597.493 544.817 595.091 545.084Z"/>
	<path fill="#0D3B66" d="M641.417 545.169C629.824 551.173 640.225 568.366 635.139 575.361C634.392 576.39 633.511 577.142 632.192 577.241C630.991 577.332 629.9 576.845 629.099 575.961C628.109 574.869 628.083 573.263 628.048 571.869C627.922 566.711 626.976 540.775 629.769 537.845C630.99 537.463 632.018 537.09 633.299 537.56C634.521 538.008 635.014 539.171 635.568 540.245C635.646 540.397 635.722 540.551 635.799 540.705C636.667 541.081 642.529 537.567 644.266 537.113C645.598 537.018 646.919 536.973 648.251 537.1C651.459 537.404 654.317 538.915 656.336 541.44C658.038 543.567 658.969 546.182 659.478 548.832C660.197 552.571 660.464 569.692 659.806 573.381C659.528 574.937 658.386 576.597 656.995 577.37C655.791 578.04 655.063 577.932 653.772 577.655C649.941 574.352 652.578 558.107 651.887 552.569C651.58 550.106 650.617 547.644 648.541 546.148C646.487 544.666 644.411 544.606 642.003 545.052C641.807 545.088 641.613 545.13 641.417 545.169Z"/>
	<path fill="#0D3B66" d="M682.605 578.188C680.899 578.353 679.227 578.396 677.56 577.917C674.868 577.143 671.506 575.411 670.177 572.808C669.434 571.353 669.479 569.679 670.074 568.181C670.627 566.791 671.292 566.045 672.643 565.451C675.28 565.886 677.041 568.581 679.127 570.082C680.076 570.764 681.333 571.26 682.494 570.885C683.513 570.555 684.622 569.431 685.079 568.454C688.685 560.741 672.962 557.7 670.661 551.218C669.685 548.468 670.64 544.925 671.961 542.448C673.68 539.224 676.365 538.028 679.732 537.078C681.709 536.977 683.917 536.939 685.78 537.686C688.501 538.777 691.436 540.575 692.655 543.33C692.529 544.613 692.516 544.988 691.509 545.929C686.45 550.66 685.863 544.138 681.782 543.686C680.236 544.242 679.304 544.65 678.163 545.849C677.828 546.941 677.524 547.864 678.152 548.971C680.421 552.968 690.749 553.498 693.972 563.13C694.835 565.706 694.553 568.165 693.286 570.556C690.779 575.29 687.412 576.766 682.605 578.188Z"/>
	<path fill="#0D3B66" d="M733.61 577.449C731.289 577.68 729.884 577.788 727.97 576.298C726.669 570.351 726.964 544.482 728.209 538.342C729.098 537.446 729.555 537.368 730.731 537.002C732.029 537.141 732.517 537.499 733.452 538.327L734.709 539.438L735.321 539.988C737.408 539.721 739.649 538.074 741.479 537.045C743.152 537.094 745.913 536.946 747.416 537.792C748.642 538.482 748.676 538.812 748.973 540.075C748.6 542.214 747.214 543.735 745.95 545.439C744.83 545.244 743.639 545.001 742.5 545.115C730.133 546.349 738.847 570.067 733.61 577.449Z"/>
	<path fill="#0D3B66" d="M828.254 566.696L828.699 566.7C828.819 566.963 828.901 567.248 829.06 567.49C829.693 568.463 830.662 568.997 830.944 570.258C831.133 571.102 830.964 571.763 830.575 572.494C829.289 574.911 825.868 576.186 823.4 576.896C818.432 578.325 812.942 578.347 808.392 575.733C803.249 572.779 799.529 568.383 798.12 562.553Q797.996 562.035 797.898 561.512Q797.8 560.989 797.729 560.461Q797.658 559.933 797.614 559.403Q797.571 558.872 797.554 558.34Q797.537 557.808 797.548 557.276Q797.558 556.743 797.596 556.212Q797.634 555.681 797.699 555.153Q797.763 554.624 797.855 554.1Q797.947 553.575 798.066 553.056Q798.184 552.537 798.329 552.025Q798.474 551.513 798.645 551.008Q798.815 550.504 799.012 550.009Q799.208 549.514 799.43 549.03Q799.651 548.546 799.897 548.074Q800.143 547.602 800.412 547.143Q800.682 546.684 800.975 546.239C804.282 541.2 809.085 538.292 814.914 537.099C816.77 536.965 818.647 536.963 820.495 537.214C824.235 537.723 828.755 539.338 831.035 542.491C831.142 543.853 831.033 544.942 830.211 546.076C829.646 546.855 828.823 547.8 827.766 547.725C823.364 547.411 821.27 543.585 814.168 545.327C811.537 545.972 809.351 547.358 808.031 549.769C806.139 553.223 805.607 558.442 806.948 562.159C808.165 565.53 810.699 567.931 813.98 569.295C818.995 571.379 823.717 568.719 828.254 566.696Z"/>
	<path fill="#0D3B66" d="M786.397 546.697C786.481 554.396 788.291 567.799 782.344 573.723C779.319 576.737 774.863 578.112 770.658 578.006C766.704 577.906 762.576 576.586 759.816 573.641C754.617 568.092 755.316 551.59 755.424 544.025C755.466 541.126 755.619 539.518 757.756 537.427C759.097 537.462 760.836 537.457 761.914 538.388C765.651 541.611 762.476 558.609 763.721 564.202C764.154 566.144 765.146 567.938 766.883 568.993C768.786 570.147 772.023 570.773 774.164 570.077C784.125 566.841 775.338 545.517 779.958 538.916C780.721 537.826 781.564 537.616 782.804 537.41C783.729 537.684 784.367 537.708 785.057 538.432C786.92 540.39 786.377 544.159 786.397 546.697Z"/>
	<path fill="#FAF0CA" d="M600.626 570.031C598.727 570.188 596.88 570.288 595.017 569.799C591.617 568.908 588.676 566.709 587.06 563.566Q586.768 562.989 586.536 562.385Q586.304 561.781 586.134 561.157Q585.964 560.532 585.859 559.894Q585.754 559.256 585.714 558.61Q585.674 557.965 585.699 557.318Q585.725 556.672 585.816 556.031Q585.907 555.391 586.063 554.763Q586.219 554.135 586.437 553.526C587.956 549.229 591.063 546.875 595.091 545.084C597.493 544.817 599.706 544.725 601.993 545.635Q602.584 545.872 603.149 546.165Q603.714 546.459 604.247 546.807Q604.78 547.156 605.276 547.555Q605.772 547.954 606.227 548.401Q606.681 548.847 607.089 549.336Q607.497 549.825 607.854 550.352Q608.212 550.879 608.515 551.438Q608.819 551.998 609.066 552.585C610.495 555.96 610.566 559.995 608.992 563.331C607.233 567.058 604.403 568.757 600.626 570.031Z"/>
	<path fill="#FAF0CA" d="M449.452 620.58L576.62 620.239Q593.562 620.006 610.503 620.334L611.003 680.533L485.625 680.326Q467.579 680.245 449.535 680.489L449.452 620.58Z"/>
	<path fill="#FAF0CA" d="M634.678 680.996C634.365 660.704 634.616 640.386 634.498 620.09L795.229 620.072Q839.203 619.838 883.176 620.073C883.041 639.161 882.868 658.354 883.411 677.433C883.442 678.533 883.511 679.053 883.005 680.101C870.301 679.743 857.375 680.361 844.642 680.369L753.251 680.368L677.391 680.404C663.189 680.456 648.854 680.133 634.678 680.996Z"/>
</svg>
