<?xml version="1.0" encoding="utf-8" ?>
<svg xmlns="http://www.w3.org/2000/svg" xmlns:xlink="http://www.w3.org/1999/xlink" width="1024" height="1024">
	<path fill="#313131" d="M0 0L1024 0L1024 0.971435L1024 1024L1022.42 1024L0.573958 1024L1.40348 1023.2C11.3095 1022.68 21.3549 1023.01 31.2803 1023.01L82.8486 1023.03L241.432 1023.06L728.361 1023.05L947.367 1023.05L1000.54 1023.02C1006.67 1023.02 1017.19 1022.11 1022.67 1023.32C1024.23 1017.94 1023.14 976.034 1023.15 967.099L1023.18 786.27L1023.1 0.956528C1003.47 0.229625 983.587 0.825812 963.922 0.832557L849.167 0.889145L493.307 0.908972L165.444 0.883779L57.502 0.883365C38.7393 0.886942 19.7655 0.252446 1.02971 1.03231L0 1.02259L0 0Z"/>
	<path fill="#313131" d="M0 1.02259L1.02971 1.03231C1.02734 16.446 0.80933 31.8953 1.14218 47.3041L0 44.8984L0 1.02259Z"/>
	<path fill="white" d="M1.02971 1.03231C19.7655 0.252446 38.7393 0.886942 57.502 0.883365L165.444 0.883779L493.307 0.908972L849.167 0.889145L963.922 0.832557C983.587 0.825812 1003.47 0.229625 1023.1 0.956528L1023.18 786.27L1023.15 967.099C1023.14 976.034 1024.23 1017.94 1022.67 1023.32C1017.19 1022.11 1006.67 1023.02 1000.54 1023.02L947.367 1023.05L728.361 1023.05L241.432 1023.06L82.8486 1023.03L31.2803 1023.01C21.3549 1023.01 11.3095 1022.68 1.40348 1023.2C0.089385 1019.68 1.06393 984.3 1.04609 977.227C1.76443 972.127 1.42425 966.497 1.4432 961.336L1.48596 931.399L1.48248 832.033L1.3306 503.205C1.76864 496.879 1.4066 490.283 1.40771 483.934L1.40801 445.188L1.37936 326.479L1.43684 148.481C1.4532 114.789 2.0628 80.9782 1.14218 47.3041C0.80933 31.8953 1.02734 16.446 1.02971 1.03231ZM200.1 200.432C204.985 195.78 207.439 190.935 207.629 184.068C208.002 170.565 207.703 156.97 207.732 143.458L153.17 143.457L153.054 203.395L155.354 639.844L156.163 766.69L156.332 805.848C156.368 813.404 155.956 821.349 156.932 828.841C158.694 842.372 164.191 854.404 173.794 864.214C186.774 877.474 203.002 882.363 221.134 882.521L629.324 882.528L754.476 882.534L791.439 882.606C799.549 882.627 807.986 883.097 816.037 882.043C829.243 880.315 841.242 874.661 850.729 865.289C860.145 855.986 866.916 843.964 868.898 830.78C869.984 823.558 869.717 815.919 869.807 808.62Q870.008 789.37 869.991 770.119L870.018 649.534L869.922 202.976C870.35 183.125 869.727 163.243 870.142 143.384Q840.563 143.245 810.984 143.428C810.966 157.268 810.551 171.239 810.94 185.063C811.128 191.758 813.52 196.775 818.342 201.331C804.776 201.788 791.076 201.434 777.497 201.448L700.702 201.367C703.964 197.982 706.44 194.852 707.725 190.205C709.711 183.022 708.573 152.97 708.605 143.213L642.15 143.444C642.18 156.638 641.706 169.868 641.951 183.057C642.083 190.204 643.884 195.37 649.028 200.378C639.706 201.656 622.796 200.646 612.508 200.655L533.549 200.815C536.771 197.753 539.112 194.85 540.396 190.483C542.72 182.581 541.033 153.764 541.328 143.028L475.558 143.247C475.569 156.984 475.061 170.851 475.56 184.572C475.799 191.156 478.059 196.043 482.903 200.509C476.842 200.835 470.618 200.554 464.537 200.547L429.697 200.558C409.662 200.602 388.447 201.569 368.54 200.466C369.51 199.691 370.429 198.825 371.296 197.937C373.787 195.386 375.388 191.91 376.07 188.428C377.205 182.639 376.591 175.991 376.557 170.073L376.523 143.431L307.771 143.403Q307.857 156.266 307.664 169.128C307.589 175.828 306.677 183.864 308.37 190.375C309.439 194.485 311.472 197.405 314.288 200.472C296.266 201.335 277.846 200.56 259.771 200.582C239.969 200.606 219.856 201.401 200.1 200.432Z"/>
	<path fill="#585B75" d="M0 44.8984L1.14218 47.3041C2.0628 80.9782 1.4532 114.789 1.43684 148.481L1.37936 326.479L1.40801 445.188L1.40771 483.934C1.4066 490.283 1.76864 496.879 1.3306 503.205L1.48248 832.033L1.48596 931.399L1.4432 961.336C1.42425 966.497 1.76443 972.127 1.04609 977.227C0.787242 974.699 0.742846 972.124 0.613144 969.585L0.886441 969.38L0.876989 968.206C0.536373 968.638 0.72859 968.34 0.458294 969.183L0.776174 968.645C0.6643 969.857 0.593955 971.086 0.222631 972.252C0.151636 972.475 0.0742104 972.696 0 972.918L0 504.582L0 44.8984Z"/>
	<path fill="#313131" d="M482.903 200.509C478.059 196.043 475.799 191.156 475.56 184.572C475.061 170.851 475.569 156.984 475.558 143.247L541.328 143.028C541.033 153.764 542.72 182.581 540.396 190.483C539.112 194.85 536.771 197.753 533.549 200.815C532.16 201.704 530.784 202.586 529.151 202.94C524.732 203.896 492.497 204.218 488.089 203.314C486.379 202.964 484.382 201.432 482.903 200.509Z"/>
	<path fill="#313131" d="M649.028 200.378C643.884 195.37 642.083 190.204 641.951 183.057C641.706 169.868 642.18 156.638 642.15 143.444L708.605 143.213C708.573 152.97 709.711 183.022 707.725 190.205C706.44 194.852 703.964 197.982 700.702 201.367C699.533 201.936 698.333 202.511 697.058 202.798C691.347 204.083 659.358 204.047 654.062 202.986C652.228 202.619 650.569 201.388 649.028 200.378Z"/>
	<path fill="#313131" d="M200.1 200.432C198.416 201.324 196.603 202.391 194.733 202.81C189.63 203.954 183.832 203.47 178.64 203.438C170.115 203.386 161.577 203.184 153.054 203.395L153.17 143.457L207.732 143.458C207.703 156.97 208.002 170.565 207.629 184.068C207.439 190.935 204.985 195.78 200.1 200.432Z"/>
	<path fill="#313131" d="M314.288 200.472C311.472 197.405 309.439 194.485 308.37 190.375C306.677 183.864 307.589 175.828 307.664 169.128Q307.857 156.266 307.771 143.403L376.523 143.431L376.557 170.073C376.591 175.991 377.205 182.639 376.07 188.428C375.388 191.91 373.787 195.386 371.296 197.937C370.429 198.825 369.51 199.691 368.54 200.466C366.96 201.334 365.345 202.268 363.556 202.61C358.038 203.668 351.8 203.149 346.204 203.138L318.154 202.983L314.288 200.472Z"/>
	<path fill="#313131" d="M818.342 201.331C813.52 196.775 811.128 191.758 810.94 185.063C810.551 171.239 810.966 157.268 810.984 143.428Q840.563 143.245 870.142 143.384C869.727 163.243 870.35 183.125 869.922 202.976C862.242 203.478 854.239 203.057 846.527 203.067C838.842 203.078 830.606 203.674 823 202.761C821.365 202.564 819.852 201.958 818.342 201.331Z"/>
	<path fill="#797DBA" d="M153.054 203.395C161.577 203.184 170.115 203.386 178.64 203.438C183.832 203.47 189.63 203.954 194.733 202.81C196.603 202.391 198.416 201.324 200.1 200.432C219.856 201.401 239.969 200.606 259.771 200.582C277.846 200.56 296.266 201.335 314.288 200.472L318.154 202.983L346.204 203.138C351.8 203.149 358.038 203.668 363.556 202.61C365.345 202.268 366.96 201.334 368.54 200.466C388.447 201.569 409.662 200.602 429.697 200.558L464.537 200.547C470.618 200.554 476.842 200.835 482.903 200.509C484.382 201.432 486.379 202.964 488.089 203.314C492.497 204.218 524.732 203.896 529.151 202.94C530.784 202.586 532.16 201.704 533.549 200.815L612.508 200.655C622.796 200.646 639.706 201.656 649.028 200.378C650.569 201.388 652.228 202.619 654.062 202.986C659.358 204.047 691.347 204.083 697.058 202.798C698.333 202.511 699.533 201.936 700.702 201.367L777.497 201.448C791.076 201.434 804.776 201.788 818.342 201.331C819.852 201.958 821.365 202.564 823 202.761C830.606 203.674 838.842 203.078 846.527 203.067C854.239 203.057 862.242 203.478 869.922 202.976L870.018 649.534L869.991 770.119Q870.009 789.37 869.807 808.62C869.717 815.919 869.984 823.558 868.898 830.78C866.916 843.964 860.145 855.986 850.729 865.289C841.242 874.661 829.243 880.315 816.037 882.043C807.986 883.097 799.549 882.627 791.439 882.606L754.476 882.534L629.324 882.528L221.134 882.521C203.002 882.363 186.774 877.474 173.794 864.214C164.191 854.404 158.694 842.372 156.932 828.841C155.956 821.349 156.368 813.404 156.332 805.848L156.163 766.69L155.354 639.844L153.054 203.395ZM178.991 268.557L180.412 642.42C180.683 694.11 180.073 745.839 180.778 797.522L827.57 797.626L828.414 797.2C829.086 793.158 828.563 788.384 828.557 784.258L828.531 754.458L828.498 650.426L828.116 434.032C828.154 378.877 828.836 323.65 828.059 268.505L178.991 268.557Z"/>
	<path fill="#313131" d="M180.778 797.522C180.073 745.839 180.683 694.11 180.412 642.42L178.991 268.557L828.059 268.505C828.836 323.65 828.154 378.877 828.116 434.032L828.498 650.426L828.531 754.458L828.557 784.258C828.563 788.384 829.086 793.158 828.414 797.2L827.57 797.626L180.778 797.522ZM239.014 312.012C233.337 319.72 228.203 327.876 222.813 335.791C218.297 342.424 213.246 349.024 209.286 355.995C233.375 356.046 257.675 356.732 281.743 356C291.851 341.741 301.563 326.858 310.802 312.017L239.014 312.012ZM338.452 311.969C328.496 326.567 318.218 341.093 308.709 355.984L380.507 356.175C383.906 353.202 406.75 317.452 409.332 312.007C385.717 311.979 362.063 311.668 338.452 311.969ZM436.985 312.023Q427.802 325.289 419.016 338.821C415.272 344.491 411.175 350.136 407.836 356.041L480.639 356.091C490.366 341.57 500.472 327.104 509.417 312.084L436.985 312.023ZM535.837 312.078C530.796 318.803 526.424 326.091 521.739 333.071C516.719 340.551 511.125 347.979 506.801 355.87L581.038 356.061C591.372 341.881 600.548 326.682 610.308 312.081C585.493 312.05 560.648 311.77 535.837 312.078ZM636.954 312.012C626.699 326.346 616.859 341.266 607.32 356.088C632 356.114 656.742 356.491 681.414 356.101C691.665 341.751 701.19 326.737 710.947 312.041L636.954 312.012ZM737.093 311.936C727.454 326.717 717.155 341.107 707.766 356.036C731.661 356.076 755.721 356.689 779.599 356.033C789.149 341.222 799.427 326.942 808.844 312.033C784.95 311.991 760.977 311.53 737.093 311.936ZM225.265 409.715L206.838 483.989C203.454 497.489 199.73 510.96 196.576 524.511C223.182 524.582 249.779 526.575 274.378 514.469C291.717 504.929 304.558 491.634 310.159 472.327C313.833 459.663 314.445 443.633 307.933 431.759C302.386 421.645 292.454 415.517 281.577 412.447C267.286 408.414 241 409.543 225.265 409.715ZM340.576 409.728C338.641 412.913 321.362 483.411 320.176 491.547C319.476 496.342 319.397 501.187 320.514 505.927C322.136 512.81 326.041 518.431 332.155 522.08C342.618 528.324 358.101 528.128 369.506 525.004C382.788 521.367 394.866 511.161 401.586 499.229C408.546 486.869 410.81 472.907 414.12 459.283Q418.079 443.194 422.413 427.203Q424.893 418.58 426.904 409.835C419.288 409.836 411.621 409.652 404.011 409.904Q398.713 432.695 392.964 455.376C390.057 466.88 387.912 478.725 382.655 489.437C380.304 494.228 376.791 499.131 372.256 502.057C366.497 505.772 358.111 507.068 351.449 505.332C348.355 504.526 345.371 502.899 343.694 500.081C342.434 497.963 342.078 495.54 342.29 493.111C342.917 485.957 345.34 478.567 347.12 471.624L356.557 434.965C358.764 426.676 361.507 418.288 362.867 409.82Q351.722 409.652 340.576 409.728ZM444.572 409.747L443.321 410.34C432.341 447.955 425.074 486.728 414.578 524.468L436.861 524.492C440.318 508.269 444.548 492.186 448.441 476.061C450.433 467.812 451.799 458.923 454.427 450.88Q466.661 487.833 479.935 524.425L497.125 524.541C498.544 524.511 499.837 524.792 501 523.935C505.601 508.712 508.725 492.738 512.511 477.268C517.989 454.89 524.011 432.439 528.593 409.863C521.523 409.88 514.444 409.82 507.376 409.953Q498.331 445.743 489.778 481.653Q477.02 445.826 465.122 409.705C458.282 409.711 451.408 409.569 444.572 409.747ZM547.237 409.944C541.616 431.924 536.527 454.054 531.067 476.077C527.123 491.99 522.665 507.905 519.119 523.897C544.381 524.015 575.473 526.964 598.21 514.899C614.948 506.148 626.87 492.9 632.545 474.754C636.8 461.149 637.822 445.318 631.005 432.354C625.683 422.234 616.048 415.599 605.245 412.385C591.783 408.38 562.63 409.954 547.237 409.944ZM661.236 409.978C651.853 447.612 643.692 485.697 633.615 523.136L701.202 523.042C702.553 516.62 704.212 510.345 705.928 504.012L660.705 504.01L663.845 491.46L668.085 472.565L710.512 472.551Q712.644 462.751 714.88 452.975L673.306 452.958C675.292 445.039 676.997 436.706 679.711 429.005L720.777 429.019L725.939 410.003L661.236 409.978ZM740.795 410.029C737.442 422.556 734.897 435.322 731.969 447.956Q723.314 485.609 713.948 523.091L736.67 523.11L747.125 476.481C749.934 476.529 755.822 475.961 757.869 478.196C761.171 481.801 764.575 501.43 765.775 506.849C767.139 512.339 768.41 517.874 770.021 523.297C778.402 523.341 786.801 523.503 795.18 523.365C792.624 516.269 790.394 509.114 788.26 501.882C785.346 492.01 783.312 481.67 776.785 473.426C788.67 468.398 797.135 461.972 802.079 449.648C805.145 442.007 806.423 432.483 803.187 424.7C800.787 418.927 796.31 415.181 790.576 412.959C777.92 408.054 754.771 409.974 740.795 410.029ZM656.77 543.218C655.8 544.254 655.749 544.976 655.392 546.363C650.819 564.129 647.612 582.449 643.644 600.379Q638.094 624.836 632.957 649.383C631.289 657.114 629.31 664.813 627.884 672.59Q640.172 672.671 652.46 672.547C652.925 671.987 653.207 671.526 653.37 670.807C658.226 649.306 662.452 627.596 667.151 606.048C671.713 585.127 676.781 564.308 681.079 543.331Q668.925 543.175 656.77 543.218ZM695.74 543.234L675.251 636.015C672.64 648.149 669.651 660.2 667.237 672.375Q679.968 672.483 692.699 672.411Q697.823 646.911 703.638 621.56C705.459 613.398 706.834 604.626 709.361 596.683Q722.667 634.475 734.682 672.698Q746.755 673.014 758.83 672.823C761.756 661.162 764.032 649.265 766.565 637.51C773.356 605.99 779.661 574.305 787.427 543.009C778.967 542.997 770.495 542.886 762.037 543.013C756.832 568.487 751.662 594.071 745.511 619.334Q736.985 594.645 729.487 569.624C726.823 560.902 724.589 551.752 721.272 543.265L695.74 543.234ZM580.905 544.149C571.695 586.937 561.378 629.517 552.499 672.361L618.299 672.491Q620.73 659.876 623.51 647.333C610.221 647.301 596.893 647.482 583.608 647.231C586.23 631.591 590.194 615.97 593.629 600.477C597.791 581.708 601.614 562.853 606.355 544.22C597.876 544.191 589.383 544.056 580.905 544.149ZM377.724 544.524C374.14 563.977 369.309 583.224 365.109 602.551C360.058 625.799 355.507 649.278 349.787 672.364L375.438 672.45Q388.814 608.37 403.392 544.553L377.724 544.524ZM418.24 544.66L389.601 672.621Q402.209 672.895 414.819 672.71L422.144 638.934C423.604 632.229 424.793 625.218 426.867 618.676L444.75 618.709L468.208 618.716L473.808 593.817L431.826 593.783C433.79 585.338 435.594 576.819 437.717 568.415L480.697 568.464Q483.208 556.438 486.256 544.536L418.24 544.66ZM499.772 544.445L480.65 629.954L474.405 657.674C473.311 662.564 471.915 667.577 471.189 672.522L496.232 672.558C499.898 654.76 505.347 636.393 507.825 618.519L529.25 618.559L551.266 618.524C552.961 610.336 554.835 602.145 556.334 593.922Q534.741 593.797 513.148 593.967C514.674 585.771 516.612 577.491 518.858 569.463L562.996 569.295Q565.721 556.796 568.917 544.409C545.902 544.336 522.778 543.933 499.772 544.445ZM255.684 544.959Q241.409 585.975 227.696 627.182C222.528 642.326 216.928 657.383 212.147 672.649C220.413 672.981 228.704 672.824 236.975 672.779C245.534 647.486 253.097 621.289 263.391 596.666L265.424 637.935C265.885 649.504 265.951 661.256 266.972 672.78L286.879 672.769C298.662 648.899 310.31 624.645 323.56 601.558L325.459 598.726L319.158 647.92C318.16 656.032 316.85 664.237 316.275 672.379L341.891 672.439C344.477 630.872 350.254 586.204 356.475 544.973Q343.812 544.882 331.148 544.942C317.803 570.362 302.23 594.654 288.21 619.713Q286.194 596.626 283.756 573.58C282.813 564.11 281.604 554.51 281.433 544.994L255.684 544.959ZM567.075 706.286C560.152 719.293 554.345 733.007 547.741 746.207L554.046 746.235C555.582 742.64 556.995 738.905 558.763 735.421L568.125 735.381L575.402 735.395L580.533 746.135L586.89 745.966C582.08 737.374 578.009 728.335 573.749 719.458C571.877 715.556 569.829 709.445 567.075 706.286ZM590.501 706.415C589.473 711.919 589.381 740.069 590.382 745.632C591.26 746.246 591.819 746.612 592.984 746.302C594.117 746 594.986 745.158 595.393 744.076C596.377 741.458 595.437 724.183 595.701 719.535C600.302 723.87 617.07 747.001 621.278 747.104C621.373 740.665 622.431 711.523 620.693 707.752C619.298 707.475 618.316 707.573 616.927 707.753C616.01 708.49 615.931 708.466 615.84 709.69C615.235 717.768 615.956 726.429 615.802 734.592C609.942 728.982 595.949 708.073 590.501 706.415ZM325.532 706.736C324.683 711.235 319.213 743.138 319.637 744.916C320.679 745.805 321.562 746.031 322.94 745.883C323.617 745.81 324.141 745.905 324.543 745.273C326.602 742.034 327.44 727.456 328.292 722.74C332.299 730.657 336.045 739.452 341.068 746.746L353.67 722.987Q354.372 727.426 354.919 731.887C355.525 735.829 355.634 743.189 358.971 745.841C360.347 746.121 360.463 746.168 361.741 745.614C362.334 744.608 362.426 743.791 362.308 742.651C361.983 739.506 360.756 736.389 360.226 733.251C358.738 724.433 357.777 715.275 355.699 706.582Q348.384 721.147 341.344 735.847C338.369 730.512 328.89 709.399 325.532 706.736ZM382.588 706.807C378.47 714.872 374.803 723.191 370.993 731.406C368.937 735.837 366.159 740.563 364.836 745.247C365.953 746.1 367.679 745.858 369.031 745.881C371.81 744.248 372.994 738.989 374.403 736.172C378.01 736.133 381.619 736.065 385.226 736.067L391.5 736.079C392.936 739.468 394.397 742.848 395.793 746.254L402.367 746.142C397.799 738.149 394.155 729.583 390.272 721.244C388.072 716.52 385.865 710.879 382.588 706.807ZM419.643 706.625C419.298 713.008 418.308 740.748 420.373 745.431C421.305 746.122 422.651 746.389 423.829 745.982C424.116 745.883 424.363 745.692 424.63 745.547C426.007 737.779 424.854 728.022 425.047 719.981C430.884 725.898 444.257 743.534 449.576 746.868L450.405 746.599L450.638 746.046C450.696 738.427 451.757 713.177 450.562 708.069C449.085 707.473 447.593 707.625 446.032 707.655C445.041 708.675 445.206 710.447 445.227 711.84C445.343 719.338 445.491 726.843 445.222 734.342C441.689 730.533 422.676 707.899 419.643 706.625ZM513.837 706.621C513.447 715.42 513.697 724.261 513.708 733.068C513.713 736.159 513.217 739.348 513.344 742.408C513.403 743.853 513.83 744.527 514.755 745.573C516.281 746.161 517.092 746.113 518.67 745.952C520.173 744.049 519.135 724.488 519.393 720.51C523.273 724.162 541.742 745.851 543.996 746.52L544.939 745.87C544.968 738.73 545.946 712.438 544.643 707.632C543.107 707.14 542.029 707.217 540.47 707.389C538.918 709.16 539.661 730.331 539.545 734.372C534.586 728.984 519.01 708.58 513.837 706.621ZM645.941 707.141C639.794 708.219 634.087 710.776 630.405 716.044C627.372 720.382 626.399 725.914 627.499 731.065C628.697 736.672 632.321 741.335 637.217 744.247Q637.677 744.523 638.15 744.775Q638.623 745.028 639.108 745.256Q639.593 745.484 640.089 745.687Q640.585 745.891 641.09 746.069Q641.596 746.247 642.11 746.4Q642.624 746.552 643.145 746.679Q643.666 746.805 644.192 746.905Q644.719 747.005 645.25 747.079Q645.781 747.152 646.315 747.198Q646.849 747.245 647.385 747.265Q647.921 747.284 648.457 747.277Q648.993 747.269 649.528 747.235Q650.063 747.2 650.595 747.139Q651.128 747.078 651.657 746.989Q652.185 746.901 652.709 746.787Q653.233 746.672 653.75 746.531C658.035 745.361 661.425 743.083 664.94 740.497L661.774 736.18C659.644 737.916 657.645 739.474 655.213 740.78C650.592 742.239 645.42 742.711 640.915 740.529C637.394 738.823 634.896 735.53 633.687 731.856C632.339 727.758 632.838 723.545 634.967 719.809C637.007 716.228 640.516 713.428 644.524 712.407C648.788 711.321 653.143 712.497 656.832 714.746C658.357 715.677 659.722 716.849 660.969 718.121C662.086 716.907 663.265 715.712 664.308 714.435C659.302 709.657 654.94 706.909 647.757 707.018C647.143 707.028 646.551 707.078 645.941 707.141ZM690.251 707.252C684.003 707.306 677.737 707.261 671.492 707.423L671.44 746.033C679 746.012 687.495 746.872 694.943 745.84C695.508 744.926 695.845 743.85 695.564 742.749C695.423 742.192 695.254 742.004 694.963 741.566C690.14 741.089 685.216 741.352 680.375 741.426C678.903 741.373 678.47 741.583 677.351 740.567C676.182 736.508 676.94 732.262 676.955 728.094C681.818 728.126 690.888 729.353 694.869 726.84L695.348 725.748C694.856 724.555 694.734 724.367 693.446 723.844C689.378 722.195 681.494 723.518 676.969 723.408C676.97 719.626 676.923 715.839 676.979 712.058C681.653 712.095 692.814 713.416 696.432 710.748C696.874 710.422 696.703 709.483 696.721 708.981C695.554 707.634 695.619 707.349 693.7 707.21C692.551 707.127 691.4 707.197 690.251 707.252ZM405.428 707.429L405.387 732.031C405.382 736.399 404.904 741.335 405.68 745.619C407.314 746.413 408.937 746.221 410.703 746.178L410.695 722.229C410.717 717.56 411.133 712.526 410.455 707.929C409.02 707.086 407.055 707.384 405.428 707.429ZM454.438 707.405C454.433 709.251 454.142 710.41 455.149 711.987C457.517 713.215 461.334 712.527 464.024 712.511C464.075 718.296 463.081 741.831 464.861 745.369C465.896 746.093 466.373 746.536 467.729 746.28C468.152 746.2 468.751 745.882 469.147 745.69C469.935 742.432 469.55 738.605 469.506 735.25L469.52 712.4C472.516 712.442 476.377 713.081 479.128 711.886C480.157 710.462 479.94 709.953 479.922 708.237L479.344 707.552C471.22 706.888 462.602 707.257 454.438 707.405ZM484.037 707.452L484.116 746.003C488.387 746.008 504.48 746.833 507.171 745.491C508.035 744.28 508.058 744.12 508.12 742.628L507.524 741.581C502.691 740.291 494.803 741.423 489.502 741.163L489.487 728.007C493.153 728.009 503.843 728.914 506.483 727.407C507.276 726.397 507.538 726.139 507.739 724.89C507.18 723.954 507.121 723.69 506.007 723.387C501.289 722.105 494.478 723.418 489.468 723.124L489.499 712.338C493.912 712.332 503.845 713.24 507.613 712.132C508.033 710.545 508.026 709.43 507.836 707.806C505.914 706.686 487.626 707.367 484.037 707.452Z"/>
	<path fill="white" d="M209.286 355.995C213.246 349.024 218.297 342.424 222.813 335.791C228.203 327.876 233.337 319.72 239.014 312.012L310.802 312.017C301.563 326.858 291.851 341.741 281.743 356C257.675 356.732 233.375 356.046 209.286 355.995Z"/>
	<path fill="white" d="M308.709 355.984C318.218 341.093 328.496 326.567 338.452 311.969C362.063 311.668 385.717 311.979 409.332 312.007C406.75 317.452 383.906 353.202 380.507 356.175L308.709 355.984Z"/>
	<path fill="white" d="M407.836 356.041C411.175 350.136 415.272 344.491 419.016 338.821Q427.802 325.289 436.985 312.023L509.417 312.084C500.472 327.104 490.366 341.57 480.639 356.091L407.836 356.041Z"/>
	<path fill="white" d="M506.801 355.87C511.125 347.979 516.719 340.551 521.739 333.071C526.424 326.091 530.796 318.803 535.837 312.078C560.648 311.77 585.493 312.05 610.308 312.081C600.548 326.682 591.372 341.881 581.038 356.061L506.801 355.87Z"/>
	<path fill="white" d="M607.32 356.088C616.859 341.266 626.699 326.346 636.954 312.012L710.947 312.041C701.19 326.737 691.665 341.751 681.414 356.101C656.742 356.491 632 356.114 607.32 356.088Z"/>
	<path fill="white" d="M707.766 356.036C717.155 341.107 727.454 326.717 737.093 311.936C760.977 311.53 784.95 311.991 808.844 312.033C799.427 326.942 789.149 341.222 779.599 356.033C755.721 356.689 731.661 356.076 707.766 356.036Z"/>
	<path fill="#E1E2DC" d="M196.576 524.511C199.73 510.96 203.454 497.489 206.838 483.989L225.265 409.715C241 409.543 267.286 408.414 281.577 412.447C292.454 415.517 302.386 421.645 307.933 431.759C314.445 443.633 313.833 459.663 310.159 472.327C304.558 491.634 291.717 504.929 274.378 514.469C249.779 526.575 223.182 524.582 196.576 524.511ZM243.431 429.737C240.819 436.051 239.684 443.796 237.995 450.467C233.487 468.277 229.402 486.246 224.484 503.942C238.221 505.172 250.819 504.314 263.516 498.609C275.132 492.386 283.181 483.709 287.053 470.927C289.685 462.238 290.666 451.215 286.192 442.957C282.751 436.606 276.474 433.011 269.703 431.201C261.237 428.938 252.116 429.249 243.431 429.737Z"/>
	<path fill="#E1E2DC" d="M422.413 427.203Q418.079 443.194 414.12 459.283C410.81 472.907 408.546 486.869 401.586 499.229C394.866 511.161 382.788 521.367 369.506 525.004C358.101 528.128 342.618 528.324 332.155 522.08C326.041 518.431 322.136 512.81 320.514 505.927C319.397 501.187 319.476 496.342 320.176 491.547C321.362 483.411 338.641 412.913 340.576 409.728Q351.722 409.652 362.867 409.82C361.507 418.288 358.764 426.676 356.557 434.965L347.12 471.624C345.34 478.567 342.917 485.957 342.29 493.111C342.078 495.54 342.434 497.963 343.694 500.081C345.371 502.899 348.355 504.526 351.449 505.332C358.111 507.068 366.497 505.772 372.256 502.057C376.791 499.131 380.304 494.228 382.655 489.437C387.912 478.725 390.057 466.88 392.964 455.376Q398.713 432.695 404.011 409.904C411.621 409.652 419.288 409.836 426.904 409.835Q424.893 418.58 422.413 427.203Z"/>
	<path fill="#E1E2DC" d="M414.578 524.468C425.074 486.728 432.341 447.955 443.321 410.34L444.572 409.747C451.408 409.569 458.282 409.711 465.122 409.705Q477.02 445.826 489.778 481.653Q498.331 445.743 507.376 409.953C514.444 409.82 521.523 409.88 528.593 409.863C524.011 432.439 517.989 454.89 512.511 477.268C508.725 492.738 505.601 508.712 501 523.935C499.837 524.792 498.544 524.511 497.125 524.541L479.935 524.425Q466.661 487.833 454.427 450.88C451.799 458.923 450.433 467.812 448.441 476.061C444.548 492.186 440.318 508.269 436.861 524.492L414.578 524.468Z"/>
	<path fill="#E1E2DC" d="M519.119 523.897C522.665 507.905 527.123 491.99 531.067 476.077C536.527 454.054 541.616 431.924 547.237 409.944C562.63 409.954 591.783 408.38 605.245 412.385C616.048 415.599 625.683 422.234 631.005 432.354C637.822 445.318 636.8 461.149 632.545 474.754C626.87 492.9 614.948 506.148 598.21 514.899C575.473 526.964 544.381 524.015 519.119 523.897ZM565.366 428.545C559.232 453.86 553.175 479.733 546.256 504.812C561.025 504.411 574.328 505.418 587.982 498.483C599.346 492.145 607.046 482.917 610.559 470.273C613.084 461.182 613.486 450.067 608.472 441.719C604.497 435.101 597.354 431.398 590.02 429.753C582.06 427.969 573.484 428.5 565.366 428.545Z"/>
	<path fill="#E1E2DC" d="M633.615 523.136C643.692 485.697 651.853 447.612 661.236 409.978L725.939 410.003L720.777 429.019L679.711 429.005C676.997 436.706 675.292 445.039 673.306 452.958L714.88 452.975Q712.644 462.751 710.512 472.551L668.085 472.565L663.845 491.46L660.705 504.01L705.928 504.012C704.212 510.345 702.553 516.62 701.202 523.042L633.615 523.136Z"/>
	<path fill="#E1E2DC" d="M713.948 523.091Q723.314 485.609 731.969 447.956C734.897 435.322 737.442 422.556 740.795 410.029C754.771 409.974 777.92 408.054 790.576 412.959C796.31 415.181 800.787 418.927 803.187 424.7C806.423 432.483 805.145 442.007 802.079 449.648C797.135 461.972 788.67 468.398 776.785 473.426C783.312 481.67 785.346 492.01 788.26 501.882C790.394 509.114 792.624 516.269 795.18 523.365C786.801 523.503 778.402 523.341 770.021 523.297C768.41 517.874 767.139 512.339 765.775 506.849C764.575 501.43 761.171 481.801 757.869 478.196C755.822 475.961 749.934 476.529 747.125 476.481L736.67 523.11L713.948 523.091ZM758.837 429.474C755.561 438.586 753.792 448.672 751.597 458.122C759.062 458.277 765.749 458.617 772.792 455.625C777.284 452.593 780.379 448.307 781.365 442.89C781.922 439.832 781.633 436.565 779.692 434.03C777.306 430.915 773.12 429.859 769.406 429.465C765.969 429.1 762.296 429.382 758.837 429.474Z"/>
	<path fill="#313131" d="M546.256 504.812C553.175 479.733 559.232 453.86 565.366 428.545C573.484 428.5 582.06 427.969 590.02 429.753C597.354 431.398 604.497 435.101 608.472 441.719C613.486 450.067 613.084 461.182 610.559 470.273C607.046 482.917 599.346 492.145 587.982 498.483C574.328 505.418 561.025 504.411 546.256 504.812Z"/>
	<path fill="#313131" d="M224.484 503.942C229.402 486.246 233.487 468.277 237.995 450.467C239.684 443.796 240.819 436.051 243.431 429.737C252.116 429.249 261.237 428.938 269.703 431.201C276.474 433.011 282.751 436.606 286.192 442.957C290.666 451.215 289.685 462.238 287.053 470.927C283.181 483.709 275.132 492.386 263.516 498.609C250.819 504.314 238.221 505.172 224.484 503.942Z"/>
	<path fill="#313131" d="M751.597 458.122C753.792 448.672 755.561 438.586 758.837 429.474C762.296 429.382 765.969 429.1 769.406 429.465C773.12 429.859 777.306 430.915 779.692 434.03C781.633 436.565 781.922 439.832 781.365 442.89C780.379 448.307 777.284 452.593 772.792 455.625C765.749 458.617 759.062 458.277 751.597 458.122Z"/>
	<path fill="white" d="M627.884 672.59C629.31 664.813 631.289 657.114 632.957 649.383Q638.094 624.836 643.644 600.379C647.612 582.449 650.819 564.129 655.392 546.363C655.749 544.976 655.8 544.254 656.77 543.218Q668.925 543.175 681.079 543.331C676.781 564.308 671.713 585.127 667.151 606.048C662.452 627.596 658.226 649.306 653.37 670.807C653.207 671.526 652.925 671.987 652.46 672.547Q640.172 672.671 627.884 672.59Z"/>
	<path fill="white" d="M667.237 672.375C669.651 660.2 672.64 648.149 675.251 636.015L695.74 543.234L721.272 543.265C724.589 551.752 726.823 560.902 729.487 569.624Q736.985 594.645 745.511 619.334C751.662 594.071 756.832 568.487 762.037 543.013C770.495 542.886 778.967 542.997 787.427 543.009C779.661 574.305 773.356 605.99 766.565 637.51C764.032 649.265 761.756 661.162 758.83 672.823Q746.755 673.014 734.682 672.698Q722.667 634.475 709.361 596.683C706.834 604.626 705.459 613.398 703.638 621.56Q697.823 646.911 692.699 672.411Q679.968 672.483 667.237 672.375Z"/>
	<path fill="white" d="M552.499 672.361C561.378 629.517 571.695 586.937 580.905 544.149C589.383 544.056 597.876 544.191 606.355 544.22C601.614 562.853 597.791 581.708 593.629 600.477C590.194 615.97 586.23 631.591 583.608 647.231C596.893 647.482 610.221 647.301 623.51 647.333Q620.73 659.876 618.299 672.491L552.499 672.361Z"/>
	<path fill="white" d="M349.787 672.364C355.507 649.278 360.058 625.799 365.109 602.551C369.309 583.224 374.14 563.977 377.724 544.524L403.392 544.553Q388.814 608.37 375.438 672.45L349.787 672.364Z"/>
	<path fill="white" d="M389.601 672.621L418.24 544.66L486.256 544.536Q483.208 556.438 480.697 568.464L437.717 568.415C435.594 576.819 433.79 585.338 431.826 593.783L473.808 593.817L468.208 618.716L444.75 618.709L426.867 618.676C424.793 625.218 423.604 632.229 422.144 638.934L414.819 672.71Q402.209 672.895 389.601 672.621Z"/>
	<path fill="white" d="M471.189 672.522C471.915 667.577 473.311 662.564 474.405 657.674L480.65 629.954L499.772 544.445C522.778 543.933 545.902 544.336 568.917 544.409Q565.721 556.796 562.996 569.295L518.858 569.463C516.612 577.491 514.674 585.771 513.148 593.967Q534.741 593.797 556.334 593.922C554.835 602.145 552.961 610.336 551.266 618.524L529.25 618.559L507.825 618.519C505.347 636.393 499.898 654.76 496.232 672.558L471.189 672.522Z"/>
	<path fill="white" d="M212.147 672.649C216.928 657.383 222.528 642.326 227.696 627.182Q241.409 585.975 255.684 544.959L281.433 544.994C281.604 554.51 282.813 564.11 283.756 573.58Q286.194 596.626 288.21 619.713C302.23 594.654 317.803 570.362 331.148 544.942Q343.812 544.882 356.475 544.973C350.254 586.204 344.477 630.872 341.891 672.439L316.275 672.379C316.85 664.237 318.16 656.032 319.158 647.92L325.459 598.726L323.56 601.558C310.31 624.645 298.662 648.899 286.879 672.769L266.972 672.78C265.951 661.256 265.885 649.504 265.424 637.935L263.391 596.666C253.097 621.289 245.534 647.486 236.975 672.779C228.704 672.824 220.413 672.981 212.147 672.649Z"/>
	<path fill="white" d="M547.741 746.207C554.345 733.007 560.152 719.293 567.075 706.286C569.829 709.445 571.877 715.556 573.749 719.458C578.009 728.335 582.08 737.374 586.89 745.966L580.533 746.135L575.402 735.395L568.125 735.381L558.763 735.421C556.995 738.905 555.582 742.64 554.046 746.235L547.741 746.207ZM566.742 718.731C564.628 722.59 562.677 726.471 560.846 730.473L568.25 730.486L572.905 730.558L573.243 730.121C571.934 726.862 569.537 720.772 566.742 718.731Z"/>
	<path fill="white" d="M595.701 719.535C595.437 724.183 596.377 741.458 595.393 744.076C594.986 745.158 594.117 746 592.984 746.302C591.819 746.612 591.26 746.246 590.382 745.632C589.381 740.069 589.473 711.919 590.501 706.415C595.949 708.073 609.942 728.982 615.802 734.592C615.956 726.429 615.235 717.768 615.84 709.69C615.931 708.466 616.01 708.49 616.927 707.753C618.316 707.573 619.298 707.475 620.693 707.752C622.431 711.523 621.373 740.665 621.278 747.104C617.07 747.001 600.302 723.87 595.701 719.535Z"/>
	<path fill="white" d="M328.292 722.74C327.44 727.456 326.602 742.034 324.543 745.273C324.141 745.905 323.617 745.81 322.94 745.883C321.562 746.031 320.679 745.805 319.637 744.916C319.213 743.138 324.683 711.235 325.532 706.736C328.89 709.399 338.369 730.512 341.344 735.847Q348.384 721.147 355.699 706.582C357.777 715.275 358.738 724.433 360.226 733.251C360.756 736.389 361.983 739.506 362.308 742.651C362.426 743.791 362.334 744.608 361.741 745.614C360.463 746.168 360.347 746.121 358.971 745.841C355.634 743.189 355.525 735.829 354.919 731.887Q354.372 727.426 353.67 722.987L341.068 746.746C336.045 739.452 332.299 730.657 328.292 722.74Z"/>
	<path fill="white" d="M374.403 736.172C372.994 738.989 371.81 744.248 369.031 745.881C367.679 745.858 365.953 746.1 364.836 745.247C366.159 740.563 368.937 735.837 370.993 731.406C374.803 723.191 378.47 714.872 382.588 706.807C385.865 710.879 388.072 716.52 390.272 721.244C394.155 729.583 397.799 738.149 402.367 746.142L395.793 746.254C394.397 742.848 392.936 739.468 391.5 736.079L385.226 736.067C381.619 736.065 378.01 736.133 374.403 736.172ZM382.58 718.335Q380.69 721.464 379.14 724.774Q377.589 728.084 376.394 731.538L382.875 731.617L389.368 731.502C387.579 727.308 385.765 721.619 382.58 718.335Z"/>
	<path fill="white" d="M425.047 719.981C424.854 728.022 426.007 737.779 424.63 745.547C424.363 745.692 424.116 745.883 423.829 745.982C422.651 746.389 421.305 746.122 420.373 745.431C418.308 740.748 419.298 713.008 419.643 706.625C422.676 707.899 441.689 730.533 445.222 734.342C445.491 726.843 445.343 719.338 445.227 711.84C445.206 710.447 445.041 708.675 446.032 707.655C447.593 707.625 449.085 707.473 450.562 708.069C451.757 713.177 450.696 738.427 450.638 746.046L450.405 746.599L449.576 746.868C444.257 743.534 430.884 725.898 425.047 719.981Z"/>
	<path fill="white" d="M519.393 720.51C519.135 724.488 520.173 744.049 518.67 745.952C517.092 746.113 516.281 746.161 514.755 745.573C513.83 744.527 513.403 743.853 513.344 742.408C513.217 739.348 513.713 736.159 513.708 733.068C513.697 724.261 513.447 715.42 513.837 706.621C519.01 708.58 534.586 728.984 539.545 734.372C539.661 730.331 538.918 709.16 540.47 707.389C542.029 707.217 543.107 707.14 544.643 707.632C545.946 712.438 544.968 738.73 544.939 745.87L543.996 746.52C541.742 745.851 523.273 724.162 519.393 720.51Z"/>
	<path fill="white" d="M664.94 740.497C661.425 743.083 658.035 745.361 653.75 746.531Q653.233 746.672 652.709 746.787Q652.185 746.901 651.657 746.989Q651.128 747.078 650.595 747.139Q650.063 747.2 649.528 747.235Q648.993 747.269 648.457 747.277Q647.921 747.284 647.385 747.265Q646.849 747.245 646.315 747.198Q645.781 747.152 645.25 747.079Q644.719 747.005 644.192 746.905Q643.666 746.805 643.145 746.679Q642.624 746.552 642.11 746.4Q641.596 746.247 641.09 746.069Q640.585 745.891 640.089 745.687Q639.593 745.484 639.108 745.256Q638.623 745.028 638.15 744.775Q637.677 744.523 637.217 744.247C632.321 741.335 628.697 736.672 627.499 731.065C626.399 725.914 627.372 720.382 630.405 716.044C634.087 710.776 639.794 708.219 645.941 707.141C646.551 707.078 647.143 707.028 647.757 707.018C654.94 706.909 659.302 709.657 664.308 714.435C663.265 715.712 662.086 716.907 660.969 718.121C659.722 716.849 658.357 715.677 656.832 714.746C653.143 712.497 648.788 711.321 644.524 712.407C640.516 713.428 637.007 716.228 634.967 719.809C632.838 723.545 632.339 727.758 633.687 731.856C634.896 735.53 637.394 738.823 640.915 740.529C645.42 742.711 650.592 742.239 655.213 740.78C657.645 739.474 659.644 737.916 661.774 736.18L664.94 740.497Z"/>
	<path fill="white" d="M671.492 707.423C677.737 707.261 684.003 707.306 690.251 707.252C691.4 707.197 692.551 707.127 693.7 707.21C695.619 707.349 695.554 707.634 696.721 708.981C696.703 709.483 696.874 710.422 696.432 710.748C692.814 713.416 681.653 712.095 676.979 712.058C676.923 715.839 676.97 719.626 676.969 723.408C681.494 723.518 689.378 722.195 693.446 723.844C694.734 724.367 694.856 724.555 695.348 725.748L694.869 726.84C690.888 729.353 681.818 728.126 676.955 728.094C676.94 732.262 676.182 736.508 677.351 740.567C678.47 741.583 678.903 741.373 680.375 741.426C685.216 741.352 690.14 741.089 694.963 741.566C695.254 742.004 695.423 742.192 695.564 742.749C695.845 743.85 695.508 744.926 694.943 745.84C687.495 746.872 679 746.012 671.44 746.033L671.492 707.423Z"/>
	<path fill="white" d="M410.703 746.178C408.937 746.221 407.314 746.413 405.68 745.619C404.904 741.335 405.382 736.399 405.387 732.031L405.428 707.429C407.055 707.384 409.02 707.086 410.455 707.929C411.133 712.526 410.717 717.56 410.695 722.229L410.703 746.178Z"/>
	<path fill="white" d="M464.024 712.511C461.334 712.527 457.517 713.215 455.149 711.987C454.142 710.41 454.433 709.251 454.438 707.405C462.602 707.257 471.22 706.888 479.344 707.552L479.922 708.237C479.94 709.953 480.157 710.462 479.128 711.886C476.377 713.081 472.516 712.442 469.52 712.4L469.506 735.25C469.55 738.605 469.935 742.432 469.147 745.69C468.751 745.882 468.152 746.2 467.729 746.28C466.373 746.536 465.896 746.093 464.861 745.369C463.081 741.831 464.075 718.296 464.024 712.511Z"/>
	<path fill="white" d="M484.116 746.003L484.037 707.452C487.626 707.367 505.914 706.686 507.836 707.806C508.026 709.43 508.033 710.545 507.613 712.132C503.845 713.24 493.912 712.332 489.499 712.338L489.468 723.124C494.478 723.418 501.289 722.105 506.007 723.387C507.121 723.69 507.18 723.954 507.739 724.89C507.538 726.139 507.276 726.397 506.483 727.407C503.843 728.914 493.153 728.009 489.487 728.007L489.502 741.163C494.803 741.423 502.691 740.291 507.524 741.581L508.12 742.628C508.058 744.12 508.035 744.28 507.171 745.491C504.48 746.833 488.387 746.008 484.116 746.003Z"/>
	<path fill="#313131" d="M376.394 731.538Q377.589 728.084 379.14 724.774Q380.69 721.464 382.58 718.335C385.765 721.619 387.579 727.308 389.368 731.502L382.875 731.617L376.394 731.538Z"/>
	<path fill="#313131" d="M560.846 730.473C562.677 726.471 564.628 722.59 566.742 718.731C569.537 720.772 571.934 726.862 573.243 730.121L572.905 730.558L568.25 730.486L560.846 730.473Z"/>
	<path fill="#313131" d="M0 972.918C0.0742104 972.696 0.151636 972.475 0.222631 972.252C0.593955 971.086 0.6643 969.857 0.776174 968.645L0.458294 969.183C0.72859 968.34 0.536373 968.638 0.876989 968.206L0.886441 969.38L0.613144 969.585C0.742846 972.124 0.787242 974.699 1.04609 977.227C1.06393 984.3 0.089385 1019.68 1.40348 1023.2L0.573958 1024L0 1024L0 972.918Z"/>
</svg>
