<?xml version="1.0" encoding="utf-8" ?>
<svg xmlns="http://www.w3.org/2000/svg" xmlns:xlink="http://www.w3.org/1999/xlink" width="1024" height="1024">
	<path fill="#FAF9F2" d="M0 0L1024 0L1024 1024L0 1024L0 0ZM519.628 118.813Q515.922 118.701 512.214 118.678Q508.507 118.656 504.8 118.723Q501.093 118.791 497.388 118.949Q493.684 119.106 489.984 119.354Q486.285 119.602 482.593 119.939Q478.9 120.276 475.217 120.703Q471.534 121.131 467.863 121.647Q464.191 122.163 460.533 122.769Q456.875 123.374 453.233 124.068Q449.591 124.762 445.967 125.545Q442.342 126.327 438.738 127.197Q435.134 128.068 431.552 129.025Q427.97 129.983 424.413 131.027Q420.855 132.071 417.324 133.202Q413.793 134.332 410.29 135.548Q406.787 136.764 403.315 138.064Q399.843 139.365 396.404 140.749Q392.964 142.134 389.559 143.602Q386.154 145.069 382.786 146.619Q379.418 148.169 376.089 149.801Q372.759 151.432 369.47 153.144Q366.181 154.855 362.935 156.647Q359.688 158.438 356.487 160.307Q353.285 162.177 350.129 164.124Q346.974 166.07 343.866 168.093Q340.759 170.116 337.702 172.214Q334.645 174.311 331.639 176.483Q328.634 178.654 325.682 180.898Q322.73 183.141 319.834 185.456Q316.938 187.771 314.098 190.155Q311.259 192.54 308.479 194.993Q305.698 197.445 302.978 199.965Q300.334 202.421 297.751 204.941Q295.169 207.461 292.648 210.044Q290.128 212.627 287.672 215.27Q285.216 217.914 282.826 220.617Q280.435 223.321 278.112 226.082Q275.788 228.843 273.533 231.66Q271.278 234.477 269.093 237.349Q266.908 240.221 264.794 243.145Q262.68 246.07 260.638 249.045Q258.597 252.021 256.629 255.045Q254.661 258.07 252.767 261.142Q250.874 264.214 249.057 267.332Q247.24 270.449 245.499 273.61Q243.759 276.772 242.097 279.975Q240.435 283.178 238.852 286.42Q237.269 289.663 235.766 292.944Q234.263 296.224 232.841 299.541Q231.418 302.858 230.078 306.208Q228.738 309.558 227.48 312.941Q226.223 316.323 225.048 319.735Q223.874 323.147 222.784 326.587Q221.694 330.027 220.688 333.493Q219.683 336.959 218.763 340.448Q217.842 343.937 217.008 347.448Q216.174 350.959 215.426 354.489Q214.678 358.019 214.017 361.567Q213.356 365.114 212.782 368.677Q212.209 372.24 211.722 375.815Q211.236 379.391 210.838 382.977Q210.44 386.564 210.129 390.159Q209.819 393.754 209.597 397.356Q209.375 400.958 209.242 404.564Q208.982 411.434 209.04 418.309Q209.099 425.184 209.477 432.049Q209.854 438.914 210.549 445.754Q211.245 452.594 212.257 459.394Q213.269 466.195 214.595 472.941Q215.921 479.687 217.559 486.364Q219.197 493.042 221.143 499.636Q223.089 506.23 225.338 512.727C228.509 522.163 232.745 531.208 235.942 540.599C271.379 540.203 306.872 540.577 342.314 540.645C363.719 540.685 385.16 540.215 406.559 540.522L511.501 540.58C529.566 540.557 547.738 540.83 565.787 539.993C570.673 537.038 585.367 523.419 588.121 518.641C594.143 525.339 599.228 533.565 604.438 540.923C611.597 540.121 619.162 540.533 626.376 540.527L664.784 540.516L785.644 540.574C803.543 503.057 813.975 463.875 815.235 422.256Q815.308 418.664 815.294 415.071Q815.279 411.479 815.176 407.887Q815.074 404.296 814.883 400.708Q814.693 397.121 814.414 393.539Q814.136 389.957 813.77 386.383Q813.404 382.809 812.951 379.245Q812.497 375.681 811.957 372.129Q811.417 368.577 810.789 365.04Q810.162 361.502 809.448 357.981Q808.735 354.46 807.935 350.957Q807.135 347.455 806.25 343.973Q805.365 340.491 804.395 337.032Q803.425 333.572 802.37 330.138Q801.315 326.704 800.177 323.296Q799.039 319.888 797.817 316.51Q796.596 313.131 795.292 309.783Q793.988 306.435 792.603 303.121Q791.218 299.806 789.752 296.526Q788.285 293.246 786.74 290.003Q785.193 286.76 783.569 283.555Q781.944 280.351 780.241 277.188Q778.538 274.024 776.758 270.903Q774.978 267.782 773.123 264.706Q771.267 261.63 769.336 258.6Q767.406 255.57 765.402 252.588Q763.398 249.606 761.321 246.674Q759.245 243.742 757.097 240.862Q754.95 237.982 752.732 235.155Q750.515 232.329 748.229 229.557Q745.943 226.785 743.589 224.071Q741.236 221.356 738.817 218.7Q736.398 216.043 733.915 213.447Q731.314 210.739 728.648 208.095Q725.982 205.451 723.252 202.873Q720.523 200.295 717.731 197.784Q714.94 195.273 712.088 192.831Q709.236 190.389 706.325 188.017Q703.415 185.645 700.447 183.344Q697.48 181.044 694.457 178.816Q691.434 176.589 688.358 174.436Q685.282 172.283 682.155 170.205Q679.027 168.127 675.85 166.126Q672.673 164.126 669.448 162.203Q666.223 160.28 662.952 158.436Q659.681 156.592 656.367 154.829Q653.052 153.065 649.695 151.383Q646.338 149.701 642.942 148.101Q639.545 146.501 636.11 144.984Q632.675 143.467 629.205 142.034Q625.734 140.602 622.23 139.254Q618.725 137.906 615.189 136.644Q611.653 135.382 608.087 134.206Q604.521 133.031 600.927 131.943Q597.334 130.854 593.715 129.854Q590.096 128.853 586.454 127.941Q582.811 127.029 579.148 126.206Q575.485 125.383 571.802 124.649Q568.12 123.916 564.421 123.272Q560.722 122.628 557.008 122.075Q553.294 121.521 549.568 121.059Q545.842 120.596 542.106 120.224Q538.37 119.852 534.625 119.571Q530.881 119.29 527.131 119.101Q523.381 118.911 519.628 118.813ZM431.019 714.769C429.207 712.031 430.112 704.959 430.155 701.666C434.285 701.662 439.329 702.221 443.323 701.15L443.786 700.335C443.284 699.149 443.221 699.148 442.095 698.505L426.539 698.579C426.502 704.792 425.451 729.275 426.879 733.707L428.142 734.109C433.273 733.632 438.826 734.517 443.831 733.28C444.165 732.32 444.047 731.995 443.87 731.021C442.038 730.051 432.78 730.796 430.127 730.825C429.997 727.347 429.203 721.921 430.326 718.599C430.59 717.82 431.142 717.873 431.85 717.602C435.641 717.827 438.81 718.071 442.502 716.948L442.92 716.013C439.546 713.863 434.822 714.629 431.019 714.769ZM579.716 714.87Q579.619 708.445 579.655 702.02C583.383 702.069 590.524 703.192 593.502 700.646L593.861 699.393C592.959 698.487 592.26 698.608 591.037 698.579C586.095 698.458 581.123 698.827 576.173 698.781C575.992 710.826 576.39 722.917 575.982 734.95C580.019 734.972 590.516 736.125 593.42 733.65L593.681 732.618L593.019 731.834C588.546 731.603 584.03 731.775 579.551 731.753C579.509 728.445 578.503 720.201 580.621 717.839C584.619 718.144 588.656 718.256 592.559 717.254L592.318 715.869C588.692 714.167 583.658 714.758 579.716 714.87ZM859.02 563.966C857.937 564.723 856.736 565.517 856.003 566.641C853.344 570.717 848.368 585.048 847.585 589.853C847.348 591.311 847.064 593.468 847.79 594.843C848.364 595.929 849.365 596.547 850.568 596.716C851.546 596.854 852.673 596.426 853.57 596.083C856.383 592.982 866.385 573.219 866.224 569.482C866.167 568.162 865.393 566.86 864.406 566.009C862.887 564.697 860.982 564.148 859.02 563.966ZM499.872 570.018C498.12 570.801 497.258 571.29 496.533 573.196C493.658 580.756 491.558 597.225 489.717 606.051L482.22 641.096C481.097 646.513 479.672 652.114 479.025 657.603C478.743 659.993 478.63 662.705 479.658 664.948C480.101 665.915 480.785 666.829 481.775 667.285C483.365 668.017 485.399 667.438 486.873 666.683C489.083 665.552 489.746 663.392 490.331 661.17C492.57 652.678 493.832 643.68 495.541 635.054C497.63 624.512 500.137 614.01 502.03 603.437L502.205 603.884C504.031 608.671 505.148 613.811 506.605 618.726C509.234 627.6 512.057 636.415 514.588 645.319C516.123 650.716 517.304 656.823 519.645 661.922C520.42 663.61 521.331 664.83 523.069 665.606C524.49 666.241 526.154 666.354 527.63 665.826C530.871 664.667 532.74 659.732 533.839 656.698C537.371 646.942 540.266 636.884 543.597 627.046C546.329 618.973 549.562 610.981 552.097 602.859C552.857 606.108 553.594 609.331 554.111 612.629Q557.229 628.714 560.087 644.847C561.161 651.055 561.762 657.667 563.503 663.718C563.813 664.796 564.181 666.057 565.155 666.701C566.583 667.643 568.35 667.754 569.99 667.356Q570.269 667.286 570.54 667.189Q570.811 667.093 571.072 666.972Q571.333 666.85 571.581 666.704Q571.829 666.559 572.062 666.39Q572.296 666.222 572.512 666.032Q572.728 665.842 572.925 665.633Q573.123 665.423 573.299 665.196Q573.476 664.969 573.63 664.726C574.389 663.534 574.484 661.995 574.337 660.631C573.758 655.257 572.363 649.729 571.411 644.385L563.728 602.38Q562.102 593.011 560.673 583.61C560.242 580.68 560.296 577.067 559.307 574.29C558.732 572.677 557.414 570.747 555.7 570.202C554.158 569.712 552.747 569.826 551.329 570.626C549.733 571.526 548.585 573.144 547.903 574.814C546.754 577.628 546.23 580.803 545.368 583.728Q542.639 592.768 539.768 601.763C535.315 615.719 529.972 629.504 525.973 643.589C520.92 627.794 516.762 611.767 512.506 595.744C510.607 588.596 509.077 581.028 506.68 574.047C506.265 572.839 505.74 571.576 504.606 570.871C503.201 569.997 501.467 570.056 499.872 570.018ZM377.081 571.049C375.094 572.591 374.4 573.604 374.082 576.117C372.759 586.579 374.638 597.522 373.59 608.089C366.853 602.737 359.941 599.235 350.997 600.191Q350.211 600.273 349.43 600.394Q348.649 600.515 347.876 600.675Q347.102 600.835 346.337 601.033Q345.572 601.231 344.818 601.467Q344.064 601.703 343.322 601.976Q342.581 602.249 341.854 602.559Q341.127 602.868 340.416 603.214Q339.706 603.559 339.013 603.94Q338.32 604.32 337.648 604.734Q336.975 605.149 336.323 605.596Q335.672 606.044 335.044 606.523Q334.416 607.002 333.812 607.512Q333.208 608.022 332.631 608.561Q332.053 609.1 331.503 609.668Q330.953 610.235 330.432 610.829Q329.911 611.423 329.42 612.042C323.82 619.057 320.934 628.238 322.08 637.189C323.241 646.266 327.881 653.822 335.055 659.396C335.614 659.83 336.182 660.227 336.768 660.623C345.017 665.191 353.264 667.059 362.509 664.331C366.822 663.059 370.568 661.018 374.261 658.49C374.176 660.984 373.908 662.77 375.635 664.754C376.75 666.035 378.496 667.235 380.251 667.211C381.555 667.193 382.49 666.576 383.337 665.628C384.116 664.756 384.678 663.305 384.787 662.163C385.393 655.833 384.959 649.075 384.946 642.709L384.861 607.476C384.842 600.153 385.743 579.715 384.525 573.827C384.289 572.689 383.523 571.995 382.528 571.467C380.86 570.583 378.871 570.84 377.081 571.049ZM116.18 576.486C114.564 577.463 112.608 578.331 112.103 580.306C110.667 585.932 111.687 609.573 111.706 616.678L111.824 646.33C111.813 650.666 111.471 655.03 111.577 659.361C111.62 661.08 111.811 662.605 112.483 664.189C113.782 665.526 115.257 666.407 117.177 666.453C118.545 666.486 120.026 666.124 121.084 665.221C123.475 663.18 123.328 659.367 123.263 656.515C123.086 648.835 122.992 641.209 123.033 633.525L167.649 633.583C167.579 639.449 166 661.477 169.281 664.823C170.463 666.029 171.789 666.514 173.449 666.419C174.868 666.337 176.489 665.824 177.351 664.625C178.524 662.992 178.414 661.036 178.398 659.125L178.446 610.376C178.516 601.656 179.429 592.134 178.499 583.498C178.299 581.64 177.833 579.269 176.522 577.837C175.588 576.817 174.713 576.275 173.303 576.291C171.81 576.309 170.149 577.272 169.267 578.416C168.228 579.765 167.845 581.502 167.678 583.163C167.25 587.426 167.81 591.946 167.822 596.243C167.846 604.861 167.707 613.485 167.617 622.103L123.327 622.555Q123.122 609.873 123.153 597.19C123.183 592.196 123.825 586.29 123.02 581.407C122.797 580.054 122.268 579.025 121.314 578.022C120.047 576.689 117.894 576.503 116.18 576.486ZM610.492 599.169C601.587 600.237 594.186 604.005 588.576 611.121Q588.062 611.772 587.58 612.448Q587.099 613.124 586.651 613.822Q586.203 614.52 585.789 615.24Q585.376 615.959 584.998 616.697Q584.62 617.436 584.278 618.192Q583.937 618.948 583.633 619.72Q583.328 620.492 583.062 621.278Q582.796 622.064 582.568 622.862Q582.341 623.66 582.152 624.468Q581.964 625.276 581.815 626.092Q581.666 626.908 581.558 627.731Q581.449 628.553 581.38 629.38Q581.312 630.207 581.283 631.036Q581.255 631.865 581.267 632.695Q581.28 633.525 581.332 634.353Q581.385 635.181 581.478 636.005C582.521 644.728 587.431 653.212 594.397 658.549C600.85 663.492 608.953 665.785 617.034 664.542Q619.738 664.115 622.324 663.218Q624.91 662.322 627.298 660.984C629.368 659.558 631.457 658.152 633.508 656.701C633.931 659.4 634.301 662.99 636.68 664.745C637.817 665.583 639.16 665.637 640.485 665.317C641.867 664.982 643.194 664.415 643.855 663.066C645.173 660.376 644.928 605.682 643.564 602.924C643.001 601.785 641.939 600.762 640.696 600.442C639.109 600.033 637.428 600.443 636.096 601.362C634.012 602.799 633.723 604.906 633.307 607.226L633.295 607.19C626.281 602.058 619.491 598.474 610.492 599.169ZM679.957 599.583C675.052 600.866 671.655 602.427 668.018 606.095L667.741 605.531C666.74 603.533 665.686 601.355 663.349 600.686C662.163 600.347 660.438 600.612 659.381 601.3C658.285 602.015 657.772 602.687 657.551 603.964C656.464 610.264 657.453 625.794 657.454 633.161C657.455 641.343 656.737 649.863 657.17 657.988C657.275 659.952 657.487 662.138 658.61 663.811C659.415 665.009 662.033 665.738 663.436 665.759C664.813 665.78 665.739 665.427 666.691 664.429C670.117 660.836 668.373 639.115 668.289 633.826C668.132 623.823 667.821 613.795 679.483 610.484C683.709 610.307 687.201 610.481 690.454 613.603C692.8 615.853 694.211 618.903 694.894 622.046C697.321 633.225 693.271 654.207 696.473 663.615C697.017 665.214 697.945 666.588 699.798 666.608C701.519 666.627 704.154 665.297 705.223 663.928C705.932 663.021 706.298 662.173 706.468 661.042C707.171 656.375 706.94 624.857 706.062 620.014C704.883 613.502 701.454 606.858 695.966 603.007C691.084 599.581 685.706 599.111 679.957 599.583ZM742.266 599.57C737.426 601.179 734.317 602.904 730.447 606.233L730.235 605.673C729.539 603.887 728.771 601.988 726.977 601.034C725.548 600.273 723.424 600.227 722.018 601.029C720.349 601.981 719.733 604.057 719.528 605.843C718.951 610.865 720.01 616.335 720.014 621.419C720.021 629.056 720.052 636.743 719.913 644.377C719.83 648.935 719.366 653.717 719.668 658.256C719.79 660.079 720.057 662.365 721.223 663.862C722.196 665.113 723.32 665.783 724.924 665.871C726.564 665.961 728.05 665.551 729.259 664.402C734.15 659.757 728.744 627.62 732.42 618.79C734.177 614.569 737.564 611.874 741.77 610.288L742.427 610.24C746.452 609.981 750.242 610.613 753.327 613.42C757.263 617.002 758.103 622.35 758.19 627.404Q758.29 639.51 758.183 651.615C758.163 654.598 757.667 658.122 758.138 661.039C758.312 662.114 758.987 663.482 759.805 664.24C760.955 665.305 762.322 665.987 763.924 665.905C765.504 665.825 766.842 665.075 767.791 663.827C768.675 662.664 769.067 661.32 769.266 659.89C770.01 654.549 769.766 625.103 768.706 619.459C767.466 612.853 763.93 606.79 758.285 603.008C753.389 599.729 747.99 599.101 742.266 599.57ZM780.144 599.486C778.425 600.359 776.476 601.142 775.867 603.161C775.497 604.388 775.706 605.583 776.154 606.745C777.796 611.003 780.918 615.175 783.352 619.051C788.86 627.82 794.824 636.545 799.619 645.728C794.962 655.411 786.333 665.019 782.59 674.004C781.986 675.454 781.559 676.722 781.997 678.291C782.327 679.479 783.173 680.103 784.272 680.578C786.204 681.413 788.754 680.994 790.551 680.02C794.842 677.697 810.112 650.285 813.956 644.32C817.631 638.354 837.865 608.527 837.248 604.665C836.972 602.938 835.339 601.148 833.886 600.282C832.793 599.63 831.465 599.372 830.229 599.721C828.854 600.11 827.936 601.078 827.091 602.178C823.759 606.515 821.181 611.715 818.354 616.404Q812.575 625.867 806.267 634.986C802.573 629.179 786.785 601.072 782.324 599.719C781.618 599.505 780.873 599.491 780.144 599.486ZM884.221 599.682C879.116 600.232 874.558 601.156 871.176 605.409C868.375 608.933 866.307 614.007 866.96 618.571C867.64 623.314 871.268 627.063 875.025 629.72C881.278 634.145 894.091 637.144 895.419 645.742C895.791 648.152 895.178 651.154 893.631 653.074C891.655 655.525 888.504 656.636 885.448 656.884C881.901 657.173 878.643 656.163 876.012 653.737C873.392 651.32 870.767 645.889 866.622 646.107C865.325 646.175 864.258 646.605 863.461 647.668C862.485 648.968 862.343 650.687 862.681 652.23C863.708 656.919 868.399 660.596 872.359 662.915C873.892 663.812 875.479 664.504 877.13 665.15C883.674 666.937 890.261 666.768 896.288 663.313Q896.706 663.074 897.112 662.815Q897.518 662.556 897.911 662.276Q898.303 661.996 898.68 661.697Q899.058 661.398 899.42 661.081Q899.782 660.763 900.127 660.427Q900.472 660.091 900.8 659.738Q901.128 659.385 901.438 659.017Q901.748 658.648 902.038 658.263Q902.329 657.879 902.599 657.481Q902.87 657.083 903.121 656.671Q903.371 656.259 903.6 655.836Q903.829 655.412 904.036 654.977Q904.243 654.542 904.428 654.098Q904.614 653.653 904.776 653.199Q904.938 652.746 905.077 652.285Q905.216 651.824 905.332 651.356C906.424 646.985 906.196 641.83 903.76 637.942C901.731 634.703 898.848 632.001 895.682 629.884C891.215 626.896 874.992 620.991 876.729 614.179C877.277 612.033 879.085 609.777 881.093 608.869C887.139 606.137 897.532 618.18 901.051 610.447C901.517 609.424 901.624 608.3 901.208 607.237C899.866 603.798 894.379 601.64 891.056 600.611C888.861 599.931 886.516 599.665 884.221 599.682ZM286.45 600.151C281.334 601.064 277.952 603.656 273.753 606.473C273.428 605.761 273.101 605.052 272.785 604.336C272.157 602.91 271.444 601.455 269.866 600.873C268.069 600.21 266.177 601.164 264.591 601.932C263.541 603.804 263.389 606.061 263.228 608.174C262.759 614.341 262.31 660.422 263.371 663.123C263.839 664.316 264.803 665.198 265.987 665.663C267.664 666.323 269.643 666.122 271.194 665.23C272.727 664.349 273.559 662.997 273.936 661.307C276.692 648.939 268.67 621.313 280.67 613.189C281.51 612.62 282.479 612.144 283.426 611.783L284.053 611.629C287.819 610.742 292.144 610.775 295.498 612.987C298.798 615.162 300.4 619.077 301.08 622.833C302.583 631.125 301.554 643.05 301.339 651.672C301.262 654.743 300.831 658.085 301.389 661.113C301.677 662.676 302.252 664.413 303.641 665.338C304.938 666.202 306.789 666.252 308.255 665.83C309.764 665.396 310.769 664.643 311.434 663.181C312.416 661.024 311.886 626.032 311.423 621.777C311.05 618.344 310.227 614.955 308.693 611.848C306.243 606.885 302.134 603.014 296.853 601.239C293.532 600.123 289.929 599.848 286.45 600.151ZM400.987 599.998C399.307 601.071 397.331 602.142 396.737 604.197C396.38 605.433 396.627 606.425 397.08 607.57C398.909 612.2 402.164 616.65 404.644 620.976C409.863 630.081 414.739 639.734 420.758 648.328C417.865 653.889 401.923 678.135 403.233 682.397C403.682 683.858 404.992 684.881 406.382 685.386C407.749 685.883 409.469 686.193 410.808 685.485C414.376 683.597 430.333 653.908 433.346 648.267L448.066 623.17C450.951 618.274 454.709 612.957 456.638 607.607C457.014 606.565 457.029 605.68 456.75 604.596C456.358 603.079 455.188 601.578 453.748 600.94C452.671 600.463 451.491 600.351 450.361 600.745C448.809 601.287 447.608 602.638 446.698 603.951C444.35 607.337 442.716 611.278 440.676 614.861Q434.12 626.213 427.21 637.352C424.481 632.708 407.418 601.218 403.763 600.275C402.821 600.033 401.959 600 400.987 599.998ZM214.554 600.551C204.355 603.492 196.901 608.414 191.707 617.935Q191.339 618.623 191.005 619.327Q190.671 620.032 190.371 620.752Q190.071 621.472 189.806 622.206Q189.541 622.939 189.312 623.685Q189.083 624.43 188.89 625.186Q188.697 625.942 188.541 626.706Q188.385 627.47 188.266 628.241Q188.147 629.011 188.065 629.787Q187.983 630.563 187.939 631.341Q187.894 632.12 187.888 632.9Q187.881 633.68 187.912 634.459Q187.943 635.238 188.012 636.015Q188.08 636.792 188.186 637.565Q188.292 638.338 188.435 639.104Q188.579 639.871 188.759 640.63Q188.939 641.389 189.155 642.138C191.592 650.375 197.45 657.998 205.093 662.01C212.483 665.889 221.69 666.408 229.579 663.736Q232.317 662.833 234.87 661.493L238.961 659.154C239.028 659.344 239.092 659.535 239.162 659.723C240.19 662.487 240.989 665.415 243.835 666.749C246.282 666.969 247.396 666.102 249.173 664.61C250.294 663.669 250.332 660.296 250.44 658.817C251.06 650.369 251.403 609.055 249.671 602.51C248.553 601.35 247.188 600.728 245.56 600.741C243.852 600.754 242.118 601.539 241.085 602.921C240.154 604.165 240.094 605.451 239.989 606.925C237.967 606.933 234.202 603.839 232.094 602.9C226.547 600.43 220.542 599.888 214.554 600.551ZM403.133 698.119C400.335 698.737 397.103 700.228 395.497 702.74C394.566 704.197 394.656 706.001 395.111 707.599C397.583 716.287 415.59 720.003 411.233 727.969C410.256 729.755 407.834 730.835 405.924 731.233C399.813 732.507 397.979 725.742 394.328 729.172L393.984 730.33C395.751 732.431 399.206 734.27 401.961 734.569C402.173 734.592 402.387 734.588 402.6 734.597C406.259 734.463 409.969 733.951 412.654 731.201C414.431 729.38 415.595 726.8 415.462 724.234C415.322 721.505 413.749 718.939 411.734 717.161C407.727 713.627 398.702 711.741 397.878 705.663C398.354 703.981 399.189 703.178 400.665 702.346C405.099 699.845 410.89 704.653 413.035 701.789C412.301 700.272 411.012 699.874 409.468 699.326C407.354 698.576 405.387 698.185 403.133 698.119ZM554.938 698.235C549.564 698.741 544.894 700.49 541.422 704.826C538.173 708.884 536.868 714.375 537.473 719.498C538.05 724.389 540.444 728.824 544.418 731.778C548.122 734.53 552.743 735.902 557.337 735.071C559.858 734.615 562.731 733.228 564.176 731.04C564.647 730.327 564.478 730.085 564.415 729.294C563.645 728.945 563.618 728.708 562.779 729.045C561.953 729.377 561.323 729.802 560.599 730.307C557.076 731.691 553.418 732.301 549.809 730.808C546.255 729.338 543.754 726.237 542.474 722.677C540.889 718.268 540.943 712.857 543.008 708.609C544.535 705.467 547.178 703.197 550.528 702.202C557.183 700.226 560.325 704.577 564.131 703.982C564.533 702.916 564.626 702.387 564.437 701.259C562.811 699.329 559.949 698.489 557.497 698.222C556.652 698.131 555.783 698.179 554.938 698.235ZM609.454 698.072C605.98 699.704 604.483 700.906 603.226 704.628C602.59 706.51 602.531 708.293 603.416 710.117C606.377 716.22 620.602 719.565 618.537 727.349C618.117 728.931 617.173 730.629 615.788 731.555C614.344 732.52 612.439 732.271 610.887 731.728C607.915 730.688 605.476 728.246 602.279 728.023L601.638 728.423C601.88 730.219 604.106 732.483 605.551 733.542C607.035 734.63 609.202 734.924 610.983 735.173C614.267 735.028 617.34 734.86 619.728 732.293C621.556 730.328 622.951 727.119 622.692 724.402C622.397 721.314 620.083 719.029 617.76 717.22C614.299 714.526 607.362 711.859 606.548 707.177C606.243 705.422 606.695 704.035 607.713 702.607C609.305 701.576 610.546 701.457 612.381 701.805C614.808 702.265 617.025 703.66 619.436 703.071C620.196 701.996 620.202 702.069 620.029 700.769C618.277 698.781 615.818 698.211 613.253 698.024C612.005 697.934 610.701 698.02 609.454 698.072ZM453.908 698.541C454.353 704.534 453.199 731.069 455.255 734.116C456.474 734.421 456.438 734.265 457.541 733.616C459.281 728.967 456.501 722.683 458.302 718.096C459.4 717.709 458.997 717.609 459.918 718.064C463.869 720.018 468.202 727.713 470.717 731.241C471.466 732.326 472.362 734.11 473.772 734.309C474.62 734.429 475.579 734.343 476.436 734.312C475.864 730.852 467.399 720.637 465.071 717.075C468.289 716.195 470.738 715.134 472.446 712.108C473.739 709.818 474.312 707.101 473.423 704.563C472.611 702.245 470.768 700.692 468.574 699.713C464.236 697.779 458.581 698.444 453.908 698.541ZM482.11 698.535C482.47 704.186 494.477 728.518 497.269 736.166Q503.506 720.696 510 705.331C510.795 703.386 512.293 700.83 512.11 698.751C511.371 697.869 511.82 698.143 510.812 697.855C507.225 699.476 505.336 706.406 504.035 709.85C501.86 715.61 499.817 721.454 497.476 727.149C495.906 723.744 486.417 699.11 485.044 698.665C484.032 698.337 483.155 698.468 482.11 698.535ZM522.127 698.351L522.224 721.269C522.242 725.631 521.94 730.178 522.603 734.493C523.846 735.001 524.686 735.037 526.002 735.054C526.127 724.401 527.007 709.184 525.812 699.056C524.628 698.302 523.506 698.446 522.127 698.351Z"/>
	<defs>
		<linearGradient id="gradient_0" gradientUnits="userSpaceOnUse" x1="245.56598" y1="272.77399" x2="635.61115" y2="445.63358">
			<stop offset="0" stop-color="#FB6D50"/>
			<stop offset="1" stop-color="#FAA38F"/>
		</linearGradient>
	</defs>
	<path fill="url(#gradient_0)" d="M519.628 118.813L511.366 118.813L511.127 266.469C511.083 289.866 511.751 313.462 511.028 336.835C518.239 334.343 525.802 332.308 533.45 333.91C541.383 336.686 547.461 341.663 551.101 349.312C555.521 358.599 553.005 367.858 555.129 373.174C555.628 374.422 556.642 375.313 557.17 376.514C556.805 376.933 556.349 377.351 556.108 377.853C548.38 377.034 543.247 377.728 536.984 382.735C532.437 386.37 528.343 390.712 524.105 394.702C519.6 398.943 514.602 403.099 510.507 407.735C510.308 413.1 509.746 416.971 505.543 420.833C499.916 426.004 490.846 427.904 483.588 429.312C486.495 437.575 490.911 445.702 499.142 449.727C503.151 451.687 509.463 452.708 513.707 450.943C515.986 449.995 518.273 448.176 520.178 446.603C528.875 439.422 536.884 431.248 545.303 423.726C551.791 417.929 559.267 412.469 565.169 406.105C566.781 404.367 567.601 402.705 568.418 400.483Q569.068 398.693 569.576 396.857C570.862 402.057 573.122 406.834 575.489 411.617C573.4 412.172 571.691 412.85 569.906 414.088C562.325 419.347 528.628 449.957 524.721 456.789C522.734 460.266 523.16 466.181 524.348 469.856C525.855 474.517 529.098 478.603 533.505 480.819C537.976 483.066 543.254 483.124 547.948 481.547C550.011 480.855 551.771 479.819 553.487 478.488C559.918 473.501 565.734 467.307 571.836 461.891C578.008 456.413 584.977 451.422 590.676 445.486C592.477 443.61 594.063 441.451 595.205 439.111C596.325 436.816 597.315 433.91 597.818 431.409C599.087 437.733 600.256 443.898 603.544 449.564C603.333 449.631 603.123 449.7 602.911 449.764C600.187 450.587 598.469 450.999 596.041 452.711C590.22 456.816 585.234 462.421 579.946 467.21C573.445 473.098 566.318 478.67 560.206 484.94C558.786 486.397 557.432 487.984 556.445 489.769C554.363 493.535 553.719 497.871 555.066 502.001C556.533 506.503 560.039 510.055 564.307 511.996C569.753 514.474 577.462 514.803 583.07 512.695C594.077 508.559 609.41 489.788 619.895 482.113C619.584 483.842 619.338 485.717 618.456 487.266C614.128 494.867 588.852 513.608 588.121 518.641C585.367 523.419 570.673 537.038 565.787 539.993C547.738 540.83 529.566 540.557 511.501 540.58C512.274 493.147 515.912 492.43 471.723 470.27C465.751 467.275 460.94 465.488 457.435 459.404C457.255 450.28 456.216 440.301 457.121 431.278C458.838 414.17 484.941 426.148 497.721 415.353C500.43 413.064 501.565 409.878 501.787 406.409C502.422 396.461 495.799 380.513 489.398 373.202C486.841 372.573 484.273 372.471 481.652 372.429C469.519 372.235 457.364 372.294 445.228 372.238C438.341 372.206 429.597 371.307 422.87 372.765C419.335 373.532 415.872 375.96 413.367 378.489Q412.761 379.099 412.204 379.754Q411.647 380.408 411.141 381.103Q410.635 381.798 410.184 382.53Q409.732 383.261 409.338 384.025Q408.944 384.789 408.609 385.58Q408.273 386.372 408 387.187Q407.726 388.001 407.515 388.835Q407.304 389.668 407.157 390.515C406.083 396.997 406.504 403.9 406.531 410.449L406.77 443.242L406.559 540.522C385.16 540.215 363.719 540.685 342.314 540.645C306.872 540.577 271.379 540.203 235.942 540.599C232.745 531.208 228.509 522.163 225.338 512.727Q223.089 506.23 221.143 499.636Q219.197 493.042 217.559 486.364Q215.921 479.687 214.595 472.941Q213.269 466.195 212.257 459.395Q211.245 452.594 210.549 445.754Q209.854 438.914 209.477 432.049Q209.099 425.184 209.04 418.309Q208.982 411.434 209.242 404.564Q209.375 400.958 209.597 397.356Q209.819 393.754 210.129 390.159Q210.44 386.564 210.838 382.977Q211.236 379.391 211.722 375.815Q212.209 372.24 212.782 368.677Q213.356 365.114 214.017 361.567Q214.678 358.019 215.426 354.489Q216.174 350.959 217.008 347.448Q217.842 343.937 218.763 340.448Q219.683 336.959 220.688 333.493Q221.694 330.027 222.784 326.587Q223.874 323.147 225.048 319.735Q226.223 316.323 227.48 312.941Q228.738 309.558 230.078 306.208Q231.418 302.858 232.841 299.541Q234.263 296.224 235.766 292.944Q237.269 289.663 238.852 286.42Q240.435 283.178 242.097 279.975Q243.759 276.772 245.499 273.61Q247.24 270.449 249.057 267.332Q250.874 264.214 252.767 261.142Q254.661 258.07 256.629 255.045Q258.597 252.021 260.638 249.045Q262.68 246.07 264.794 243.145Q266.908 240.221 269.093 237.349Q271.278 234.477 273.533 231.66Q275.788 228.843 278.112 226.082Q280.435 223.321 282.826 220.617Q285.216 217.914 287.672 215.27Q290.128 212.627 292.648 210.044Q295.169 207.461 297.751 204.941Q300.334 202.421 302.978 199.965Q305.698 197.445 308.479 194.993Q311.259 192.54 314.098 190.156Q316.938 187.771 319.834 185.456Q322.73 183.141 325.682 180.898Q328.634 178.654 331.639 176.483Q334.645 174.311 337.702 172.214Q340.759 170.116 343.866 168.093Q346.974 166.07 350.129 164.124Q353.285 162.177 356.487 160.307Q359.688 158.438 362.935 156.647Q366.181 154.855 369.47 153.144Q372.759 151.432 376.089 149.801Q379.418 148.169 382.786 146.619Q386.154 145.069 389.559 143.602Q392.964 142.134 396.404 140.749Q399.843 139.365 403.315 138.064Q406.787 136.764 410.29 135.548Q413.793 134.332 417.324 133.202Q420.855 132.071 424.413 131.027Q427.97 129.983 431.552 129.025Q435.134 128.068 438.738 127.197Q442.343 126.327 445.967 125.545Q449.591 124.762 453.233 124.068Q456.875 123.374 460.533 122.769Q464.191 122.163 467.863 121.647Q471.534 121.131 475.217 120.703Q478.9 120.276 482.593 119.939Q486.285 119.602 489.984 119.354Q493.684 119.106 497.388 118.949Q501.093 118.791 504.8 118.723Q508.507 118.656 512.214 118.678Q515.922 118.701 519.628 118.813ZM426.452 206.691C420.458 207.461 414.738 208.48 409.16 210.904C399.655 215.034 367.698 235.975 361.624 243.926C354.942 252.672 361.495 259.972 349.691 267.994C347.382 269.563 344.858 271.009 342.052 271.405C336.89 272.133 333.481 268.159 328.741 267.394C327.179 267.142 325.547 267.068 324.057 267.679C319.045 269.734 306.635 279.914 303.262 284.039C301.806 285.819 301.425 288.176 301.747 290.419C302.468 295.448 325.952 326.499 329.967 329.431C331.823 330.785 333.893 330.854 336.078 330.419C342.632 329.115 357.702 318.369 361.347 312.848L361.895 312.024C361.589 308.517 361.162 305.107 360.524 301.645C366.297 295.995 372.656 292.903 380.197 290.153C385.37 292.893 391.207 295.606 395.705 299.377C401.788 304.476 408.127 318.063 412.371 325.269C420.014 337.288 426.528 349.961 434.111 361.994C450.951 362.049 467.71 361.685 484.539 361.458C479.476 351.598 473.227 342.293 467.295 332.939Q455.662 314.727 444.323 296.33C441.042 291.039 435.565 284.772 433.799 278.866C431.935 272.63 432.867 265.438 431.633 259.006C430.737 254.333 427.901 247.241 429.217 242.685C430.2 239.278 432.732 236.9 435.811 235.311C445.527 230.3 459.364 231.125 469.924 231.856C474.061 232.142 478.499 232.805 482.629 232.395C485.046 232.154 487.861 231.674 489.106 229.353C489.244 227.16 487.837 225.37 486.433 223.813C475.785 212.003 454.745 206.833 439.507 206.352C435.347 206.221 430.571 206.096 426.452 206.691ZM512.46 350.097C503.579 351.746 499.36 358.995 493.299 364.87C498.4 370.369 502.263 375.985 504.89 383.058C505.698 385.233 506.235 388.09 507.425 390.05C507.96 390.931 508.388 391.167 509.451 391.191C510.783 391.222 512.433 390.851 513.736 390.605C520.58 387.95 527.805 381.995 530.789 375.178C532.853 370.462 532.662 364.778 530.582 360.097C528.563 355.555 524.905 352.412 520.236 350.805C517.601 349.897 515.208 349.93 512.46 350.097Z"/>
	<defs>
		<linearGradient id="gradient_1" gradientUnits="userSpaceOnUse" x1="780.55579" y1="275.86462" x2="529.96234" y2="378.3996">
			<stop offset="0" stop-color="#199554"/>
			<stop offset="1" stop-color="#4DB284"/>
		</linearGradient>
	</defs>
	<path fill="url(#gradient_1)" d="M511.366 118.813L519.628 118.813Q523.381 118.911 527.131 119.101Q530.881 119.29 534.625 119.571Q538.37 119.852 542.106 120.224Q545.842 120.596 549.568 121.059Q553.294 121.521 557.008 122.075Q560.722 122.628 564.421 123.272Q568.12 123.916 571.802 124.649Q575.485 125.383 579.148 126.206Q582.811 127.029 586.454 127.941Q590.096 128.853 593.715 129.854Q597.334 130.854 600.927 131.943Q604.521 133.031 608.087 134.206Q611.653 135.382 615.189 136.644Q618.725 137.906 622.23 139.254Q625.734 140.602 629.205 142.034Q632.675 143.467 636.11 144.984Q639.545 146.501 642.942 148.101Q646.338 149.701 649.695 151.383Q653.052 153.065 656.367 154.829Q659.681 156.592 662.952 158.436Q666.223 160.28 669.448 162.203Q672.673 164.126 675.85 166.127Q679.027 168.127 682.155 170.205Q685.282 172.283 688.358 174.436Q691.434 176.589 694.457 178.816Q697.48 181.044 700.447 183.344Q703.415 185.645 706.325 188.017Q709.236 190.389 712.088 192.831Q714.94 195.273 717.731 197.784Q720.523 200.295 723.252 202.873Q725.982 205.451 728.648 208.095Q731.314 210.739 733.915 213.447Q736.398 216.043 738.817 218.7Q741.236 221.356 743.589 224.071Q745.943 226.785 748.229 229.557Q750.515 232.329 752.732 235.155Q754.95 237.982 757.097 240.862Q759.245 243.742 761.321 246.674Q763.398 249.606 765.402 252.588Q767.406 255.57 769.336 258.6Q771.267 261.63 773.123 264.706Q774.978 267.782 776.758 270.903Q778.538 274.024 780.241 277.188Q781.944 280.351 783.569 283.555Q785.194 286.76 786.74 290.003Q788.286 293.246 789.752 296.526Q791.218 299.806 792.603 303.121Q793.988 306.435 795.292 309.783Q796.596 313.131 797.817 316.51Q799.039 319.888 800.177 323.296Q801.315 326.704 802.37 330.138Q803.425 333.572 804.395 337.032Q805.365 340.491 806.25 343.973Q807.135 347.455 807.935 350.957Q808.735 354.46 809.448 357.981Q810.162 361.502 810.789 365.04Q811.417 368.577 811.957 372.129Q812.497 375.681 812.951 379.245Q813.404 382.809 813.77 386.383Q814.136 389.957 814.414 393.539Q814.693 397.121 814.883 400.708Q815.074 404.296 815.176 407.887Q815.279 411.479 815.294 415.071Q815.308 418.664 815.235 422.256C813.975 463.875 803.543 503.057 785.644 540.574L664.784 540.516L626.376 540.527C619.162 540.533 611.597 540.121 604.438 540.923C599.228 533.565 594.143 525.339 588.121 518.641C588.852 513.608 614.128 494.867 618.456 487.266C619.338 485.717 619.584 483.842 619.895 482.113C622.23 478.545 623.656 475.349 623.811 471.015C624.017 465.251 621.9 459.306 617.853 455.16C613.989 451.203 608.99 449.551 603.544 449.564C600.256 443.898 599.087 437.733 597.818 431.409L597.765 430.945L597.665 430.174C597.036 425.044 595.047 420.138 591.24 416.52C586.871 412.368 581.275 411.405 575.489 411.617C573.122 406.834 570.862 402.057 569.576 396.857C569.471 393.94 568.92 391.334 567.705 388.663C565.375 383.54 561.352 379.833 556.108 377.853C556.349 377.351 556.805 376.933 557.17 376.514C560.481 373.135 565.492 361.409 568.092 356.618Q586.014 324.129 603.355 291.326C611.822 295.163 619.886 300.722 627.815 305.572C631.401 307.765 635.09 310.341 639.083 311.716C641.657 312.602 645.058 312.991 647.554 311.639C649.366 310.657 650.774 308.559 651.842 306.859C656.621 299.25 660.443 290.624 664.773 282.701C668.308 276.235 676.696 263.902 678.605 257.397C678.374 256.497 678.147 255.592 677.875 254.703C677.348 252.974 676.681 251.426 675.277 250.23C670.105 245.826 662.799 242.621 656.851 239.251C649.723 235.212 642.741 230.933 635.546 227.011C637.899 222.502 639.33 218.16 638.252 212.994C637.278 208.328 634.172 204.307 630.092 201.902Q629.341 201.464 628.55 201.104Q627.759 200.743 626.936 200.465Q626.112 200.186 625.265 199.991Q624.418 199.797 623.555 199.689Q622.693 199.58 621.824 199.56Q620.955 199.539 620.088 199.606Q619.222 199.672 618.366 199.826Q617.511 199.98 616.675 200.219C611.119 201.822 608.172 205.657 605.621 210.537C600.109 206.395 593.646 203.354 587.705 199.867C581.881 196.448 575.999 192.275 569.805 189.581C567.737 188.682 565.042 187.739 562.746 188.049C560.321 188.377 558.667 189.68 557.285 191.626C552.194 198.797 548.045 206.99 543.457 214.516C539.201 221.498 531.826 231.568 528.96 238.7C528.207 240.575 528.117 242.914 528.584 244.876C529.043 246.8 530.305 247.894 531.814 249.053C535.867 252.164 540.861 254.413 545.289 256.978C552.963 261.423 560.556 266.022 568.171 270.568Q558.809 288.051 549.092 305.339C543.766 314.752 538.039 324.11 533.45 333.91C525.802 332.308 518.239 334.343 511.028 336.835C511.751 313.462 511.083 289.866 511.127 266.469L511.366 118.813ZM698.376 290.904Q686.074 302.923 673.954 315.125Q685.966 326.739 697.636 338.696C703.16 334.783 716.399 320.183 721.379 314.317C713.932 306.302 705.983 298.766 698.376 290.904ZM667.705 343.327C663.111 347.809 658.795 352.555 654.242 357.075C656.93 360.11 664.963 369.572 668.335 370.578C672.907 366.086 677.583 361.662 682.047 357.065C678.904 353.655 671.798 344.837 667.705 343.327Z"/>
	<path fill="#FAF9F2" d="M533.45 333.91C538.039 324.11 543.766 314.752 549.092 305.339Q558.809 288.051 568.171 270.568C560.556 266.022 552.963 261.423 545.289 256.978C540.861 254.413 535.867 252.164 531.814 249.053C530.305 247.894 529.043 246.8 528.584 244.876C528.117 242.914 528.207 240.575 528.96 238.7C531.826 231.568 539.201 221.498 543.457 214.516C548.045 206.99 552.194 198.797 557.285 191.626C558.667 189.68 560.321 188.377 562.746 188.049C565.042 187.739 567.737 188.682 569.805 189.581C575.999 192.275 581.881 196.448 587.705 199.867C593.646 203.354 600.109 206.395 605.621 210.537C608.172 205.657 611.119 201.822 616.675 200.219Q617.511 199.98 618.366 199.826Q619.222 199.672 620.088 199.606Q620.955 199.539 621.824 199.56Q622.693 199.58 623.556 199.689Q624.418 199.797 625.265 199.991Q626.112 200.186 626.936 200.465Q627.759 200.743 628.55 201.104Q629.341 201.464 630.092 201.902C634.172 204.307 637.278 208.328 638.252 212.994C639.33 218.16 637.899 222.502 635.546 227.011C642.741 230.933 649.723 235.212 656.851 239.251C662.799 242.621 670.105 245.826 675.277 250.23C676.681 251.426 677.348 252.974 677.875 254.703C678.147 255.592 678.374 256.497 678.605 257.397C676.696 263.902 668.308 276.235 664.773 282.701C660.443 290.624 656.621 299.25 651.842 306.859C650.774 308.559 649.366 310.657 647.554 311.639C645.058 312.991 641.657 312.602 639.083 311.716C635.09 310.341 631.401 307.765 627.815 305.572C619.886 300.722 611.822 295.163 603.355 291.326Q586.014 324.129 568.092 356.618C565.492 361.409 560.481 373.135 557.17 376.514C556.642 375.313 555.628 374.422 555.129 373.174C553.005 367.858 555.521 358.599 551.101 349.312C547.461 341.663 541.383 336.686 533.45 333.91Z"/>
	<path fill="#FAF9F2" d="M361.895 312.024L361.347 312.848C357.702 318.369 342.632 329.115 336.078 330.419C333.893 330.854 331.823 330.785 329.967 329.431C325.952 326.499 302.468 295.448 301.747 290.419C301.425 288.176 301.806 285.819 303.262 284.039C306.635 279.914 319.045 269.734 324.057 267.679C325.547 267.068 327.179 267.142 328.741 267.394C333.481 268.159 336.89 272.133 342.052 271.405C344.858 271.009 347.382 269.563 349.691 267.994C361.495 259.972 354.942 252.672 361.624 243.926C367.698 235.975 399.655 215.034 409.16 210.904C414.738 208.48 420.458 207.461 426.452 206.691C430.571 206.096 435.347 206.221 439.507 206.352C454.745 206.833 475.785 212.003 486.433 223.813C487.837 225.37 489.244 227.16 489.106 229.353C487.861 231.674 485.046 232.154 482.629 232.395C478.499 232.805 474.061 232.142 469.924 231.856C459.364 231.125 445.527 230.3 435.811 235.311C432.732 236.9 430.2 239.278 429.217 242.685C427.901 247.241 430.737 254.333 431.633 259.006C432.867 265.438 431.935 272.63 433.799 278.866C435.565 284.772 441.042 291.039 444.323 296.33Q455.662 314.727 467.295 332.939C473.227 342.293 479.476 351.598 484.539 361.458C467.71 361.685 450.951 362.049 434.111 361.994C426.528 349.961 420.014 337.288 412.371 325.269C408.127 318.063 401.788 304.476 395.705 299.377C391.207 295.606 385.37 292.893 380.197 290.153C372.656 292.903 366.297 295.995 360.524 301.645C361.162 305.107 361.589 308.517 361.895 312.024Z"/>
	<path fill="#FAF9F2" d="M673.954 315.125Q686.074 302.923 698.376 290.904C705.983 298.766 713.932 306.302 721.379 314.317C716.399 320.183 703.16 334.783 697.636 338.696Q685.966 326.739 673.954 315.125Z"/>
	<path fill="#FAF9F2" d="M654.242 357.075C658.795 352.555 663.111 347.809 667.705 343.327C671.798 344.837 678.904 353.655 682.047 357.065C677.583 361.662 672.907 366.086 668.335 370.578C664.963 369.572 656.93 360.11 654.242 357.075Z"/>
	<path fill="#F9DE59" d="M493.299 364.87C499.36 358.995 503.579 351.746 512.46 350.097C515.208 349.93 517.601 349.897 520.236 350.805C524.905 352.412 528.563 355.555 530.582 360.097C532.662 364.778 532.853 370.462 530.789 375.178C527.805 381.995 520.58 387.95 513.736 390.605C512.433 390.851 510.783 391.222 509.451 391.191C508.388 391.167 507.96 390.931 507.425 390.05C506.235 388.09 505.698 385.233 504.89 383.058C502.263 375.985 498.4 370.369 493.299 364.87Z"/>
	<path fill="#F9DE59" d="M406.559 540.522L406.77 443.242L406.531 410.449C406.504 403.9 406.083 396.997 407.157 390.515Q407.304 389.668 407.515 388.835Q407.726 388.001 408 387.187Q408.273 386.372 408.608 385.58Q408.944 384.789 409.338 384.025Q409.732 383.261 410.184 382.53Q410.635 381.798 411.141 381.103Q411.647 380.408 412.204 379.754Q412.761 379.099 413.367 378.489C415.872 375.96 419.335 373.532 422.87 372.765C429.597 371.307 438.341 372.206 445.228 372.238C457.364 372.294 469.519 372.235 481.652 372.429C484.273 372.471 486.841 372.573 489.398 373.202C495.799 380.513 502.422 396.461 501.787 406.409C501.565 409.878 500.43 413.064 497.721 415.353C484.941 426.148 458.838 414.17 457.121 431.278C456.216 440.301 457.255 450.28 457.435 459.404C460.94 465.488 465.751 467.275 471.723 470.27C515.912 492.43 512.274 493.147 511.501 540.58L406.559 540.522Z"/>
	<path fill="#F9DE59" d="M510.507 407.735C514.602 403.099 519.6 398.943 524.105 394.702C528.343 390.712 532.437 386.37 536.984 382.735C543.247 377.728 548.38 377.034 556.108 377.853C561.352 379.833 565.375 383.54 567.705 388.663C568.92 391.334 569.471 393.94 569.576 396.857Q569.068 398.693 568.418 400.483C567.601 402.705 566.781 404.367 565.169 406.105C559.267 412.469 551.791 417.929 545.303 423.726C536.884 431.248 528.875 439.422 520.178 446.603C518.273 448.176 515.986 449.995 513.707 450.943C509.463 452.708 503.151 451.687 499.142 449.727C490.911 445.702 486.495 437.575 483.588 429.312C490.846 427.904 499.916 426.004 505.543 420.833C509.746 416.971 510.308 413.1 510.507 407.735Z"/>
	<path fill="#F9DE59" d="M597.818 431.409C597.315 433.91 596.325 436.816 595.205 439.111C594.063 441.451 592.477 443.61 590.676 445.486C584.977 451.422 578.008 456.413 571.836 461.891C565.734 467.307 559.918 473.501 553.487 478.488C551.771 479.819 550.011 480.855 547.948 481.547C543.254 483.124 537.976 483.066 533.505 480.819C529.098 478.603 525.855 474.517 524.348 469.856C523.16 466.181 522.734 460.266 524.721 456.789C528.628 449.957 562.325 419.347 569.906 414.088C571.691 412.85 573.4 412.172 575.489 411.617C581.275 411.405 586.871 412.368 591.24 416.52C595.047 420.138 597.036 425.044 597.665 430.174L597.765 430.945L597.818 431.409Z"/>
	<path fill="#F9DE59" d="M603.544 449.564C608.99 449.551 613.989 451.203 617.853 455.16C621.9 459.306 624.017 465.251 623.811 471.015C623.656 475.349 622.23 478.545 619.895 482.113C609.41 489.788 594.077 508.559 583.07 512.695C577.462 514.803 569.753 514.474 564.307 511.996C560.039 510.055 556.533 506.503 555.066 502.001C553.719 497.871 554.363 493.535 556.445 489.769C557.432 487.984 558.786 486.397 560.206 484.94C566.318 478.67 573.445 473.098 579.946 467.21C585.234 462.421 590.22 456.816 596.041 452.711C598.469 450.999 600.187 450.587 602.911 449.764C603.123 449.7 603.333 449.631 603.544 449.564Z"/>
	<path fill="#7E7C8B" d="M853.57 596.083C852.673 596.426 851.546 596.854 850.568 596.716C849.365 596.547 848.364 595.929 847.79 594.843C847.064 593.468 847.348 591.311 847.585 589.853C848.368 585.048 853.344 570.717 856.003 566.641C856.736 565.517 857.937 564.723 859.02 563.966C860.982 564.148 862.887 564.697 864.406 566.009C865.393 566.86 866.167 568.162 866.224 569.482C866.385 573.219 856.383 592.982 853.57 596.083Z"/>
	<path fill="#7E7C8B" d="M502.03 603.437C500.137 614.01 497.63 624.512 495.541 635.054C493.832 643.68 492.57 652.678 490.331 661.17C489.746 663.392 489.083 665.552 486.873 666.683C485.399 667.438 483.365 668.017 481.775 667.285C480.785 666.829 480.101 665.915 479.658 664.948C478.63 662.705 478.743 659.993 479.025 657.603C479.672 652.114 481.097 646.513 482.22 641.096L489.717 606.051C491.558 597.225 493.658 580.756 496.533 573.196C497.258 571.29 498.12 570.801 499.872 570.018C501.467 570.056 503.201 569.997 504.606 570.871C505.74 571.576 506.265 572.839 506.68 574.047C509.077 581.028 510.607 588.596 512.506 595.744C516.762 611.767 520.92 627.794 525.973 643.589C529.972 629.504 535.315 615.719 539.768 601.763Q542.639 592.768 545.368 583.728C546.23 580.803 546.754 577.628 547.903 574.814C548.585 573.144 549.733 571.526 551.329 570.626C552.747 569.826 554.158 569.712 555.7 570.202C557.414 570.747 558.732 572.677 559.307 574.29C560.296 577.067 560.242 580.68 560.673 583.61Q562.102 593.011 563.728 602.38L571.411 644.385C572.363 649.729 573.758 655.257 574.337 660.631C574.484 661.995 574.389 663.534 573.63 664.726Q573.476 664.969 573.299 665.196Q573.123 665.423 572.925 665.633Q572.728 665.842 572.512 666.032Q572.296 666.222 572.062 666.39Q571.829 666.559 571.581 666.704Q571.333 666.85 571.072 666.972Q570.811 667.093 570.54 667.189Q570.269 667.286 569.99 667.356C568.35 667.754 566.583 667.643 565.155 666.701C564.181 666.057 563.813 664.796 563.503 663.718C561.762 657.667 561.161 651.055 560.087 644.847Q557.229 628.714 554.111 612.629C553.594 609.331 552.857 606.108 552.097 602.859C549.562 610.981 546.329 618.973 543.597 627.046C540.266 636.884 537.371 646.942 533.839 656.698C532.74 659.732 530.871 664.667 527.63 665.826C526.154 666.354 524.49 666.241 523.069 665.606C521.331 664.83 520.42 663.61 519.645 661.922C517.304 656.823 516.123 650.716 514.588 645.319C512.057 636.415 509.234 627.6 506.605 618.726C505.148 613.811 504.031 608.671 502.205 603.884L502.03 603.437Z"/>
	<path fill="#7E7C8B" d="M373.59 608.089C374.638 597.522 372.759 586.579 374.082 576.117C374.4 573.604 375.094 572.591 377.081 571.049C378.871 570.84 380.86 570.583 382.528 571.467C383.523 571.995 384.289 572.689 384.525 573.827C385.743 579.715 384.842 600.153 384.861 607.476L384.946 642.709C384.959 649.075 385.393 655.833 384.787 662.163C384.678 663.305 384.116 664.756 383.337 665.628C382.49 666.576 381.555 667.193 380.251 667.211C378.496 667.235 376.75 666.035 375.635 664.754C373.908 662.77 374.176 660.984 374.261 658.49C370.568 661.018 366.822 663.059 362.509 664.331C353.264 667.059 345.017 665.191 336.768 660.623C336.182 660.227 335.614 659.83 335.055 659.396C327.881 653.822 323.241 646.266 322.08 637.189C320.934 628.238 323.82 619.057 329.42 612.042Q329.911 611.423 330.432 610.829Q330.953 610.235 331.503 609.668Q332.053 609.1 332.631 608.561Q333.208 608.022 333.812 607.512Q334.416 607.002 335.044 606.523Q335.672 606.044 336.323 605.596Q336.975 605.149 337.648 604.735Q338.32 604.32 339.013 603.94Q339.706 603.559 340.416 603.214Q341.127 602.868 341.854 602.559Q342.581 602.249 343.322 601.976Q344.064 601.703 344.818 601.467Q345.572 601.231 346.337 601.033Q347.102 600.835 347.876 600.675Q348.649 600.515 349.43 600.394Q350.211 600.273 350.997 600.191C359.941 599.235 366.853 602.737 373.59 608.089ZM351.66 611.106C345.025 612.656 339.588 615.158 335.869 621.202C332.69 626.369 331.721 633.19 333.343 639.035Q333.481 639.551 333.645 640.058Q333.81 640.566 334 641.065Q334.19 641.563 334.405 642.052Q334.621 642.54 334.861 643.016Q335.101 643.493 335.366 643.957Q335.63 644.42 335.918 644.87Q336.206 645.319 336.517 645.753Q336.827 646.187 337.16 646.604Q337.492 647.022 337.846 647.422Q338.199 647.821 338.573 648.202Q338.947 648.583 339.339 648.945Q339.732 649.306 340.143 649.647Q340.553 649.988 340.981 650.307Q341.409 650.626 341.852 650.923Q342.296 651.22 342.754 651.494Q343.212 651.767 343.684 652.017C347.693 654.115 351.617 654.536 356.038 654.499C362.313 653.244 367.219 650.964 370.936 645.466C374.446 640.273 375.401 633.791 374.073 627.713Q373.961 627.177 373.822 626.647Q373.682 626.117 373.516 625.594Q373.35 625.072 373.158 624.559Q372.965 624.046 372.747 623.543Q372.528 623.041 372.285 622.55Q372.041 622.059 371.772 621.582Q371.504 621.104 371.211 620.641Q370.919 620.177 370.603 619.729Q370.287 619.281 369.949 618.85Q369.611 618.419 369.251 618.006Q368.891 617.592 368.511 617.198Q368.131 616.803 367.731 616.429Q367.331 616.054 366.912 615.701Q366.494 615.347 366.057 615.015Q365.621 614.683 365.169 614.374Q364.717 614.065 364.249 613.779C360.365 611.457 356.124 610.647 351.66 611.106Z"/>
	<path fill="#7E7C8B" d="M123.033 633.525C122.992 641.209 123.086 648.835 123.263 656.515C123.328 659.367 123.475 663.18 121.084 665.221C120.026 666.124 118.545 666.486 117.177 666.453C115.257 666.407 113.782 665.526 112.483 664.189C111.811 662.605 111.62 661.08 111.577 659.361C111.471 655.03 111.813 650.666 111.824 646.33L111.706 616.678C111.687 609.573 110.667 585.932 112.103 580.306C112.608 578.331 114.564 577.463 116.18 576.486C117.894 576.503 120.047 576.689 121.314 578.022C122.268 579.025 122.797 580.054 123.02 581.407C123.825 586.29 123.183 592.196 123.153 597.19Q123.122 609.873 123.327 622.555L167.617 622.103C167.707 613.485 167.846 604.861 167.822 596.243C167.81 591.946 167.25 587.426 167.678 583.163C167.845 581.502 168.228 579.765 169.267 578.416C170.149 577.272 171.81 576.309 173.303 576.291C174.713 576.275 175.588 576.817 176.522 577.837C177.833 579.269 178.299 581.64 178.499 583.498C179.429 592.134 178.516 601.656 178.446 610.376L178.398 659.125C178.414 661.036 178.524 662.992 177.351 664.625C176.489 665.824 174.868 666.337 173.449 666.419C171.789 666.514 170.463 666.029 169.281 664.823C166 661.477 167.579 639.449 167.649 633.583L123.033 633.525Z"/>
	<path fill="#7E7C8B" d="M627.298 660.984Q624.91 662.322 622.324 663.218Q619.738 664.115 617.034 664.542C608.953 665.785 600.85 663.492 594.397 658.549C587.431 653.212 582.521 644.728 581.478 636.005Q581.385 635.181 581.332 634.353Q581.28 633.525 581.267 632.695Q581.255 631.865 581.283 631.036Q581.311 630.207 581.38 629.38Q581.449 628.553 581.557 627.731Q581.666 626.908 581.815 626.092Q581.964 625.276 582.152 624.468Q582.341 623.66 582.568 622.862Q582.796 622.064 583.062 621.278Q583.328 620.492 583.633 619.72Q583.937 618.948 584.278 618.192Q584.62 617.436 584.998 616.697Q585.376 615.959 585.789 615.24Q586.203 614.52 586.651 613.822Q587.099 613.124 587.58 612.448Q588.062 611.772 588.576 611.121C594.186 604.005 601.587 600.237 610.492 599.169C619.491 598.474 626.281 602.058 633.295 607.19L633.307 607.226C633.723 604.906 634.012 602.799 636.096 601.362C637.428 600.443 639.109 600.033 640.696 600.442C641.939 600.762 643.001 601.785 643.564 602.924C644.928 605.682 645.173 660.376 643.855 663.066C643.194 664.415 641.867 664.982 640.485 665.317C639.16 665.637 637.817 665.583 636.68 664.745C634.301 662.99 633.931 659.4 633.508 656.701C631.457 658.152 629.368 659.558 627.298 660.984ZM608.646 610.621C601.928 613.232 596.776 616.827 593.875 623.717Q593.663 624.215 593.476 624.723Q593.29 625.231 593.128 625.748Q592.967 626.265 592.832 626.789Q592.697 627.313 592.588 627.843Q592.479 628.373 592.396 628.908Q592.314 629.443 592.259 629.982Q592.203 630.52 592.174 631.061Q592.146 631.601 592.144 632.143Q592.142 632.684 592.168 633.225Q592.193 633.765 592.245 634.304Q592.297 634.843 592.377 635.378Q592.456 635.914 592.561 636.445Q592.667 636.976 592.799 637.501Q592.931 638.026 593.089 638.543Q593.247 639.061 593.431 639.57Q593.614 640.079 593.823 640.579C596.123 645.947 600.547 650.389 606.059 652.409C609.694 653.742 613.066 653.746 616.862 653.32C623.487 650.644 628.881 647.016 631.758 640.145Q631.968 639.635 632.152 639.115Q632.336 638.595 632.494 638.067Q632.653 637.538 632.785 637.003Q632.917 636.467 633.022 635.926Q633.127 635.384 633.206 634.838Q633.284 634.292 633.336 633.743Q633.387 633.194 633.411 632.643Q633.436 632.092 633.433 631.54Q633.43 630.989 633.399 630.438Q633.369 629.887 633.312 629.338Q633.254 628.79 633.17 628.245Q633.085 627.7 632.974 627.159Q632.863 626.619 632.725 626.085Q632.587 625.551 632.423 625.024Q632.259 624.498 632.069 623.98Q631.879 623.462 631.664 622.954Q631.471 622.49 631.256 622.037Q631.041 621.584 630.804 621.141Q630.567 620.699 630.308 620.269Q630.05 619.838 629.77 619.421Q629.491 619.004 629.192 618.601Q628.892 618.198 628.573 617.811Q628.255 617.423 627.917 617.051Q627.58 616.68 627.225 616.325Q626.869 615.97 626.497 615.634Q626.125 615.297 625.737 614.979Q625.349 614.661 624.945 614.362Q624.542 614.063 624.125 613.784Q623.707 613.506 623.276 613.248Q622.846 612.99 622.403 612.753Q621.96 612.517 621.507 612.302Q621.053 612.088 620.589 611.896C616.607 610.277 612.858 610.251 608.646 610.621Z"/>
	<path fill="#7E7C8B" d="M668.018 606.095C671.655 602.427 675.052 600.866 679.957 599.583C685.706 599.111 691.084 599.581 695.966 603.007C701.454 606.858 704.883 613.502 706.062 620.014C706.94 624.857 707.171 656.375 706.468 661.042C706.298 662.173 705.932 663.021 705.223 663.928C704.154 665.297 701.519 666.627 699.798 666.608C697.945 666.588 697.017 665.214 696.473 663.615C693.271 654.207 697.321 633.225 694.894 622.046C694.211 618.903 692.8 615.853 690.454 613.603C687.201 610.481 683.709 610.307 679.483 610.484C667.821 613.795 668.132 623.823 668.289 633.826C668.373 639.115 670.117 660.836 666.691 664.429C665.739 665.427 664.813 665.78 663.436 665.759C662.033 665.738 659.415 665.009 658.61 663.811C657.487 662.138 657.275 659.952 657.17 657.988C656.737 649.863 657.455 641.343 657.454 633.161C657.453 625.794 656.464 610.264 657.551 603.964C657.772 602.687 658.285 602.015 659.381 601.3C660.438 600.612 662.163 600.347 663.349 600.686C665.686 601.355 666.74 603.533 667.741 605.531L668.018 606.095Z"/>
	<path fill="#7E7C8B" d="M730.447 606.233C734.317 602.904 737.426 601.179 742.266 599.57C747.99 599.101 753.389 599.729 758.285 603.008C763.93 606.79 767.466 612.853 768.706 619.459C769.766 625.103 770.01 654.549 769.266 659.89C769.067 661.32 768.675 662.664 767.791 663.827C766.842 665.075 765.504 665.825 763.924 665.905C762.322 665.987 760.955 665.305 759.805 664.24C758.987 663.482 758.312 662.114 758.138 661.039C757.667 658.122 758.163 654.598 758.183 651.615Q758.29 639.51 758.19 627.404C758.103 622.35 757.263 617.002 753.327 613.42C750.242 610.613 746.452 609.981 742.427 610.24L741.77 610.288C737.564 611.874 734.177 614.569 732.42 618.79C728.744 627.62 734.15 659.757 729.259 664.402C728.05 665.551 726.564 665.961 724.924 665.871C723.32 665.783 722.196 665.113 721.223 663.862C720.057 662.365 719.79 660.079 719.668 658.256C719.366 653.717 719.83 648.935 719.913 644.377C720.052 636.743 720.021 629.056 720.014 621.419C720.01 616.335 718.951 610.865 719.528 605.843C719.733 604.057 720.349 601.981 722.018 601.029C723.424 600.227 725.548 600.273 726.977 601.034C728.771 601.988 729.539 603.887 730.235 605.673L730.447 606.233Z"/>
	<path fill="#7E7C8B" d="M799.619 645.728C794.824 636.545 788.86 627.82 783.352 619.051C780.918 615.175 777.796 611.003 776.154 606.745C775.706 605.583 775.497 604.388 775.867 603.161C776.476 601.142 778.425 600.359 780.144 599.486C780.873 599.491 781.618 599.505 782.324 599.719C786.785 601.072 802.573 629.179 806.267 634.986Q812.575 625.867 818.354 616.404C821.181 611.715 823.759 606.515 827.091 602.178C827.936 601.078 828.854 600.11 830.229 599.721C831.465 599.372 832.793 599.63 833.886 600.282C835.339 601.148 836.972 602.938 837.248 604.665C837.865 608.527 817.631 638.354 813.956 644.32C810.112 650.285 794.842 677.697 790.551 680.02C788.754 680.994 786.204 681.413 784.272 680.578C783.173 680.103 782.327 679.479 781.997 678.291C781.559 676.722 781.986 675.454 782.59 674.004C786.333 665.019 794.962 655.411 799.619 645.728Z"/>
	<path fill="#7E7C8B" d="M877.13 665.15C875.479 664.504 873.892 663.812 872.359 662.915C868.399 660.596 863.708 656.919 862.681 652.23C862.343 650.687 862.485 648.968 863.461 647.668C864.258 646.605 865.325 646.175 866.622 646.107C870.767 645.889 873.392 651.32 876.012 653.737C878.643 656.163 881.901 657.173 885.448 656.884C888.504 656.636 891.655 655.525 893.631 653.074C895.178 651.154 895.791 648.152 895.419 645.742C894.091 637.144 881.278 634.145 875.025 629.72C871.268 627.063 867.64 623.314 866.96 618.571C866.307 614.007 868.375 608.933 871.176 605.409C874.558 601.156 879.116 600.232 884.221 599.682C886.516 599.665 888.861 599.931 891.056 600.611C894.379 601.64 899.866 603.798 901.208 607.237C901.624 608.3 901.517 609.424 901.051 610.447C897.532 618.18 887.139 606.137 881.093 608.869C879.085 609.777 877.277 612.033 876.729 614.179C874.992 620.991 891.215 626.896 895.682 629.884C898.848 632.001 901.731 634.703 903.76 637.942C906.196 641.83 906.424 646.985 905.332 651.356Q905.216 651.824 905.077 652.285Q904.938 652.746 904.776 653.199Q904.614 653.653 904.429 654.098Q904.244 654.542 904.036 654.977Q903.829 655.412 903.6 655.836Q903.371 656.259 903.121 656.671Q902.87 657.083 902.6 657.481Q902.329 657.879 902.038 658.264Q901.748 658.648 901.438 659.017Q901.128 659.385 900.8 659.738Q900.472 660.091 900.127 660.427Q899.782 660.763 899.42 661.081Q899.058 661.398 898.68 661.697Q898.303 661.996 897.911 662.276Q897.518 662.556 897.112 662.815Q896.706 663.074 896.288 663.313C890.261 666.768 883.674 666.937 877.13 665.15Z"/>
	<path fill="#7E7C8B" d="M283.426 611.783C282.479 612.144 281.51 612.62 280.67 613.189C268.67 621.313 276.692 648.939 273.936 661.307C273.559 662.997 272.727 664.349 271.194 665.23C269.643 666.122 267.664 666.323 265.987 665.663C264.803 665.198 263.839 664.316 263.371 663.123C262.31 660.422 262.759 614.341 263.228 608.174C263.389 606.061 263.541 603.804 264.591 601.932C266.177 601.164 268.069 600.21 269.866 600.873C271.444 601.455 272.157 602.91 272.785 604.336C273.101 605.052 273.428 605.761 273.753 606.473C277.952 603.656 281.334 601.064 286.45 600.151C289.929 599.848 293.532 600.123 296.853 601.239C302.134 603.014 306.243 606.885 308.693 611.848C310.227 614.955 311.05 618.344 311.423 621.777C311.886 626.032 312.416 661.024 311.434 663.181C310.769 664.643 309.764 665.396 308.255 665.83C306.789 666.252 304.938 666.202 303.641 665.338C302.252 664.413 301.677 662.676 301.389 661.113C300.831 658.085 301.262 654.743 301.339 651.672C301.554 643.05 302.583 631.125 301.08 622.833C300.4 619.077 298.798 615.162 295.498 612.987C292.144 610.775 287.819 610.742 284.053 611.629L283.426 611.783Z"/>
	<path fill="#7E7C8B" d="M420.758 648.328C414.739 639.734 409.863 630.081 404.644 620.976C402.164 616.65 398.909 612.2 397.08 607.57C396.627 606.425 396.38 605.433 396.737 604.197C397.331 602.142 399.307 601.071 400.987 599.998C401.959 600 402.821 600.033 403.763 600.275C407.418 601.218 424.481 632.708 427.21 637.352Q434.12 626.213 440.676 614.861C442.716 611.278 444.35 607.337 446.698 603.951C447.608 602.638 448.809 601.287 450.361 600.745C451.491 600.351 452.671 600.463 453.748 600.94C455.188 601.578 456.358 603.079 456.75 604.596C457.029 605.68 457.014 606.565 456.638 607.607C454.709 612.957 450.951 618.274 448.066 623.17L433.346 648.267C430.333 653.908 414.376 683.597 410.808 685.485C409.469 686.193 407.749 685.883 406.382 685.386C404.992 684.881 403.682 683.858 403.233 682.397C401.923 678.135 417.865 653.889 420.758 648.328Z"/>
	<path fill="#7E7C8B" d="M234.87 661.493Q232.317 662.833 229.579 663.736C221.69 666.408 212.483 665.889 205.093 662.01C197.45 657.998 191.592 650.375 189.155 642.138Q188.939 641.389 188.759 640.63Q188.579 639.871 188.435 639.104Q188.292 638.338 188.186 637.565Q188.08 636.792 188.012 636.015Q187.943 635.238 187.912 634.459Q187.881 633.68 187.888 632.9Q187.894 632.12 187.939 631.341Q187.983 630.563 188.065 629.787Q188.147 629.011 188.266 628.241Q188.385 627.47 188.541 626.706Q188.697 625.942 188.89 625.186Q189.083 624.43 189.312 623.685Q189.541 622.939 189.806 622.206Q190.071 621.472 190.371 620.752Q190.671 620.032 191.005 619.327Q191.339 618.623 191.707 617.935C196.901 608.414 204.355 603.492 214.554 600.551C220.542 599.888 226.547 600.43 232.094 602.9C234.202 603.839 237.967 606.933 239.989 606.925C240.094 605.451 240.154 604.165 241.085 602.921C242.118 601.539 243.852 600.754 245.56 600.741C247.188 600.728 248.553 601.35 249.671 602.51C251.403 609.055 251.06 650.369 250.44 658.817C250.332 660.296 250.294 663.669 249.173 664.61C247.396 666.102 246.282 666.969 243.835 666.749C240.989 665.415 240.19 662.487 239.162 659.723C239.092 659.535 239.028 659.344 238.961 659.154L234.87 661.493ZM216.448 611.574C210.176 613.108 205.071 616.167 201.662 621.836Q201.39 622.289 201.14 622.754Q200.89 623.22 200.664 623.697Q200.437 624.174 200.235 624.662Q200.032 625.15 199.853 625.647Q199.674 626.144 199.52 626.65Q199.366 627.155 199.237 627.667Q199.108 628.179 199.005 628.698Q198.901 629.215 198.823 629.738Q198.744 630.26 198.692 630.786Q198.64 631.312 198.613 631.839Q198.586 632.367 198.586 632.895Q198.585 633.424 198.61 633.951Q198.635 634.479 198.687 635.005Q198.738 635.531 198.815 636.053Q198.891 636.576 198.994 637.094Q199.096 637.612 199.224 638.125C200.646 643.716 204.423 648.833 209.424 651.731C213.668 654.19 217.814 654.525 222.577 654.381C228.754 652.926 233.688 650.109 237.006 644.496C240.144 639.19 241.045 632.513 239.285 626.598C237.64 621.065 233.962 616.189 228.765 613.568C224.709 611.521 220.859 611.363 216.448 611.574Z"/>
	<path fill="#FAF9F2" d="M616.862 653.32C613.066 653.746 609.694 653.742 606.059 652.409C600.547 650.389 596.123 645.947 593.823 640.579Q593.614 640.079 593.431 639.57Q593.247 639.061 593.089 638.543Q592.931 638.026 592.799 637.501Q592.667 636.976 592.561 636.445Q592.456 635.914 592.377 635.378Q592.297 634.843 592.245 634.304Q592.193 633.765 592.168 633.225Q592.142 632.684 592.144 632.143Q592.146 631.601 592.174 631.061Q592.203 630.52 592.259 629.982Q592.314 629.443 592.396 628.908Q592.479 628.373 592.588 627.843Q592.697 627.313 592.832 626.789Q592.967 626.265 593.128 625.748Q593.289 625.231 593.476 624.723Q593.663 624.215 593.875 623.717C596.776 616.827 601.928 613.232 608.646 610.621C612.858 610.251 616.607 610.277 620.589 611.896Q621.053 612.088 621.507 612.302Q621.96 612.517 622.403 612.753Q622.846 612.99 623.276 613.248Q623.707 613.506 624.125 613.784Q624.542 614.063 624.945 614.362Q625.349 614.66 625.737 614.979Q626.125 615.297 626.497 615.634Q626.869 615.97 627.225 616.325Q627.58 616.68 627.917 617.051Q628.255 617.423 628.573 617.811Q628.892 618.198 629.192 618.601Q629.491 619.004 629.77 619.421Q630.05 619.838 630.308 620.269Q630.567 620.699 630.804 621.141Q631.041 621.584 631.256 622.037Q631.471 622.49 631.664 622.954Q631.879 623.462 632.069 623.98Q632.259 624.498 632.423 625.024Q632.587 625.551 632.725 626.085Q632.863 626.619 632.974 627.159Q633.085 627.7 633.17 628.245Q633.254 628.79 633.312 629.338Q633.369 629.887 633.399 630.438Q633.43 630.989 633.432 631.54Q633.436 632.092 633.411 632.643Q633.387 633.194 633.336 633.743Q633.284 634.292 633.206 634.838Q633.127 635.384 633.022 635.926Q632.917 636.467 632.785 637.003Q632.653 637.538 632.494 638.067Q632.336 638.595 632.152 639.115Q631.968 639.635 631.758 640.145C628.881 647.016 623.487 650.644 616.862 653.32Z"/>
	<path fill="#FAF9F2" d="M356.038 654.499C351.617 654.536 347.693 654.115 343.684 652.017Q343.212 651.767 342.754 651.494Q342.296 651.22 341.852 650.923Q341.409 650.626 340.981 650.307Q340.553 649.988 340.143 649.647Q339.732 649.306 339.339 648.945Q338.947 648.583 338.573 648.202Q338.199 647.821 337.846 647.422Q337.492 647.022 337.16 646.604Q336.827 646.187 336.517 645.753Q336.206 645.319 335.918 644.87Q335.63 644.42 335.366 643.957Q335.101 643.493 334.861 643.016Q334.621 642.54 334.405 642.052Q334.19 641.563 334 641.065Q333.809 640.566 333.645 640.058Q333.481 639.551 333.343 639.035C331.721 633.19 332.69 626.369 335.869 621.202C339.588 615.158 345.025 612.656 351.66 611.106C356.124 610.647 360.365 611.457 364.249 613.779Q364.717 614.065 365.169 614.374Q365.621 614.683 366.057 615.015Q366.494 615.347 366.912 615.701Q367.331 616.054 367.731 616.429Q368.131 616.803 368.511 617.198Q368.891 617.592 369.251 618.006Q369.611 618.419 369.949 618.85Q370.287 619.281 370.603 619.729Q370.919 620.177 371.211 620.641Q371.504 621.104 371.772 621.582Q372.041 622.059 372.285 622.55Q372.528 623.041 372.747 623.543Q372.965 624.046 373.158 624.559Q373.35 625.072 373.516 625.594Q373.682 626.117 373.822 626.647Q373.961 627.177 374.073 627.713C375.401 633.791 374.446 640.273 370.936 645.466C367.219 650.964 362.313 653.244 356.038 654.499Z"/>
	<path fill="#FAF9F2" d="M222.577 654.381C217.814 654.525 213.668 654.19 209.424 651.731C204.423 648.833 200.646 643.716 199.224 638.125Q199.096 637.612 198.994 637.094Q198.891 636.576 198.815 636.053Q198.738 635.531 198.687 635.005Q198.635 634.479 198.61 633.951Q198.585 633.424 198.586 632.895Q198.586 632.367 198.613 631.839Q198.64 631.312 198.692 630.786Q198.744 630.26 198.823 629.738Q198.901 629.215 199.005 628.698Q199.108 628.179 199.237 627.667Q199.366 627.155 199.52 626.65Q199.674 626.144 199.853 625.647Q200.032 625.15 200.235 624.662Q200.437 624.174 200.664 623.697Q200.89 623.22 201.14 622.754Q201.39 622.289 201.662 621.836C205.071 616.167 210.176 613.108 216.448 611.574C220.859 611.363 224.709 611.521 228.765 613.568C233.962 616.189 237.64 621.065 239.285 626.598C241.045 632.513 240.144 639.19 237.006 644.496C233.688 650.109 228.754 652.926 222.577 654.381Z"/>
	<path fill="#7E7C8B" d="M402.6 734.597C402.387 734.588 402.173 734.592 401.961 734.569C399.206 734.27 395.751 732.431 393.984 730.33L394.328 729.172C397.979 725.742 399.813 732.507 405.924 731.233C407.834 730.835 410.256 729.755 411.233 727.969C415.59 720.003 397.583 716.287 395.111 707.599C394.656 706.001 394.566 704.197 395.497 702.74C397.103 700.228 400.335 698.737 403.133 698.119C405.387 698.185 407.354 698.576 409.468 699.326C411.012 699.874 412.301 700.272 413.035 701.789C410.89 704.653 405.099 699.845 400.665 702.346C399.189 703.178 398.354 703.981 397.878 705.663C398.702 711.741 407.727 713.627 411.734 717.161C413.749 718.939 415.322 721.505 415.462 724.234C415.595 726.8 414.431 729.38 412.654 731.201C409.969 733.951 406.259 734.463 402.6 734.597Z"/>
	<path fill="#7E7C8B" d="M560.599 730.307C561.323 729.802 561.953 729.377 562.779 729.045C563.618 728.708 563.645 728.945 564.415 729.294C564.478 730.085 564.647 730.327 564.176 731.04C562.731 733.228 559.858 734.615 557.337 735.071C552.743 735.902 548.122 734.53 544.418 731.778C540.444 728.824 538.05 724.389 537.473 719.498C536.868 714.375 538.173 708.884 541.422 704.826C544.894 700.49 549.564 698.741 554.938 698.235C555.783 698.179 556.652 698.131 557.497 698.222C559.949 698.489 562.811 699.329 564.437 701.259C564.626 702.387 564.533 702.916 564.131 703.982C560.325 704.577 557.183 700.226 550.528 702.202C547.178 703.197 544.535 705.467 543.008 708.609C540.943 712.857 540.889 718.268 542.474 722.677C543.754 726.237 546.255 729.338 549.809 730.808C553.418 732.301 557.076 731.691 560.599 730.307Z"/>
	<path fill="#7E7C8B" d="M610.983 735.173C609.202 734.924 607.035 734.63 605.551 733.542C604.106 732.483 601.88 730.219 601.638 728.423L602.279 728.023C605.476 728.246 607.915 730.688 610.887 731.728C612.439 732.271 614.344 732.52 615.788 731.555C617.173 730.629 618.117 728.931 618.537 727.349C620.602 719.565 606.377 716.22 603.416 710.117C602.531 708.293 602.59 706.51 603.226 704.628C604.483 700.906 605.98 699.704 609.454 698.072C610.701 698.02 612.005 697.934 613.253 698.024C615.818 698.211 618.277 698.781 620.029 700.769C620.202 702.069 620.196 701.996 619.436 703.071C617.025 703.66 614.808 702.265 612.381 701.805C610.546 701.457 609.305 701.576 607.713 702.607C606.695 704.035 606.243 705.422 606.548 707.177C607.362 711.859 614.299 714.526 617.76 717.22C620.083 719.029 622.397 721.314 622.692 724.402C622.951 727.119 621.556 730.328 619.728 732.293C617.34 734.86 614.267 735.028 610.983 735.173Z"/>
	<path fill="#7E7C8B" d="M430.155 701.666C430.112 704.959 429.207 712.031 431.019 714.769C434.822 714.629 439.546 713.863 442.92 716.013L442.502 716.948C438.81 718.071 435.641 717.827 431.85 717.602C431.142 717.873 430.59 717.82 430.326 718.599C429.203 721.921 429.997 727.347 430.127 730.825C432.78 730.796 442.038 730.051 443.87 731.021C444.047 731.995 444.165 732.32 443.831 733.28C438.826 734.517 433.273 733.632 428.142 734.109L426.879 733.707C425.451 729.275 426.502 704.792 426.539 698.579L442.095 698.505C443.221 699.148 443.284 699.149 443.786 700.335L443.323 701.15C439.329 702.221 434.285 701.662 430.155 701.666Z"/>
	<path fill="#7E7C8B" d="M470.717 731.241C468.202 727.713 463.869 720.018 459.918 718.064C458.997 717.609 459.4 717.709 458.302 718.096C456.501 722.683 459.281 728.967 457.541 733.616C456.438 734.265 456.474 734.421 455.255 734.116C453.199 731.069 454.353 704.534 453.908 698.541C458.581 698.444 464.236 697.779 468.574 699.713C470.768 700.692 472.611 702.245 473.423 704.563C474.312 707.101 473.739 709.818 472.446 712.108C470.738 715.134 468.289 716.195 465.071 717.075C467.399 720.637 475.864 730.852 476.436 734.312C475.579 734.343 474.62 734.429 473.772 734.309C472.362 734.11 471.466 732.326 470.717 731.241ZM457.599 701.936L457.642 714.44L465.333 714.684L468.046 712.234C469.193 710.763 470.469 709.153 470.321 707.157C470.228 705.914 469.473 704.901 468.493 704.194C465.352 701.927 461.295 701.926 457.599 701.936Z"/>
	<path fill="#7E7C8B" d="M497.269 736.166C494.477 728.518 482.47 704.186 482.11 698.535C483.155 698.468 484.032 698.337 485.044 698.665C486.417 699.11 495.906 723.744 497.476 727.149C499.817 721.454 501.86 715.61 504.035 709.85C505.336 706.406 507.225 699.476 510.812 697.855C511.82 698.143 511.371 697.869 512.11 698.751C512.293 700.83 510.795 703.386 510 705.331Q503.506 720.696 497.269 736.166Z"/>
	<path fill="#7E7C8B" d="M526.002 735.054C524.686 735.037 523.846 735.001 522.603 734.493C521.94 730.178 522.242 725.631 522.224 721.269L522.127 698.351C523.506 698.446 524.628 698.302 525.812 699.056C527.007 709.184 526.127 724.401 526.002 735.054Z"/>
	<path fill="#7E7C8B" d="M579.655 702.02Q579.619 708.445 579.716 714.87C583.658 714.758 588.692 714.167 592.318 715.869L592.559 717.254C588.656 718.256 584.619 718.144 580.621 717.839C578.503 720.201 579.509 728.445 579.551 731.753C584.03 731.775 588.546 731.603 593.019 731.834L593.681 732.618L593.42 733.65C590.516 736.125 580.019 734.972 575.982 734.95C576.39 722.917 575.992 710.826 576.173 698.781C581.123 698.827 586.095 698.458 591.037 698.579C592.26 698.608 592.959 698.487 593.861 699.393L593.502 700.646C590.524 703.192 583.383 702.069 579.655 702.02Z"/>
	<path fill="#FAF9F2" d="M457.642 714.44L457.599 701.936C461.295 701.926 465.352 701.927 468.493 704.194C469.473 704.901 470.228 705.914 470.321 707.157C470.469 709.153 469.193 710.763 468.046 712.234L465.333 714.684L457.642 714.44Z"/>
</svg>
