<?xml version="1.0" encoding="utf-8" ?>
<svg xmlns="http://www.w3.org/2000/svg" xmlns:xlink="http://www.w3.org/1999/xlink" width="1024" height="1024">
	<path fill="#FCFEFF" d="M0 0L1024 0L1024 1024L0 1024L0 0ZM701.352 237.864C686.202 237.989 672 239.191 657.017 241.325C643.429 244.118 630.228 247.39 617.08 251.869C611.817 253.663 606.756 256.087 601.51 257.845L600.773 258.277C595.504 261.326 589.636 263.503 584.242 266.374C568.535 274.737 545.776 289.559 534.156 302.83C525.215 310.662 518.161 319.844 510.597 328.92C507.151 325.432 504.068 321.434 500.84 317.733C495.019 311.06 489.133 304.768 482.56 298.827Q480.4 296.848 478.191 294.923Q475.983 292.999 473.727 291.13Q471.471 289.261 469.169 287.449Q466.867 285.637 464.521 283.882Q462.174 282.128 459.785 280.433Q457.396 278.738 454.965 277.103Q452.534 275.468 450.063 273.894Q447.592 272.32 445.083 270.808Q442.573 269.297 440.027 267.848Q437.481 266.399 434.899 265.014Q432.318 263.63 429.702 262.31Q427.087 260.99 424.44 259.735Q421.792 258.481 419.114 257.293Q416.436 256.105 413.73 254.984Q411.023 253.863 408.289 252.81Q405.555 251.757 402.796 250.773Q400.037 249.788 397.254 248.873Q394.471 247.958 391.666 247.112Q388.862 246.266 386.036 245.491Q383.211 244.715 380.368 244.011Q377.524 243.306 374.664 242.672Q371.804 242.038 368.929 241.476Q366.054 240.914 363.165 240.424Q360.277 239.933 357.378 239.515Q354.478 239.097 351.569 238.751Q348.66 238.406 345.743 238.133Q342.826 237.86 339.904 237.659Q336.981 237.459 334.054 237.332Q331.127 237.205 328.198 237.15Q325.269 237.096 322.34 237.115Q319.41 237.134 316.482 237.225Q313.554 237.317 310.629 237.482C244.828 240.916 189.71 268.32 145.776 317.158C121.272 344.397 104.071 375.573 93.5188 410.642C90.95 419.179 89.8768 428.98 87.226 437.082C85.9351 445.192 85.4575 453.521 84.08 461.573C84.0013 468.117 83.8127 474.679 84.0805 481.22C75.1529 482.058 67.3933 483.743 61.4198 491.169C56.678 497.064 54.4547 504.387 55.3963 511.95Q55.4756 512.601 55.5881 513.247Q55.7005 513.894 55.8457 514.533Q55.9909 515.173 56.1686 515.805Q56.3462 516.436 56.5558 517.058Q56.7654 517.679 57.0063 518.289Q57.2473 518.899 57.5191 519.496Q57.7909 520.094 58.0927 520.676Q58.3946 521.258 58.7257 521.824Q59.0568 522.391 59.4164 522.939Q59.776 523.488 60.163 524.018Q60.5501 524.547 60.9636 525.056Q61.3772 525.566 61.8161 526.053Q62.2551 526.541 62.7183 527.005Q63.1816 527.469 63.6679 527.91Q64.1542 528.35 64.6623 528.765Q65.1704 529.18 65.699 529.568C71.9759 534.217 77.5677 534.152 84.9271 534.768L84.8682 681.701L84.8835 717.964C84.8747 726.617 84.1714 735.86 85.8108 744.376C87.874 755.093 93.8449 765.51 101.423 773.278C111.758 783.871 125.992 788.09 140.471 788.155L681.848 788.104L823.868 787.69L864.182 787.758C872.399 787.809 880.999 788.424 889.147 787.447C901.86 785.924 914.992 779.007 923.975 769.972Q925.389 768.574 926.693 767.075Q927.998 765.575 929.187 763.982Q930.375 762.389 931.441 760.711Q932.507 759.033 933.444 757.279Q934.38 755.526 935.183 753.707Q935.986 751.889 936.649 750.015Q937.313 748.141 937.835 746.223Q938.356 744.305 938.732 742.353C940.091 735.212 939.564 727.406 939.584 720.163L939.718 688.373L939.92 549.4Q939.901 547.277 939.86 545.154C939.763 542.024 939.002 538.661 939.895 535.641C940.972 534.607 941.485 534.828 942.94 534.753L943.519 534.609C949.722 534.687 955.818 532.04 960.309 527.81Q960.814 527.332 961.295 526.83Q961.775 526.327 962.23 525.801Q962.684 525.275 963.112 524.727Q963.54 524.178 963.939 523.609Q964.339 523.04 964.709 522.452Q965.08 521.864 965.42 521.257Q965.761 520.651 966.071 520.029Q966.38 519.406 966.658 518.769Q966.936 518.132 967.182 517.481Q967.428 516.831 967.64 516.169Q967.853 515.507 968.032 514.835Q968.212 514.163 968.357 513.483Q968.502 512.803 968.613 512.117Q968.724 511.431 968.801 510.739Q968.877 510.048 968.919 509.354Q968.96 508.66 968.967 507.965C969.053 501.096 966.753 494.298 961.843 489.386C955.617 483.157 948.296 481.999 939.926 482.156Q940.183 464.677 937.832 447.355C931.312 400.187 910.542 353.377 878.066 318.407C873.566 313.562 868.975 307.826 863.723 303.847C821.418 261.71 760.418 239.28 701.352 237.864Z"/>
	<path fill="#FC2B2D" d="M87.226 437.082C89.8768 428.98 90.95 419.179 93.5188 410.642C104.071 375.573 121.272 344.397 145.776 317.158C189.71 268.32 244.828 240.916 310.629 237.482Q313.554 237.317 316.482 237.225Q319.41 237.134 322.34 237.115Q325.269 237.096 328.198 237.15Q331.127 237.205 334.054 237.332Q336.981 237.459 339.904 237.659Q342.826 237.86 345.743 238.133Q348.66 238.406 351.569 238.751Q354.478 239.097 357.378 239.515Q360.277 239.933 363.165 240.424Q366.054 240.914 368.929 241.476Q371.804 242.038 374.664 242.672Q377.524 243.306 380.368 244.011Q383.211 244.715 386.036 245.491Q388.862 246.266 391.666 247.112Q394.471 247.958 397.254 248.873Q400.037 249.788 402.796 250.773Q405.555 251.757 408.289 252.81Q411.023 253.863 413.73 254.984Q416.436 256.105 419.114 257.293Q421.792 258.481 424.44 259.735Q427.087 260.99 429.702 262.31Q432.318 263.63 434.899 265.014Q437.481 266.399 440.027 267.848Q442.573 269.297 445.083 270.808Q447.592 272.32 450.063 273.894Q452.534 275.468 454.965 277.103Q457.396 278.738 459.785 280.433Q462.174 282.128 464.521 283.882Q466.867 285.637 469.169 287.449Q471.471 289.261 473.727 291.13Q475.983 292.999 478.191 294.923Q480.4 296.848 482.56 298.827C489.133 304.768 495.019 311.06 500.84 317.733C504.068 321.434 507.151 325.432 510.597 328.92Q512.972 332.04 515.245 335.236Q517.517 338.432 519.683 341.701Q521.849 344.97 523.908 348.308Q525.966 351.645 527.914 355.049Q529.862 358.452 531.697 361.917Q533.533 365.383 535.254 368.906Q536.975 372.43 538.58 376.008Q540.185 379.586 541.672 383.214Q543.159 386.842 544.527 390.518Q545.895 394.193 547.141 397.911Q548.388 401.629 549.512 405.386Q550.637 409.142 551.638 412.934Q552.638 416.725 553.515 420.548Q554.391 424.37 555.142 428.219Q555.893 432.068 556.517 435.939Q557.142 439.81 557.639 443.7C558.54 450.989 559.173 458.415 559.415 465.759C559.57 470.449 558.956 476.273 559.935 480.803C562.753 481.001 565.349 481.408 568.098 482.057C575.424 486.478 581.005 491.407 583.078 500.144C584.898 507.814 583.453 516.558 579.12 523.159C575.883 528.09 571.3 531.308 566.004 533.684C555.838 536.404 537.195 535.087 526.282 535.086L464.951 535.039L218.216 535.035L131.865 535.091C116.403 535.151 100.293 536.471 84.9271 534.768C77.5677 534.152 71.9759 534.217 65.699 529.568Q65.1704 529.18 64.6623 528.765Q64.1542 528.35 63.6679 527.91Q63.1816 527.469 62.7183 527.005Q62.2551 526.541 61.8161 526.053Q61.3772 525.566 60.9636 525.056Q60.5501 524.547 60.163 524.018Q59.776 523.488 59.4164 522.939Q59.0568 522.391 58.7257 521.824Q58.3946 521.258 58.0927 520.676Q57.7909 520.094 57.5191 519.496Q57.2473 518.899 57.0063 518.289Q56.7654 517.679 56.5558 517.058Q56.3462 516.436 56.1686 515.805Q55.9909 515.173 55.8457 514.533Q55.7005 513.894 55.5881 513.247Q55.4756 512.601 55.3963 511.95C54.4547 504.387 56.678 497.064 61.4198 491.169C67.3933 483.743 75.1529 482.058 84.0805 481.22C83.8127 474.679 84.0013 468.117 84.08 461.573C85.4575 453.521 85.9351 445.192 87.226 437.082Z"/>
	<path fill="#009027" d="M657.017 241.325C672 239.191 686.202 237.989 701.352 237.864C760.418 239.28 821.418 261.71 863.723 303.847C842.957 299.739 823.053 300.167 804.98 312.187C786.941 324.185 775.995 341.925 771.91 363.133C768.797 379.297 770.252 396.604 770.233 413.008L769.976 482.014C826.613 482.743 883.282 481.836 939.926 482.156C948.296 481.999 955.617 483.157 961.843 489.386C966.753 494.298 969.053 501.096 968.967 507.965Q968.96 508.66 968.919 509.354Q968.877 510.048 968.801 510.739Q968.724 511.43 968.613 512.117Q968.502 512.803 968.357 513.483Q968.212 514.163 968.032 514.835Q967.853 515.507 967.64 516.169Q967.428 516.831 967.182 517.481Q966.936 518.132 966.658 518.769Q966.38 519.406 966.07 520.029Q965.761 520.651 965.42 521.257Q965.08 521.864 964.709 522.452Q964.339 523.04 963.939 523.609Q963.54 524.178 963.112 524.727Q962.684 525.275 962.23 525.801Q961.775 526.327 961.295 526.83Q960.814 527.332 960.309 527.81C955.818 532.04 949.722 534.687 943.519 534.609C929.893 534.058 915.954 534.917 902.281 534.923L686.906 534.886L616.698 534.959C602.96 534.979 589.159 535.254 575.429 534.839C572.38 534.747 568.82 534.951 566.004 533.684C571.3 531.308 575.883 528.09 579.12 523.159C583.453 516.558 584.898 507.814 583.078 500.144C581.005 491.407 575.424 486.478 568.098 482.057C575.839 481.315 583.759 481.615 591.529 481.692Q609.048 482.022 626.569 481.755L626.54 416.793C626.533 396.324 628.379 374.814 622.461 355.007C616.787 336.017 603.926 318.601 586.307 309.194C573.684 302.454 561.284 301.206 547.232 301.444C543.688 301.504 539.648 301.296 536.252 302.333C535.775 302.479 535.289 302.593 534.802 302.697L534.156 302.83C545.776 289.559 568.535 274.737 584.242 266.374C589.636 263.503 595.504 261.326 600.773 258.277L601.51 257.845C606.756 256.087 611.817 253.663 617.08 251.869C630.228 247.39 643.429 244.118 657.017 241.325Z"/>
	<path fill="#02C573" d="M510.597 328.92C518.161 319.844 525.215 310.662 534.156 302.83L534.802 302.697C535.289 302.593 535.775 302.479 536.252 302.333C539.648 301.296 543.688 301.504 547.232 301.444C561.284 301.206 573.684 302.454 586.307 309.194C603.926 318.601 616.787 336.017 622.461 355.007C628.379 374.814 626.533 396.324 626.54 416.793L626.569 481.755Q609.048 482.022 591.529 481.692C583.759 481.615 575.839 481.315 568.098 482.057C565.349 481.408 562.753 481.001 559.935 480.803C558.956 476.273 559.57 470.449 559.415 465.759C559.173 458.415 558.54 450.989 557.639 443.7Q557.142 439.81 556.517 435.939Q555.893 432.068 555.142 428.219Q554.391 424.37 553.515 420.548Q552.638 416.725 551.637 412.934Q550.637 409.142 549.512 405.386Q548.388 401.629 547.141 397.911Q545.895 394.193 544.527 390.518Q543.159 386.842 541.672 383.214Q540.185 379.585 538.58 376.008Q536.975 372.43 535.254 368.906Q533.533 365.383 531.697 361.917Q529.862 358.452 527.914 355.049Q525.966 351.645 523.908 348.308Q521.849 344.97 519.683 341.701Q517.517 338.432 515.245 335.236Q512.972 332.04 510.597 328.92Z"/>
	<path fill="#02C573" d="M863.723 303.847C868.975 307.826 873.566 313.562 878.066 318.407C910.542 353.377 931.312 400.187 937.832 447.355Q940.183 464.677 939.926 482.156C883.282 481.836 826.613 482.743 769.976 482.014L770.233 413.008C770.252 396.604 768.797 379.297 771.91 363.133C775.995 341.925 786.941 324.185 804.98 312.187C823.053 300.167 842.957 299.739 863.723 303.847Z"/>
	<path fill="#01629C" d="M84.9271 534.768C100.293 536.471 116.403 535.151 131.865 535.091L218.216 535.035L464.951 535.039L526.282 535.086C537.195 535.087 555.838 536.404 566.004 533.684C568.82 534.951 572.38 534.747 575.429 534.839C589.159 535.254 602.96 534.979 616.698 534.959L686.906 534.886L902.281 534.923C915.954 534.917 929.893 534.058 943.519 534.609L942.94 534.753C941.485 534.828 940.972 534.607 939.895 535.641C939.002 538.661 939.763 542.024 939.86 545.154Q939.901 547.277 939.92 549.4L939.718 688.373L939.584 720.163C939.564 727.406 940.091 735.212 938.732 742.353Q938.356 744.305 937.835 746.223Q937.313 748.141 936.649 750.015Q935.986 751.889 935.183 753.707Q934.38 755.526 933.444 757.279Q932.507 759.032 931.441 760.711Q930.375 762.388 929.187 763.982Q927.998 765.575 926.693 767.075Q925.389 768.574 923.975 769.972C914.992 779.007 901.86 785.924 889.147 787.447C880.999 788.424 872.399 787.809 864.182 787.758L823.868 787.69L681.848 788.104L140.471 788.155C125.992 788.09 111.758 783.871 101.423 773.278C93.8449 765.51 87.874 755.093 85.8108 744.376C84.1714 735.86 84.8747 726.617 84.8835 717.964L84.8682 681.701L84.9271 534.768ZM157.299 576.869C152.387 579.422 147.928 583.704 143.589 587.146Q131.72 596.496 119.953 605.973C127.888 622.509 140.435 635.858 158.026 641.992Q161.281 643.155 164.649 643.931Q164.399 669.898 164.502 695.863C164.502 708.485 164.244 721.174 164.593 733.789C167.375 738.286 170.858 742.781 176.34 743.951C180.237 744.783 184.96 743.582 188.179 741.3C191.728 738.783 193.769 734.822 194.38 730.565C195.554 722.4 194.452 713.165 194.495 704.875Q194.054 674.144 194.261 643.411C212.487 637.001 226.095 626.552 234.751 608.77C234.963 608.335 235.152 607.889 235.345 607.445C228.862 602.052 203.247 579.016 196.984 577.353L196.177 577.611C194.484 583.677 195.681 603.017 195.835 610.394C183.471 610.391 170.899 610.849 158.561 610.253C158.596 604.951 159.83 580.535 157.974 577.285L157.299 576.869ZM557.936 613.126C552.725 614.316 548.213 616.457 545.224 621.129C542.891 624.777 542.256 629.172 543.254 633.367C544.006 636.521 545.529 638.662 547.501 641.153C541.016 643.738 535.276 647.462 532.51 654.202C530.537 659.007 530.897 664.268 533.02 668.961Q533.276 669.525 533.561 670.074Q533.845 670.624 534.158 671.158Q534.47 671.693 534.809 672.211Q535.148 672.728 535.514 673.228Q535.879 673.728 536.269 674.208Q536.66 674.689 537.074 675.149Q537.488 675.608 537.926 676.047Q538.363 676.485 538.822 676.9Q539.282 677.315 539.761 677.706Q540.241 678.097 540.74 678.463Q541.239 678.829 541.757 679.169Q542.274 679.509 542.808 679.823Q543.342 680.136 543.891 680.421Q544.44 680.707 545.003 680.964Q545.567 681.221 546.142 681.449Q546.718 681.677 547.304 681.875C553.313 683.937 559.709 683.689 565.391 680.783C569.699 678.579 573.074 675.232 576.455 671.842C579.871 675.054 583.091 678.479 585.79 682.326L590.78 682.348L601.142 682.429C595.513 676.615 590.281 670.478 584.758 664.577C589.575 658.917 595.201 653.918 599.607 647.936C594.712 647.903 589.795 647.772 584.903 647.941C582.431 650.794 580.022 653.821 577.283 656.416C573.923 652.746 570.636 648.961 566.928 645.636C571.904 641.661 576.027 637.489 576.788 630.801Q576.883 630.011 576.897 629.216Q576.911 628.42 576.844 627.628Q576.778 626.835 576.631 626.053Q576.485 625.271 576.26 624.508Q576.035 623.745 575.733 623.009Q575.432 622.273 575.058 621.571Q574.683 620.869 574.24 620.208Q573.796 619.548 573.288 618.936C570.228 615.309 565.433 613.335 560.751 613.074C559.815 613.021 558.871 613.069 557.936 613.126ZM336.664 614.692Q326.37 635.911 316.549 657.352C313.346 664.459 309.886 671.579 307.204 678.901C303.193 661.137 298.97 630.975 292.152 615.467C288.191 622.336 285.104 629.795 281.761 636.985C278.479 644.045 274.828 651.123 272.191 658.448L271.851 659.379C265.247 644.454 259.003 628.9 250.803 614.785C244.631 636.934 240.646 659.711 234.998 682.006C238.545 682.111 242.108 682.286 245.657 682.183C246.322 680.005 247.03 677.837 247.524 675.612L254.161 645.343C259.711 658.329 265.462 671.525 272.179 683.949Q281.013 665.027 289.086 645.769Q292.89 664.086 297.015 682.334Q307.442 682.48 317.87 682.472C320.094 677.07 321.999 671.339 324.526 666.087C332.735 666.541 341.12 666.703 349.311 665.9Q353.024 673.873 356.45 681.974L369.089 681.878C364.288 672.334 341.224 618.094 336.664 614.692ZM470.597 617.661C461.564 619.02 453.561 622.861 448.012 630.331C442.705 637.475 440.723 646.546 442.036 655.306C443.34 664.008 447.843 671.581 454.947 676.79C461.89 681.88 469.741 683.691 478.247 682.88C488.039 681.097 496.592 676.823 502.286 668.366C507.152 661.138 508.738 651.305 506.913 642.826Q506.745 642.055 506.538 641.293Q506.331 640.531 506.087 639.781Q505.843 639.03 505.562 638.293Q505.281 637.555 504.964 636.833Q504.646 636.11 504.294 635.404Q503.941 634.698 503.553 634.01Q503.166 633.323 502.745 632.655Q502.323 631.988 501.87 631.342Q501.416 630.696 500.93 630.074Q500.445 629.452 499.93 628.854Q499.414 628.256 498.869 627.685Q498.325 627.114 497.752 626.571Q497.18 626.027 496.581 625.513Q495.983 624.999 495.359 624.515Q494.736 624.031 494.089 623.578Q493.442 623.126 492.774 622.706C486.052 618.478 478.451 617.017 470.597 617.661ZM777.797 617.651C768.45 619.112 760.308 622.806 754.552 630.584C749.212 637.799 747.18 647.295 748.504 656.125Q748.624 656.935 748.784 657.738Q748.944 658.542 749.144 659.336Q749.344 660.13 749.584 660.913Q749.823 661.696 750.102 662.466Q750.38 663.237 750.697 663.992Q751.014 664.747 751.368 665.486Q751.722 666.224 752.112 666.944Q752.503 667.664 752.929 668.363Q753.355 669.063 753.816 669.74Q754.276 670.417 754.77 671.07Q755.264 671.724 755.79 672.352Q756.316 672.979 756.873 673.58Q757.429 674.181 758.015 674.753Q758.602 675.325 759.215 675.867Q759.829 676.409 760.47 676.919Q761.11 677.43 761.775 677.908C771.116 684.498 782.18 684.945 793.036 682.836C798.812 681.713 803.725 680.138 808.539 676.636C807.942 667.306 808.184 657.885 808.186 648.537C799.918 647.321 790.945 647.941 782.596 647.985C782.275 651.492 782.35 655.011 782.365 658.529L796.154 658.422C796.171 662.38 796.145 666.343 796.216 670.3C788.324 673.463 780.685 674.777 772.555 671.135C767.112 668.696 763.208 664.253 761.225 658.652Q761.03 658.096 760.864 657.532Q760.698 656.967 760.562 656.394Q760.425 655.822 760.318 655.243Q760.211 654.664 760.133 654.08Q760.056 653.497 760.009 652.91Q759.961 652.323 759.944 651.734Q759.927 651.146 759.94 650.557Q759.953 649.969 759.996 649.382Q760.039 648.795 760.112 648.21Q760.186 647.626 760.289 647.047Q760.392 646.467 760.525 645.894Q760.657 645.32 760.819 644.754Q760.981 644.188 761.172 643.631Q761.363 643.074 761.582 642.528Q761.801 641.981 762.047 641.447Q762.294 640.912 762.568 640.391C765.263 635.153 769.839 631.127 775.539 629.502C784.073 627.068 791.24 630.223 798.515 634.249Q802.058 630.26 805.694 626.355C797.258 619.729 788.63 616.565 777.797 617.651ZM822.3 618.272L816.923 618.444C816.91 639.79 816.674 661.164 816.9 682.507L823.452 682.511L828.508 682.503L828.488 618.091L822.3 618.272ZM371.975 618.477L372.052 682.01L382.69 681.969C382.897 672.915 382.506 663.864 382.694 654.823C386.644 658.356 400.745 681.976 402.994 682.324C403.302 682.372 403.615 682.263 403.926 682.233L415.246 682.354C409.134 673.301 403.023 664.301 396.392 655.615C401.484 654.712 405.475 652.915 408.604 648.596C411.752 644.252 412.649 638.595 411.699 633.376C410.816 628.523 408.208 624.388 404.029 621.72C395.604 616.342 381.554 618.463 371.975 618.477ZM422.543 618.544C422.424 639.677 421.846 661.084 422.626 682.194C426.346 682.251 430.072 682.355 433.792 682.309L434.234 618.557C430.339 618.551 426.438 618.498 422.543 618.544ZM626.977 618.428L627.011 682.459C638.538 682.391 650.099 682.139 661.623 682.284L661.676 671.69Q650.08 671.913 638.487 671.535Q638.333 645.013 638.489 618.492L626.977 618.428ZM666.984 618.494C666.945 630.805 665.532 655.572 668.31 666.427C669.284 670.234 670.988 673.696 673.776 676.509C678.613 681.388 685.715 683.353 692.445 683.26C699.117 683.168 705.804 680.995 710.579 676.179C720.645 666.029 717.897 642.259 717.845 628.514L717.792 618.508L706.04 618.465L706.173 644.688C706.193 650.086 706.689 655.956 705.665 661.263C705.115 664.112 703.916 666.878 701.891 668.99C699.372 671.616 696.147 672.651 692.568 672.647C688.757 672.642 685.101 671.41 682.486 668.549C680.487 666.363 679.377 663.572 678.845 660.688C677.901 655.567 678.395 649.83 678.411 644.629L678.512 618.49L666.984 618.494ZM728.258 618.647Q728.111 650.544 728.356 682.439L739.498 682.326Q739.744 650.419 739.634 618.512C735.846 618.553 732.043 618.522 728.258 618.647ZM385.975 707.929C385.506 720.309 385.876 732.808 385.947 745.201C387.776 745.258 389.644 745.398 391.469 745.254C391.495 737.605 391.447 729.948 391.554 722.299C399.482 730.116 406.937 738.459 414.965 746.154L415.667 746.068L415.954 745.476C416.086 739.043 417.302 714.458 415.407 709.834C414.355 708.966 413.033 708.538 411.608 709.003C411.321 709.096 411.077 709.288 410.812 709.431C409.521 717.058 410.509 726.019 410.457 733.825C404.049 726.367 393.295 713.975 385.975 707.929ZM634.412 707.725C634.428 712.244 633.954 742.043 634.628 743.882C634.761 744.247 635.078 744.516 635.304 744.833C636.759 745.096 636.875 745.187 638.185 744.542C641.103 740.069 639.329 726.746 639.595 720.923C645.532 726.471 657.012 740.832 663.625 743.784L664.298 743.628C664.64 737.479 665.824 714.143 662.673 710.024L661.256 710.247C658.55 716.206 660.136 728.256 660.027 735.027Q651.731 726.671 643.728 718.034C640.6 714.629 637.679 710.993 634.412 707.725ZM320.815 709.17Q320.978 726.688 320.957 744.206C322.804 744.242 324.722 744.392 326.564 744.304L326.526 729.901C329.084 732.742 336.549 743.621 339.876 744.264C341.685 744.229 343.166 744.467 344.747 743.508C344.825 740.608 338.049 733.733 335.823 731.39L334.902 730.43C338.826 728.452 341.453 726.681 342.93 722.275C343.744 719.844 343.791 716.995 342.519 714.707C341.035 712.037 338.046 710.463 335.176 709.738C330.677 708.6 325.428 709.102 320.815 709.17ZM443.343 709.103C438.023 710.607 433.636 713.052 430.823 718.035C428.21 722.663 427.591 728.788 429.232 733.844Q429.369 734.27 429.527 734.689Q429.686 735.108 429.865 735.518Q430.045 735.929 430.245 736.329Q430.446 736.73 430.666 737.119Q430.887 737.509 431.127 737.887Q431.367 738.265 431.626 738.63Q431.885 738.995 432.163 739.347Q432.44 739.698 432.735 740.035Q433.03 740.372 433.342 740.694Q433.654 741.015 433.982 741.32Q434.31 741.625 434.653 741.913Q434.996 742.201 435.353 742.471Q435.71 742.741 436.081 742.992Q436.452 743.243 436.835 743.475Q437.218 743.708 437.612 743.92Q438.006 744.132 438.411 744.324C442.061 746.047 445.762 746.206 449.721 745.981C454.925 744.596 459.137 742.129 461.86 737.307C464.445 732.729 464.939 727.002 463.497 721.976C462.164 717.331 459.09 713.34 454.802 711.068C451.164 709.141 447.378 708.841 443.343 709.103ZM604.906 709.147C599.543 710.151 594.933 712.453 591.735 717.022Q591.217 717.769 590.775 718.563Q590.332 719.357 589.968 720.19Q589.605 721.023 589.324 721.888Q589.043 722.752 588.847 723.64Q588.651 724.527 588.543 725.43Q588.434 726.332 588.414 727.241Q588.393 728.15 588.461 729.056Q588.529 729.962 588.684 730.858C589.526 735.596 592.497 739.774 596.472 742.427C600.165 744.892 603.918 745.65 608.278 745.538C613.664 744.321 617.891 742.117 620.894 737.251Q621.38 736.455 621.786 735.615Q622.192 734.775 622.513 733.899Q622.834 733.024 623.068 732.12Q623.302 731.217 623.445 730.296Q623.589 729.374 623.641 728.443Q623.693 727.511 623.654 726.579Q623.614 725.647 623.483 724.724Q623.352 723.8 623.131 722.894C621.986 718.153 619.006 713.918 614.779 711.443C611.66 709.618 608.477 709.093 604.906 709.147ZM353.488 709.458L353.516 744.585L374.619 744.557L374.712 738.388C369.798 738.377 364.86 738.471 359.949 738.325C359.938 734.906 359.857 731.47 359.969 728.053L374.815 728.002C374.865 726.355 375.234 724.197 374.572 722.688C369.688 722.219 364.677 722.48 359.774 722.526C359.816 720.102 359.798 717.66 359.976 715.243C364.795 715.186 369.582 715.193 374.399 715.379C374.615 713.407 374.783 711.417 375.061 709.453L353.488 709.458ZM470.006 709.468C475.841 721.536 480.631 734.08 486.777 746.001C491.208 736.615 495.729 727.203 499.723 717.623C500.775 714.951 501.908 712.29 502.764 709.548L497.109 709.442Q491.808 721.916 486.811 734.516C483.062 726.224 480.351 717.478 476.303 709.333L470.006 709.468ZM520.786 709.266C516.326 718.248 506.607 735.79 504.669 744.427L505.086 745.123C506.854 745.527 508.376 745.577 510.186 745.533C511.392 742.179 512.543 738.787 513.927 735.502L521.126 735.616L527.046 735.609C528.283 738.017 530.834 744.574 533.496 745.479C534.354 745.771 535.386 745.569 536.256 745.463L536.644 744.847C535.318 740.047 523.673 711.666 520.786 709.266ZM571.708 709.66C571.682 716.267 570.724 739.916 571.842 744.8C573.136 745.66 574.702 745.537 576.204 745.612C576.633 740.164 577.402 713.645 576.167 710.088C576.12 709.953 576.132 709.803 576.114 709.66L571.708 709.66ZM682.625 709.562C679.701 710.956 676.651 712.588 675.347 715.765C674.609 717.561 674.971 719.505 675.747 721.216C678.355 726.968 691.512 730.301 689.286 736.69C688.803 738.076 687.629 739.035 686.286 739.535C684.685 740.132 682.783 740.059 681.28 739.219C679.018 737.955 679.433 735.147 676.907 734.485C675.674 734.875 674.808 735.295 674.146 736.484C673.576 737.508 673.682 738.595 674.147 739.624C675.285 742.138 678.974 743.722 681.479 744.334C681.696 744.387 681.914 744.433 682.132 744.482C685.754 744.518 689.598 744.51 692.421 741.869C694.253 740.155 695.607 737.251 695.599 734.723C695.59 731.962 693.995 729.619 692.059 727.783C689.175 725.046 681.75 721.933 680.897 718.092C681.228 716.936 681.357 716.236 682.445 715.521C683.517 714.817 684.651 714.566 685.84 714.981C687.518 715.567 692.126 717.827 693.815 717.097C694.035 717.002 694.203 716.816 694.397 716.676C694.469 715.029 693.751 713.535 692.591 712.328C690.444 710.094 687.012 709.498 684.054 709.517C683.578 709.52 683.101 709.542 682.625 709.562ZM541.799 709.952C541.681 711.618 541.423 712.498 542.165 714.019C544.133 715.117 547.177 714.351 549.398 714.332C549.292 719.469 547.687 742.756 550.3 745.835C550.791 746.413 550.834 746.232 551.677 746.318C552.903 745.328 553.806 744.462 553.979 742.77C554.133 741.261 554.015 739.643 553.988 738.125L553.983 714.423C556.752 714.488 559.496 714.59 562.26 714.345C563.04 713.488 563.17 712.386 563.038 711.204C562.979 710.667 562.89 710.535 562.699 710.099C556.207 709.026 548.431 709.891 541.799 709.952Z"/>
	<path fill="#FCFEFF" d="M119.953 605.973Q131.72 596.496 143.589 587.146C147.928 583.704 152.387 579.422 157.299 576.869L157.974 577.285C159.83 580.535 158.596 604.951 158.561 610.253C170.899 610.849 183.471 610.391 195.835 610.394C195.681 603.017 194.484 583.677 196.177 577.611L196.984 577.353C203.247 579.016 228.862 602.052 235.345 607.445C235.152 607.889 234.963 608.335 234.751 608.77C226.095 626.552 212.487 637.001 194.261 643.411Q194.054 674.145 194.495 704.875C194.452 713.165 195.554 722.4 194.38 730.565C193.769 734.822 191.728 738.783 188.179 741.3C184.96 743.582 180.237 744.783 176.34 743.951C170.858 742.781 167.375 738.286 164.593 733.789C164.244 721.174 164.502 708.485 164.502 695.863Q164.398 669.896 164.649 643.931Q161.281 643.155 158.026 641.992C140.435 635.858 127.888 622.509 119.953 605.973ZM178.306 717.506C174.98 718.615 172.063 720.134 170.464 723.439Q170.275 723.83 170.125 724.237Q169.975 724.644 169.865 725.064Q169.756 725.484 169.688 725.912Q169.62 726.341 169.595 726.774Q169.57 727.207 169.587 727.641Q169.604 728.075 169.663 728.504Q169.723 728.934 169.824 729.356Q169.926 729.778 170.068 730.188C171.071 733.061 173.478 735.195 176.244 736.34C177.725 736.953 179.256 737.046 180.831 737.192C184.194 735.778 186.569 734.088 188.005 730.622C189.11 727.955 189.219 724.913 187.934 722.286C186.817 720.001 184.585 718.401 182.154 717.746C180.921 717.414 179.574 717.467 178.306 717.506Z"/>
	<path fill="#FCFEFF" d="M547.501 641.153C545.529 638.662 544.006 636.521 543.254 633.367C542.256 629.172 542.891 624.777 545.224 621.129C548.213 616.457 552.725 614.316 557.936 613.126C558.871 613.069 559.815 613.021 560.751 613.074C565.433 613.335 570.228 615.309 573.288 618.936Q573.796 619.548 574.24 620.208Q574.683 620.869 575.058 621.571Q575.432 622.273 575.733 623.009Q576.035 623.745 576.26 624.508Q576.485 625.271 576.631 626.053Q576.778 626.835 576.844 627.628Q576.911 628.42 576.897 629.216Q576.883 630.011 576.788 630.801C576.027 637.489 571.904 641.661 566.928 645.636C570.636 648.961 573.923 652.746 577.283 656.416C580.022 653.821 582.431 650.794 584.903 647.941C589.795 647.772 594.712 647.903 599.607 647.936C595.201 653.918 589.575 658.917 584.758 664.577C590.281 670.478 595.513 676.615 601.142 682.429L590.78 682.348L585.79 682.326C583.091 678.479 579.871 675.054 576.455 671.842C573.074 675.232 569.699 678.579 565.391 680.783C559.709 683.689 553.313 683.937 547.304 681.875Q546.718 681.677 546.142 681.449Q545.567 681.221 545.003 680.964Q544.44 680.707 543.891 680.421Q543.342 680.136 542.808 679.823Q542.274 679.509 541.757 679.169Q541.24 678.829 540.74 678.463Q540.241 678.097 539.761 677.706Q539.282 677.315 538.822 676.9Q538.363 676.485 537.926 676.046Q537.489 675.608 537.074 675.149Q536.66 674.689 536.269 674.208Q535.879 673.728 535.514 673.228Q535.148 672.728 534.809 672.211Q534.47 671.693 534.158 671.158Q533.845 670.624 533.561 670.074Q533.276 669.525 533.02 668.961C530.897 664.268 530.537 659.007 532.51 654.202C535.276 647.462 541.016 643.738 547.501 641.153ZM557.533 622.515C555.545 623.909 553.826 625.232 553.379 627.76C552.869 630.651 553.599 634.119 555.413 636.446C556.429 637.749 557.545 638.278 559.047 638.885C560.037 638.805 560.628 638.635 561.511 638.182C564.434 636.051 566.525 633.916 567.016 630.169C567.272 628.22 566.857 626.285 565.559 624.768C564.186 623.165 562.404 622.578 560.352 622.483Q558.942 622.417 557.533 622.515ZM552.331 649.51C548.584 650.765 545.224 652.583 543.418 656.283C542.111 658.961 542.14 662.03 543.259 664.768C544.591 668.027 547.318 670.555 550.555 671.871C553.584 673.104 556.506 672.903 559.653 672.314C563.931 670.31 566.931 667.692 570.174 664.319C567.487 661.379 558.254 650.03 554.995 649.434C554.187 649.287 553.152 649.44 552.331 649.51Z"/>
	<path fill="#FCFEFF" d="M307.204 678.901C309.886 671.579 313.346 664.459 316.549 657.352Q326.37 635.911 336.664 614.692C341.224 618.094 364.288 672.334 369.089 681.878L356.45 681.974Q353.024 673.873 349.311 665.9C341.12 666.703 332.735 666.541 324.526 666.087C321.999 671.339 320.094 677.07 317.87 682.472Q307.442 682.48 297.015 682.334Q292.89 664.086 289.086 645.769Q281.013 665.027 272.179 683.949C265.462 671.525 259.711 658.329 254.161 645.343L247.524 675.612C247.03 677.837 246.322 680.005 245.657 682.183C242.108 682.286 238.545 682.111 234.998 682.006C240.646 659.711 244.631 636.934 250.803 614.785C259.003 628.9 265.247 644.454 271.851 659.379L272.191 658.448C274.828 651.123 278.479 644.045 281.761 636.985C285.104 629.795 288.191 622.336 292.152 615.467C298.97 630.975 303.193 661.137 307.204 678.901ZM337.097 638.316Q333.235 647.476 329.081 656.507L336.895 656.503L344.864 656.52C342.508 650.706 340.362 643.632 337.097 638.316Z"/>
	<path fill="#FCFEFF" d="M478.247 682.88C469.741 683.691 461.89 681.88 454.947 676.79C447.843 671.581 443.34 664.008 442.036 655.306C440.723 646.546 442.705 637.475 448.012 630.331C453.561 622.861 461.564 619.02 470.597 617.661C478.451 617.017 486.052 618.478 492.774 622.706Q493.442 623.126 494.089 623.578Q494.736 624.031 495.359 624.515Q495.983 624.999 496.581 625.513Q497.18 626.027 497.752 626.571Q498.325 627.114 498.869 627.685Q499.414 628.257 499.93 628.854Q500.445 629.452 500.93 630.074Q501.416 630.696 501.87 631.342Q502.323 631.988 502.745 632.655Q503.166 633.323 503.553 634.01Q503.941 634.698 504.294 635.404Q504.646 636.11 504.964 636.833Q505.281 637.555 505.562 638.293Q505.843 639.03 506.087 639.781Q506.331 640.531 506.538 641.293Q506.745 642.055 506.913 642.826C508.738 651.305 507.152 661.138 502.286 668.366C496.592 676.823 488.039 681.097 478.247 682.88ZM474.163 628.189C467.765 628.853 462.004 630.99 457.777 636.087C454.013 640.626 452.541 646.534 453.15 652.347C453.794 658.497 456.654 664.329 461.631 668.102C466.163 671.537 471.213 672.597 476.767 672.645C483.489 671.231 489.184 668.476 492.962 662.455C496.281 657.164 497.014 650.8 495.492 644.789C494.044 639.073 490.643 633.987 485.503 630.985C481.972 628.923 478.201 628.193 474.163 628.189Z"/>
	<path fill="#FCFEFF" d="M808.539 676.636C803.725 680.138 798.812 681.713 793.036 682.836C782.18 684.945 771.116 684.498 761.775 677.908Q761.11 677.43 760.47 676.919Q759.829 676.409 759.215 675.867Q758.602 675.325 758.015 674.753Q757.429 674.181 756.873 673.58Q756.316 672.979 755.79 672.351Q755.264 671.724 754.77 671.07Q754.276 670.417 753.816 669.74Q753.355 669.063 752.929 668.363Q752.503 667.664 752.112 666.944Q751.722 666.224 751.368 665.486Q751.014 664.747 750.697 663.992Q750.38 663.237 750.102 662.466Q749.823 661.696 749.584 660.913Q749.344 660.13 749.144 659.336Q748.944 658.542 748.784 657.738Q748.624 656.935 748.504 656.125C747.18 647.295 749.212 637.799 754.552 630.584C760.308 622.806 768.45 619.112 777.797 617.651C788.63 616.565 797.258 619.729 805.694 626.355Q802.058 630.26 798.515 634.249C791.24 630.223 784.073 627.068 775.539 629.502C769.839 631.127 765.263 635.153 762.568 640.391Q762.294 640.912 762.047 641.447Q761.801 641.981 761.582 642.528Q761.363 643.074 761.172 643.631Q760.981 644.188 760.819 644.754Q760.657 645.32 760.525 645.894Q760.392 646.467 760.289 647.047Q760.186 647.626 760.112 648.211Q760.039 648.795 759.996 649.382Q759.953 649.969 759.94 650.557Q759.927 651.146 759.944 651.734Q759.961 652.323 760.009 652.91Q760.056 653.497 760.133 654.08Q760.211 654.664 760.318 655.243Q760.425 655.822 760.562 656.394Q760.698 656.967 760.864 657.532Q761.03 658.096 761.225 658.652C763.208 664.253 767.112 668.696 772.555 671.135C780.685 674.777 788.324 673.463 796.216 670.3C796.145 666.343 796.171 662.38 796.154 658.422L782.365 658.529C782.35 655.011 782.275 651.492 782.596 647.985C790.945 647.941 799.918 647.321 808.186 648.537C808.184 657.885 807.942 667.306 808.539 676.636Z"/>
	<path fill="#FCFEFF" d="M816.923 618.444L822.3 618.272L828.488 618.091L828.508 682.503L823.452 682.511L816.9 682.507C816.674 661.164 816.91 639.79 816.923 618.444Z"/>
	<path fill="#FCFEFF" d="M372.052 682.01L371.975 618.477C381.554 618.463 395.604 616.342 404.029 621.72C408.208 624.388 410.816 628.523 411.699 633.376C412.649 638.595 411.752 644.252 408.604 648.596C405.475 652.915 401.484 654.712 396.392 655.615C403.023 664.301 409.134 673.301 415.246 682.354L403.926 682.233C403.615 682.263 403.302 682.372 402.994 682.324C400.745 681.976 386.644 658.356 382.694 654.823C382.506 663.864 382.897 672.915 382.69 681.969L372.052 682.01ZM383.035 629.122L382.99 645.029C388.492 645.464 393.486 646.235 398.409 643.173C400.144 641.209 401.499 638.828 401.264 636.1C401.115 634.367 400.087 633.037 398.756 631.996C394.185 628.421 388.468 628.939 383.035 629.122Z"/>
	<path fill="#FCFEFF" d="M422.626 682.194C421.846 661.084 422.424 639.677 422.543 618.544C426.438 618.498 430.339 618.551 434.234 618.557L433.792 682.309C430.072 682.355 426.346 682.251 422.626 682.194Z"/>
	<path fill="#FCFEFF" d="M627.011 682.459L626.977 618.428L638.489 618.492Q638.333 645.014 638.487 671.535Q650.08 671.913 661.676 671.69L661.623 682.284C650.099 682.139 638.538 682.391 627.011 682.459Z"/>
	<path fill="#FCFEFF" d="M717.845 628.514C717.897 642.259 720.645 666.029 710.579 676.179C705.804 680.995 699.117 683.168 692.445 683.26C685.715 683.353 678.613 681.388 673.776 676.509C670.988 673.696 669.284 670.234 668.31 666.427C665.532 655.572 666.945 630.805 666.984 618.494L678.512 618.49L678.411 644.629C678.395 649.83 677.901 655.567 678.845 660.688C679.377 663.572 680.487 666.363 682.486 668.549C685.101 671.41 688.757 672.642 692.568 672.647C696.147 672.651 699.372 671.616 701.891 668.99C703.916 666.878 705.115 664.112 705.665 661.263C706.689 655.956 706.193 650.086 706.173 644.688L706.04 618.465L717.792 618.508L717.845 628.514Z"/>
	<path fill="#FCFEFF" d="M728.356 682.439Q728.111 650.543 728.258 618.647C732.043 618.522 735.846 618.553 739.634 618.512Q739.744 650.419 739.498 682.326L728.356 682.439Z"/>
	<path fill="#01629C" d="M561.511 638.182C560.628 638.635 560.037 638.805 559.047 638.885C557.545 638.278 556.429 637.749 555.413 636.446C553.599 634.119 552.869 630.651 553.379 627.76C553.826 625.232 555.545 623.909 557.533 622.515Q558.942 622.417 560.352 622.483C562.404 622.578 564.186 623.165 565.559 624.768C566.857 626.285 567.272 628.22 567.016 630.169C566.525 633.916 564.434 636.051 561.511 638.182Z"/>
	<path fill="#01629C" d="M476.767 672.645C471.213 672.597 466.163 671.537 461.631 668.102C456.654 664.329 453.794 658.497 453.15 652.347C452.541 646.534 454.013 640.626 457.777 636.087C462.004 630.99 467.765 628.853 474.163 628.189C478.201 628.193 481.972 628.923 485.503 630.985C490.643 633.987 494.044 639.073 495.492 644.789C497.014 650.8 496.281 657.164 492.962 662.455C489.184 668.476 483.489 671.231 476.767 672.645Z"/>
	<path fill="#01629C" d="M382.99 645.029L383.035 629.122C388.468 628.939 394.185 628.421 398.756 631.996C400.087 633.037 401.115 634.367 401.264 636.1C401.499 638.828 400.144 641.209 398.409 643.173C393.486 646.235 388.492 645.464 382.99 645.029Z"/>
	<path fill="#01629C" d="M329.081 656.507Q333.235 647.476 337.097 638.316C340.362 643.632 342.508 650.706 344.864 656.52L336.895 656.503L329.081 656.507Z"/>
	<path fill="#01629C" d="M559.653 672.314C556.506 672.903 553.584 673.104 550.555 671.871C547.318 670.555 544.591 668.027 543.259 664.768C542.14 662.03 542.111 658.961 543.418 656.283C545.224 652.583 548.584 650.765 552.331 649.51C553.152 649.44 554.187 649.287 554.995 649.434C558.254 650.03 567.487 661.379 570.174 664.319C566.931 667.692 563.931 670.31 559.653 672.314Z"/>
	<path fill="#FCFEFF" d="M385.947 745.201C385.876 732.808 385.506 720.309 385.975 707.929C393.295 713.975 404.049 726.367 410.457 733.825C410.509 726.019 409.521 717.058 410.812 709.431C411.077 709.288 411.321 709.096 411.608 709.003C413.033 708.538 414.355 708.966 415.407 709.834C417.302 714.458 416.086 739.043 415.954 745.476L415.667 746.068L414.965 746.154C406.937 738.459 399.482 730.116 391.554 722.299C391.447 729.948 391.495 737.605 391.469 745.254C389.644 745.398 387.776 745.258 385.947 745.201Z"/>
	<path fill="#FCFEFF" d="M639.595 720.923C639.329 726.746 641.103 740.069 638.185 744.542C636.875 745.187 636.759 745.096 635.304 744.833C635.078 744.516 634.761 744.247 634.628 743.882C633.954 742.043 634.428 712.244 634.412 707.725C637.679 710.993 640.6 714.629 643.728 718.034Q651.731 726.671 660.027 735.027C660.136 728.256 658.55 716.206 661.256 710.247L662.673 710.024C665.824 714.143 664.64 737.479 664.298 743.628L663.625 743.784C657.012 740.832 645.532 726.471 639.595 720.923Z"/>
	<path fill="#FCFEFF" d="M320.957 744.206Q320.978 726.688 320.815 709.17C325.428 709.102 330.677 708.6 335.176 709.738C338.046 710.463 341.035 712.037 342.519 714.707C343.791 716.995 343.744 719.844 342.93 722.275C341.453 726.681 338.826 728.452 334.902 730.43L335.823 731.39C338.049 733.733 344.825 740.608 344.747 743.508C343.166 744.467 341.685 744.229 339.876 744.264C336.549 743.621 329.084 732.742 326.526 729.901L326.564 744.304C324.722 744.392 322.804 744.242 320.957 744.206ZM326.968 715.003L326.942 724.507C329.951 724.502 332.807 724.56 335.609 723.263C336.33 721.649 336.96 720.1 336.269 718.319C335.71 716.878 334.312 716.062 332.911 715.604C331.049 714.994 328.91 714.987 326.968 715.003Z"/>
	<path fill="#FCFEFF" d="M449.721 745.981C445.762 746.206 442.061 746.047 438.411 744.324Q438.006 744.132 437.612 743.92Q437.218 743.708 436.835 743.475Q436.452 743.243 436.081 742.992Q435.711 742.741 435.353 742.471Q434.996 742.201 434.653 741.913Q434.31 741.625 433.982 741.32Q433.654 741.015 433.342 740.694Q433.03 740.372 432.735 740.035Q432.44 739.698 432.163 739.347Q431.885 738.995 431.626 738.63Q431.367 738.265 431.127 737.887Q430.887 737.509 430.666 737.119Q430.446 736.73 430.245 736.329Q430.045 735.929 429.865 735.518Q429.686 735.108 429.527 734.689Q429.369 734.27 429.232 733.844C427.591 728.788 428.21 722.663 430.823 718.035C433.636 713.052 438.023 710.607 443.343 709.103C447.378 708.841 451.164 709.141 454.802 711.068C459.09 713.34 462.164 717.331 463.497 721.976C464.939 727.002 464.445 732.729 461.86 737.307C459.137 742.129 454.925 744.596 449.721 745.981ZM445.304 714.572C441.058 715.734 437.926 717.64 435.755 721.601Q435.419 722.219 435.149 722.868Q434.879 723.517 434.677 724.191Q434.476 724.864 434.344 725.555Q434.213 726.246 434.154 726.947Q434.095 727.647 434.108 728.35Q434.122 729.053 434.208 729.751Q434.294 730.449 434.451 731.134Q434.609 731.82 434.836 732.485Q435.039 733.083 435.303 733.657Q435.567 734.231 435.888 734.775Q436.21 735.319 436.585 735.827Q436.961 736.335 437.386 736.802Q437.812 737.269 438.283 737.69Q438.755 738.111 439.267 738.481Q439.779 738.851 440.326 739.167Q440.873 739.482 441.45 739.74C443.269 740.575 445.187 740.831 447.171 740.884C451.02 740.093 454.094 738.518 456.332 735.174Q456.724 734.576 457.055 733.941Q457.385 733.307 457.651 732.642Q457.916 731.978 458.114 731.291Q458.312 730.603 458.441 729.899Q458.569 729.196 458.627 728.483Q458.684 727.77 458.671 727.054Q458.657 726.339 458.572 725.629Q458.487 724.918 458.331 724.22C457.591 720.878 455.624 718.062 452.662 716.321C450.463 715.028 447.838 714.49 445.304 714.572Z"/>
	<path fill="#FCFEFF" d="M608.278 745.538C603.918 745.65 600.165 744.892 596.472 742.427C592.497 739.774 589.526 735.596 588.684 730.858Q588.529 729.962 588.461 729.056Q588.393 728.15 588.414 727.241Q588.434 726.332 588.543 725.43Q588.651 724.527 588.847 723.64Q589.043 722.752 589.324 721.888Q589.605 721.023 589.968 720.19Q590.332 719.357 590.775 718.563Q591.217 717.769 591.735 717.022C594.933 712.453 599.543 710.151 604.906 709.147C608.477 709.093 611.66 709.618 614.779 711.443C619.006 713.918 621.986 718.153 623.131 722.894Q623.352 723.8 623.483 724.724Q623.614 725.647 623.654 726.579Q623.693 727.511 623.641 728.443Q623.589 729.374 623.445 730.296Q623.302 731.217 623.068 732.12Q622.834 733.024 622.513 733.899Q622.192 734.775 621.786 735.615Q621.38 736.455 620.894 737.251C617.891 742.117 613.664 744.321 608.278 745.538ZM605.424 714.096C601.491 714.876 598.205 716.52 595.861 719.895Q595.481 720.439 595.157 721.018Q594.833 721.597 594.568 722.205Q594.303 722.814 594.101 723.446Q593.898 724.078 593.76 724.727Q593.621 725.375 593.548 726.035Q593.475 726.694 593.468 727.358Q593.461 728.021 593.52 728.682Q593.579 729.343 593.704 729.995Q593.83 730.639 594.02 731.268Q594.21 731.896 594.462 732.503Q594.714 733.109 595.024 733.687Q595.335 734.266 595.702 734.81Q596.069 735.355 596.488 735.86Q596.908 736.365 597.375 736.826Q597.843 737.287 598.354 737.699Q598.865 738.111 599.415 738.47C601.998 740.167 604.484 740.662 607.513 740.708C611.929 739.238 615.188 737.25 617.251 732.885Q617.552 732.237 617.786 731.562Q618.02 730.887 618.185 730.192Q618.35 729.496 618.444 728.788Q618.538 728.08 618.561 727.366Q618.583 726.652 618.533 725.939Q618.483 725.226 618.362 724.522Q618.24 723.818 618.049 723.13Q617.857 722.441 617.597 721.776C616.286 718.488 613.837 716.182 610.549 714.909C608.866 714.258 607.219 714.067 605.424 714.096Z"/>
	<path fill="#FCFEFF" d="M353.516 744.585L353.488 709.458L375.061 709.453C374.783 711.417 374.615 713.407 374.399 715.379C369.582 715.193 364.795 715.186 359.976 715.243C359.798 717.66 359.816 720.102 359.774 722.526C364.677 722.48 369.688 722.219 374.572 722.688C375.234 724.197 374.865 726.355 374.815 728.002L359.969 728.053C359.857 731.47 359.938 734.906 359.949 738.325C364.86 738.471 369.798 738.377 374.712 738.388L374.619 744.557L353.516 744.585Z"/>
	<path fill="#FCFEFF" d="M486.777 746.001C480.631 734.08 475.841 721.536 470.006 709.468L476.303 709.333C480.351 717.478 483.062 726.224 486.811 734.516Q491.808 721.916 497.109 709.442L502.764 709.548C501.908 712.29 500.775 714.951 499.723 717.623C495.729 727.203 491.208 736.615 486.777 746.001Z"/>
	<path fill="#FCFEFF" d="M510.186 745.533C508.376 745.577 506.854 745.527 505.086 745.123L504.669 744.427C506.607 735.79 516.326 718.248 520.786 709.266C523.673 711.666 535.318 740.047 536.644 744.847L536.256 745.463C535.386 745.569 534.354 745.771 533.496 745.479C530.834 744.574 528.283 738.017 527.046 735.609L521.126 735.616L513.927 735.502C512.543 738.787 511.392 742.179 510.186 745.533ZM520.756 720.805C519.779 722.774 518.814 724.721 517.716 726.626C517.118 727.663 516.872 728.262 516.944 729.501C517.759 730.459 517.9 730.446 519.235 730.532C520.089 730.587 520.993 730.505 521.849 730.469L524.254 730.248C524.781 728.754 524.507 727.532 523.846 726.1C523.095 724.471 522.111 721.989 520.756 720.805Z"/>
	<path fill="#FCFEFF" d="M576.204 745.612C574.702 745.537 573.136 745.66 571.842 744.8C570.724 739.916 571.682 716.267 571.708 709.66L576.114 709.66C576.132 709.803 576.12 709.953 576.167 710.088C577.402 713.645 576.633 740.164 576.204 745.612Z"/>
	<path fill="#FCFEFF" d="M682.132 744.482C681.914 744.433 681.696 744.387 681.479 744.334C678.974 743.722 675.285 742.138 674.147 739.624C673.682 738.595 673.576 737.508 674.146 736.484C674.808 735.295 675.674 734.875 676.907 734.485C679.433 735.147 679.018 737.955 681.28 739.219C682.783 740.059 684.685 740.132 686.286 739.535C687.629 739.035 688.803 738.076 689.286 736.69C691.512 730.301 678.355 726.968 675.747 721.216C674.971 719.505 674.609 717.561 675.347 715.765C676.651 712.588 679.701 710.956 682.625 709.562C683.101 709.542 683.578 709.52 684.054 709.517C687.012 709.498 690.444 710.094 692.591 712.328C693.751 713.535 694.469 715.029 694.397 716.676C694.203 716.816 694.035 717.002 693.815 717.097C692.126 717.827 687.518 715.567 685.84 714.981C684.651 714.566 683.517 714.817 682.445 715.521C681.357 716.236 681.228 716.936 680.897 718.092C681.75 721.933 689.175 725.046 692.059 727.783C693.995 729.619 695.59 731.962 695.599 734.723C695.607 737.251 694.253 740.155 692.421 741.869C689.598 744.51 685.754 744.518 682.132 744.482Z"/>
	<path fill="#FCFEFF" d="M549.398 714.332C547.177 714.351 544.133 715.117 542.165 714.019C541.423 712.498 541.681 711.618 541.799 709.952C548.431 709.891 556.207 709.026 562.699 710.099C562.89 710.535 562.979 710.667 563.038 711.204C563.17 712.386 563.04 713.488 562.26 714.345C559.496 714.59 556.752 714.488 553.983 714.423L553.988 738.125C554.015 739.643 554.133 741.261 553.979 742.77C553.806 744.462 552.903 745.328 551.677 746.318C550.834 746.232 550.791 746.413 550.3 745.835C547.687 742.756 549.292 719.469 549.398 714.332Z"/>
	<path fill="#01629C" d="M607.513 740.708C604.484 740.662 601.998 740.167 599.415 738.47Q598.865 738.111 598.354 737.699Q597.843 737.287 597.375 736.826Q596.908 736.365 596.488 735.86Q596.069 735.355 595.702 734.81Q595.335 734.266 595.024 733.687Q594.714 733.109 594.462 732.503Q594.21 731.896 594.02 731.268Q593.83 730.639 593.704 729.995Q593.579 729.343 593.52 728.682Q593.461 728.021 593.468 727.358Q593.475 726.694 593.548 726.035Q593.621 725.375 593.76 724.727Q593.898 724.078 594.101 723.446Q594.303 722.814 594.568 722.205Q594.833 721.597 595.157 721.018Q595.481 720.439 595.861 719.895C598.205 716.52 601.491 714.876 605.424 714.096C607.219 714.067 608.866 714.258 610.549 714.909C613.837 716.182 616.286 718.488 617.597 721.776Q617.857 722.441 618.049 723.13Q618.24 723.818 618.362 724.522Q618.483 725.226 618.533 725.939Q618.583 726.652 618.561 727.366Q618.538 728.08 618.444 728.788Q618.35 729.496 618.185 730.192Q618.02 730.887 617.786 731.562Q617.552 732.237 617.251 732.885C615.188 737.25 611.929 739.238 607.513 740.708Z"/>
	<path fill="#01629C" d="M447.171 740.884C445.187 740.831 443.269 740.575 441.45 739.74Q440.873 739.482 440.326 739.167Q439.779 738.851 439.267 738.481Q438.755 738.111 438.283 737.69Q437.812 737.269 437.386 736.802Q436.961 736.335 436.585 735.827Q436.21 735.319 435.888 734.775Q435.567 734.231 435.303 733.657Q435.039 733.083 434.836 732.485Q434.609 731.82 434.451 731.134Q434.294 730.449 434.208 729.751Q434.122 729.053 434.108 728.35Q434.095 727.647 434.154 726.947Q434.213 726.246 434.344 725.555Q434.476 724.864 434.677 724.191Q434.879 723.517 435.149 722.868Q435.419 722.219 435.755 721.601C437.926 717.64 441.058 715.734 445.304 714.572C447.838 714.49 450.463 715.028 452.662 716.321C455.624 718.062 457.591 720.878 458.331 724.22Q458.487 724.918 458.572 725.629Q458.657 726.339 458.671 727.054Q458.684 727.77 458.627 728.483Q458.569 729.196 458.441 729.899Q458.312 730.603 458.114 731.291Q457.916 731.978 457.651 732.642Q457.385 733.307 457.055 733.941Q456.724 734.576 456.332 735.174C454.094 738.518 451.02 740.093 447.171 740.884Z"/>
	<path fill="#01629C" d="M326.942 724.507L326.968 715.003C328.91 714.987 331.049 714.994 332.911 715.604C334.312 716.062 335.71 716.878 336.269 718.319C336.96 720.1 336.33 721.649 335.609 723.263C332.807 724.56 329.951 724.502 326.942 724.507Z"/>
	<path fill="#01629C" d="M180.831 737.192C179.256 737.046 177.725 736.953 176.244 736.34C173.478 735.195 171.071 733.061 170.068 730.188Q169.926 729.778 169.824 729.356Q169.723 728.934 169.663 728.504Q169.604 728.075 169.587 727.641Q169.57 727.207 169.595 726.774Q169.62 726.341 169.688 725.912Q169.756 725.484 169.865 725.064Q169.975 724.644 170.125 724.237Q170.275 723.83 170.464 723.439C172.063 720.134 174.98 718.615 178.306 717.506C179.574 717.467 180.921 717.414 182.154 717.746C184.585 718.401 186.817 720.001 187.934 722.286C189.219 724.913 189.11 727.955 188.005 730.622C186.569 734.088 184.194 735.778 180.831 737.192Z"/>
	<path fill="#01629C" d="M521.849 730.469C520.993 730.505 520.089 730.587 519.235 730.532C517.9 730.446 517.759 730.459 516.944 729.501C516.872 728.262 517.118 727.663 517.716 726.626C518.814 724.721 519.779 722.774 520.756 720.805C522.111 721.989 523.095 724.471 523.846 726.1C524.507 727.532 524.781 728.754 524.254 730.248L521.849 730.469Z"/>
</svg>
