<?xml version="1.0" encoding="utf-8" ?>
<svg xmlns="http://www.w3.org/2000/svg" xmlns:xlink="http://www.w3.org/1999/xlink" width="1024" height="1024">
	<path fill="#390099" d="M0 0L471.045 0C464.808 50.8544 449.654 100.496 430.479 147.913C425.598 159.981 420.744 172.07 415.023 183.772C423.006 190.074 431.975 195.022 440.427 200.66L501.797 241.397L591.487 300.952Q611.998 314.829 632.854 328.18C639.755 332.666 646.738 337.841 653.993 341.685Q667.26 350.406 680.292 359.476C685.369 362.577 690.681 365.297 695.696 368.498C712.084 378.959 728.035 390.297 744.27 401.028Q765.003 416.853 786.027 432.29C787.586 431.922 789.159 431.52 790.639 430.902C792.283 430.215 793.243 429.401 793.917 427.727C792.483 421.826 778.601 407.518 774.373 401.183L773.947 400.538C775.472 391.229 776.418 381.837 777.87 372.516C779.803 360.107 782.317 347.619 784.905 335.326C788.472 334.134 792.348 331.642 795.701 329.852C820.966 316.368 844.64 296.949 862.98 274.964C866.642 278.397 881.282 293.725 885.587 293.809C890.746 293.91 900.12 286.108 903.308 282.146C906.032 278.761 906.405 274.743 905.965 270.543C904.368 255.293 895.387 240.954 883.693 231.368C916.101 203.258 952.616 179.573 994.428 168.171C1004.09 165.537 1014.14 163.845 1024 162.164L1024 1024L0 1024L0 0ZM912.332 290.09C911.206 287.605 910.148 285.1 908.603 282.839C903.473 287.499 897.493 291.809 892.968 297.028C892.866 297.147 892.76 297.262 892.656 297.379C894.153 299.555 895.522 301.552 897.779 303.029C901.732 305.426 904.306 309.82 908.797 311.473C910.69 312.17 912.546 312.171 914.376 311.281C916.082 310.451 917.367 309.123 917.868 307.266C919.283 302.024 914.699 294.587 912.332 290.09ZM577.133 452.492L541.65 452.552L541.596 466.487C535.182 460.251 528.024 456.117 520.571 451.316L497.394 436.463L431.113 394.483L363.828 350.864C354.322 344.732 345.016 338.18 335.236 332.492C308.379 381.989 276.25 428.78 243.716 474.663C231.662 491.662 219.575 508.728 206.349 524.844C202.375 529.687 198.474 534.777 194.103 539.256C209.978 551.433 227.563 561.745 244.146 572.964C262.095 585.109 279.334 598.283 297.459 610.199L297.549 619.013L304.939 618.902L304.987 612.694C308.438 616.043 312.806 618.745 316.729 621.517C325.606 627.787 334.707 633.703 343.604 639.932L427.772 698.793C444.287 710.132 462.26 720.631 477.659 733.422C480.672 728.189 484.596 723.262 487.963 718.225C493.947 709.272 499.69 700.306 505.834 691.44C508.984 686.895 511.762 682.084 514.822 677.473C519.535 670.369 524.511 663.413 529.365 656.402C541.254 639.228 553.564 622.364 564.673 604.698C564.674 607.69 563.543 615.231 564.716 617.438C566.693 619.044 569.226 618.865 571.707 619.084C572.112 611.481 571.929 603.793 571.958 596.178C579.031 590.538 588.68 572.919 594.184 564.791C603.814 550.571 614.323 537.562 622.397 522.227C616.792 517.868 595.606 502.105 589.917 501.241C589.992 497.792 589.745 494.405 589.479 490.969L577.326 490.924C573.293 486.614 558.572 476.479 553.015 472.478L553.017 462.99Q571.306 463.395 589.6 463.422C598.244 467.949 606.381 474.225 614.674 479.422C623.435 484.913 633.409 489.946 641.576 496.211C644.612 492.75 647.599 487.995 650.959 484.974C653.914 489.549 657.36 492.775 661.952 495.675C671.879 501.944 693.763 507.094 690.715 522.518C689.932 526.483 687.361 529.753 684.005 531.914C678.597 535.397 672.264 535.708 666.165 534.247C659.287 532.6 654.357 528.328 648.031 525.701C645.765 527.974 643.873 530.091 642.315 532.938C648.756 540.289 658.827 544.821 668.535 545.531C677.578 546.192 687.709 543.571 694.654 537.574C699.556 533.342 702.518 527.738 702.978 521.258Q703.026 520.667 703.044 520.075Q703.062 519.482 703.051 518.889Q703.04 518.297 702.999 517.705Q702.958 517.114 702.888 516.525Q702.818 515.937 702.719 515.352Q702.619 514.768 702.491 514.189Q702.362 513.611 702.205 513.039Q702.048 512.467 701.863 511.904Q701.677 511.341 701.464 510.788Q701.251 510.235 701.011 509.693Q700.77 509.151 700.503 508.622Q700.236 508.093 699.943 507.578Q699.65 507.063 699.331 506.563Q699.013 506.063 698.67 505.579Q698.327 505.096 697.96 504.63Q697.593 504.164 697.204 503.717C689.031 494.306 676.17 492.172 666.482 485.122C669.724 482.842 678.902 483.289 682.985 483.205C693.957 482.981 705.207 485.377 713.312 493.229C730.588 509.964 724.68 529.837 725 550.799C725.076 555.846 726.091 562.059 730.001 565.612C732.01 567.438 734.696 568.053 737.357 567.877C754.14 566.771 741.918 531.298 749.041 522.862L750.078 523.035L749.43 522.51C750.788 521.835 750.767 521.725 752.214 522.108C754.608 525 754.563 529.74 754.552 533.364C754.519 543.845 752.577 554.586 751.208 564.971C750.307 571.796 749.813 578.685 749.132 585.536C748.4 592.902 747.461 600.409 748.406 607.798C749.183 613.867 751.59 620.06 756.64 623.82C760.291 626.539 765.721 627.977 770.231 627.19C774.67 626.414 778.557 623.564 781.144 619.955C792.738 603.781 784.084 571.531 780.882 553.107C780.053 548.337 777.935 527.703 780.658 524.676C781.852 523.348 784.252 522.266 785.834 521.372C791.3 518.284 795.709 514.915 799.305 509.693C805.011 501.41 805.554 490.089 803.611 480.459C801.805 471.504 796.118 461.887 789.143 455.99C778.295 446.819 765.454 439.673 753.592 431.919C741.201 423.818 728.976 415.43 716.479 407.496C701.645 398.078 686.491 389.118 671.806 379.452Q538.608 292.547 407.105 203.101C399.249 220.897 390.557 238.26 381.939 255.691C372.627 274.527 364.226 291.753 353.299 309.861C371.015 319.937 387.497 332.304 404.677 343.282L531.003 424Q547.38 434.254 563.933 444.222C567.668 446.457 572.177 448.211 575.657 450.732C576.341 451.228 576.68 451.8 577.133 452.492ZM918.117 328.871C915.276 337.658 908.235 353.886 912.693 362.712C913.736 364.778 915.653 366.563 917.912 367.179C918.191 367.255 918.472 367.318 918.752 367.387C921.312 366.363 922.957 365.539 924.051 362.893C926.692 356.502 921.796 335.828 918.614 329.674C918.469 329.395 918.283 329.139 918.117 328.871ZM898.148 373.853C893.691 382.551 890.152 393.426 890.028 403.286C891.879 406.747 893.378 409.009 896.686 411.306C899.466 410.063 901.468 408.299 902.586 405.412C903.425 403.244 903.789 400.946 903.788 398.627C903.786 394.367 900.848 378.096 898.674 374.469C898.535 374.237 898.323 374.058 898.148 373.853ZM689.773 562.688C681.595 563.56 674.65 566.506 669.337 572.988Q668.875 573.553 668.442 574.141Q668.009 574.728 667.605 575.336Q667.201 575.944 666.828 576.572Q666.455 577.199 666.113 577.844Q665.771 578.489 665.461 579.149Q665.151 579.81 664.874 580.486Q664.597 581.161 664.354 581.849Q664.111 582.537 663.901 583.237Q663.692 583.936 663.518 584.645Q663.343 585.354 663.204 586.07Q663.065 586.787 662.961 587.509Q662.857 588.232 662.789 588.958Q662.721 589.685 662.688 590.414Q662.656 591.143 662.66 591.873Q662.663 592.603 662.703 593.332Q662.743 594.061 662.818 594.787Q662.893 595.454 663.001 596.117Q663.109 596.78 663.25 597.437Q663.39 598.093 663.563 598.742Q663.735 599.391 663.939 600.031Q664.144 600.671 664.379 601.3Q664.615 601.928 664.881 602.545Q665.147 603.162 665.443 603.764Q665.739 604.367 666.064 604.954Q666.39 605.542 666.744 606.113Q667.097 606.683 667.479 607.236Q667.86 607.789 668.269 608.322Q668.677 608.855 669.111 609.367Q669.545 609.88 670.003 610.371Q670.462 610.861 670.944 611.328Q671.426 611.796 671.931 612.239Q672.435 612.682 672.961 613.1C679.025 617.887 686.195 619.726 693.805 618.776C699.885 618.017 705.632 615.819 710.817 612.603C710.784 604.965 710.88 597.298 710.549 589.667C706.498 589.699 693.168 588.771 690.611 591.313C690.149 592.814 690.174 593.039 690.563 594.567C691.509 595.496 691.558 595.508 692.875 595.689L703.954 595.532L703.985 609.527C697.131 612.506 690.171 613.454 682.976 610.756C677.938 608.866 673.854 605.229 671.621 600.307C669.156 594.874 669.242 588.705 671.366 583.178C673.459 577.733 677.598 572.963 683.002 570.63C688.387 568.306 694.559 568.587 699.933 570.783C702.886 571.99 705.488 573.695 707.949 575.707C709.406 574.137 710.924 572.597 712.281 570.94C705.65 565.666 698.53 561.924 689.773 562.688ZM595.065 563.459C594.333 571.099 594.56 578.854 594.568 586.523Q594.52 602.534 594.791 618.544L601.552 618.448L601.481 573.659C606.139 579.874 632.019 615.949 636.476 618.486C638.057 618.557 638.986 618.38 640.365 617.615L641.718 617.956C643.345 615.688 642.12 569.078 641.999 563.268C639.792 563.434 637.509 563.488 635.328 563.855Q635.129 585.6 635.519 607.342Q618.204 585.69 601.63 563.465L595.065 563.459ZM177.471 567.941C168.812 592.304 164.407 613.774 166.111 639.714L166.613 640.124C172.953 645.208 180.146 649.247 186.645 654.168C206.1 668.901 224.205 689.878 227.08 714.989C230.537 745.182 213.025 771.153 195.04 793.526C184.35 806.825 172.618 819.282 161.828 832.517C133.889 866.787 98.0559 918.113 102.817 964.702C103.488 971.261 105.242 978.174 110.499 982.597C115.299 986.636 121.196 988.02 127.358 987.389C151.942 984.872 177.64 959.869 192.495 941.286C209.724 919.734 221.875 895.711 233.116 870.663C248.981 833.726 258.369 793.472 300.008 776.979C324.715 767.193 353.283 772.484 376.958 782.842C385.319 786.5 393.007 791.71 400.978 796.123C421.368 785.332 447.96 776.738 461.446 756.85L263.725 625.266L206.968 587.277C197.294 580.805 187.662 573.552 177.471 567.941Z"/>
	<path fill="#FF5400" d="M471.045 0L1024 0L1024 162.164C1014.14 163.845 1004.09 165.537 994.428 168.171C952.616 179.573 916.101 203.258 883.693 231.368C895.387 240.954 904.368 255.293 905.965 270.543C906.405 274.743 906.032 278.761 903.308 282.146C900.12 286.108 890.746 293.91 885.587 293.809C881.282 293.725 866.642 278.397 862.98 274.964C844.64 296.949 820.966 316.368 795.701 329.852C792.348 331.642 788.472 334.134 784.905 335.326C779.192 324.235 772.192 314.338 764.267 304.754C760.894 300.674 756.757 296.728 753.865 292.328C755.693 281.897 758.711 272.8 762.685 263.004C764.435 266.217 766.002 269.065 768.738 271.579C776.813 278.997 800.48 287.239 811.744 290.489C814.751 291.356 818.133 292.043 821.004 290.444C831.724 284.471 845.22 256.669 854.225 246.632C856.163 244.472 858.32 242.325 860.754 240.723C863.341 239.02 869.098 237.845 870.159 234.884C869.812 234.356 869.751 233.978 869.08 233.815C864.528 232.714 855.688 238.449 852.127 241.059C840.856 249.318 831.962 269.958 813.661 267.234C805.364 265.999 794.584 259.847 789.728 252.974C787.05 249.184 786.624 245.282 787.509 240.788C788.744 234.519 791.751 227.494 791.051 221.064C790.65 217.381 788.858 213.08 789.022 209.519C789.071 208.457 789.559 208.482 790.367 207.885C794.229 207.108 797.557 209.299 800.981 210.819C804.266 207.342 809.232 202.597 810.383 197.816C810.884 195.736 810.738 193.125 811.858 191.302C812.2 191.301 812.541 191.307 812.882 191.299C814.194 191.269 815.043 190.986 815.977 190.008C818.999 186.841 819.937 180.632 820.751 176.458C814.551 168.03 811.002 158.889 799.432 157.06C794.354 156.258 789.516 156.997 785.329 160.097C777.852 165.633 778.254 171.916 776.677 180.019L776.095 180.401C764.005 188.176 752.719 180.323 740.382 183.985C737.066 184.969 734.102 186.878 731.489 189.11C725.49 194.236 710.266 212.528 705.943 219.438C704.4 221.903 703.164 224.579 702.571 227.438C701.946 230.45 702.352 232.487 704.058 235.006L705.169 235.514C706.802 234.71 707.466 233.234 708.902 232.206C704.797 241.674 700.663 251.239 697.008 260.889C694.587 267.279 692.95 273.981 689.757 280.055C686.386 286.469 682.183 292.507 678.499 298.75C673.338 307.497 668.589 316.47 663.486 325.246C660.449 330.469 655.989 336.002 653.993 341.685C646.738 337.841 639.755 332.666 632.854 328.18Q611.998 314.829 591.487 300.952L501.797 241.397L440.427 200.66C431.975 195.022 423.006 190.074 415.023 183.772C420.744 172.07 425.598 159.981 430.479 147.913C449.654 100.496 464.808 50.8544 471.045 0Z"/>
	<path fill="#FBFCF9" d="M753.865 292.328C756.757 296.728 760.894 300.674 764.267 304.754C772.192 314.338 779.192 324.235 784.905 335.326C782.317 347.619 779.803 360.107 777.87 372.516C776.418 381.837 775.472 391.229 773.947 400.538L774.373 401.183C778.601 407.518 792.483 421.826 793.917 427.727C793.243 429.401 792.283 430.215 790.639 430.902C789.159 431.52 787.586 431.922 786.027 432.29Q765.003 416.853 744.27 401.028C744.75 382.026 752.189 363.663 752.703 344.523C747.68 338.316 730.506 324.814 723.366 320.471C710.172 325.614 690.631 348.404 680.292 359.476Q667.26 350.406 653.993 341.685C655.989 336.002 660.449 330.469 663.486 325.246C668.589 316.47 673.338 307.497 678.499 298.75C682.183 292.507 686.386 286.469 689.757 280.055C692.95 273.981 694.587 267.279 697.008 260.889C700.663 251.239 704.797 241.674 708.902 232.206C707.466 233.234 706.802 234.71 705.169 235.514L704.058 235.006C702.352 232.487 701.946 230.45 702.571 227.438C703.164 224.579 704.4 221.903 705.943 219.438C710.266 212.528 725.49 194.236 731.489 189.11C734.102 186.878 737.066 184.969 740.382 183.985C752.719 180.323 764.005 188.176 776.095 180.401L776.677 180.019C778.254 171.916 777.852 165.633 785.329 160.097C789.516 156.997 794.354 156.258 799.432 157.06C811.002 158.889 814.551 168.03 820.751 176.458C819.937 180.632 818.999 186.841 815.977 190.008C815.043 190.986 814.194 191.269 812.882 191.299C812.541 191.307 812.2 191.301 811.858 191.302C810.738 193.125 810.884 195.736 810.383 197.816C809.232 202.597 804.266 207.342 800.981 210.819C797.557 209.299 794.229 207.108 790.367 207.885C789.559 208.482 789.071 208.457 789.022 209.519C788.858 213.08 790.65 217.381 791.051 221.064C791.751 227.494 788.744 234.519 787.509 240.788C786.624 245.282 787.05 249.184 789.728 252.974C794.584 259.847 805.364 265.999 813.661 267.234C831.962 269.958 840.856 249.318 852.127 241.059C855.688 238.449 864.528 232.714 869.08 233.815C869.751 233.978 869.812 234.356 870.159 234.884C869.098 237.845 863.341 239.02 860.754 240.723C858.32 242.325 856.163 244.472 854.225 246.632C845.22 256.669 831.724 284.471 821.004 290.444C818.133 292.043 814.751 291.356 811.744 290.489C800.48 287.239 776.813 278.997 768.738 271.579C766.002 269.065 764.435 266.217 762.685 263.004C758.711 272.8 755.693 281.897 753.865 292.328Z"/>
	<path fill="#BC02A3" d="M577.133 452.492C576.68 451.8 576.341 451.228 575.657 450.732C572.177 448.211 567.668 446.457 563.933 444.222Q547.38 434.254 531.003 424L404.677 343.282C387.497 332.304 371.015 319.937 353.299 309.861C364.226 291.753 372.627 274.527 381.939 255.691C390.557 238.26 399.249 220.897 407.105 203.101Q538.607 292.547 671.806 379.452C686.491 389.118 701.645 398.078 716.479 407.496C728.976 415.43 741.201 423.818 753.592 431.919C765.454 439.673 778.295 446.819 789.143 455.99C796.118 461.887 801.805 471.504 803.611 480.459C805.554 490.089 805.011 501.41 799.305 509.693C795.709 514.915 791.3 518.284 785.834 521.372C784.252 522.266 781.852 523.348 780.658 524.676C777.935 527.703 780.053 548.337 780.882 553.107C784.084 571.531 792.738 603.781 781.144 619.955C778.557 623.564 774.67 626.414 770.231 627.19C765.721 627.977 760.291 626.539 756.64 623.82C751.59 620.06 749.183 613.867 748.406 607.798C747.461 600.409 748.4 592.902 749.132 585.536C749.813 578.685 750.307 571.796 751.208 564.971C752.577 554.586 754.519 543.845 754.552 533.364C754.563 529.74 754.608 525 752.214 522.108C750.767 521.725 750.788 521.835 749.43 522.51L750.078 523.035L749.041 522.862C741.918 531.298 754.14 566.771 737.357 567.877C734.696 568.053 732.01 567.438 730.001 565.612C726.091 562.059 725.076 555.846 725 550.799C724.68 529.837 730.588 509.964 713.312 493.229C705.207 485.377 693.957 482.981 682.985 483.205C678.902 483.289 669.724 482.842 666.482 485.122C666.338 485.021 666.194 484.923 666.051 484.821C663.075 482.69 660.181 479.291 659.613 475.559C659.11 472.255 660.263 469.007 662.338 466.442C665.221 462.879 669.52 461.159 674.001 460.78C682.166 460.091 688.849 462.917 695.067 468.005C696.202 464.081 697.031 460.222 697.706 456.193C696.311 455.388 694.903 454.572 693.432 453.912C684.6 449.95 673.214 449.109 664.111 452.643C658.154 454.957 652.388 459.394 649.934 465.429C647.288 471.934 648.198 478.738 650.959 484.974C647.599 487.995 644.612 492.75 641.576 496.211C633.409 489.946 623.435 484.913 614.674 479.422C606.381 474.225 598.244 467.949 589.6 463.422L589.778 452.503L577.133 452.492ZM620.059 451.466C618.315 459.393 616.164 466.968 613.374 474.593C616.358 474.452 619.47 474.44 622.344 473.535C627.934 467.552 629.72 459.657 630.09 451.694L620.059 451.466Z"/>
	<path fill="#FBFCF9" d="M912.332 290.09C908.147 295.163 903.403 299.585 897.779 303.029C895.522 301.552 894.153 299.555 892.656 297.379C892.76 297.262 892.866 297.147 892.968 297.028C897.493 291.809 903.473 287.499 908.603 282.839C910.148 285.1 911.206 287.605 912.332 290.09Z"/>
	<path fill="#FF5400" d="M897.779 303.029C903.403 299.585 908.147 295.163 912.332 290.09C914.699 294.587 919.283 302.024 917.868 307.266C917.367 309.123 916.082 310.451 914.376 311.281C912.546 312.171 910.69 312.17 908.797 311.473C904.306 309.82 901.732 305.426 897.779 303.029Z"/>
	<path fill="#FF5400" d="M680.292 359.476C690.631 348.404 710.172 325.614 723.366 320.471C730.506 324.814 747.68 338.316 752.703 344.523C752.189 363.663 744.75 382.026 744.27 401.028C728.035 390.297 712.084 378.959 695.696 368.498C690.681 365.297 685.369 362.577 680.292 359.476Z"/>
	<path fill="#FF5400" d="M918.752 367.387C918.472 367.318 918.191 367.255 917.912 367.179C915.653 366.563 913.736 364.778 912.693 362.712C908.235 353.886 915.276 337.658 918.117 328.871C918.283 329.139 918.469 329.395 918.614 329.674C921.796 335.828 926.692 356.502 924.051 362.893C922.957 365.539 921.312 366.363 918.752 367.387Z"/>
	<path fill="#FF0054" d="M335.236 332.492C345.016 338.18 354.322 344.732 363.828 350.864L431.113 394.483L497.394 436.463L520.571 451.316C528.024 456.117 535.182 460.251 541.596 466.487C541.556 492.264 540.78 518.19 541.335 543.947C557.458 543.076 573.807 543.618 589.954 543.668L589.94 533.077L552.917 533.257L552.89 501.18C561.393 501.323 582.872 502.684 589.917 501.241C595.606 502.105 616.792 517.868 622.397 522.227C614.323 537.562 603.814 550.571 594.184 564.791C588.68 572.919 579.031 590.538 571.958 596.178Q571.675 579.836 571.642 563.491L564.911 563.471C564.887 577.196 565.119 590.983 564.673 604.698C553.564 622.364 541.254 639.228 529.365 656.402C524.511 663.413 519.535 670.369 514.822 677.473C511.762 682.084 508.984 686.895 505.834 691.44C499.69 700.306 493.947 709.272 487.963 718.225C484.596 723.262 480.672 728.189 477.659 733.422C462.26 720.631 444.287 710.132 427.772 698.793L343.604 639.932C334.707 633.703 325.606 627.787 316.729 621.517C312.806 618.745 308.438 616.043 304.987 612.694C304.841 606.831 304.92 600.945 304.897 595.079C312.028 595.213 321.378 596.38 327.024 591.212C330.298 588.214 331.689 583.884 331.718 579.53C331.747 575.172 330.427 570.667 327.21 567.589C320.929 561.578 306.245 563.493 297.894 563.516L297.459 610.199C279.334 598.283 262.095 585.109 244.146 572.964C227.563 561.745 209.978 551.433 194.103 539.256C198.474 534.777 202.375 529.687 206.349 524.844C219.575 508.728 231.662 491.662 243.716 474.663C276.25 428.78 308.379 381.989 335.236 332.492ZM303.554 452.477C304.358 483.044 303.174 513.627 303.881 544.175L315.063 543.975C315.486 531.154 315.262 518.318 315.269 505.492L327.375 505.78C338.332 505.976 349.081 505.864 357.531 497.81Q357.995 497.372 358.436 496.911Q358.876 496.449 359.292 495.966Q359.709 495.482 360.099 494.978Q360.49 494.473 360.854 493.949Q361.217 493.425 361.554 492.883Q361.89 492.341 362.198 491.782Q362.505 491.223 362.784 490.649Q363.062 490.075 363.31 489.487Q363.559 488.899 363.776 488.299Q363.994 487.7 364.18 487.089Q364.366 486.479 364.52 485.86Q364.674 485.241 364.796 484.615Q364.918 483.988 365.008 483.357Q365.097 482.725 365.154 482.09Q365.21 481.454 365.234 480.816Q365.257 480.179 365.248 479.541C365.19 472.553 362.677 465.614 357.554 460.741C348.421 452.054 335.975 452.528 324.256 452.509C317.356 452.498 310.453 452.558 303.554 452.477ZM399.942 452.75L388.688 452.878C389.382 483.219 388.841 513.648 388.986 544.004C406.104 543.954 423.303 544.353 440.407 543.913L440.361 532.649C427.122 532.643 413.761 532.286 400.538 532.844L400.618 518.984L400.612 501.742Q419.017 502.101 437.425 501.934L437.463 491.539L400.511 491.562Q400.593 477.361 400.467 463.16Q420.121 463.68 439.781 463.518L439.852 452.566Q419.897 452.541 399.942 452.75ZM457.13 452.354L457.308 463.44L482.527 463.415Q482.391 503.493 482.708 543.566L494.053 543.518L494.05 517.75L494.061 463.311C502.474 463.35 510.892 463.459 519.3 463.114L519.369 452.396Q488.249 452.71 457.13 452.354ZM364.991 563.467C360.37 573.594 356.657 584.159 352.522 594.492C349.315 602.506 345.163 610.646 343.075 619.012L350.084 618.921C352.322 613.12 354.492 607.28 356.839 601.523C361.433 601.605 366.035 601.744 370.63 601.668L379.768 601.68C381.348 607.563 383.62 613.135 385.489 618.914L393.205 618.948C387.116 600.183 378.504 581.807 371.235 563.434L364.991 563.467ZM412.245 563.643C411.316 564.281 411.196 564.338 411.003 565.52C410.209 570.398 410.876 576.465 410.887 581.446Q410.984 600.096 410.89 618.746L417.053 618.617L417.881 618.222C418.511 608.174 418.105 597.88 418.151 587.805C418.187 580.124 418.855 571.821 418.008 564.211L417.52 563.679C415.755 563.619 414.01 563.559 412.245 563.643ZM440.934 563.515Q440.77 591.191 440.921 618.867L448.117 618.836C448.197 604.137 447.717 589.189 448.478 574.518C454.667 581.246 459.839 589.095 465.416 596.345C471.134 603.778 477.376 610.888 482.813 618.522L489.629 618.246L489.59 563.497L482.747 563.5Q482.587 585.601 482.944 607.701C470.707 593.54 460.352 577.772 448.26 563.473C445.821 563.475 443.372 563.429 440.934 563.515ZM506.478 563.454L506.776 570.328L523.211 570.259C523.792 576.184 523.509 582.277 523.506 588.232L523.477 618.481L530.878 618.495Q530.989 609.623 530.985 600.75L531.032 570.465L548.527 570.443L548.497 563.799Q527.489 563.495 506.478 563.454Z"/>
	<path fill="#FF5400" d="M890.028 403.286C890.152 393.426 893.691 382.551 898.148 373.853C898.323 374.058 898.535 374.237 898.674 374.469C900.848 378.096 903.786 394.367 903.788 398.627C903.789 400.946 903.425 403.244 902.586 405.412C901.468 408.299 899.466 410.063 896.686 411.306C893.378 409.009 891.879 406.747 890.028 403.286Z"/>
	<path fill="#FBFCF9" d="M650.959 484.974C648.198 478.738 647.288 471.934 649.934 465.429C652.388 459.394 658.154 454.957 664.111 452.643C673.214 449.109 684.6 449.95 693.432 453.912C694.903 454.572 696.311 455.388 697.706 456.193C697.031 460.222 696.202 464.081 695.067 468.005C688.849 462.917 682.166 460.091 674.001 460.78C669.52 461.159 665.221 462.879 662.338 466.442C660.263 469.007 659.11 472.255 659.613 475.559C660.181 479.291 663.075 482.69 666.051 484.821C666.194 484.923 666.338 485.021 666.482 485.122C676.17 492.172 689.031 494.306 697.204 503.717Q697.593 504.164 697.96 504.63Q698.327 505.096 698.67 505.579Q699.013 506.063 699.331 506.563Q699.65 507.063 699.943 507.578Q700.236 508.093 700.503 508.622Q700.77 509.151 701.011 509.693Q701.251 510.235 701.464 510.788Q701.677 511.341 701.863 511.904Q702.048 512.467 702.205 513.039Q702.362 513.611 702.491 514.189Q702.619 514.768 702.718 515.352Q702.818 515.937 702.888 516.525Q702.958 517.114 702.999 517.705Q703.04 518.297 703.051 518.889Q703.062 519.482 703.044 520.075Q703.026 520.667 702.978 521.258C702.518 527.738 699.556 533.342 694.654 537.574C687.709 543.571 677.578 546.192 668.535 545.531C658.827 544.821 648.756 540.289 642.315 532.938C643.873 530.091 645.765 527.974 648.031 525.701C654.357 528.328 659.287 532.6 666.165 534.247C672.264 535.708 678.597 535.397 684.005 531.914C687.361 529.753 689.932 526.483 690.715 522.518C693.763 507.094 671.879 501.944 661.952 495.675C657.36 492.775 653.914 489.549 650.959 484.974Z"/>
	<path fill="#FBFCF9" d="M613.374 474.593C616.164 466.968 618.315 459.393 620.059 451.466L630.09 451.694C629.72 459.657 627.934 467.552 622.344 473.535C619.47 474.44 616.358 474.452 613.374 474.593Z"/>
	<path fill="#FBFCF9" d="M303.881 544.175C303.174 513.627 304.358 483.044 303.554 452.477C310.453 452.558 317.356 452.498 324.256 452.509C335.975 452.528 348.421 452.054 357.554 460.741C362.677 465.614 365.19 472.553 365.248 479.541Q365.257 480.179 365.234 480.817Q365.21 481.454 365.154 482.09Q365.097 482.725 365.008 483.357Q364.918 483.988 364.796 484.615Q364.674 485.241 364.52 485.86Q364.366 486.479 364.18 487.089Q363.994 487.7 363.776 488.299Q363.559 488.899 363.31 489.487Q363.062 490.075 362.784 490.649Q362.505 491.223 362.198 491.782Q361.89 492.341 361.554 492.883Q361.217 493.425 360.854 493.949Q360.49 494.473 360.099 494.978Q359.709 495.482 359.292 495.966Q358.876 496.449 358.436 496.911Q357.995 497.372 357.531 497.81C349.081 505.864 338.332 505.976 327.375 505.78L315.269 505.492C315.262 518.318 315.486 531.154 315.063 543.975L303.881 544.175ZM315.364 462.973C315.312 473.812 315.33 484.651 314.818 495.481C325.616 495.539 339.815 497.666 348.871 490.827C352.039 486.822 353.889 482.899 353.344 477.645C352.922 473.589 351.382 469.946 348.125 467.372C340.244 461.145 324.997 463.079 315.364 462.973Z"/>
	<path fill="#FBFCF9" d="M388.688 452.878L399.942 452.75Q419.897 452.541 439.852 452.566L439.781 463.518Q420.121 463.68 400.467 463.16Q400.593 477.361 400.511 491.562L437.463 491.539L437.425 501.934Q419.017 502.101 400.612 501.742L400.618 518.984L400.538 532.844C413.761 532.286 427.122 532.643 440.361 532.649L440.407 543.913C423.303 544.353 406.104 543.954 388.986 544.004C388.841 513.648 389.382 483.219 388.688 452.878Z"/>
	<path fill="#FBFCF9" d="M457.308 463.44L457.13 452.354Q488.249 452.71 519.369 452.396L519.3 463.114C510.892 463.459 502.474 463.35 494.061 463.311L494.05 517.75L494.053 543.518L482.708 543.566Q482.391 503.49 482.527 463.415L457.308 463.44Z"/>
	<path fill="#FBFCF9" d="M541.65 452.552L577.133 452.492L589.778 452.503L589.6 463.422Q571.306 463.395 553.017 462.99L553.015 472.478C552.943 478.612 553.063 484.831 552.612 490.946L577.326 490.924L589.479 490.969C589.745 494.405 589.992 497.792 589.917 501.241C582.872 502.684 561.393 501.323 552.89 501.18L552.917 533.257L589.94 533.077L589.954 543.668C573.807 543.618 557.458 543.076 541.335 543.947C540.78 518.19 541.556 492.264 541.596 466.487L541.65 452.552Z"/>
	<path fill="#FF0054" d="M314.818 495.481C315.33 484.651 315.312 473.812 315.364 462.973C324.997 463.079 340.244 461.145 348.125 467.372C351.382 469.946 352.922 473.589 353.344 477.645C353.889 482.899 352.039 486.822 348.871 490.827C339.815 497.666 325.616 495.539 314.818 495.481Z"/>
	<path fill="#FF0054" d="M553.015 472.478C558.572 476.479 573.293 486.614 577.326 490.924L552.612 490.946C553.063 484.831 552.943 478.612 553.015 472.478Z"/>
	<path fill="#FBFCF9" d="M710.817 612.603C705.632 615.819 699.885 618.017 693.805 618.776C686.195 619.726 679.025 617.887 672.961 613.1Q672.435 612.682 671.931 612.239Q671.426 611.796 670.944 611.328Q670.462 610.861 670.003 610.371Q669.545 609.88 669.111 609.367Q668.677 608.855 668.269 608.322Q667.86 607.789 667.479 607.236Q667.097 606.683 666.744 606.113Q666.39 605.542 666.064 604.954Q665.739 604.367 665.443 603.764Q665.147 603.161 664.881 602.545Q664.615 601.928 664.379 601.299Q664.144 600.671 663.939 600.031Q663.735 599.391 663.563 598.742Q663.39 598.093 663.25 597.437Q663.109 596.78 663.001 596.117Q662.893 595.454 662.818 594.787Q662.743 594.061 662.703 593.332Q662.663 592.603 662.66 591.873Q662.656 591.144 662.688 590.414Q662.721 589.685 662.789 588.958Q662.857 588.232 662.961 587.509Q663.065 586.787 663.204 586.07Q663.343 585.354 663.518 584.645Q663.692 583.936 663.901 583.237Q664.11 582.537 664.354 581.849Q664.597 581.161 664.874 580.486Q665.151 579.81 665.461 579.149Q665.771 578.489 666.113 577.844Q666.455 577.199 666.828 576.572Q667.201 575.944 667.605 575.336Q668.009 574.728 668.442 574.141Q668.875 573.553 669.337 572.988C674.65 566.506 681.595 563.56 689.773 562.688C698.53 561.924 705.65 565.666 712.281 570.94C710.924 572.597 709.406 574.137 707.949 575.707C705.488 573.695 702.886 571.99 699.933 570.783C694.559 568.587 688.387 568.306 683.002 570.63C677.598 572.963 673.459 577.733 671.366 583.178C669.242 588.705 669.156 594.874 671.621 600.307C673.854 605.229 677.938 608.866 682.976 610.756C690.171 613.454 697.131 612.506 703.985 609.527L703.954 595.532L692.875 595.689C691.558 595.508 691.509 595.496 690.563 594.567C690.174 593.039 690.149 592.814 690.611 591.313C693.168 588.771 706.498 589.699 710.549 589.667C710.88 597.298 710.784 604.965 710.817 612.603Z"/>
	<path fill="#FBFCF9" d="M297.459 610.199L297.894 563.516C306.245 563.493 320.929 561.578 327.21 567.589C330.427 570.667 331.747 575.172 331.718 579.53C331.689 583.884 330.298 588.214 327.024 591.212C321.378 596.38 312.028 595.213 304.897 595.079C304.92 600.945 304.841 606.831 304.987 612.694L304.939 618.902L297.549 619.013L297.459 610.199ZM304.932 569.911C304.87 576.203 304.944 582.536 304.663 588.821C310.093 588.805 316.73 589.525 321.482 586.513C323.444 584.174 325.157 580.898 324.909 577.735C324.749 575.699 323.414 574.034 321.877 572.8C317.184 569.033 310.56 569.807 304.932 569.911Z"/>
	<path fill="#FBFCF9" d="M343.075 619.012C345.163 610.646 349.315 602.506 352.522 594.492C356.657 584.159 360.37 573.594 364.991 563.467L371.235 563.434C378.504 581.807 387.116 600.183 393.205 618.948L385.489 618.914C383.62 613.135 381.348 607.563 379.768 601.68L370.63 601.668C366.035 601.744 361.433 601.605 356.839 601.523C354.492 607.28 352.322 613.12 350.084 618.921L343.075 619.012ZM368.192 572.771C364.799 580.121 361.786 587.778 359.089 595.409L367.875 595.394L377.218 595.402C375.484 590.589 371.199 575.868 368.192 572.771Z"/>
	<path fill="#FBFCF9" d="M410.89 618.746Q410.984 600.096 410.887 581.446C410.876 576.465 410.209 570.398 411.003 565.52C411.196 564.338 411.316 564.281 412.245 563.643C414.01 563.559 415.755 563.619 417.52 563.679L418.008 564.211C418.855 571.821 418.187 580.124 418.151 587.805C418.105 597.88 418.511 608.174 417.881 618.222L417.053 618.617L410.89 618.746Z"/>
	<path fill="#FBFCF9" d="M440.921 618.867Q440.77 591.19 440.934 563.515C443.372 563.429 445.821 563.475 448.26 563.473C460.352 577.772 470.707 593.54 482.944 607.701Q482.587 585.602 482.747 563.5L489.59 563.497L489.629 618.246L482.813 618.522C477.376 610.888 471.134 603.778 465.416 596.345C459.839 589.095 454.667 581.246 448.478 574.518C447.717 589.189 448.197 604.137 448.117 618.836L440.921 618.867Z"/>
	<path fill="#FBFCF9" d="M506.776 570.328L506.478 563.454Q527.489 563.496 548.497 563.799L548.527 570.443L531.032 570.465L530.985 600.75Q530.989 609.623 530.878 618.495L523.477 618.481L523.506 588.232C523.509 582.277 523.792 576.184 523.211 570.259L506.776 570.328Z"/>
	<path fill="#FBFCF9" d="M571.642 563.491Q571.675 579.836 571.958 596.178C571.929 603.793 572.112 611.481 571.707 619.084C569.226 618.865 566.693 619.044 564.716 617.438C563.543 615.231 564.674 607.69 564.673 604.698C565.119 590.983 564.887 577.196 564.911 563.471L571.642 563.491Z"/>
	<path fill="#FBFCF9" d="M594.791 618.544Q594.52 602.535 594.568 586.523C594.56 578.854 594.333 571.099 595.065 563.459L601.63 563.465Q618.204 585.69 635.519 607.342Q635.129 585.6 635.328 563.855C637.509 563.488 639.792 563.434 641.999 563.268C642.12 569.078 643.345 615.688 641.718 617.956L640.365 617.615C638.986 618.38 638.057 618.557 636.476 618.486C632.019 615.949 606.139 579.874 601.481 573.659L601.552 618.448L594.791 618.544Z"/>
	<path fill="#FBFCF9" d="M166.111 639.714C164.407 613.774 168.812 592.304 177.471 567.941C187.662 573.552 197.294 580.805 206.968 587.277L263.725 625.266L461.446 756.85C447.96 776.738 421.368 785.332 400.978 796.123C393.007 791.71 385.319 786.5 376.958 782.842C353.283 772.484 324.715 767.193 300.008 776.979C258.369 793.472 248.981 833.726 233.116 870.663C221.875 895.711 209.724 919.734 192.495 941.286C177.64 959.869 151.942 984.872 127.358 987.389C121.196 988.02 115.299 986.636 110.499 982.597C105.242 978.174 103.488 971.261 102.817 964.702C98.0559 918.113 133.889 866.787 161.828 832.517C172.618 819.282 184.35 806.825 195.04 793.526C213.025 771.153 230.537 745.182 227.08 714.989C224.205 689.878 206.1 668.901 186.645 654.168C180.146 649.247 172.953 645.208 166.613 640.124L166.111 639.714ZM146.192 910.64C138.887 911.638 132.219 915.016 127.789 921.065C123.99 926.252 122.138 932.946 123.306 939.316C124.413 945.358 127.886 951.077 133.112 954.403C137.12 956.954 141.911 957.969 146.621 957.855C153.706 957.02 159.615 954.843 164.112 948.967Q164.502 948.464 164.867 947.941Q165.231 947.419 165.569 946.879Q165.907 946.339 166.216 945.782Q166.526 945.225 166.808 944.654Q167.089 944.082 167.341 943.497Q167.593 942.912 167.815 942.315Q168.037 941.718 168.229 941.111Q168.42 940.503 168.581 939.887Q168.742 939.271 168.871 938.647Q169 938.023 169.098 937.394Q169.195 936.764 169.261 936.131Q169.327 935.497 169.36 934.861Q169.394 934.225 169.395 933.588Q169.396 932.951 169.365 932.315Q169.334 931.678 169.271 931.045Q169.208 930.411 169.113 929.781C168.174 923.622 164.985 917.793 159.771 914.249C155.827 911.569 150.926 910.46 146.192 910.64Z"/>
	<path fill="#FF0054" d="M304.663 588.821C304.944 582.536 304.87 576.203 304.932 569.911C310.56 569.807 317.184 569.033 321.877 572.8C323.414 574.034 324.749 575.699 324.909 577.735C325.157 580.898 323.444 584.174 321.482 586.513C316.73 589.525 310.093 588.805 304.663 588.821Z"/>
	<path fill="#FF0054" d="M359.089 595.409C361.786 587.778 364.799 580.121 368.192 572.771C371.199 575.868 375.484 590.589 377.218 595.402L367.875 595.394L359.089 595.409Z"/>
	<path fill="#390099" d="M146.621 957.855C141.911 957.969 137.12 956.954 133.112 954.403C127.886 951.077 124.413 945.358 123.306 939.316C122.138 932.946 123.99 926.252 127.789 921.065C132.219 915.016 138.887 911.638 146.192 910.64C150.926 910.46 155.827 911.569 159.771 914.249C164.985 917.793 168.174 923.622 169.113 929.781Q169.208 930.411 169.271 931.045Q169.334 931.678 169.365 932.315Q169.396 932.951 169.395 933.588Q169.394 934.225 169.36 934.861Q169.327 935.497 169.261 936.131Q169.195 936.764 169.098 937.394Q169 938.023 168.871 938.647Q168.742 939.271 168.581 939.887Q168.42 940.504 168.229 941.111Q168.037 941.718 167.815 942.315Q167.593 942.912 167.341 943.497Q167.089 944.082 166.808 944.654Q166.526 945.225 166.216 945.782Q165.907 946.339 165.569 946.879Q165.231 947.419 164.867 947.941Q164.502 948.464 164.112 948.967C159.615 954.843 153.706 957.02 146.621 957.855Z"/>
</svg>
