<?xml version="1.0" encoding="utf-8" ?>
<svg xmlns="http://www.w3.org/2000/svg" xmlns:xlink="http://www.w3.org/1999/xlink" width="1024" height="1024">
	<path fill="#FB771A" d="M0 0L1024 0L1024 1024L619.943 1024C614.569 997.961 609.624 971.729 603.683 945.823C607.786 944.629 611.602 942.661 614.674 939.647Q615.095 939.228 615.495 938.788Q615.895 938.348 616.272 937.889Q616.649 937.43 617.002 936.952Q617.355 936.474 617.683 935.979Q618.012 935.483 618.315 934.972Q618.618 934.461 618.895 933.935Q619.171 933.409 619.421 932.87Q619.671 932.331 619.893 931.78Q620.115 931.228 620.309 930.667Q620.503 930.105 620.668 929.534Q620.834 928.964 620.97 928.385Q621.106 927.807 621.213 927.222Q621.319 926.637 621.396 926.048Q621.473 925.459 621.52 924.867Q621.567 924.274 621.584 923.68Q621.601 923.086 621.588 922.492C621.498 916.044 619.054 909.879 614.31 905.442C609.318 900.774 603.505 899.396 596.869 899.579L596.389 892.054C604.32 891.49 610.609 890.148 616.084 883.755C620.318 878.811 622.08 872.223 621.515 865.79C620.958 859.456 617.783 853.76 612.893 849.73C606.618 844.557 599.59 843.909 591.846 844.78C591.353 842.764 590.812 840.824 590.1 838.874C594.042 835.986 601.648 839.885 609.916 831.295C614.439 826.596 617.414 820.626 617.207 813.987C617.023 808.074 614.423 802.749 610.066 798.778C603.672 792.949 597.197 792.81 589.089 793.178C588.862 791.641 588.319 789.689 588.945 788.242C590.391 788.167 591.863 788.154 593.279 787.825C593.479 787.779 593.675 787.711 593.872 787.653C608.579 787.23 624.526 780.602 637.14 773.423C618.916 757.66 602.961 737.412 597.849 713.302C593.885 694.607 599.535 680.203 609.531 664.693C645.504 664.401 680.205 652.863 706.696 627.842C724.64 610.894 737.852 587.38 738.596 562.252C739.044 559.068 738.902 555.672 738.96 552.454L781.141 552.559C788.999 552.569 796.952 552.297 804.788 552.853C811.991 528.037 818.337 502.897 825.011 477.93L851.145 380.389L865.801 325.759C868.446 315.912 870.474 305.259 874.305 295.827C861.069 295.011 847.489 295.816 834.206 295.835L754.745 295.877L729.272 295.899C724.433 295.898 719.398 296.178 714.59 295.622L715.174 295.062L714.248 295.187C714.092 293.26 714.006 291.279 713.641 289.379C713.588 289.102 713.529 288.827 713.472 288.551C727.96 285.045 741.831 274.228 751.442 263.134C761.343 251.706 766.834 238.298 765.773 223.108C773.872 221.066 781.972 218.711 790.163 217.083C792.303 216.904 794.352 216.269 796.421 215.721C804.637 213.02 813.118 211.124 821.434 208.757C823.797 208.171 826.097 207.471 828.412 206.726C836.525 204.151 845.938 200.928 854.352 199.83C856.287 199.455 858.144 198.536 859.96 197.784C868.358 194.681 877.749 193.419 886.379 190.83C888.703 190.365 890.883 189.747 893.133 189.018C899.229 186.093 911.58 183.194 918.394 182.004C920.198 182.646 923.922 181.069 925.767 180.542C930.233 178.306 936.052 177.101 940.856 175.6L942.363 175.517C942.569 175.468 942.781 175.438 942.981 175.368C945.843 174.369 947.175 171.838 948.651 169.404L952.881 174.026C952.387 175.648 952.033 177.104 951.874 178.794C952.939 177.474 953.351 175.733 953.902 174.135C956.718 175.327 959.313 175.974 962.3 176.534C962.599 178.755 963.147 187.005 964.728 188.293C965.455 184.998 963.346 179.909 963.309 176.334C965.009 175.452 966.756 174.76 968.536 174.055C969.778 176.339 971.034 178.99 972.853 180.847L969.274 173.564C970.984 172.31 972.539 170.768 974.12 169.352C976.093 164.725 976.222 161.135 976.323 156.129C978.454 156.328 981.586 156.896 983.55 155.986C981.135 155.315 978.71 155.466 976.226 155.494C975.624 153.675 974.834 149.818 973.534 148.512C972.32 147.292 970.963 146.983 970.402 145.258L971.699 143.332C970.848 143.712 969.571 144.44 968.645 144.475C967.266 144.527 966.841 144.144 965.81 143.366C965.314 141.833 965.833 140.86 966.232 139.322L965.497 139.273L966.366 138.441C965.763 139.962 965.292 141.03 964.141 142.208C962.708 142.667 962.306 142.556 960.807 142.271C958.617 140.289 959.396 131.534 958.978 128.383L958.406 129.015C957.701 133.174 958.659 138.037 959.246 142.202C957.481 142.499 955.775 143.07 954.064 143.585C952.827 141.192 950.814 135.49 948.924 133.856C948.818 133.764 948.689 133.699 948.572 133.621C948.848 133.746 948.991 134.059 949.183 134.292L949.031 135.278L948.461 135.001L948.91 134.964C950.142 138.08 951.783 141.081 953.28 144.08L949.655 147.004C948.196 145.869 946.859 144.771 945.154 144.032C946.079 145.605 947.939 146.752 949.363 147.866L946.409 151.168C943.291 150.033 940.313 149.134 937.056 148.493C940.085 149.431 943.069 150.636 946.048 151.727C945.383 153.794 945.073 155.822 944.782 157.964C942.58 157.681 938.926 156.935 936.985 158.046C939.485 158.75 942.11 158.452 944.682 158.357L946.002 164.621C943.778 165.738 941.494 166.555 939.352 167.852C938.858 167.699 938.329 167.359 937.867 167.119C937.089 165.57 937.658 163.73 937.933 162.09C929.647 162.711 921.466 163.917 913.579 166.653L907.816 168.387C899.733 171.669 890.276 171.15 882.237 174.847C879.958 175.443 877.681 176.031 875.425 176.707C866.884 178.911 858.311 181.103 849.889 183.728L842.989 185.351C834.917 188.464 824.893 191.04 816.365 192.345L810.2 194.303C802.388 196.59 793.06 197.916 785.736 201.31C783.706 202.15 781.754 202.842 779.62 203.364C773.665 204.479 768.063 206.312 762.303 208.135Q761.554 206.494 760.681 204.915Q759.807 203.337 758.814 201.831Q757.82 200.325 756.713 198.901Q755.606 197.476 754.392 196.142Q753.178 194.808 751.865 193.572Q750.551 192.335 749.145 191.205Q747.739 190.074 746.25 189.055Q744.761 188.037 743.198 187.137C726.578 177.4 703.279 173.052 684.46 177.849C681.179 175.105 680.413 172.602 675.931 171.345C665.488 171.317 644.06 177.171 633.354 180.204L628.965 178.653C624.741 176.831 621.034 176.033 616.414 176.961C610.847 178.079 605.281 179.981 599.833 181.581Q585.051 185.968 570.207 190.141L464.252 219.013L399.854 236.261C389.917 238.88 377.784 240.84 368.419 244.854C366.4 245.72 364.503 247.446 363.665 249.505C363.254 250.515 363.053 251.611 362.892 252.683C360.133 253.438 357.419 254.153 354.6 254.651C341.424 257.033 329.389 261.602 317.29 267.223L309.59 269.288C302.678 271.084 296.541 272.83 292.756 279.492C289.822 284.654 289.323 290.692 288.857 296.487C273.822 295.442 258.265 296.476 243.168 296.367Q196.284 295.854 149.398 296.076L170.59 459.351C174.643 490.21 179.547 521.042 182.826 551.997L288.694 552.052C303.647 552.081 318.815 551.318 333.729 552.05C326.671 574.937 328.586 595.667 339.784 616.944C350.894 638.053 368.152 654.992 391.326 662.022C400.159 664.701 408.853 665.276 418.023 664.987L418.063 782.475C406.544 784.505 387.831 788.809 380.786 798.805C378.102 802.614 376.307 807.144 373.907 811.153Q364.721 826.332 357.007 842.31Q349.293 858.287 343.119 874.921C340.566 881.974 339.004 889.335 336.554 896.401C330.897 900.904 324.456 903.52 317.787 906.185C316.082 901.897 312.465 889.497 308.579 887.313C307.489 886.701 300.598 889.636 299.294 890.187C291.764 893.364 284.377 896.853 276.8 899.926C271.724 901.986 265.754 903.715 260.985 906.348C259.915 906.904 259.004 907.418 257.784 907.569C249.648 911.292 241.505 915.062 233.244 918.499C226.251 921.409 212.617 925.253 207.17 929.774C206.047 930.708 205.055 930.844 203.669 931.097C192.437 936.179 180.937 940.8 169.599 945.662C164.706 947.76 159.388 949.556 154.775 952.193C153.653 952.88 152.937 953.166 151.631 953.334L120.654 966.787C114.823 969.318 108.613 971.619 103.014 974.608C101.73 975.646 101.204 975.928 99.5614 976.096C83.7178 983.305 67.5516 989.819 51.7487 997.092C50.3615 997.716 49.551 998.009 47.9906 998.03C32.5391 1005.52 14.3954 1011.53 0 1020.57L0 0ZM149.042 70.0802Q135.691 78.7908 121.695 86.4229C132.094 96.6461 144.157 105.749 155.423 115.021C149.127 117.603 142.2 120.071 136.284 123.393C148.427 133.696 161.597 143.601 172.758 154.949C166.788 156.749 160.789 158.235 154.719 159.654C158.909 164.402 164.232 168.508 168.975 172.723C175.707 178.704 182.283 184.861 189.029 190.826Q180.576 193.052 172.055 194.999C179.988 202.71 188.494 209.898 196.67 217.357C205.112 225.059 213.49 233.297 222.503 240.327C228.462 245.598 234.61 250.78 240.016 256.632C235.77 249.364 230.616 242.646 225.757 235.782C217.732 224.445 209.592 212.838 200.709 202.163C205.251 200.172 209.897 198.298 214.323 196.06C203.46 186.898 193.901 176.205 183.396 166.623C189.662 164.757 196.058 163.648 202.482 162.48C196.143 156.032 189.42 149.962 182.912 143.686C177.651 138.613 172.577 133.26 167.121 128.403L184.251 123.109Q171.841 105.134 160.141 86.6891C157.01 81.8566 152.869 73.8703 149.042 70.0802ZM89.0341 160.755C84.0779 169.101 79.4487 178.153 73.3119 185.688C86.3943 189.268 105.991 193.3 117.821 199.01C113.643 203.081 109.051 206.967 105.126 211.268C118.891 215.57 132.81 219.297 146.59 223.523C143.011 227.377 139.337 231.168 135.813 235.071C148.035 238.093 160.355 240.864 172.314 244.837C168.614 248.511 164.99 252.19 161.538 256.103C182.116 265.476 203.541 272.398 224.585 280.52C228.785 282.127 232.967 283.499 237.299 284.708C218.948 273.271 200.291 262.75 181.642 251.853Q187.6 246.902 193.346 241.706Q176.586 234 158.873 228.85C162.36 225.515 165.857 222.227 169.509 219.07C156.259 214.132 142.572 210.202 129.44 205.002C133.872 201.205 138.488 197.543 142.454 193.25Q127.074 183.462 111.44 174.084C104.034 169.555 96.7545 164.735 89.0341 160.755Z"/>
	<path fill="#54282A" d="M121.695 86.4229Q135.691 78.7908 149.042 70.0802C152.869 73.8703 157.01 81.8566 160.141 86.6891Q171.841 105.134 184.251 123.109L167.121 128.403C172.577 133.26 177.651 138.613 182.912 143.686C189.42 149.962 196.143 156.032 202.482 162.48C196.058 163.648 189.662 164.757 183.396 166.623C193.901 176.205 203.46 186.898 214.323 196.06C209.897 198.298 205.251 200.172 200.709 202.163C209.592 212.838 217.732 224.445 225.757 235.782C230.616 242.646 235.77 249.364 240.016 256.632C234.61 250.78 228.462 245.598 222.503 240.327C213.49 233.297 205.112 225.059 196.67 217.357C188.494 209.898 179.988 202.71 172.055 194.999Q180.576 193.052 189.029 190.826C182.283 184.861 175.707 178.704 168.975 172.723C164.232 168.508 158.909 164.402 154.719 159.654C160.789 158.235 166.788 156.749 172.758 154.949C161.597 143.601 148.427 133.696 136.284 123.393C142.2 120.071 149.127 117.603 155.423 115.021C144.157 105.749 132.094 96.6461 121.695 86.4229Z"/>
	<path fill="#54282A" d="M939.352 167.852C941.494 166.555 943.778 165.738 946.002 164.621L944.682 158.357C942.11 158.452 939.485 158.75 936.985 158.046C938.926 156.935 942.58 157.681 944.782 157.964C945.073 155.822 945.383 153.794 946.048 151.727C943.069 150.636 940.085 149.431 937.056 148.493C940.313 149.134 943.291 150.033 946.409 151.168L949.363 147.866C947.939 146.752 946.079 145.605 945.154 144.032C946.859 144.771 948.196 145.869 949.655 147.004L953.28 144.08C951.783 141.081 950.142 138.08 948.91 134.964L948.461 135.001L949.031 135.278L949.183 134.292C948.991 134.059 948.848 133.746 948.572 133.621C948.689 133.699 948.818 133.764 948.924 133.856C950.814 135.49 952.827 141.192 954.064 143.585C955.775 143.07 957.481 142.499 959.246 142.202C958.659 138.037 957.701 133.174 958.406 129.015L958.978 128.383C959.396 131.534 958.617 140.289 960.807 142.271C962.306 142.556 962.708 142.667 964.141 142.208C965.292 141.03 965.763 139.962 966.366 138.441L965.497 139.273L966.232 139.322C965.833 140.86 965.314 141.833 965.81 143.366C966.841 144.144 967.266 144.527 968.645 144.475C969.571 144.44 970.848 143.712 971.699 143.332L970.402 145.258C970.963 146.983 972.32 147.292 973.534 148.512C974.834 149.818 975.624 153.675 976.226 155.494C978.71 155.466 981.135 155.315 983.55 155.986C981.586 156.896 978.454 156.328 976.323 156.129C976.222 161.135 976.093 164.725 974.12 169.352C972.539 170.768 970.984 172.31 969.274 173.564L972.853 180.847C971.034 178.99 969.778 176.339 968.536 174.055C966.756 174.76 965.009 175.452 963.309 176.334C963.346 179.909 965.455 184.998 964.728 188.293C963.147 187.005 962.599 178.755 962.3 176.534C959.313 175.974 956.718 175.327 953.902 174.135C953.351 175.733 952.939 177.474 951.874 178.794C952.033 177.104 952.387 175.648 952.881 174.026L948.651 169.404C947.175 171.838 945.843 174.369 942.981 175.368C942.781 175.438 942.569 175.468 942.363 175.517C944.413 173.791 946.885 171.721 947.937 169.192C948.362 168.169 948.308 168.627 947.869 167.522C944.782 165.953 942.421 167.145 939.352 167.852Z"/>
	<path fill="#54282A" d="M73.3119 185.688C79.4487 178.153 84.0779 169.101 89.0341 160.755C96.7545 164.735 104.034 169.555 111.44 174.084Q127.074 183.462 142.454 193.25C138.488 197.543 133.872 201.205 129.44 205.002C142.572 210.202 156.259 214.132 169.509 219.07C165.857 222.227 162.36 225.515 158.873 228.85Q176.586 234 193.346 241.706Q187.6 246.902 181.642 251.853C200.291 262.75 218.948 273.271 237.299 284.708C232.967 283.499 228.785 282.127 224.585 280.52C203.541 272.398 182.116 265.476 161.538 256.103C164.99 252.19 168.614 248.511 172.314 244.837C160.355 240.864 148.035 238.093 135.813 235.071C139.337 231.168 143.011 227.377 146.59 223.523C132.81 219.297 118.891 215.57 105.126 211.268C109.051 206.967 113.643 203.081 117.821 199.01C105.991 193.3 86.3943 189.268 73.3119 185.688Z"/>
	<path fill="#B4A1A3" d="M913.579 166.653C921.466 163.917 929.647 162.711 937.933 162.09C937.658 163.73 937.089 165.57 937.867 167.119C938.329 167.359 938.858 167.699 939.352 167.852C940.796 169.443 941.222 170.086 941.101 172.318Q941.001 173.961 940.856 175.6C936.052 177.101 930.233 178.306 925.767 180.542C921.441 176.2 917.615 171.27 913.579 166.653Z"/>
	<path fill="#F3AC37" d="M939.352 167.852C942.421 167.145 944.782 165.953 947.869 167.522C948.308 168.627 948.362 168.169 947.937 169.192C946.885 171.721 944.413 173.791 942.363 175.517L940.856 175.6Q941.001 173.961 941.101 172.318C941.222 170.086 940.796 169.443 939.352 167.852Z"/>
	<path fill="#9F446C" d="M907.816 168.387L913.579 166.653C917.615 171.27 921.441 176.2 925.767 180.542C923.922 181.069 920.198 182.646 918.394 182.004Q913.246 175.086 907.816 168.387Z"/>
	<path fill="#B4A1A3" d="M882.237 174.847C890.276 171.15 899.733 171.669 907.816 168.387Q913.246 175.086 918.394 182.004C911.58 183.194 899.229 186.093 893.133 189.018C889.142 184.458 885.412 180.027 882.237 174.847Z"/>
	<path fill="#54282A" d="M633.354 180.204C644.06 177.171 665.488 171.317 675.931 171.345C677.962 176.42 679.447 181.431 680.165 186.862C667.899 190.88 655.409 193.494 642.824 196.277C640.716 189.959 638.585 184.633 633.354 180.204Z"/>
	<defs>
		<linearGradient id="gradient_0" gradientUnits="userSpaceOnUse" x1="505.65518" y1="181.09135" x2="524.86761" y2="565.38019">
			<stop offset="0" stop-color="#857447"/>
			<stop offset="1" stop-color="#818061"/>
		</linearGradient>
	</defs>
	<path fill="url(#gradient_0)" d="M675.931 171.345C680.413 172.602 681.179 175.105 684.46 177.849C690.576 202.95 697.612 228.009 704.41 252.937C707.449 264.078 712.603 277.162 713.472 288.551C713.529 288.827 713.588 289.102 713.641 289.379C714.006 291.279 714.092 293.26 714.248 295.187L715.174 295.062L714.59 295.622C719.398 296.178 724.433 295.898 729.272 295.899L754.745 295.877L834.206 295.835C847.489 295.816 861.069 295.011 874.305 295.827C870.474 305.259 868.446 315.912 865.801 325.759L851.145 380.389L825.011 477.93C818.337 502.897 811.991 528.037 804.788 552.853C796.952 552.297 788.999 552.569 781.141 552.559L738.96 552.454C738.902 555.672 739.044 559.068 738.596 562.252C738.289 558.898 738.502 555.409 738.535 552.037Q681.043 551.267 623.548 551.765L454.147 551.695Q411.842 552.049 369.535 551.939C357.615 551.944 345.642 552.304 333.729 552.05C318.815 551.318 303.647 552.081 288.694 552.052L182.826 551.997C179.547 521.042 174.643 490.21 170.59 459.351L149.398 296.076Q196.284 295.854 243.168 296.367C258.265 296.476 273.822 295.442 288.857 296.487C292.882 297.206 314.517 298.064 317.524 296.511C317.05 293.284 314.967 289.84 314.043 286.628C312.421 280.989 312.396 274.505 309.59 269.288L317.29 267.223C318.041 272.996 319.864 279.062 321.31 284.716C333.689 283.247 348.731 280.03 360.609 276.214C358.97 269.403 357.761 260.882 354.6 254.651C357.419 254.153 360.133 253.438 362.892 252.683C365.179 256.783 373.642 293.445 373.163 297.281C389.553 296.851 405.975 297.758 422.383 297.395C423.243 295.382 424.1 293.356 425.077 291.396C433.59 274.316 452.417 258.062 469.776 250.357C474.955 248.059 480.282 246.978 485.576 245.186L486.359 244.915C494.588 246.065 509.27 245.514 518.148 245.471C524.182 245.442 535.469 250.114 541.373 252.186C541.987 252.401 541.791 252.324 542.576 252.258C546.315 253.744 549.862 256.021 553.218 258.217C565.77 266.428 580.868 282.022 584.029 297.165C592.049 297.902 657.768 297.969 663.105 296.452C663.161 295.685 663.233 295.895 663.013 295.275C660.201 287.329 658.341 279.234 656.052 271.135C654.249 264.757 652.071 258.455 650.487 252.019C646.667 236.503 637.767 189.984 628.965 178.653L633.354 180.204C638.585 184.633 640.716 189.959 642.824 196.277C655.409 193.494 667.899 190.88 680.165 186.862C679.447 181.431 677.962 176.42 675.931 171.345ZM681.256 192.138C668.969 194.98 656.529 197.812 644.388 201.205C644.986 205.825 647.295 220.022 650.555 222.84C660.48 220.945 678.422 217.091 687.209 213.058C686.598 209.533 683.8 194.093 681.666 192.174L681.256 192.138ZM687.285 219.059C675.509 222.115 663.255 224.285 651.68 227.966C652.655 232.664 654.749 246.115 657.394 249.312L658.684 249.428C668.939 246.917 685.262 244.034 694.205 239.451C693.514 233.767 691.905 223.927 688.804 219.185C688.286 219.104 687.806 218.973 687.285 219.059ZM694.753 245.046C682.717 248.503 670.302 250.823 658.354 254.479C659.986 260.759 661.331 269.498 664.122 275.175L665.123 275.551C675.889 273.168 691.81 270.149 701.365 264.93C700.532 261.248 697.63 247.262 695.279 245.036L694.753 245.046ZM495.376 248.704C473.093 250.754 452.736 262.589 438.543 279.649C432.311 287.14 427.751 295.512 423.096 304.016C405.09 304.788 386.994 304.486 368.974 304.451L285.01 304.204L211.604 304.291C194.162 304.349 176.666 304.63 159.236 303.884C162.285 322.443 164.35 341.234 166.761 359.89L179.014 454.38C181.873 476.231 185.055 498.025 187.697 519.904C188.636 527.68 190.339 535.877 190.574 543.665C207.815 544.174 225.096 543.724 242.344 543.729L343.04 543.562L526.127 543.448L706.666 543.508L765.225 543.644C776.005 543.672 786.899 543.421 797.669 543.845C807.006 505.264 817.836 466.94 828.119 428.593C839.237 387.133 849.921 345.456 861.756 304.203C839.34 304.756 816.766 304.23 794.331 304.285L639.06 304.67C619.645 304.704 600.202 304.206 580.793 304.449C572.029 281.423 558.872 265.765 536.059 255.561C525.08 250.65 507.418 246.256 495.376 248.704ZM701.202 271.022C689.392 274.551 677.547 277.551 665.558 280.406C666.758 285.67 667.792 291.048 669.383 296.208L673.875 296.325C680.38 296.274 704.67 297.493 708.497 293.334C708.915 292.88 709.5 292.231 709.417 291.559C709.312 290.714 708.933 290.42 708.467 289.75C704.891 284.618 706.862 275.761 702.461 271.028L701.202 271.022ZM361.444 281.186C348.515 284.24 335.637 287.283 322.609 289.897C323.066 292.372 323.288 294.955 324.744 297.063C325.546 297.455 325.985 297.528 326.875 297.492L365.86 297.442C364.887 293.337 363.571 284.477 361.444 281.186Z"/>
	<path fill="#9F446C" d="M875.425 176.707C877.681 176.031 879.958 175.443 882.237 174.847C885.412 180.027 889.142 184.458 893.133 189.018C890.883 189.747 888.703 190.365 886.379 190.83C883.156 185.797 879.313 181.23 875.425 176.707Z"/>
	<path fill="#54282A" d="M684.46 177.849C703.279 173.052 726.578 177.4 743.198 187.137Q744.761 188.037 746.25 189.055Q747.739 190.074 749.145 191.205Q750.551 192.335 751.864 193.572Q753.178 194.808 754.392 196.142Q755.606 197.476 756.713 198.901Q757.82 200.325 758.814 201.831Q759.807 203.337 760.681 204.915Q761.554 206.494 762.303 208.135C763.868 213.032 765.136 217.998 765.773 223.108C766.834 238.298 761.343 251.706 751.442 263.134C741.831 274.228 727.96 285.045 713.472 288.551C712.603 277.162 707.449 264.078 704.41 252.937C697.612 228.009 690.576 202.95 684.46 177.849Z"/>
	<path fill="#686E62" d="M362.892 252.683C363.053 251.611 363.254 250.515 363.665 249.505C364.503 247.446 366.4 245.72 368.419 244.854C377.784 240.84 389.917 238.88 399.854 236.261L464.252 219.013L570.207 190.141Q585.051 185.968 599.833 181.581C605.281 179.981 610.847 178.079 616.414 176.961C621.034 176.033 624.741 176.831 628.965 178.653C637.767 189.984 646.667 236.503 650.487 252.019C652.071 258.455 654.249 264.757 656.052 271.135C658.341 279.234 660.201 287.329 663.013 295.275C663.233 295.895 663.161 295.685 663.105 296.452C657.768 297.969 592.049 297.902 584.029 297.165C580.868 282.022 565.77 266.428 553.218 258.217C549.862 256.021 546.315 253.744 542.576 252.258L542.28 251.834C527.829 243.874 502.414 241.577 486.359 244.915L485.576 245.186C480.282 246.978 474.955 248.059 469.776 250.357C452.417 258.062 433.59 274.316 425.077 291.396C424.1 293.356 423.243 295.382 422.383 297.395C405.975 297.758 389.553 296.851 373.163 297.281C373.642 293.445 365.179 256.783 362.892 252.683Z"/>
	<path fill="#B4A1A3" d="M849.889 183.728C858.311 181.103 866.884 178.911 875.425 176.707C879.313 181.23 883.156 185.797 886.379 190.83C877.749 193.419 868.358 194.681 859.96 197.784C856.263 193.267 852.806 188.798 849.889 183.728Z"/>
	<path fill="#9F446C" d="M842.989 185.351L849.889 183.728C852.806 188.798 856.263 193.267 859.96 197.784C858.144 198.536 856.287 199.455 854.352 199.83C850.434 195.134 846.873 190.095 842.989 185.351Z"/>
	<path fill="#B4A1A3" d="M816.365 192.345C824.893 191.04 834.917 188.464 842.989 185.351C846.873 190.095 850.434 195.134 854.352 199.83C845.938 200.928 836.525 204.151 828.412 206.726C824.082 202.337 820.264 197.135 816.365 192.345Z"/>
	<path fill="#54282A" d="M644.388 201.205C656.529 197.812 668.969 194.98 681.256 192.138L681.666 192.174C683.8 194.093 686.598 209.533 687.209 213.058C678.422 217.091 660.48 220.945 650.555 222.84C647.295 220.022 644.986 205.825 644.388 201.205Z"/>
	<path fill="#9F446C" d="M810.2 194.303L816.365 192.345C820.264 197.135 824.082 202.337 828.412 206.726C826.097 207.471 823.797 208.171 821.434 208.757C818.332 203.453 814.208 198.924 810.2 194.303Z"/>
	<path fill="#B4A1A3" d="M785.736 201.31C793.06 197.916 802.388 196.59 810.2 194.303C814.208 198.924 818.332 203.453 821.434 208.757C813.118 211.124 804.637 213.02 796.421 215.721C792.761 211.001 789.279 206.119 785.736 201.31Z"/>
	<path fill="#9F446C" d="M779.62 203.364C781.754 202.842 783.706 202.15 785.736 201.31C789.279 206.119 792.761 211.001 796.421 215.721C794.352 216.269 792.303 216.904 790.163 217.083L779.62 203.364Z"/>
	<path fill="#B4A1A3" d="M762.303 208.135C768.063 206.312 773.665 204.479 779.62 203.364L790.163 217.083C781.972 218.711 773.872 221.066 765.773 223.108C765.136 217.998 763.868 213.032 762.303 208.135Z"/>
	<path fill="#54282A" d="M651.68 227.966C663.255 224.285 675.509 222.115 687.285 219.059C687.806 218.973 688.286 219.104 688.804 219.185C691.905 223.927 693.514 233.767 694.205 239.451C685.262 244.034 668.939 246.917 658.684 249.428L657.394 249.312C654.749 246.115 652.655 232.664 651.68 227.966Z"/>
	<path fill="#757660" d="M486.359 244.915C502.414 241.577 527.829 243.874 542.28 251.834L542.576 252.258C541.791 252.324 541.987 252.401 541.373 252.186C535.469 250.114 524.182 245.442 518.148 245.471C509.27 245.514 494.588 246.065 486.359 244.915Z"/>
	<path fill="#54282A" d="M658.354 254.479C670.302 250.823 682.717 248.503 694.753 245.046L695.279 245.036C697.63 247.262 700.532 261.248 701.365 264.93C691.81 270.149 675.889 273.168 665.123 275.551L664.122 275.175C661.331 269.498 659.986 260.759 658.354 254.479Z"/>
	<path fill="#54282A" d="M423.096 304.016C427.751 295.512 432.311 287.14 438.543 279.649C452.736 262.589 473.093 250.754 495.376 248.704C507.418 246.256 525.08 250.65 536.059 255.561C558.872 265.765 572.029 281.423 580.793 304.449C600.202 304.206 619.645 304.704 639.06 304.67L794.331 304.285C816.766 304.23 839.34 304.756 861.756 304.203C849.921 345.456 839.237 387.133 828.119 428.593C817.836 466.94 807.006 505.264 797.669 543.845C786.899 543.421 776.005 543.672 765.225 543.644L706.666 543.508L526.127 543.448L343.04 543.562L242.344 543.729C225.096 543.724 207.815 544.174 190.574 543.665C190.339 535.877 188.636 527.68 187.697 519.904C185.055 498.025 181.873 476.231 179.014 454.38L166.761 359.89C164.35 341.234 162.285 322.443 159.236 303.884C176.666 304.63 194.162 304.349 211.604 304.291L285.01 304.204L368.974 304.451C386.994 304.486 405.09 304.788 423.096 304.016ZM468.649 298.534L460.201 298.179C459.278 303.683 457.945 309.448 457.897 315.036C460.643 308.891 461.939 303.599 468.416 300.496C471.074 300.508 473.691 300.229 476.339 300.17C472.775 311.806 471.017 323.925 467.51 335.562C464.584 336.465 461.606 337.288 458.753 338.403C466.372 339.101 475.112 338.942 482.732 338.098C480.336 337.393 477.732 336.901 475.775 335.288C474.442 331.102 482.801 306.716 484.282 300.482C487.044 300.515 489.605 300.546 492.307 301.228C495.677 304.92 495.035 311.146 495.38 315.897C497.376 310.33 498.459 304.083 499.87 298.319L493.481 298.476C485.223 298.381 476.901 298.206 468.649 298.534ZM547.358 309.763C541.06 312.952 536.073 317.277 533.779 324.207C532.726 327.39 532.422 331.041 533.975 334.121Q534.172 334.514 534.408 334.886Q534.643 335.258 534.915 335.605Q535.186 335.952 535.49 336.27Q535.794 336.589 536.128 336.875Q536.462 337.162 536.823 337.414Q537.184 337.667 537.568 337.882Q537.952 338.097 538.356 338.273Q538.759 338.45 539.178 338.585C542.59 339.701 546.289 338.785 549.368 337.149C552.458 335.509 555.132 333.22 557.498 330.665L556.894 330.89C552.145 332.697 547.517 336.703 542.235 334.213C541.126 333.69 540.052 332.82 539.624 331.637C539.195 330.45 539.557 329.072 540.212 328.03C541.42 326.108 544.088 325.471 546.121 324.716C549.192 323.802 552.606 322.183 555.009 320.081C556.776 318.536 558.882 315.885 558.746 313.374C558.674 312.044 558.26 310.973 557.143 310.177C554.435 308.249 550.322 309.122 547.358 309.763ZM507.42 320.269C507.946 312.867 512.713 303.406 514.754 295.999C511.085 297.178 505.772 297.955 502.565 299.85L502.745 300.561C503.81 301.058 504.661 301.155 505.812 301.287C506.732 303.085 497.316 334.016 496.088 339.003L502.395 338.448C504.126 332.105 505.768 326.372 509.69 320.964C511.51 318.801 514.815 314.366 517.501 313.53C518.236 313.301 518.607 313.749 519.229 314.092C522.599 318.983 515.062 328.925 515.428 334.863C515.501 336.04 515.87 337.271 516.889 337.971C518.242 338.899 520.237 339.168 521.83 338.892C525.594 338.241 529.271 333.042 531.338 330.059C529.22 331.329 527.279 332.918 525.167 334.15C524.052 334.8 523.41 335.063 522.16 334.649C520.845 331.473 526.395 319.491 526.422 314.555C526.431 312.989 526.18 311.116 524.887 310.056C523.964 309.298 522.724 309.072 521.561 309.099C516.099 309.224 510.766 316.474 507.42 320.269ZM540.415 360.605C539.08 367.42 540.338 378.191 540.357 385.43L540.067 440.115L555.006 440.006C554.957 425.682 555.341 411.182 554.458 396.89C562.435 407.597 570.55 418.608 579.482 428.532C587.339 418.458 595.715 408.492 602.692 397.779L602.443 428.482L602.429 440.064L617.485 440.047L617.628 388.384C617.667 378.931 618.272 369.24 617.526 359.822C614.107 363.888 611.202 368.328 607.897 372.481L579.968 407.451C570.699 397.374 562.006 386.255 553.536 375.491C550.042 371.051 546.723 366.223 542.935 362.035C542.198 361.22 541.508 360.799 540.415 360.605ZM721.64 361.12C720.966 370.539 721.514 380.307 721.545 389.774L721.548 440.109L737.136 440.144L736.937 394.588L768.326 426.814C774.036 432.742 779.664 439.734 786.201 444.712C787.383 436.762 786.558 427.79 786.535 419.726C786.481 401.452 786.108 383.121 786.541 364.853Q778.959 364.724 771.379 364.934L771.433 409.796C763.872 401.157 730.078 364.037 721.64 361.12ZM668.991 361.741C656.324 387.593 645.231 414.21 632.405 439.973L648.285 439.91L653.519 427.433L671.625 427.618L685.157 427.561L689.449 439.827L706.86 440.176C700.072 425.607 692.866 411.234 686.126 396.648C681.282 386.169 676.92 375.158 671.588 364.937C670.869 363.56 670.414 362.504 668.991 361.741ZM324.063 363.208C311.456 364.203 300.967 368.363 292.623 378.16C285.973 385.966 283.007 395.423 283.958 405.643C284.92 415.984 290.585 425.661 298.61 432.151C306.346 438.407 315.42 441.065 325.271 441.107C336.57 440.636 347.509 436.081 355.21 427.669C362.332 419.89 365.132 409.947 364.593 399.55C364.058 389.221 359.807 380.333 352.048 373.467C344.335 366.64 334.414 362.687 324.063 363.208ZM418.776 363.21C407.155 364.108 397.073 368.257 389.325 377.193Q388.697 377.903 388.105 378.644Q387.513 379.386 386.96 380.156Q386.406 380.926 385.893 381.723Q385.379 382.52 384.906 383.343Q384.433 384.165 384.003 385.01Q383.572 385.855 383.185 386.72Q382.798 387.586 382.455 388.47Q382.112 389.354 381.814 390.255Q381.516 391.155 381.264 392.069Q381.012 392.984 380.807 393.91Q380.601 394.835 380.443 395.771Q380.284 396.706 380.174 397.647Q380.063 398.589 380 399.536Q379.937 400.482 379.922 401.43Q379.906 402.378 379.939 403.326Q379.972 404.274 380.053 405.219Q380.13 406.17 380.254 407.115Q380.378 408.061 380.549 408.999Q380.72 409.938 380.938 410.866Q381.156 411.795 381.42 412.711Q381.684 413.628 381.994 414.53Q382.304 415.432 382.658 416.318Q383.013 417.203 383.411 418.07Q383.809 418.936 384.25 419.782Q384.691 420.628 385.174 421.45Q385.657 422.273 386.181 423.07Q386.704 423.867 387.267 424.638Q387.829 425.408 388.43 426.149Q389.03 426.89 389.667 427.6Q390.304 428.31 390.975 428.987Q391.647 429.665 392.352 430.307Q393.056 430.95 393.792 431.557C401.806 438.201 412.259 441.378 422.62 440.891C435.058 439.324 445.59 435.01 453.43 424.89C459.953 416.468 462.194 406.362 460.843 395.852C459.578 386.015 453.879 377.149 446.022 371.213C438.543 365.563 428.139 362.491 418.776 363.21ZM214.582 364.678L214.572 376.942C221.724 376.869 228.884 376.718 236.035 376.729C235.894 397.705 235.19 418.88 235.83 439.832L249.891 439.606Q250.049 429.206 250.079 418.804Q250.184 397.847 250.059 376.89C257.393 376.947 264.747 376.9 272.077 377.135C272.153 372.901 272.293 368.657 272.255 364.422L214.582 364.678ZM480.668 364.993C480.858 389.986 481.262 415.057 480.776 440.045L522.533 440.037L522.634 427.118Q509.173 427.535 495.705 427.446Q495.551 396.155 495.737 364.864L480.668 364.993ZM344.003 467.615C340.204 468.361 336.635 469.406 334.445 472.855C332.928 475.246 331.918 478.84 332.587 481.656C333.147 484.016 334.891 485.662 336.914 486.863C340.402 488.934 349.675 490.645 350.77 494.684C351.063 495.762 350.856 497.248 350.245 498.19C349.366 499.546 347.312 500.298 345.761 500.448C342.963 500.718 339.547 499.487 337.471 497.628C337.046 497.247 336.647 496.841 336.25 496.431L329.957 501.14C334.111 503.467 337.993 505.452 342.628 506.635C347.064 506.744 351.061 506.343 354.373 503.008C356.636 500.729 359.051 497.275 358.876 493.9C358.751 491.468 357.215 489.395 355.434 487.852C351.495 484.44 340.344 482.825 339.362 477.777C339.712 476.501 340.357 475.331 341.539 474.632C343.667 473.372 346.575 473.522 348.843 474.297C350.481 474.856 352.061 475.721 353.567 476.569C354.629 475.245 355.968 474.027 355.982 472.243C355.444 470.657 354.779 469.799 353.265 469.102C350.624 467.887 346.878 467.638 344.003 467.615ZM578.049 467.59C572.198 469.041 566.977 471.333 563.721 476.731C560.832 481.52 560.303 487.753 561.82 493.085C563.18 497.869 566.263 501.986 570.636 504.407C575.296 506.987 581.206 507.614 586.301 506.071C589.781 505.017 592.62 503.152 595.202 500.63C594.024 499.323 592.809 497.559 591.04 497.158C589.848 497.387 589.243 497.832 588.285 498.559C584.999 500.298 581.123 501.483 577.43 500.335C574.178 499.324 571.638 496.731 570.195 493.704C568.316 489.764 568.235 485.342 569.785 481.274C570.925 478.284 572.938 475.523 575.934 474.2C579.119 472.795 582.918 473.346 586.069 474.583C588.096 475.379 589.991 476.604 591.813 477.782L594.76 472.339C589.61 468.416 584.466 467.164 578.049 467.59ZM670.894 467.534C667.216 468.541 663.526 470.176 661.602 473.695C660.358 475.971 659.776 479.066 660.594 481.575C661.585 484.615 664.468 486.795 667.276 488.07C670.895 489.715 676.084 490.801 678.213 494.318C678.452 495.767 678.338 496.754 677.512 497.977C676.566 499.377 675.393 500.177 673.724 500.394C670.524 500.808 667.783 499.616 665.378 497.577Q664.245 496.617 663.195 495.566C661.594 497.508 659.987 499.425 658.571 501.51C662.862 505.075 666.574 506.386 672.083 506.801C676.096 506.423 680.25 505.708 682.991 502.427C684.951 500.08 686.031 495.889 685.709 492.871C685.449 490.45 684.211 488.568 682.29 487.112C678.951 484.583 667.789 483.282 667.014 479.255C666.732 477.788 667.09 476.759 667.937 475.573C668.783 474.388 669.717 473.817 671.148 473.503C674.519 472.762 677.77 475.278 680.242 477.147C681.359 475.566 682.798 474.037 682.786 472.015C682.195 470.434 681.557 469.511 679.957 468.819C677.186 467.622 673.872 467.385 670.894 467.534ZM403.974 468.284L379.592 468.453L379.886 506.027C388.023 506.032 396.197 505.876 404.329 506.107C404.342 504.121 404.336 502.229 404.047 500.261C403.212 499.498 403.262 499.546 402.125 499.56Q394.611 499.958 387.087 499.888L387.069 489.558L402.482 489.65L402.526 483.499L387.009 483.596L387.019 474.445C391.75 474.429 400.172 475.572 404.058 473.223C404.799 471.756 404.526 470.621 404.462 468.996L403.974 468.284ZM432.249 468.276L427.489 468.479C427.686 480.94 428.154 493.511 427.588 505.963L435.003 506.126C435.056 501.964 434.316 495.134 436.97 491.687C437.782 491.276 437.63 491.127 438.376 491.391C442.2 492.744 445.789 500.995 447.943 504.23C449.532 505.896 450.829 505.83 453.055 505.879Q455.472 505.925 457.889 505.933C454.161 501.486 451.068 496.437 447.836 491.622C451.744 489.097 454.624 486.668 455.559 481.813C456.131 478.843 455.651 475.624 453.796 473.177C451.395 470.01 447.315 468.709 443.52 468.261C439.799 467.821 435.979 468.107 432.249 468.276ZM476.796 468.115L474.289 468.616L473.813 469.36C476.574 479.346 486.773 498.858 491.766 508.712Q498.477 495.017 505.041 481.25C507.066 477.034 508.946 472.85 510.598 468.468L503.274 468.448Q497.328 480.644 492.139 493.181C489.389 487.849 483.478 471.668 480.034 468.179C478.872 467.98 477.967 467.983 476.796 468.115ZM530.573 468.486L530.477 506.037L537.956 505.803Q538.105 487.043 538.011 468.283L530.573 468.486ZM615.518 468.509C615.587 480.876 615.879 493.295 615.602 505.655C623.389 506.01 631.199 505.947 638.993 505.973L639.007 499.769L622.478 499.848L622.489 490.12C627.453 489.783 632.484 490.013 637.458 490.084L637.5 483.978L622.758 483.906L622.886 474.389L639.359 474.408L639.49 468.48L615.518 468.509Z"/>
	<path fill="#54282A" d="M317.29 267.223C329.389 261.602 341.424 257.033 354.6 254.651C357.761 260.882 358.97 269.403 360.609 276.214C348.731 280.03 333.689 283.247 321.31 284.716C319.864 279.062 318.041 272.996 317.29 267.223Z"/>
	<path fill="#686E62" d="M288.857 296.487C289.323 290.692 289.822 284.654 292.756 279.492C296.541 272.83 302.678 271.084 309.59 269.288C312.396 274.505 312.421 280.989 314.043 286.628C314.967 289.84 317.05 293.284 317.524 296.511C314.517 298.064 292.882 297.206 288.857 296.487Z"/>
	<path fill="#54282A" d="M665.558 280.406C677.547 277.551 689.392 274.551 701.202 271.022L702.461 271.028C706.862 275.761 704.891 284.618 708.467 289.75C708.933 290.42 709.312 290.714 709.417 291.559C709.5 292.231 708.915 292.88 708.497 293.334C704.67 297.493 680.38 296.274 673.875 296.325L669.383 296.208C667.792 291.048 666.758 285.67 665.558 280.406Z"/>
	<path fill="#54282A" d="M322.609 289.897C335.637 287.283 348.515 284.24 361.444 281.186C363.571 284.477 364.887 293.337 365.86 297.442L326.875 297.492C325.985 297.528 325.546 297.455 324.744 297.063C323.288 294.955 323.066 292.372 322.609 289.897Z"/>
	<path fill="#F3AC37" d="M514.754 295.999C512.713 303.406 507.946 312.867 507.42 320.269C510.766 316.474 516.099 309.224 521.561 309.099C522.724 309.072 523.964 309.298 524.887 310.056C526.18 311.116 526.431 312.989 526.422 314.555C526.395 319.491 520.845 331.473 522.16 334.649C523.41 335.063 524.052 334.8 525.167 334.15C527.279 332.918 529.22 331.329 531.338 330.059C529.271 333.042 525.594 338.241 521.83 338.892C520.237 339.168 518.242 338.899 516.889 337.971C515.87 337.271 515.501 336.04 515.428 334.863C515.062 328.925 522.599 318.983 519.229 314.092C518.607 313.749 518.236 313.301 517.501 313.53C514.815 314.366 511.51 318.801 509.69 320.964C505.768 326.372 504.126 332.105 502.395 338.448L496.088 339.003C497.316 334.016 506.732 303.085 505.812 301.287C504.661 301.155 503.81 301.058 502.745 300.561L502.565 299.85C505.772 297.955 511.085 297.178 514.754 295.999Z"/>
	<path fill="#F3AC37" d="M460.201 298.179L468.649 298.534C476.901 298.206 485.223 298.381 493.481 298.476L499.87 298.319C498.459 304.083 497.376 310.33 495.38 315.897C495.035 311.146 495.677 304.92 492.307 301.228C489.605 300.546 487.044 300.515 484.282 300.482C482.801 306.716 474.442 331.102 475.775 335.288C477.732 336.901 480.336 337.393 482.732 338.098C475.112 338.942 466.372 339.101 458.753 338.403C461.606 337.288 464.584 336.465 467.51 335.562C471.017 323.925 472.775 311.806 476.339 300.17C473.691 300.229 471.074 300.508 468.416 300.496C461.939 303.599 460.643 308.891 457.897 315.036C457.945 309.448 459.278 303.683 460.201 298.179Z"/>
	<path fill="#F3AC37" d="M557.498 330.665C555.132 333.22 552.458 335.509 549.368 337.149C546.289 338.785 542.59 339.701 539.178 338.585Q538.759 338.45 538.356 338.273Q537.952 338.097 537.568 337.882Q537.184 337.667 536.823 337.414Q536.462 337.162 536.128 336.875Q535.794 336.589 535.49 336.27Q535.186 335.952 534.915 335.605Q534.643 335.258 534.408 334.886Q534.172 334.514 533.975 334.121C532.422 331.041 532.726 327.39 533.779 324.207C536.073 317.277 541.06 312.952 547.358 309.763C550.322 309.122 554.435 308.249 557.143 310.177C558.26 310.973 558.674 312.044 558.746 313.374C558.882 315.885 556.776 318.536 555.009 320.081C552.606 322.183 549.192 323.802 546.121 324.716C544.088 325.471 541.42 326.108 540.212 328.03C539.557 329.072 539.195 330.45 539.624 331.637C540.052 332.82 541.126 333.69 542.235 334.213C547.517 336.703 552.145 332.697 556.894 330.89L557.498 330.665ZM550.31 310.58C546.434 312.569 542.235 317.183 540.994 321.499C540.651 322.691 540.585 322.863 541.213 323.885C541.923 323.84 542.627 323.816 543.331 323.701C546.392 321.35 550.079 320.564 552.482 317.103C553.164 316.12 553.538 314.926 553.216 313.738C552.786 312.154 551.58 311.431 550.31 310.58Z"/>
	<path fill="#54282A" d="M543.331 323.701C542.627 323.816 541.923 323.84 541.213 323.885C540.585 322.863 540.651 322.691 540.994 321.499C542.235 317.183 546.434 312.569 550.31 310.58C551.58 311.431 552.786 312.154 553.216 313.738C553.538 314.926 553.164 316.12 552.482 317.103C550.079 320.564 546.392 321.35 543.331 323.701Z"/>
	<path fill="#F3AC37" d="M540.067 440.115L540.357 385.43C540.338 378.191 539.08 367.42 540.415 360.605C541.508 360.799 542.198 361.22 542.935 362.035C546.723 366.223 550.042 371.051 553.536 375.491C562.006 386.255 570.699 397.374 579.968 407.451L607.897 372.481C611.202 368.328 614.107 363.888 617.526 359.822C618.272 369.24 617.667 378.931 617.628 388.384L617.485 440.047L602.429 440.064L602.443 428.482L602.692 397.779C595.715 408.492 587.339 418.458 579.482 428.532C570.55 418.608 562.435 407.597 554.458 396.89C555.341 411.182 554.957 425.682 555.006 440.006L540.067 440.115Z"/>
	<path fill="#F3AC37" d="M721.548 440.109L721.545 389.774C721.514 380.307 720.966 370.539 721.64 361.12C730.078 364.037 763.872 401.157 771.433 409.796L771.379 364.934Q778.959 364.724 786.541 364.853C786.108 383.121 786.481 401.452 786.535 419.726C786.558 427.79 787.383 436.762 786.201 444.712C779.664 439.734 774.036 432.742 768.326 426.814L736.937 394.588L737.136 440.144L721.548 440.109Z"/>
	<path fill="#F3AC37" d="M632.405 439.973C645.231 414.21 656.324 387.593 668.991 361.741C670.414 362.504 670.869 363.56 671.588 364.937C676.92 375.158 681.282 386.169 686.126 396.648C692.866 411.234 700.072 425.607 706.86 440.176L689.449 439.827L685.157 427.561L671.625 427.618L653.519 427.433L648.285 439.91L632.405 439.973ZM669.568 390.314Q663.937 403.303 658.495 416.373Q663.935 416.335 669.375 416.234C672.953 416.161 676.541 416.144 680.116 416.004C676.631 407.43 672.909 398.945 669.568 390.314Z"/>
	<path fill="#F3AC37" d="M325.271 441.107C315.42 441.065 306.346 438.407 298.61 432.151C290.585 425.661 284.92 415.984 283.958 405.643C283.007 395.423 285.973 385.966 292.623 378.16C300.967 368.363 311.456 364.203 324.063 363.208C334.414 362.687 344.335 366.64 352.048 373.467C359.807 380.333 364.058 389.221 364.593 399.55C365.132 409.947 362.332 419.89 355.21 427.669C347.509 436.081 336.57 440.636 325.271 441.107ZM323.17 376.182C315.875 376.886 309.579 379.374 304.786 385.197C300.078 390.916 298.142 398.708 299.042 406.014Q299.123 406.643 299.234 407.266Q299.346 407.89 299.488 408.508Q299.631 409.125 299.804 409.735Q299.977 410.345 300.179 410.945Q300.382 411.546 300.614 412.135Q300.846 412.725 301.108 413.303Q301.369 413.88 301.658 414.444Q301.947 415.008 302.264 415.557Q302.581 416.105 302.925 416.638Q303.268 417.17 303.638 417.685Q304.008 418.2 304.402 418.696Q304.797 419.192 305.216 419.668Q305.634 420.143 306.076 420.598Q306.518 421.052 306.981 421.485Q307.445 421.917 307.929 422.325Q308.414 422.734 308.918 423.118C313.815 426.895 320.125 428.69 326.275 428.379C334.207 426.991 340.965 423.741 345.726 416.921Q346.092 416.402 346.432 415.866Q346.771 415.33 347.083 414.776Q347.394 414.223 347.677 413.655Q347.96 413.087 348.214 412.505Q348.468 411.923 348.691 411.329Q348.915 410.735 349.108 410.13Q349.301 409.525 349.463 408.912Q349.625 408.298 349.756 407.677Q349.887 407.055 349.985 406.428Q350.084 405.801 350.151 405.17Q350.217 404.539 350.252 403.905Q350.286 403.271 350.288 402.636Q350.29 402.001 350.26 401.367Q350.23 400.733 350.167 400.101Q350.105 399.47 350.01 398.842Q349.915 398.214 349.789 397.592Q349.668 396.948 349.516 396.31Q349.363 395.673 349.18 395.044Q348.996 394.415 348.781 393.796Q348.566 393.177 348.32 392.569Q348.075 391.962 347.799 391.367Q347.524 390.772 347.219 390.192Q346.915 389.612 346.582 389.047Q346.249 388.483 345.888 387.936Q345.527 387.389 345.14 386.86Q344.752 386.332 344.339 385.823Q343.926 385.314 343.488 384.827Q343.05 384.339 342.588 383.874Q342.126 383.409 341.642 382.968Q341.158 382.526 340.652 382.109Q340.147 381.692 339.621 381.301Q339.095 380.91 338.551 380.545Q337.707 379.979 336.821 379.48Q335.935 378.982 335.013 378.555Q334.09 378.128 333.137 377.775Q332.184 377.421 331.206 377.144Q330.229 376.867 329.232 376.667Q328.235 376.467 327.226 376.346Q326.217 376.226 325.201 376.184Q324.186 376.143 323.17 376.182Z"/>
	<path fill="#F3AC37" d="M422.62 440.891C412.259 441.378 401.806 438.201 393.792 431.557Q393.056 430.95 392.352 430.307Q391.647 429.665 390.975 428.987Q390.304 428.31 389.667 427.6Q389.03 426.89 388.43 426.149Q387.829 425.408 387.267 424.638Q386.704 423.867 386.181 423.07Q385.657 422.273 385.174 421.45Q384.691 420.628 384.25 419.782Q383.809 418.936 383.411 418.07Q383.013 417.203 382.658 416.318Q382.304 415.432 381.994 414.53Q381.684 413.628 381.42 412.711Q381.156 411.795 380.938 410.866Q380.72 409.938 380.549 408.999Q380.378 408.061 380.254 407.115Q380.13 406.17 380.053 405.219Q379.972 404.274 379.939 403.326Q379.906 402.378 379.922 401.43Q379.937 400.482 380 399.536Q380.063 398.589 380.174 397.647Q380.284 396.706 380.443 395.771Q380.601 394.835 380.807 393.91Q381.012 392.984 381.264 392.069Q381.516 391.155 381.814 390.255Q382.112 389.354 382.455 388.47Q382.798 387.586 383.185 386.72Q383.572 385.855 384.003 385.01Q384.433 384.165 384.906 383.343Q385.379 382.52 385.893 381.723Q386.407 380.926 386.96 380.156Q387.513 379.386 388.105 378.645Q388.697 377.903 389.325 377.193C397.073 368.257 407.155 364.108 418.776 363.21C428.139 362.491 438.543 365.563 446.022 371.213C453.879 377.149 459.578 386.015 460.843 395.852C462.194 406.362 459.953 416.468 453.43 424.89C445.59 435.01 435.058 439.324 422.62 440.891ZM417.015 376.123C409.317 377.936 402.983 380.896 398.564 387.835Q398.219 388.377 397.902 388.935Q397.584 389.493 397.295 390.066Q397.005 390.639 396.745 391.226Q396.484 391.812 396.253 392.411Q396.021 393.01 395.82 393.62Q395.619 394.23 395.448 394.849Q395.277 395.467 395.137 396.094Q394.996 396.721 394.888 397.353Q394.779 397.986 394.701 398.623Q394.624 399.261 394.578 399.901Q394.532 400.542 394.518 401.184Q394.504 401.825 394.522 402.467Q394.54 403.109 394.59 403.749Q394.639 404.389 394.721 405.026Q394.802 405.663 394.914 406.295Q395.027 406.927 395.171 407.553Q395.331 408.221 395.524 408.881Q395.716 409.54 395.942 410.189Q396.167 410.838 396.425 411.475Q396.682 412.112 396.971 412.736Q397.26 413.359 397.579 413.967Q397.898 414.576 398.248 415.167Q398.597 415.759 398.975 416.333Q399.353 416.906 399.76 417.46Q400.166 418.014 400.599 418.547Q401.033 419.081 401.492 419.592Q401.951 420.103 402.435 420.59Q402.919 421.078 403.427 421.54Q403.935 422.003 404.465 422.44Q404.995 422.877 405.547 423.287Q406.098 423.697 406.669 424.08Q407.24 424.462 407.829 424.815C413.218 428.034 419.029 428.908 425.185 428.056C433.221 425.708 439.707 421.699 443.792 414.136C447.088 408.034 447.572 401.118 445.513 394.533C443.459 387.964 439.044 382.387 432.936 379.142C427.823 376.426 422.667 375.909 417.015 376.123Z"/>
	<path fill="#F3AC37" d="M214.572 376.942L214.582 364.678L272.255 364.422C272.293 368.657 272.153 372.901 272.077 377.135C264.747 376.9 257.393 376.947 250.059 376.89Q250.184 397.847 250.079 418.804Q250.049 429.206 249.891 439.606L235.83 439.832C235.19 418.88 235.894 397.705 236.035 376.729C228.884 376.718 221.724 376.869 214.572 376.942Z"/>
	<path fill="#F3AC37" d="M480.776 440.045C481.262 415.057 480.858 389.986 480.668 364.993L495.737 364.864Q495.551 396.156 495.705 427.446Q509.173 427.535 522.634 427.118L522.533 440.037L480.776 440.045Z"/>
	<path fill="#54282A" d="M326.275 428.379C320.125 428.69 313.815 426.895 308.918 423.118Q308.414 422.734 307.929 422.325Q307.445 421.917 306.981 421.485Q306.518 421.052 306.076 420.598Q305.634 420.143 305.216 419.668Q304.797 419.192 304.402 418.696Q304.008 418.2 303.638 417.685Q303.268 417.17 302.925 416.638Q302.581 416.105 302.264 415.557Q301.947 415.008 301.658 414.444Q301.369 413.88 301.108 413.303Q300.846 412.725 300.614 412.135Q300.382 411.546 300.179 410.945Q299.977 410.345 299.804 409.735Q299.631 409.125 299.488 408.508Q299.346 407.89 299.234 407.266Q299.123 406.643 299.042 406.014C298.142 398.708 300.078 390.916 304.786 385.197C309.579 379.374 315.875 376.886 323.17 376.182Q324.186 376.143 325.201 376.184Q326.217 376.226 327.226 376.346Q328.235 376.467 329.232 376.667Q330.229 376.867 331.206 377.144Q332.184 377.421 333.137 377.775Q334.09 378.128 335.013 378.555Q335.935 378.982 336.821 379.48Q337.707 379.979 338.551 380.545Q339.095 380.91 339.621 381.301Q340.147 381.692 340.652 382.109Q341.158 382.526 341.642 382.968Q342.126 383.409 342.588 383.874Q343.05 384.339 343.488 384.827Q343.926 385.314 344.339 385.823Q344.752 386.332 345.14 386.86Q345.527 387.389 345.888 387.936Q346.249 388.483 346.582 389.047Q346.915 389.612 347.219 390.192Q347.524 390.772 347.799 391.367Q348.075 391.962 348.32 392.569Q348.566 393.177 348.781 393.796Q348.996 394.415 349.18 395.044Q349.363 395.673 349.516 396.31Q349.668 396.948 349.789 397.592Q349.915 398.214 350.01 398.842Q350.105 399.47 350.167 400.101Q350.23 400.733 350.26 401.367Q350.29 402.001 350.288 402.636Q350.286 403.271 350.252 403.905Q350.217 404.539 350.151 405.17Q350.084 405.801 349.985 406.428Q349.887 407.055 349.756 407.677Q349.625 408.298 349.463 408.912Q349.301 409.525 349.108 410.13Q348.915 410.735 348.691 411.329Q348.468 411.923 348.214 412.505Q347.96 413.087 347.677 413.655Q347.394 414.223 347.083 414.776Q346.771 415.33 346.432 415.866Q346.092 416.402 345.726 416.921C340.965 423.741 334.207 426.991 326.275 428.379Z"/>
	<path fill="#54282A" d="M425.185 428.056C419.029 428.908 413.218 428.034 407.829 424.815Q407.24 424.462 406.669 424.08Q406.098 423.697 405.547 423.287Q404.995 422.877 404.465 422.44Q403.935 422.003 403.427 421.54Q402.919 421.078 402.435 420.59Q401.951 420.103 401.492 419.592Q401.033 419.081 400.599 418.547Q400.166 418.014 399.76 417.46Q399.353 416.906 398.975 416.333Q398.597 415.759 398.248 415.167Q397.898 414.576 397.579 413.967Q397.26 413.359 396.971 412.736Q396.682 412.112 396.425 411.475Q396.167 410.838 395.942 410.189Q395.716 409.54 395.524 408.881Q395.331 408.221 395.171 407.553Q395.027 406.927 394.914 406.295Q394.802 405.663 394.721 405.026Q394.639 404.389 394.59 403.749Q394.54 403.109 394.522 402.467Q394.504 401.825 394.518 401.184Q394.532 400.542 394.578 399.901Q394.624 399.261 394.701 398.623Q394.779 397.986 394.888 397.353Q394.996 396.721 395.137 396.094Q395.277 395.467 395.448 394.849Q395.619 394.23 395.82 393.62Q396.021 393.01 396.253 392.411Q396.484 391.812 396.745 391.226Q397.005 390.639 397.295 390.066Q397.584 389.493 397.902 388.935Q398.219 388.377 398.564 387.835C402.983 380.896 409.317 377.936 417.015 376.123C422.667 375.909 427.823 376.426 432.936 379.142C439.044 382.387 443.459 387.964 445.513 394.533C447.572 401.118 447.088 408.034 443.792 414.136C439.707 421.699 433.221 425.708 425.185 428.056Z"/>
	<path fill="#54282A" d="M658.495 416.373Q663.937 403.303 669.568 390.314C672.909 398.945 676.631 407.43 680.116 416.004C676.541 416.144 672.953 416.161 669.375 416.234Q663.935 416.335 658.495 416.373Z"/>
	<path fill="#F3AC37" d="M336.25 496.431C336.647 496.841 337.046 497.247 337.471 497.628C339.547 499.487 342.963 500.718 345.761 500.448C347.312 500.298 349.366 499.546 350.245 498.19C350.856 497.248 351.063 495.762 350.77 494.684C349.675 490.645 340.402 488.934 336.914 486.863C334.891 485.662 333.147 484.016 332.587 481.656C331.918 478.84 332.928 475.246 334.445 472.855C336.635 469.406 340.204 468.361 344.003 467.615C346.878 467.638 350.624 467.887 353.265 469.102C354.779 469.799 355.444 470.657 355.982 472.243C355.968 474.027 354.629 475.245 353.567 476.569C352.061 475.721 350.481 474.856 348.843 474.297C346.575 473.522 343.667 473.372 341.539 474.632C340.357 475.331 339.712 476.501 339.362 477.777C340.344 482.825 351.495 484.44 355.434 487.852C357.215 489.395 358.751 491.468 358.876 493.9C359.051 497.275 356.636 500.729 354.373 503.008C351.061 506.343 347.064 506.744 342.628 506.635C337.993 505.452 334.111 503.467 329.957 501.14L336.25 496.431Z"/>
	<path fill="#F3AC37" d="M595.202 500.63C592.62 503.152 589.781 505.017 586.301 506.071C581.206 507.614 575.296 506.987 570.636 504.407C566.263 501.986 563.18 497.869 561.82 493.085C560.303 487.753 560.832 481.52 563.721 476.731C566.977 471.333 572.198 469.041 578.049 467.59C584.466 467.164 589.61 468.416 594.76 472.339L591.813 477.782C589.991 476.604 588.096 475.379 586.069 474.583C582.918 473.346 579.119 472.795 575.934 474.2C572.938 475.523 570.925 478.284 569.785 481.274C568.235 485.342 568.316 489.764 570.195 493.704C571.638 496.731 574.178 499.324 577.43 500.335C581.123 501.483 584.999 500.298 588.285 498.559C589.243 497.832 589.848 497.387 591.04 497.158C592.809 497.559 594.024 499.323 595.202 500.63Z"/>
	<path fill="#F3AC37" d="M663.195 495.566Q664.245 496.617 665.378 497.577C667.783 499.616 670.524 500.808 673.724 500.394C675.393 500.177 676.566 499.377 677.512 497.977C678.338 496.754 678.452 495.767 678.213 494.318C676.084 490.801 670.895 489.715 667.276 488.07C664.468 486.795 661.585 484.615 660.594 481.575C659.776 479.066 660.358 475.971 661.602 473.695C663.526 470.176 667.216 468.541 670.894 467.534C673.872 467.385 677.186 467.622 679.957 468.819C681.557 469.511 682.195 470.434 682.786 472.015C682.798 474.037 681.359 475.566 680.242 477.147C677.77 475.278 674.519 472.762 671.148 473.503C669.717 473.817 668.783 474.388 667.937 475.573C667.09 476.759 666.732 477.788 667.014 479.255C667.789 483.282 678.951 484.583 682.29 487.112C684.211 488.568 685.449 490.45 685.709 492.871C686.031 495.889 684.951 500.08 682.991 502.427C680.25 505.708 676.096 506.423 672.083 506.801C666.574 506.386 662.862 505.075 658.571 501.51C659.987 499.425 661.594 497.508 663.195 495.566Z"/>
	<path fill="#F3AC37" d="M379.592 468.453L403.974 468.284L404.462 468.996C404.526 470.621 404.799 471.756 404.058 473.223C400.172 475.572 391.75 474.429 387.019 474.445L387.009 483.596L402.526 483.499L402.482 489.65L387.069 489.558L387.087 499.888Q394.611 499.958 402.125 499.56C403.262 499.546 403.212 499.498 404.047 500.261C404.336 502.229 404.342 504.121 404.329 506.107C396.197 505.876 388.023 506.032 379.886 506.027L379.592 468.453Z"/>
	<path fill="#F3AC37" d="M427.489 468.479L432.249 468.276C435.979 468.107 439.799 467.821 443.52 468.261C447.315 468.709 451.395 470.01 453.796 473.177C455.651 475.624 456.131 478.843 455.559 481.813C454.624 486.668 451.744 489.097 447.836 491.622C451.068 496.437 454.161 501.486 457.889 505.933Q455.472 505.925 453.055 505.879C450.829 505.83 449.532 505.896 447.943 504.23C445.789 500.995 442.2 492.744 438.376 491.391C437.63 491.127 437.782 491.276 436.97 491.687C434.316 495.134 435.056 501.964 435.003 506.126L427.588 505.963C428.154 493.511 427.686 480.94 427.489 468.479ZM435.334 473.922L435.352 486.003C439.559 485.983 442.697 485.973 446.46 483.837C447.506 482.111 448.318 480.201 447.831 478.125C447.492 476.683 446.442 475.779 445.178 475.157C442.054 473.62 438.722 473.904 435.334 473.922Z"/>
	<path fill="#F3AC37" d="M491.766 508.712C486.773 498.858 476.574 479.346 473.813 469.36L474.289 468.616L476.796 468.115C477.967 467.983 478.872 467.98 480.034 468.179C483.478 471.668 489.389 487.849 492.139 493.181Q497.328 480.644 503.274 468.448L510.598 468.468C508.946 472.85 507.066 477.034 505.041 481.25Q498.477 495.017 491.766 508.712Z"/>
	<path fill="#F3AC37" d="M530.477 506.037L530.573 468.486L538.011 468.283Q538.105 487.043 537.956 505.803L530.477 506.037Z"/>
	<path fill="#F3AC37" d="M615.602 505.655C615.879 493.295 615.587 480.876 615.518 468.509L639.49 468.48L639.359 474.408L622.886 474.389L622.758 483.906L637.5 483.978L637.458 490.084C632.484 490.013 627.453 489.783 622.489 490.12L622.478 499.848L639.007 499.769L638.993 505.973C631.199 505.947 623.389 506.01 615.602 505.655Z"/>
	<path fill="#54282A" d="M435.352 486.003L435.334 473.922C438.722 473.904 442.054 473.62 445.178 475.157C446.442 475.779 447.492 476.683 447.831 478.125C448.318 480.201 447.506 482.111 446.46 483.837C442.697 485.973 439.559 485.983 435.352 486.003Z"/>
	<path fill="#686E62" d="M333.729 552.05C345.642 552.304 357.615 551.944 369.535 551.939Q411.842 552.049 454.147 551.695L623.548 551.765Q681.043 551.266 738.535 552.037C738.502 555.409 738.289 558.898 738.596 562.252C737.852 587.38 724.64 610.894 706.696 627.842C680.205 652.863 645.504 664.401 609.531 664.693C599.343 663.801 588.398 664.54 578.127 664.549L505.784 664.986L449.834 664.855C439.516 664.756 428.247 663.725 418.023 664.987C408.853 665.276 400.159 664.701 391.326 662.022C368.152 654.992 350.894 638.053 339.784 616.944C328.586 595.667 326.671 574.937 333.729 552.05ZM420.065 579.731C411.337 580.095 404.069 581.992 397.904 588.683C392.122 594.959 389.509 603.741 390.046 612.182C390.553 620.145 394.276 627.342 400.284 632.552C404.422 636.141 409.203 638.296 414.652 638.99C422.507 639.99 430.891 639.459 438.805 639.436L479.655 639.418L568 639.548C580.402 639.61 592.793 640.068 605.198 639.995C613.7 639.743 620.6 637.481 626.515 631.141C632.169 625.08 634.851 617.261 634.517 609.01C634.171 600.473 630.451 592.035 624.054 586.3C619.807 582.493 614.786 580.457 609.174 579.725C601.18 578.684 592.65 579.377 584.591 579.47L545.913 579.639C504.005 579.663 461.957 578.691 420.065 579.731Z"/>
	<path fill="#54282A" d="M605.198 639.995C592.793 640.068 580.402 639.61 568 639.548L479.655 639.418L438.805 639.436C430.891 639.459 422.507 639.99 414.652 638.99C409.203 638.296 404.422 636.141 400.284 632.552C394.276 627.342 390.553 620.145 390.046 612.182C389.509 603.741 392.122 594.959 397.904 588.683C404.069 581.992 411.337 580.095 420.065 579.731C461.957 578.691 504.005 579.663 545.913 579.639L584.591 579.47C592.65 579.377 601.18 578.684 609.174 579.725C614.786 580.457 619.807 582.493 624.054 586.3C630.451 592.035 634.171 600.473 634.517 609.01C634.851 617.261 632.169 625.08 626.515 631.141C620.6 637.481 613.7 639.743 605.198 639.995ZM579.829 617.204C580.628 617.112 581.418 616.937 582.207 616.788C583.135 613.019 582.558 607.604 582.739 603.619C582.827 601.672 583.077 599.253 581.677 597.714C580.493 597.527 580.565 597.375 579.413 597.948L579.059 599.783C579.746 605.582 579.303 611.414 579.829 617.204ZM517.454 604.848C516.053 602.522 514.666 601.339 511.996 600.622C508.638 599.719 504.453 600.139 501.004 600.439C501.058 600.657 501.116 600.874 501.166 601.093C502.748 607.893 501.812 615.091 501.9 622.012C502.98 622.543 503.179 622.39 504.333 622.297C505.331 620.618 505.029 617.553 505.043 615.569C507.266 615.532 509.727 615.635 511.887 615.086C513.989 614.551 516.327 613.545 517.405 611.55C518.596 609.346 518.232 607.103 517.454 604.848ZM469.97 621.279C470.901 621.962 470.899 622.042 472.038 621.982C473.312 619.746 472.501 616.137 473.086 613.533C474.813 612.468 476.508 613.486 478.291 612.559L478.409 611.511C476.298 609.12 473.25 610.522 470.373 609.659C470.201 609.607 470.031 609.55 469.86 609.496L469.97 621.279ZM576.479 610.046C573.753 610.132 569.633 609.577 567.312 610.784C565.989 612.95 566.093 619.106 566.675 621.505C566.803 622.034 566.911 622.145 567.168 622.548L567.88 622.722C570.559 620.183 568.247 613.826 572.153 611.608C573.331 611.803 573.567 611.958 574.34 612.97C574.945 613.761 575.407 614.707 575.808 615.615C576.347 613.817 576.363 611.91 576.479 610.046ZM488.933 610.709C486.914 609.823 484.914 609.142 482.763 610.071C481.29 610.707 480.274 612.072 479.829 613.585C479.218 615.666 479.453 618.129 480.647 619.967C481.419 621.156 482.598 622.056 484.004 622.347C485.406 622.637 487.618 622.404 488.838 621.6C489.985 620.845 490.081 620.047 490.442 618.82C488.431 619.519 486.666 620.308 484.501 620.031C483.649 619.508 483.31 619.225 482.769 618.344C482.207 617.431 482.301 617.82 482.562 616.816C484.64 616.007 487.008 616.574 489.21 616.237C489.537 616.187 489.863 616.13 490.19 616.077L490.638 616.152C490.743 613.735 490.313 612.631 488.933 610.709ZM550.152 610.362C548.849 610.089 548.867 609.985 547.74 610.659C546.614 612.58 545.951 614.578 544.977 616.554C543.974 614.105 543.056 611.576 541.781 609.254L537.768 616.111C536.835 613.882 536.07 611.737 534.453 609.899L533.646 609.982C532.928 614.415 535.607 619.711 537.389 623.667C538.715 620.882 539.984 618.041 541.418 615.312C542.39 617.644 543.206 620.243 544.867 622.174C545.808 622.246 545.469 622.352 545.933 622.159C546.993 618.056 548.528 614.261 550.152 610.362ZM529.908 610.874C527.649 609.633 525.895 608.578 523.251 609.306C521.623 609.755 520.173 610.825 519.407 612.347C518.556 614.038 518.633 616.124 519.287 617.868C519.892 619.481 521.118 620.789 522.465 621.822C524.869 622.415 526.537 622.679 528.758 621.298C530.417 620.267 531.517 618.681 531.829 616.744C532.231 614.244 531.366 612.781 529.908 610.874ZM563.88 615.503C563.757 615.252 563.632 615.002 563.512 614.75C563.111 613.903 562.752 613.01 562.222 612.232C561.199 610.731 559.42 609.518 557.576 609.445C555.252 609.354 553.66 610.506 551.903 611.859C550.98 614.439 550.848 616.189 551.389 618.855C552.911 620.722 554.462 622.268 556.969 622.583C558.522 622.778 560.208 622.286 561.339 621.179C562.039 620.494 562.474 619.605 562.887 618.734C559.787 619.592 558.617 620.323 555.28 619.857C554.705 619.409 554.183 619.282 554.2 618.428C554.261 615.332 561.528 617.077 563.88 615.503ZM466.733 613.026C465.094 611.211 463.57 609.643 460.972 609.588Q460.636 609.583 460.301 609.615Q459.966 609.646 459.637 609.714Q459.307 609.781 458.987 609.884Q458.667 609.986 458.359 610.122Q458.052 610.259 457.761 610.427Q457.47 610.596 457.199 610.794Q456.928 610.993 456.68 611.22Q456.431 611.447 456.209 611.699C454.916 613.142 454.28 614.986 454.472 616.918C454.624 618.463 455.467 620.108 456.737 621.033C457.613 621.672 458.713 622.086 459.713 622.482C461.931 622.116 464.674 621.717 466.004 619.648C467.273 617.674 466.99 615.221 466.733 613.026ZM433.321 612.26C432.837 615.23 431.593 619.298 432.254 622.199L432.889 622.653C433.942 622.144 434.272 622.132 434.675 620.959C435.312 619.108 435.463 616.481 435.551 614.512C435.746 613.263 435.873 612.125 436.479 610.993L437.186 611.195C439.344 614.084 440.651 619.395 442.141 622.809C443.364 619.712 445.363 612.79 447.863 610.737L447.499 611.053L447.723 610.685C449.098 613.966 448.01 617.79 449.407 621.028C450.437 621.831 450.366 621.896 451.652 621.783L452.203 620.759C451.913 617.661 450.957 602.349 449.623 600.759C446.762 602.375 443.988 611.5 442.476 614.705C440.226 609.319 437.991 603.958 435.396 598.726C434.295 603.106 433.923 607.782 433.321 612.26Z"/>
	<path fill="#F3AC37" d="M579.059 599.783L579.413 597.948C580.565 597.375 580.493 597.527 581.677 597.714C583.077 599.253 582.827 601.672 582.739 603.619C582.558 607.604 583.135 613.019 582.207 616.788C581.418 616.937 580.628 617.112 579.829 617.204C579.303 611.414 579.746 605.582 579.059 599.783Z"/>
	<path fill="#F3AC37" d="M435.551 614.512C435.463 616.481 435.312 619.108 434.675 620.959C434.272 622.132 433.942 622.144 432.889 622.653L432.254 622.199C431.593 619.298 432.837 615.23 433.321 612.26C433.923 607.782 434.295 603.106 435.396 598.726C437.991 603.958 440.226 609.319 442.476 614.705C443.988 611.5 446.762 602.375 449.623 600.759C450.957 602.349 451.913 617.661 452.203 620.759L451.652 621.783C450.366 621.896 450.437 621.831 449.407 621.028C448.01 617.79 449.098 613.966 447.723 610.685L447.499 611.053L447.863 610.737C445.363 612.79 443.364 619.712 442.141 622.809C440.651 619.395 439.344 614.084 437.186 611.195L436.479 610.993C435.873 612.125 435.746 613.263 435.551 614.512Z"/>
	<path fill="#F3AC37" d="M501.004 600.439C504.453 600.139 508.638 599.719 511.996 600.622C514.666 601.339 516.053 602.522 517.454 604.848C518.232 607.103 518.596 609.346 517.405 611.55C516.327 613.545 513.989 614.551 511.887 615.086C509.727 615.635 507.266 615.532 505.043 615.569C505.029 617.553 505.331 620.618 504.333 622.297C503.179 622.39 502.98 622.543 501.9 622.012C501.812 615.091 502.748 607.893 501.166 601.093C501.116 600.874 501.058 600.657 501.004 600.439ZM505.147 612.041C506.336 612.561 507.822 612.675 509.117 612.678C511.882 612.683 513.445 611.502 515.312 609.594C514.972 607.49 514.779 605.517 512.873 604.201C510.839 602.796 507.671 603.063 505.298 603.044C505.308 606.003 505.502 609.107 505.147 612.041Z"/>
	<path fill="#54282A" d="M515.312 609.594C513.445 611.502 511.882 612.683 509.117 612.678C507.822 612.675 506.336 612.561 505.147 612.041C505.502 609.107 505.308 606.003 505.298 603.044C507.671 603.063 510.839 602.796 512.873 604.201C514.779 605.517 514.972 607.49 515.312 609.594Z"/>
	<path fill="#F3AC37" d="M522.465 621.822C521.118 620.789 519.892 619.481 519.287 617.868C518.633 616.124 518.556 614.038 519.407 612.347C520.173 610.825 521.623 609.755 523.251 609.306C525.895 608.578 527.649 609.633 529.908 610.874C531.366 612.781 532.231 614.244 531.829 616.744C531.517 618.681 530.417 620.267 528.758 621.298C526.537 622.679 524.869 622.415 522.465 621.822ZM527.989 612.369C526.383 611.692 525.594 611.481 523.87 611.819C522.736 612.655 522.355 612.828 522.02 614.272C521.511 616.46 522.504 618.299 523.683 620.049C524.466 620.067 525.217 620.078 525.981 619.862C527.061 619.556 528.154 618.756 528.595 617.713C529.457 615.673 528.83 614.254 527.989 612.369Z"/>
	<path fill="#F3AC37" d="M459.713 622.482C458.713 622.086 457.613 621.672 456.737 621.033C455.467 620.108 454.624 618.463 454.472 616.918C454.28 614.986 454.916 613.142 456.209 611.699Q456.431 611.447 456.68 611.22Q456.928 610.993 457.199 610.794Q457.47 610.596 457.761 610.427Q458.052 610.259 458.359 610.122Q458.667 609.986 458.987 609.884Q459.307 609.781 459.637 609.714Q459.966 609.646 460.301 609.615Q460.636 609.583 460.972 609.588C463.57 609.643 465.094 611.211 466.733 613.026C466.99 615.221 467.273 617.674 466.004 619.648C464.674 621.717 461.931 622.116 459.713 622.482ZM459.748 611.89C458.282 613.313 457.272 614.321 457.306 616.522C457.321 617.511 457.73 617.919 458.211 618.745C459.765 619.819 460.663 619.872 462.509 619.847C463.729 618.423 464.734 617.063 464.384 615.05C464.175 613.844 463.418 612.975 462.35 612.42C461.478 611.967 460.702 611.936 459.748 611.89Z"/>
	<path fill="#F3AC37" d="M469.86 609.496C470.031 609.55 470.201 609.607 470.373 609.659C473.25 610.522 476.298 609.12 478.409 611.511L478.291 612.559C476.508 613.486 474.813 612.468 473.086 613.533C472.501 616.137 473.312 619.746 472.038 621.982C470.899 622.042 470.901 621.962 469.97 621.279L469.86 609.496Z"/>
	<path fill="#F3AC37" d="M490.442 618.82C490.081 620.047 489.985 620.845 488.838 621.6C487.618 622.404 485.406 622.637 484.004 622.347C482.598 622.056 481.419 621.156 480.647 619.967C479.453 618.129 479.218 615.666 479.829 613.585C480.274 612.072 481.29 610.707 482.763 610.071C484.914 609.142 486.914 609.823 488.933 610.709C490.313 612.631 490.743 613.735 490.638 616.152L490.19 616.077C489.863 616.13 489.537 616.187 489.21 616.237C487.008 616.574 484.64 616.007 482.562 616.816C482.301 617.82 482.207 617.431 482.769 618.344C483.31 619.225 483.649 619.508 484.501 620.031C486.666 620.308 488.431 619.519 490.442 618.82Z"/>
	<path fill="#F3AC37" d="M544.977 616.554C545.951 614.578 546.614 612.58 547.74 610.659C548.867 609.985 548.849 610.089 550.152 610.362C548.528 614.261 546.993 618.056 545.933 622.159C545.469 622.352 545.808 622.246 544.867 622.174C543.206 620.243 542.39 617.644 541.418 615.312C539.984 618.041 538.715 620.882 537.389 623.667C535.607 619.711 532.928 614.415 533.646 609.982L534.453 609.899C536.07 611.737 536.835 613.882 537.768 616.111L541.781 609.254C543.056 611.576 543.974 614.105 544.977 616.554Z"/>
	<path fill="#F3AC37" d="M551.903 611.859C553.66 610.506 555.252 609.354 557.576 609.445C559.42 609.518 561.199 610.731 562.222 612.232C562.752 613.01 563.111 613.903 563.512 614.75C563.632 615.002 563.757 615.252 563.88 615.503C561.528 617.077 554.261 615.332 554.2 618.428C554.183 619.282 554.705 619.409 555.28 619.857C558.617 620.323 559.787 619.592 562.887 618.734C562.474 619.605 562.039 620.494 561.339 621.179C560.208 622.286 558.522 622.778 556.969 622.583C554.462 622.268 552.911 620.722 551.389 618.855C550.848 616.189 550.98 614.439 551.903 611.859Z"/>
	<path fill="#F3AC37" d="M575.808 615.615C575.407 614.707 574.945 613.761 574.34 612.97C573.567 611.958 573.331 611.803 572.153 611.608C568.247 613.826 570.559 620.183 567.88 622.722L567.168 622.548C566.911 622.145 566.803 622.034 566.675 621.505C566.093 619.106 565.989 612.95 567.312 610.784C569.633 609.577 573.753 610.132 576.479 610.046C576.363 611.91 576.347 613.817 575.808 615.615Z"/>
	<path fill="#54282A" d="M523.683 620.049C522.504 618.299 521.511 616.46 522.02 614.272C522.355 612.828 522.736 612.655 523.87 611.819C525.594 611.481 526.383 611.692 527.989 612.369C528.83 614.254 529.457 615.673 528.595 617.713C528.154 618.756 527.061 619.556 525.981 619.862C525.217 620.078 524.466 620.067 523.683 620.049Z"/>
	<path fill="#54282A" d="M462.509 619.847C460.663 619.872 459.765 619.819 458.211 618.745C457.73 617.919 457.321 617.511 457.306 616.522C457.272 614.321 458.282 613.313 459.748 611.89C460.702 611.936 461.478 611.967 462.35 612.42C463.418 612.975 464.175 613.844 464.384 615.05C464.734 617.063 463.729 618.423 462.509 619.847Z"/>
	<path fill="#54282A" d="M418.023 664.987C428.247 663.725 439.516 664.756 449.834 664.855L505.784 664.986L578.127 664.549C588.398 664.54 599.343 663.801 609.531 664.693C599.535 680.203 593.885 694.607 597.849 713.302C602.961 737.412 618.916 757.66 637.14 773.423C624.526 780.602 608.579 787.23 593.872 787.653C593.675 787.711 593.479 787.779 593.279 787.825C591.863 788.154 590.391 788.167 588.945 788.242C588.319 789.689 588.862 791.641 589.089 793.178C597.197 792.81 603.672 792.949 610.066 798.778C614.423 802.749 617.023 808.074 617.207 813.987C617.414 820.626 614.439 826.596 609.916 831.295C601.648 839.885 594.042 835.986 590.1 838.874C590.812 840.824 591.353 842.764 591.846 844.78C599.59 843.909 606.618 844.557 612.893 849.73C617.783 853.76 620.958 859.456 621.515 865.79C622.08 872.223 620.318 878.811 616.084 883.755C610.609 890.148 604.32 891.49 596.389 892.054L596.869 899.579C603.505 899.396 609.318 900.774 614.31 905.442C619.054 909.879 621.498 916.044 621.588 922.492Q621.601 923.086 621.584 923.68Q621.567 924.274 621.52 924.866Q621.473 925.459 621.396 926.048Q621.319 926.637 621.213 927.222Q621.106 927.807 620.97 928.385Q620.834 928.963 620.668 929.534Q620.503 930.105 620.309 930.667Q620.115 931.228 619.893 931.78Q619.671 932.331 619.421 932.87Q619.171 933.409 618.895 933.935Q618.618 934.461 618.315 934.972Q618.012 935.483 617.683 935.979Q617.355 936.474 617.002 936.952Q616.649 937.43 616.272 937.889Q615.895 938.348 615.495 938.788Q615.095 939.228 614.674 939.647C611.602 942.661 607.786 944.629 603.683 945.823C609.624 971.729 614.569 997.961 619.943 1024L413.338 1024C413.466 1018.39 414.154 1012.72 414.535 1007.12Q394.831 1013.56 374.822 1018.97L377.986 1024L340.736 1024C349.608 1018.07 359.672 1012.84 369.386 1008.44L367.47 1004.7C355.686 1011.45 343.146 1017.08 331.497 1024L317.714 1024C310.95 1011.82 304.919 999.045 299.148 986.363C314.43 977.892 330.603 971.031 345.852 962.538L344.106 959.246C328.399 966.675 313.18 975.193 297.582 982.865C289.933 968.405 283.566 953.3 276.421 938.591C291.939 931.118 306.929 922.542 322.448 915.046C321.276 913.422 320.598 912.634 318.617 912.128C315.739 915.289 280.772 932.272 274.618 935.196C269.917 925.671 265.546 915.944 260.985 906.348C265.754 903.715 271.724 901.986 276.8 899.926C284.377 896.853 291.764 893.364 299.294 890.187C300.598 889.636 307.489 886.701 308.579 887.313C312.465 889.497 316.082 901.897 317.787 906.185C324.456 903.52 330.897 900.904 336.554 896.401C339.004 889.335 340.566 881.974 343.119 874.921Q349.293 858.287 357.007 842.31Q364.721 826.332 373.907 811.153C376.307 807.144 378.102 802.614 380.786 798.805C387.831 788.809 406.544 784.505 418.063 782.475L418.023 664.987ZM494.333 769.629C488.601 775.032 484.219 781.281 484.127 789.524C484.05 796.336 486.695 803.119 491.593 807.889C494.963 811.172 498.94 813.135 503.432 814.365C509.581 815.236 515.399 814.888 520.91 811.717C526.863 808.29 531.28 802.093 532.836 795.421C534.406 788.685 533.247 781.997 529.433 776.209C525.808 770.711 520.09 766.638 513.612 765.321C506.71 763.919 500.055 765.73 494.333 769.629ZM494.34 913.621C493.551 914.567 493.56 914.565 493.664 915.842C493.745 916.829 493.952 917.802 494.143 918.772C493.217 919.855 491.388 920.233 489.965 920.369C486.326 920.716 485.732 915.529 481.673 919.635C481.523 919.787 481.393 919.958 481.252 920.119C481.665 921.534 482.705 924.016 481.937 925.322C481.316 926.378 480.342 927.414 479.556 928.358L474.884 925.904L471.777 930.939L475.896 933.672C475.166 935.382 474.521 937.529 473.204 938.863C471.722 938.73 470.204 938.193 468.895 938.91C468.314 940.369 468.187 941.256 468.199 942.827C470.001 945.49 472.304 943.646 471.503 948.106C471.1 950.352 469.372 951.491 467.7 952.82C467.648 954.257 467.622 954.999 468.274 956.331C469.525 957.403 470.75 957.413 472.314 957.585C473.215 958.461 473.358 959.403 473.443 960.66C473.527 961.895 473.026 963.027 472.578 964.142C472.004 965.567 471.856 966.382 472.499 967.851C472.927 968.83 473.267 969.418 474.025 970.183L474.648 970.005C476.562 969.478 478.118 968.947 479.912 970.171C480.765 970.753 481.185 971.422 481.7 972.282C481.746 973.658 481.407 974.466 480.912 975.721C481.433 977.86 482.373 978.415 484.22 979.532Q484.918 979.954 485.624 980.363L488.328 977.134C490.729 978.015 492.11 978.221 493.252 980.694C494.621 983.655 494.953 984.214 498.065 985.554C498.729 984.122 499.502 981.813 501.037 981.133C502.247 980.598 503.261 980.653 504.415 981.252C506.623 982.399 508.025 985.226 510.389 985.644C511.581 985.002 511.976 984.545 512.653 983.378C512.84 981.815 512.698 980.174 514.02 979.063C515.104 978.153 517.44 977.616 518.774 977.144L521.583 980.408C522.923 979.398 525.264 978.042 525.634 976.333C526.609 971.834 525.411 972.573 528.707 968.427L533.735 970.492L536.555 965.316C535.325 964.354 534.032 963.42 532.855 962.396C533.478 961.058 534.343 958.08 535.833 957.715C536.693 957.504 537.919 957.64 538.816 957.649C539.442 956.843 540.035 955.542 539.987 954.483C539.937 953.355 539.779 953.091 539.016 952.308L537.797 951.054C536.589 949.82 536.135 948.642 536.233 946.855C536.337 944.95 537.308 944.24 538.724 943.196Q539.438 942.667 540.166 942.156C540.665 940.952 540.825 940.456 540.267 939.149C540.081 938.715 539.648 938.185 539.356 937.802C538.368 937.605 537.661 937.652 536.68 937.771C535.502 937.914 534.95 937.847 533.867 937.28C532.892 936.04 532.662 935.755 532.409 934.216C533.136 932.318 534.604 931.556 536.183 930.4C535.083 928.942 533.747 926.527 531.935 926.039C530.481 926.397 529.867 927.308 528.947 928.395L523.792 924.069C524.312 922.206 524.735 921.381 524.266 919.476C523.115 918.308 521.904 917.449 520.547 916.535C519.191 918.15 518.022 919.851 515.75 920.035C514.946 920.1 514.589 919.672 513.938 919.265C513.041 917.814 512.078 913.761 510.725 913.369C509.552 913.029 508.132 913.514 507.204 914.182L507.024 914.591C506.534 915.684 506.073 916.552 505.303 917.488C503.876 918.023 503.17 917.934 501.711 917.717C500.196 916.915 499.559 915.544 498.703 914.129C497.032 913.252 496.195 913.508 494.34 913.621Z"/>
	<path fill="#BE6B2D" d="M503.432 814.365C498.94 813.135 494.963 811.172 491.593 807.889C486.695 803.119 484.05 796.336 484.127 789.524C484.219 781.281 488.601 775.032 494.333 769.629C500.055 765.73 506.71 763.919 513.612 765.321C520.09 766.638 525.808 770.711 529.433 776.209C533.247 781.997 534.406 788.685 532.836 795.421C531.28 802.093 526.863 808.29 520.91 811.717C515.399 814.888 509.581 815.236 503.432 814.365ZM505.564 773.093C500.597 774.856 496.617 777.508 494.377 782.454C492.389 786.843 492.364 792.066 494.099 796.537Q494.396 797.313 494.77 798.055Q495.144 798.797 495.591 799.498Q496.038 800.198 496.555 800.849Q497.071 801.5 497.65 802.096Q498.23 802.691 498.867 803.225Q499.504 803.758 500.192 804.224Q500.88 804.69 501.612 805.084Q502.344 805.478 503.112 805.795C506.458 807.184 509.832 807.202 513.386 806.911C518.501 804.786 522.479 802.002 524.659 796.669Q524.827 796.26 524.975 795.844Q525.122 795.427 525.248 795.003Q525.373 794.58 525.477 794.15Q525.581 793.721 525.663 793.287Q525.745 792.852 525.805 792.415Q525.865 791.977 525.902 791.536Q525.939 791.096 525.954 790.654Q525.969 790.213 525.961 789.771Q525.953 789.329 525.923 788.888Q525.892 788.447 525.839 788.009Q525.787 787.57 525.712 787.134Q525.636 786.699 525.539 786.268Q525.442 785.837 525.323 785.411Q525.204 784.986 525.063 784.567Q524.922 784.148 524.761 783.737Q524.599 783.325 524.416 782.923Q524.233 782.521 524.029 782.13Q523.825 781.739 523.602 781.358Q523.378 780.978 523.135 780.61Q522.891 780.242 522.63 779.887Q522.368 779.532 522.087 779.191Q521.807 778.85 521.51 778.524Q521.213 778.198 520.899 777.888Q520.585 777.578 520.255 777.285Q519.926 776.992 519.581 776.716Q519.237 776.44 518.878 776.182Q518.52 775.925 518.149 775.686Q517.778 775.448 517.395 775.229Q517.012 775.01 516.618 774.811Q516.224 774.612 515.82 774.434Q515.417 774.256 515.004 774.099Q514.592 773.942 514.172 773.807C511.396 772.896 508.452 772.898 505.564 773.093Z"/>
	<path fill="#54282A" d="M513.386 806.911C509.832 807.202 506.458 807.184 503.112 805.795Q502.344 805.478 501.612 805.084Q500.88 804.69 500.192 804.224Q499.504 803.758 498.867 803.225Q498.23 802.691 497.65 802.096Q497.071 801.5 496.555 800.849Q496.038 800.198 495.591 799.498Q495.144 798.797 494.77 798.055Q494.396 797.313 494.099 796.537C492.364 792.066 492.389 786.843 494.377 782.454C496.617 777.508 500.597 774.856 505.564 773.093C508.452 772.898 511.396 772.896 514.172 773.807Q514.592 773.942 515.004 774.099Q515.417 774.256 515.82 774.434Q516.224 774.612 516.618 774.811Q517.012 775.01 517.395 775.229Q517.778 775.448 518.149 775.686Q518.52 775.925 518.878 776.182Q519.237 776.44 519.581 776.716Q519.926 776.992 520.255 777.285Q520.585 777.578 520.899 777.888Q521.213 778.198 521.51 778.524Q521.807 778.85 522.087 779.191Q522.368 779.532 522.63 779.887Q522.891 780.242 523.135 780.61Q523.378 780.978 523.602 781.358Q523.825 781.739 524.029 782.13Q524.233 782.521 524.416 782.923Q524.599 783.325 524.761 783.737Q524.922 784.148 525.063 784.567Q525.204 784.986 525.323 785.411Q525.442 785.837 525.539 786.268Q525.636 786.699 525.712 787.134Q525.787 787.57 525.839 788.009Q525.892 788.447 525.923 788.888Q525.953 789.329 525.961 789.771Q525.969 790.213 525.954 790.654Q525.939 791.096 525.902 791.536Q525.865 791.977 525.805 792.415Q525.745 792.852 525.663 793.287Q525.581 793.721 525.477 794.15Q525.373 794.58 525.248 795.003Q525.122 795.427 524.975 795.844Q524.827 796.26 524.659 796.669C522.479 802.002 518.501 804.786 513.386 806.911Z"/>
	<path fill="#F3AC37" d="M257.784 907.569C259.004 907.418 259.915 906.904 260.985 906.348C265.546 915.944 269.917 925.671 274.618 935.196C280.772 932.272 315.739 915.289 318.617 912.128C320.598 912.634 321.276 913.422 322.448 915.046C306.929 922.542 291.939 931.118 276.421 938.591C283.566 953.3 289.933 968.405 297.582 982.865C313.18 975.193 328.399 966.675 344.106 959.246L345.852 962.538C330.603 971.031 314.43 977.892 299.148 986.363C304.919 999.045 310.95 1011.82 317.714 1024L313.249 1024C306.913 1012.22 301.431 1000.04 295.514 988.056C279.716 995.756 263.826 1003.67 248.329 1011.96Q251.306 1017.95 254.175 1024L249.871 1024C248.432 1020.49 246.478 1017.04 244.803 1013.62C238.679 1017.17 232.33 1020.3 226.286 1024L216.395 1024C224.631 1018.78 234.293 1015 242.926 1010.32C236.256 995.672 228.529 981.544 221.918 966.849C205.795 974.479 189.588 982.571 173.85 990.955Q182.113 1007.64 190.992 1024L186.293 1024Q178.336 1008.33 170.747 992.478C155.044 1000.5 139.096 1008.3 123.736 1016.96C124.833 1019.28 125.827 1021.64 126.828 1024L123.442 1024L120.584 1018.52C116.966 1020.28 113.337 1022.02 109.831 1024L101.792 1024C107.06 1020.6 113.106 1017.85 118.65 1014.88L107.248 991.106C104.84 986.108 102.583 980.751 99.5614 976.096C101.204 975.928 101.73 975.646 103.014 974.608C109.264 987.506 115.844 1000.26 121.597 1013.4C137.331 1005.02 153.569 997.646 169.125 988.918C163.206 977.146 156.911 965.4 151.631 953.334C152.937 953.166 153.653 952.88 154.775 952.193Q164.098 969.399 172.309 987.163Q196.454 976.143 219.648 963.241C215.223 953.288 209.847 939.877 203.669 931.097C205.055 930.844 206.047 930.708 207.17 929.774C213.051 940.146 217.839 951.162 222.92 961.942C239.144 954.283 255.516 945.734 271.114 936.865C266.884 927.016 262.052 917.414 257.784 907.569ZM272.718 940.091C257.035 948.779 240.817 956.494 225.164 965.205C228.19 971.787 243.549 1005.16 246.729 1008.52Q270.74 996.867 294.245 984.225C290.596 976.651 286.615 969.232 283.047 961.623C279.722 954.532 276.856 946.744 272.718 940.091Z"/>
	<path fill="#54282A" d="M207.17 929.774C212.617 925.253 226.251 921.409 233.244 918.499C241.505 915.062 249.648 911.292 257.784 907.569C262.052 917.414 266.884 927.016 271.114 936.865C255.516 945.734 239.144 954.283 222.92 961.942C217.839 951.162 213.051 940.146 207.17 929.774Z"/>
	<path fill="#F3AC37" d="M479.556 928.358C480.342 927.414 481.316 926.378 481.937 925.322C482.705 924.016 481.665 921.534 481.252 920.119C481.393 919.958 481.523 919.787 481.673 919.635C485.732 915.529 486.326 920.716 489.965 920.369C491.388 920.233 493.217 919.855 494.143 918.772C493.952 917.802 493.745 916.829 493.664 915.842C493.56 914.565 493.551 914.567 494.34 913.621C496.195 913.508 497.032 913.252 498.703 914.129C499.559 915.544 500.196 916.915 501.711 917.717C503.17 917.934 503.876 918.023 505.303 917.488C506.073 916.552 506.534 915.684 507.024 914.591L507.204 914.182C508.132 913.514 509.552 913.029 510.725 913.369C512.078 913.761 513.041 917.814 513.938 919.265C514.589 919.672 514.946 920.1 515.75 920.035C518.022 919.851 519.191 918.15 520.547 916.535C521.904 917.449 523.115 918.308 524.266 919.476C524.735 921.381 524.312 922.206 523.792 924.069L528.947 928.395C529.867 927.308 530.481 926.397 531.935 926.039C533.747 926.527 535.083 928.942 536.183 930.4C534.604 931.556 533.136 932.318 532.409 934.216C532.662 935.755 532.892 936.04 533.867 937.28C534.95 937.847 535.502 937.914 536.68 937.771C537.661 937.652 538.368 937.605 539.356 937.802C539.648 938.185 540.081 938.715 540.267 939.149C540.825 940.456 540.665 940.952 540.166 942.156Q539.438 942.667 538.724 943.196C537.308 944.24 536.337 944.95 536.233 946.855C536.135 948.642 536.589 949.82 537.797 951.054L539.016 952.308C539.779 953.091 539.937 953.355 539.987 954.483C540.035 955.542 539.442 956.843 538.816 957.649C537.919 957.64 536.693 957.504 535.833 957.715C534.343 958.08 533.478 961.058 532.855 962.396C534.032 963.42 535.325 964.354 536.555 965.316L533.735 970.492L528.707 968.427C525.411 972.573 526.609 971.834 525.634 976.333C525.264 978.042 522.923 979.398 521.583 980.408L518.774 977.144C517.44 977.616 515.104 978.153 514.02 979.063C512.698 980.174 512.84 981.815 512.653 983.378C511.976 984.545 511.581 985.002 510.389 985.644C508.025 985.226 506.623 982.399 504.415 981.252C503.261 980.653 502.247 980.598 501.037 981.133C499.502 981.813 498.729 984.122 498.065 985.554C494.953 984.214 494.621 983.655 493.252 980.694C492.11 978.221 490.729 978.015 488.328 977.134L485.624 980.363Q484.918 979.954 484.22 979.532C482.373 978.415 481.433 977.86 480.912 975.721C481.407 974.466 481.746 973.658 481.7 972.282C481.185 971.422 480.765 970.753 479.912 970.171C478.118 968.947 476.562 969.478 474.648 970.005L474.025 970.183C473.267 969.418 472.927 968.83 472.499 967.851C471.856 966.382 472.004 965.567 472.578 964.142C473.026 963.027 473.527 961.895 473.443 960.66C473.358 959.403 473.215 958.461 472.314 957.585C470.75 957.413 469.525 957.403 468.274 956.331C467.622 954.999 467.648 954.257 467.7 952.82C469.372 951.491 471.1 950.352 471.503 948.106C472.304 943.646 470.001 945.49 468.199 942.827C468.187 941.256 468.314 940.369 468.895 938.91C470.204 938.193 471.722 938.73 473.204 938.863C474.521 937.529 475.166 935.382 475.896 933.672L471.777 930.939L474.884 925.904L479.556 928.358ZM500.897 926.642L499.468 927.263C499.4 932.381 503.687 940.263 505.633 945.069L508.899 940.449C511.515 936.891 514.305 933.319 516.145 929.275C511.071 927.237 506.358 926.516 500.897 926.642ZM497.912 927.479C491.486 930.425 485.385 933.914 482.733 940.919C481.99 942.88 481.381 944.902 480.718 946.89C481.485 947.799 481.007 947.53 482.125 947.742C486.261 947.76 494.621 948.753 497.75 945.654C499.587 943.836 499.531 940.87 499.301 938.499C498.958 934.953 498.863 930.888 497.912 927.479ZM518.536 931.298C516.601 934.564 510.718 941.742 511.069 945.471C512.191 946.903 513.045 947.43 514.878 947.631C516.849 947.847 519.111 947.556 521.097 947.459L527.91 946.831C526.73 940.939 523 935.273 518.536 931.298ZM524.333 950.205C519.738 950.659 515.091 950.989 510.522 951.65C511.979 956.898 514.103 961.943 515.532 967.166C517.386 967.126 519.246 965.143 520.44 963.867C523.15 960.97 527.398 955.198 527.185 951.164C527.174 950.95 527.119 950.739 527.086 950.527C526.008 949.775 525.6 950.094 524.333 950.205ZM479.825 951.05C481.166 956.075 486.535 964.857 490.975 967.704C491.635 968.127 491.673 968.107 492.303 968.328C493.476 967.397 493.706 966.009 494.235 964.628C495.461 961.02 497.85 956.206 496.632 952.461C495.764 951.406 494.903 951.004 493.561 950.85C489.179 950.349 484.269 951.034 479.825 951.05ZM504.309 955.315C500.221 959.508 496.876 964.346 493.929 969.396C497.849 970.523 501.332 971.183 505.455 971.078C508.589 970.24 511.547 969.357 514.525 968.056C512.145 964.598 508.134 957.227 504.309 955.315Z"/>
	<path fill="#54282A" d="M505.633 945.069C503.687 940.263 499.4 932.381 499.468 927.263L500.897 926.642C506.358 926.516 511.071 927.237 516.145 929.275C514.305 933.319 511.515 936.891 508.899 940.449L505.633 945.069Z"/>
	<path fill="#54282A" d="M482.125 947.742C481.007 947.53 481.485 947.799 480.718 946.89C481.381 944.902 481.99 942.88 482.733 940.919C485.385 933.914 491.486 930.425 497.912 927.479C498.863 930.888 498.958 934.953 499.301 938.499C499.531 940.87 499.587 943.836 497.75 945.654C494.621 948.753 486.261 947.76 482.125 947.742Z"/>
	<path fill="#54282A" d="M154.775 952.193C159.388 949.556 164.706 947.76 169.599 945.662C180.937 940.8 192.437 936.179 203.669 931.097C209.847 939.877 215.223 953.288 219.648 963.241Q196.454 976.143 172.309 987.163Q164.098 969.399 154.775 952.193Z"/>
	<path fill="#54282A" d="M521.097 947.459C519.111 947.556 516.849 947.847 514.878 947.631C513.045 947.43 512.191 946.903 511.069 945.471C510.718 941.742 516.601 934.564 518.536 931.298C523 935.273 526.73 940.939 527.91 946.831L521.097 947.459Z"/>
	<path fill="#54282A" d="M225.164 965.205C240.817 956.494 257.035 948.779 272.718 940.091C276.856 946.744 279.722 954.532 283.047 961.623C286.615 969.232 290.596 976.651 294.245 984.225Q270.74 996.867 246.729 1008.52C243.549 1005.16 228.19 971.787 225.164 965.205Z"/>
	<path fill="#54282A" d="M510.522 951.65C515.091 950.989 519.738 950.659 524.333 950.205C525.6 950.094 526.008 949.775 527.086 950.527C527.119 950.739 527.174 950.95 527.185 951.164C527.398 955.198 523.15 960.97 520.44 963.867C519.246 965.143 517.386 967.126 515.532 967.166C514.103 961.943 511.979 956.898 510.522 951.65Z"/>
	<path fill="#54282A" d="M494.235 964.628C493.706 966.009 493.476 967.397 492.303 968.328C491.673 968.107 491.635 968.127 490.975 967.704C486.535 964.857 481.166 956.075 479.825 951.05C484.269 951.034 489.179 950.349 493.561 950.85C494.903 951.004 495.764 951.406 496.632 952.461C497.85 956.206 495.461 961.02 494.235 964.628Z"/>
	<path fill="#54282A" d="M103.014 974.608C108.613 971.619 114.823 969.318 120.654 966.787L151.631 953.334C156.911 965.4 163.206 977.146 169.125 988.918C153.569 997.646 137.331 1005.02 121.597 1013.4C115.844 1000.26 109.264 987.506 103.014 974.608Z"/>
	<path fill="#54282A" d="M493.929 969.396C496.876 964.346 500.221 959.508 504.309 955.315C508.134 957.227 512.145 964.598 514.525 968.056C511.547 969.357 508.589 970.24 505.455 971.078C501.332 971.183 497.849 970.523 493.929 969.396Z"/>
	<path fill="#54282A" d="M190.992 1024Q182.113 1007.64 173.85 990.955C189.588 982.571 205.795 974.479 221.918 966.849C228.529 981.544 236.256 995.672 242.926 1010.32C234.293 1015 224.631 1018.78 216.395 1024L190.992 1024Z"/>
	<path fill="#54282A" d="M51.7487 997.092C67.5516 989.819 83.7178 983.305 99.5614 976.096C102.583 980.751 104.84 986.108 107.248 991.106L118.65 1014.88C113.106 1017.85 107.06 1020.6 101.792 1024L64.7099 1024C60.1626 1015.16 56.1521 1006.01 51.7487 997.092Z"/>
	<path fill="#54282A" d="M254.175 1024Q251.305 1017.95 248.329 1011.96C263.826 1003.67 279.716 995.756 295.514 988.056C301.431 1000.04 306.913 1012.22 313.249 1024L254.175 1024Z"/>
	<path fill="#54282A" d="M126.828 1024C125.827 1021.64 124.833 1019.28 123.736 1016.96C139.096 1008.3 155.044 1000.5 170.747 992.478Q178.336 1008.33 186.293 1024L126.828 1024Z"/>
	<path fill="#F3AC37" d="M47.9906 998.03C49.551 998.009 50.3615 997.716 51.7487 997.092C56.1521 1006.01 60.1626 1015.16 64.7099 1024L60.2664 1024C56.4204 1015.4 52.8779 1006.07 47.9906 998.03Z"/>
	<path fill="#54282A" d="M0 1020.57C14.3954 1011.53 32.5391 1005.52 47.9906 998.03C52.8779 1006.07 56.4204 1015.4 60.2664 1024L0 1024L0 1020.57Z"/>
	<path fill="#F3AC37" d="M331.497 1024C343.146 1017.08 355.686 1011.45 367.47 1004.7L369.386 1008.44C359.672 1012.84 349.608 1018.07 340.736 1024L331.497 1024Z"/>
	<path fill="#F3AC37" d="M374.822 1018.97Q394.831 1013.56 414.535 1007.12C414.154 1012.72 413.466 1018.39 413.338 1024L377.986 1024L374.822 1018.97Z"/>
	<path fill="#54282A" d="M226.286 1024C232.33 1020.3 238.679 1017.17 244.803 1013.62C246.478 1017.04 248.432 1020.49 249.871 1024L226.286 1024Z"/>
	<path fill="#54282A" d="M109.831 1024C113.337 1022.02 116.966 1020.28 120.584 1018.52L123.442 1024L109.831 1024Z"/>
</svg>
