<?xml version="1.0" encoding="utf-8" ?>
<svg xmlns="http://www.w3.org/2000/svg" xmlns:xlink="http://www.w3.org/1999/xlink" width="1024" height="1024">
	<path fill="#FEFEFE" d="M0 0L1024 0L1024 1024L0 1024L0 0ZM638.436 258.676C623.627 246.108 609.894 231.637 596.02 218.033L537.582 161.189Q525.719 149.552 513.642 138.137C509.318 133.98 505.079 129.342 500.38 125.642C491.171 134.104 482.379 143.01 473.405 151.718L436.19 187.373L331.128 289.037C323.761 285.353 316.11 281.919 308.895 277.978C307.399 281.758 306.375 287.295 306.33 291.376L306.555 291.67C310.451 298.681 313.322 305.921 316.924 313.017C315.665 305.979 314.878 298.646 313.226 291.711C313.41 290.465 313.198 290.037 314.168 289.169C321.767 291.534 336.558 299.453 343.929 303.753C342.437 312.232 338.747 320.695 335.572 328.681C341.667 321.1 346.528 312.735 352.909 305.303C371.131 318.57 364.62 316.884 387.647 320.615C383.596 325.154 378.83 329.177 374.589 333.56C370.596 337.687 367.154 342.212 363.706 346.789C373.468 340.423 383.635 334.753 393.745 328.967C395.994 333.471 397.841 338.209 399.804 342.843C387.751 343.025 376.011 344.58 365.975 351.748C370.558 349.924 375.227 348.375 380.135 347.719C391.852 346.152 400.923 351.436 409.871 358.261Q409.333 358.293 408.795 358.335C376.926 360.782 361.758 373.04 341.583 396.531C343.729 400.048 346.156 403.268 348.089 406.934C344.792 411.179 340.496 414.434 335.393 416.204C326.562 419.265 315.943 417.951 307.687 413.825C300.617 429.071 294.357 444.679 287.947 460.209L264.679 516.66L252.15 546.632C250.4 550.898 249.037 555.561 246.964 559.666C245.945 561.683 244.604 563.671 242.557 564.758C240.376 565.916 237.936 565.74 235.646 565.013C233.129 564.213 230.774 562.772 229.645 560.286C228.484 557.728 228.955 554.908 229.74 552.318C231.65 546.017 235.032 539.822 237.832 533.872Q242.395 524.033 246.778 514.112L271.464 458.74C279.189 441.679 287.174 424.825 294.003 407.369C290.547 404.628 287.188 401.659 284.209 398.404C277.577 391.158 273.644 382.92 274.095 372.967C277.307 372.036 280.534 371.254 283.792 370.505C286.623 360.634 290.14 350.833 291.546 340.631C294.382 320.049 291.28 304.144 278.635 287.613C295.524 291.61 297.333 295.352 306.182 309.427C304.868 301.726 305.441 295.151 301.049 288.171C293.419 283.413 279.236 280.185 270.353 277.933C272.29 275.736 274.045 273.49 275.756 271.113C276.864 269.841 277.99 268.477 279.653 267.95C287.064 265.601 299.028 278.183 305.657 281.624L306.289 281.947C301.905 276.648 291.721 268.995 289.209 263.661C286.174 257.217 291.304 247.311 293.616 241.241C290.539 246.212 286.252 253.908 280.22 255.44C273.806 257.069 265.959 251.339 260.571 248.326C264.539 252.386 269.87 255.88 272.783 260.809C274.584 263.857 274.501 266.212 273.689 269.566C270.191 276.323 264.364 283.102 258.892 288.362C255.552 291.512 253.627 293.29 249.043 294.43C248.948 294.454 248.854 294.48 248.76 294.504C244.472 292.732 240.593 290.411 236.626 288.023C239.444 290.606 244.264 294.043 244.63 298.142C245.012 302.424 240.504 307.608 238.189 311.021C241.654 308.227 246.614 302.465 251.281 302.66C255.398 302.833 261.176 309.038 264.33 311.534C261.333 308.079 254.979 302.503 255.278 297.738C255.506 294.096 258.539 291.408 261.043 289.082C262.773 287.72 263.93 286.535 266.278 286.803C270.663 287.304 274.522 292.55 276.799 295.986C284.54 307.666 287.31 323.392 284.339 337.102C284.304 337.263 284.265 337.423 284.228 337.584C272.373 347.886 261.111 358.851 249.477 369.398C242.174 375.601 235.352 382.481 228.384 389.059C219.438 397.504 210.356 405.746 201.603 414.397C190.563 423.807 180.292 434.592 169.67 444.529L154.676 458.499C151.932 461.036 148.88 463.448 146.427 466.265C144.843 468.083 143.228 470.337 142.964 472.806C142.838 473.981 143.17 474.555 143.853 475.46C146.269 476.907 147.749 476.959 150.497 476.291C156.722 474.777 162.928 472.563 169.073 470.714C187.991 465.022 206.9 458.712 226.037 453.842C226.807 462.921 226.893 472.044 227.527 481.133Q228.22 492.071 229.826 502.912Q231.432 513.754 233.939 524.423C230.002 533.74 217.752 553.203 221.974 562.97C223.967 567.58 228.383 570.182 232.94 571.763C236.937 573.151 240.676 573.185 244.703 571.944C247.233 582.587 250.868 592.898 253.186 603.615C246.478 605.377 237.522 604.131 230.552 604.126C233.501 621.636 236.639 639.227 238.668 656.872C245.845 719.3 245.498 788.356 231.158 849.713Q253.427 849.202 275.7 849.414C275.698 853.123 275.578 856.88 275.841 860.578C275.754 864.917 274.776 872.165 277.785 875.618C279.207 877.25 281.283 877.711 283.363 877.762C287.71 877.869 292.131 877.525 296.492 877.517L335.464 877.489L454.967 877.504L629.536 877.518C659.745 877.527 689.986 877.829 720.192 877.508C722.967 877.479 728.48 877.676 730.924 876.386C731.195 876.243 731.663 875.814 731.901 875.572C736.883 870.511 734.949 856.512 734.794 849.952C737.716 848.445 772.128 849.485 778.244 849.517C769.336 795.1 764.747 740.535 767.912 685.396C769.026 666.002 770.874 646.531 774.819 627.485C776.496 619.389 779.141 611.352 781.439 603.406Q769.115 603.59 756.791 603.427C758.88 582.557 763.619 561.532 767.194 540.841Q774.873 495.746 781.182 450.44C793.501 455.177 805.955 459.513 818.312 464.143C827.369 467.537 850.903 477.846 858.781 478.246C859.209 477.891 859.496 477.675 859.871 477.3C861.217 475.951 861.819 473.796 861.696 471.924C861.618 470.734 861.263 469.454 860.431 468.571C856.989 464.919 852.96 461.611 849.266 458.207Q837.831 447.717 826.577 437.034L730.639 346.501C729.843 345.457 729.166 344.951 728.086 344.248C727.809 311.732 728.223 279.156 728.332 246.636C728.368 236.03 726.814 195.544 729.368 188.557C731.734 182.085 739.476 176.173 744.317 171.372C751.369 164.378 758.174 157.144 765.146 150.071C769.007 146.153 773.6 142.318 776.908 137.935C778.2 136.223 779.375 134.166 779.575 131.991C779.72 130.417 779.301 129.438 778.304 128.238C776.351 125.887 773.938 125.324 770.998 125.022C765.24 124.432 759.181 124.838 753.389 124.884Q739.64 125.059 725.894 124.759C709.795 124.416 693.702 123.405 677.598 123.463C661.823 123.52 646.032 124.592 630.25 124.856C620.524 125.019 609.147 123.938 599.757 124.68C597.209 124.881 594.264 125.336 592.28 127.083Q591.956 127.366 591.664 127.682Q591.371 127.997 591.114 128.341Q590.855 128.686 590.635 129.055Q590.414 129.424 590.233 129.814Q590.052 130.204 589.912 130.611Q589.773 131.018 589.677 131.438Q589.58 131.857 589.528 132.284Q589.476 132.711 589.469 133.141C589.449 134.888 590.043 136.34 591.022 137.766C594.264 142.493 599.149 146.595 603.213 150.67L631.045 178.253C633.503 180.732 636.095 183.575 637.155 186.965C639.843 195.561 638.456 209.8 638.453 219.112L638.436 258.676ZM257.352 258.04C255.672 259.43 252.904 262.395 250.548 262C248.902 261.725 247.468 260.414 246.251 259.334C247.449 261.177 248.961 263.04 249.335 265.24C248.762 267.296 247.84 268.878 246.709 270.677L246.775 270.925C248.286 269.824 250.402 267.855 252.193 267.419C252.346 267.468 252.499 267.515 252.65 267.567C255.961 268.711 258.825 271.604 261.522 273.817C259.075 270.825 254.252 266.961 254.089 262.996C254.998 261.33 256.367 259.936 257.614 258.513L257.352 258.04ZM238.089 546.451C236.519 548.449 234.908 550.862 235.321 553.564C235.512 554.817 236.116 555.798 237.244 556.432C238.526 557.154 240.162 556.697 241.503 556.409C243.113 554.66 244.815 552.785 244.515 550.202C244.361 548.872 243.636 548.008 242.546 547.302C241.257 546.466 239.564 546.456 238.089 546.451Z"/>
	<path fill="#54282A" d="M638.436 258.676L638.453 219.112C638.456 209.8 639.843 195.561 637.155 186.965C636.095 183.575 633.503 180.732 631.045 178.253L603.213 150.67C599.149 146.595 594.264 142.493 591.022 137.766C590.043 136.34 589.449 134.888 589.469 133.141Q589.476 132.711 589.528 132.284Q589.58 131.857 589.677 131.438Q589.773 131.018 589.912 130.611Q590.052 130.204 590.233 129.814Q590.414 129.424 590.635 129.055Q590.855 128.686 591.113 128.341Q591.371 127.997 591.664 127.682Q591.956 127.366 592.28 127.083C594.264 125.336 597.209 124.881 599.757 124.68C609.147 123.938 620.524 125.019 630.25 124.856C646.032 124.592 661.823 123.52 677.598 123.463C693.702 123.405 709.795 124.416 725.894 124.759Q739.64 125.059 753.389 124.884C759.181 124.838 765.24 124.432 770.998 125.022C773.938 125.324 776.351 125.887 778.304 128.238C779.301 129.438 779.72 130.417 779.575 131.991C779.375 134.166 778.2 136.223 776.908 137.935C773.6 142.318 769.007 146.153 765.146 150.071C758.174 157.144 751.369 164.378 744.317 171.372C739.476 176.173 731.734 182.085 729.368 188.557C726.814 195.544 728.368 236.03 728.332 246.636C728.223 279.156 727.809 311.732 728.086 344.248C721.982 340.426 716.301 333.854 710.865 329.029C687.675 305.576 663.38 283.263 639.595 260.437C639.005 259.871 638.721 259.438 638.436 258.676Z"/>
	<path fill="#8A395D" d="M500.38 125.642C505.079 129.342 509.318 133.98 513.642 138.137Q525.719 149.552 537.582 161.189L596.02 218.033C609.894 231.637 623.627 246.108 638.436 258.676C638.721 259.438 639.005 259.871 639.595 260.437C663.38 283.263 687.675 305.576 710.865 329.029C716.301 333.854 721.982 340.426 728.086 344.248C729.166 344.951 729.843 345.457 730.639 346.501L826.577 437.034Q837.831 447.717 849.266 458.207C852.96 461.611 856.989 464.919 860.431 468.571C861.263 469.454 861.618 470.734 861.696 471.924C861.819 473.796 861.217 475.951 859.871 477.3C859.496 477.675 859.209 477.891 858.781 478.246C850.903 477.846 827.369 467.537 818.312 464.143C805.955 459.513 793.501 455.177 781.182 450.44Q774.873 495.746 767.194 540.841C763.619 561.532 758.88 582.557 756.791 603.427L402.729 603.105C391.631 603.978 379.978 603.369 368.818 603.403L293.701 603.479C280.274 603.46 266.577 602.777 253.186 603.615C250.868 592.898 247.233 582.587 244.703 571.944C246.908 570.585 249.984 569.104 251.386 566.877C253.624 563.323 255.01 558.813 256.587 554.914Q260.864 544.159 265.389 533.506L311.328 423.157C320.025 425.944 328.968 426.454 337.577 423.153C345.22 420.221 351.933 415.3 355.318 407.671C354.185 404.594 351.054 401.238 350.973 397.975C350.915 395.651 352.941 394.257 354.492 392.85C356.307 390.527 358.365 388.309 360.441 386.216C377.165 369.356 401.065 363.175 424.137 363.023C413.688 352.249 402.129 339.782 398.838 324.645C398.212 321.768 398.257 318.666 398.162 315.731C391.623 314.457 376.987 313.029 371.765 311.202C366.223 309.263 362.137 303.552 357.143 300.431C353.051 297.874 347.913 296.419 343.44 294.605C339.268 292.912 335.2 290.956 331.128 289.037L436.19 187.373L473.405 151.718C482.379 143.01 491.171 134.104 500.38 125.642ZM649.635 396.427C648.66 394.047 647.773 391.575 646.544 389.314C654.493 383.109 661.653 376.072 668.934 369.11C659.467 372.036 650.707 376.486 641.497 380.051C636.496 372.902 631.497 366.013 625.757 359.427C627.799 368.188 630.803 376.634 632.971 385.339C625.78 391.529 617.65 397.149 610.862 403.722Q624.298 399.263 637.587 394.381L640.733 398.028C645.642 404.029 650.603 410.641 656.615 415.578C654.632 409.067 652.145 402.747 649.635 396.427ZM486.657 240.643C477.318 242.275 468.976 247.296 463.505 255.109C459.15 261.329 457.366 268.024 456.477 275.465L465.077 275.439L494.498 275.402L494.501 240.5C491.899 240.524 489.25 240.442 486.657 240.643ZM506.936 240.491Q507.054 258 506.979 275.509L544.717 275.444C544.28 265.428 540.188 255.956 532.674 249.172C525.328 242.541 516.659 240.282 506.936 240.491ZM456.411 288.584Q456.248 305.469 456.445 322.354C469.102 322.408 481.749 322.12 494.404 322.031Q494.065 305.351 494.099 288.668C481.546 288.682 468.961 288.859 456.411 288.584ZM506.574 288.529Q506.848 305.353 506.872 322.179Q525.879 322.477 544.889 322.413Q544.561 305.687 544.52 288.958C531.875 288.804 519.218 288.525 506.574 288.529ZM426.866 386.754C423.768 399.863 419.95 413.286 418.313 426.665C404.621 425.934 390.763 425.487 377.052 425.727Q396.831 431.346 416.938 435.644C416.199 441.739 415.459 470.485 417.14 475.505C419.223 469.79 420.401 463.538 421.88 457.636C423.592 450.803 425.776 443.709 426.771 436.733C440.166 437.175 453.767 437.462 467.161 437.044C454.226 433.074 440.649 430.517 427.463 427.455C427.578 420.839 428.756 390.705 426.866 386.754ZM750.775 398.356C746.773 404.599 742.858 410.842 739.286 417.344Q727.216 415.118 715.281 412.254C722.242 416.84 729.248 421.186 736.395 425.465C734.392 432.301 732.81 439.109 731.728 446.159C736.346 442.077 740.32 434.113 743.275 428.669L764.771 433.794C758.643 429.268 752.614 424.486 745.895 420.853C747.387 415.999 751.987 402.641 750.775 398.356ZM535.699 403.082C529.228 404.572 523.662 407.23 519.939 413.016C516.332 418.619 515.372 426.21 516.998 432.632Q517.143 433.193 517.317 433.745Q517.491 434.298 517.693 434.841Q517.895 435.384 518.124 435.916Q518.354 436.448 518.61 436.968Q518.866 437.487 519.149 437.993Q519.431 438.499 519.739 438.99Q520.047 439.48 520.379 439.955Q520.712 440.429 521.068 440.886Q521.425 441.343 521.804 441.781Q522.183 442.219 522.584 442.637Q522.986 443.055 523.408 443.452Q523.83 443.849 524.271 444.223Q524.713 444.598 525.173 444.95Q525.634 445.302 526.111 445.63Q526.589 445.958 527.083 446.261Q527.576 446.564 528.085 446.841C533.324 449.753 539.319 450.475 545.195 449.676C551.994 447.551 557.528 443.873 560.851 437.346C563.764 431.626 564.221 424.398 562.211 418.314Q562.036 417.787 561.836 417.269Q561.636 416.752 561.41 416.245Q561.185 415.737 560.935 415.242Q560.685 414.746 560.411 414.263Q560.137 413.781 559.839 413.312Q559.542 412.843 559.222 412.39Q558.902 411.936 558.56 411.499Q558.218 411.062 557.855 410.642Q557.492 410.222 557.109 409.82Q556.726 409.419 556.323 409.036Q555.921 408.654 555.5 408.292Q555.08 407.929 554.642 407.588Q554.204 407.247 553.75 406.928Q553.296 406.609 552.827 406.312Q552.357 406.016 551.874 405.742Q551.391 405.469 550.895 405.22C545.979 402.756 541.025 402.714 535.699 403.082ZM671.069 452.366C671.327 463.863 672.001 475.555 673.645 486.944Q656.052 493.697 638.142 499.557C650.275 499.653 662.437 497.677 674.601 497.43C678.351 508.245 681.141 519.414 684.624 530.329L685.214 530.575C685.586 526.608 685.017 522.351 684.891 518.354Q684.504 506.859 684.452 495.358C695.862 492.171 707.596 489.126 718.527 484.486C706.758 485.28 694.578 485.448 682.776 485.367C680.726 479.589 674.049 455.396 671.069 452.366ZM615.095 471.147L614.341 473.935C613.267 473.951 612.868 473.688 611.923 473.227C610.386 474.797 611.767 475.615 609.025 476.253L608.574 476.858L609.523 478.54C608.774 479.289 608.183 479.397 607.198 479.73L607.037 480.533C607.915 481.657 608.738 482.394 609.849 483.261C609.652 483.476 609.452 483.687 609.258 483.904C608.743 484.48 608.407 484.901 608.053 485.565C608.856 486.535 609.016 486.621 610.339 486.778C610.937 486.849 611.677 486.763 612.268 486.735C612.121 486.914 611.971 487.091 611.825 487.272C610.999 488.301 610.688 488.926 610.448 490.223L610.962 490.6L612.783 489.586C614.35 490.518 612.994 491.853 614.895 491.623L616.267 490.576C617.464 491.424 616.61 492.398 618.136 492.353C618.763 491.706 619.432 490.832 620.182 490.346L622.324 491.899L622.973 491.739L623.441 489.291C624.321 488.954 624.951 488.918 625.89 488.931C626.646 488.159 627.123 487.919 626.936 486.736C626.877 486.363 626.599 485.667 626.46 485.297C626.698 485.159 626.938 485.025 627.173 484.884C627.82 484.497 628.255 484.191 628.779 483.673C627.997 482.306 626.707 482.757 626.752 481.223C627.45 480.274 628.468 479.46 628.291 478.269C628.014 478.281 627.736 478.297 627.458 478.306C626.292 478.344 626.758 478.364 625.642 478.192C625.488 476.906 625.826 476.382 626.32 475.238L625.949 474.647L623.251 474.955L622.746 474.254L623.354 472.056L622.712 471.735C621.867 472.428 621.136 473.388 620.027 473.393L619.476 471.229C617.534 471.687 617.958 473.021 615.916 472.246L615.722 471.994L615.939 471.821L615.095 471.147ZM325.384 479.99C330.28 487.252 336.152 493.978 340.796 501.378C334.822 508.189 330.129 515.445 325.237 523.043C333.709 518.872 341.07 513.652 348.476 507.85C354.32 513.001 360.698 517.355 367.116 521.743L369.001 522.817L369.388 522.489C365.376 515.288 360.704 507.73 355.608 501.28C360.293 494.455 365.548 487.547 368.958 479.99C361.78 484.356 355.458 489.844 348.437 494.394C342.223 489.981 332.313 482.183 325.384 479.99ZM729.068 532.013C728.909 532.242 728.757 532.476 728.591 532.701C728.06 533.42 727.864 533.637 727.088 533.986C726.318 533.466 726.112 533.299 725.601 532.595L724.719 532.675C724.664 532.951 724.614 533.227 724.556 533.502C724.386 534.306 724.185 534.961 723.878 535.715C722.877 536.055 722.017 536.072 720.965 536.093L720.495 536.755L720.82 538.354C719.945 539.019 719.291 539.439 718.713 540.399L720.28 541.901C720.202 543.522 718.632 543.64 718.809 544.894L720.929 545.804C721.003 546.856 720.91 547.036 720.488 547.956C721.356 548.972 722.157 549.302 723.32 549.893C723.511 550.639 723.554 551.08 723.57 551.882C725.501 552.664 728.149 552.598 730.235 552.54L731.548 553.575C732.231 552.426 732.239 551.83 733.588 551.445L735.007 552.193C736.327 550.739 734.722 550.055 736.471 549.14L737.739 549.513L738.363 549.028L737.621 547.22C738.411 545.778 739.646 546.662 739.691 544.927L738.627 543.501C739.102 542.523 739.556 542.303 740.42 541.685L740.303 540.976L737.814 540.246C737.632 538.475 739.052 538.779 738.31 536.932C736.939 536.239 734.943 537.024 734.318 535.965C734.355 534.553 734.305 534.656 733.338 533.606C733.014 533.574 732.688 533.547 732.365 533.509C730.967 533.342 730.512 532.806 729.367 532.108C729.277 532.053 729.167 532.044 729.068 532.013ZM620.471 555.451C619.574 556.192 619.135 556.884 617.947 556.904C616.311 556.93 614.588 557.518 613.015 557.939L612.594 558.589L613.061 560.593L612.532 561.201L609.761 561.124L609.479 561.456C609.66 561.674 609.844 561.89 610.022 562.11C610.786 563.057 610.51 562.659 611.078 563.741C610.303 564.835 609.522 565.129 608.371 565.742L608.18 566.448L608.833 566.835C609.446 567.203 610.017 567.581 610.595 567.999C610.058 569.151 609.682 569.328 608.705 570.102L609.054 570.915C610.043 571.204 610.885 571.293 611.913 571.33C612.526 572.894 610.983 573.39 612.256 574.672L614.005 573.968C614.99 574.689 615.108 575.684 615.401 576.8L616.297 577.225C616.389 577.059 616.477 576.89 616.574 576.725C617.008 575.986 616.817 576.257 617.496 575.641C618.185 576.111 618.63 576.494 619.126 577.166L619.528 577.669C620.201 576.814 620.871 575.986 621.605 575.182C621.783 575.304 621.958 575.431 622.138 575.55C622.98 576.104 622.65 575.91 623.708 576.288C624.107 575.408 624.233 574.659 624.357 573.704C625.431 573.272 626.011 573.302 627.148 573.309L627.428 573.641L627.753 573.006L626.612 571.255C627.632 570.031 628.694 570.516 629.567 569.008C629.139 568.348 628.708 567.802 628.165 567.233C628.71 566.466 629.274 565.847 629.95 565.193C629.353 563.497 627.86 564.316 627.671 562.581L628.926 560.761L628.518 560.177L625.751 560.392L625.086 559.748L625.443 557.253L624.765 556.656C623.939 557.206 623.219 557.801 622.475 558.457C621.243 557.822 621.441 556.455 620.471 555.451Z"/>
	<path fill="#FEFEFE" d="M456.477 275.465C457.366 268.024 459.15 261.329 463.505 255.109C468.976 247.296 477.318 242.275 486.657 240.643C489.25 240.442 491.899 240.524 494.501 240.5L494.498 275.402L465.077 275.439L456.477 275.465Z"/>
	<path fill="#FEFEFE" d="M506.979 275.509Q507.054 258 506.936 240.491C516.659 240.282 525.328 242.541 532.674 249.172C540.188 255.956 544.28 265.428 544.717 275.444L506.979 275.509Z"/>
	<path fill="#54282A" d="M273.689 269.566C274.501 266.212 274.584 263.857 272.783 260.809C269.87 255.88 264.539 252.386 260.571 248.326C265.959 251.339 273.806 257.069 280.22 255.44C286.252 253.908 290.539 246.212 293.616 241.241C291.304 247.311 286.174 257.217 289.209 263.661C291.721 268.995 301.905 276.648 306.289 281.947L305.657 281.624C299.028 278.183 287.064 265.601 279.653 267.95C277.99 268.477 276.864 269.841 275.756 271.113C274.045 273.49 272.29 275.736 270.353 277.933C279.236 280.185 293.419 283.413 301.049 288.171C305.441 295.151 304.868 301.726 306.182 309.427C297.333 295.352 295.524 291.61 278.635 287.613C291.28 304.144 294.382 320.049 291.546 340.631C290.14 350.833 286.623 360.634 283.792 370.505C280.534 371.254 277.307 372.036 274.095 372.967C273.644 382.92 277.577 391.158 284.209 398.404C287.188 401.659 290.547 404.628 294.003 407.369C287.174 424.825 279.189 441.679 271.464 458.74L246.778 514.112Q242.395 524.033 237.832 533.872C235.032 539.822 231.65 546.017 229.74 552.318C228.955 554.908 228.484 557.728 229.645 560.286C230.774 562.772 233.129 564.213 235.646 565.013C237.936 565.74 240.376 565.916 242.557 564.758C244.604 563.671 245.945 561.683 246.964 559.666C249.037 555.561 250.4 550.898 252.15 546.632L264.679 516.66L287.947 460.209C294.357 444.679 300.617 429.071 307.687 413.825C315.943 417.951 326.562 419.265 335.393 416.204C340.496 414.434 344.792 411.179 348.089 406.934C346.156 403.268 343.729 400.048 341.583 396.531C361.758 373.04 376.926 360.782 408.795 358.335Q409.333 358.293 409.871 358.261C400.923 351.436 391.852 346.152 380.135 347.719C375.227 348.375 370.558 349.924 365.975 351.748C376.011 344.58 387.751 343.025 399.804 342.843C397.841 338.209 395.994 333.471 393.745 328.967C383.635 334.753 373.468 340.423 363.706 346.789C367.154 342.212 370.596 337.687 374.589 333.56C378.83 329.177 383.596 325.154 387.647 320.615C364.62 316.884 371.131 318.57 352.909 305.303C346.528 312.735 341.667 321.1 335.572 328.681C338.747 320.695 342.437 312.232 343.929 303.753C336.558 299.453 321.767 291.534 314.168 289.169C313.198 290.037 313.41 290.465 313.226 291.711C314.878 298.646 315.665 305.979 316.924 313.017C313.322 305.921 310.451 298.681 306.555 291.67L306.33 291.376C306.375 287.295 307.399 281.758 308.895 277.978C316.11 281.919 323.761 285.353 331.128 289.037C335.2 290.956 339.268 292.912 343.44 294.605C347.913 296.419 353.051 297.874 357.143 300.431C362.137 303.552 366.223 309.263 371.765 311.202C376.987 313.029 391.623 314.457 398.162 315.731C398.257 318.666 398.212 321.768 398.838 324.645C402.129 339.782 413.688 352.249 424.137 363.023C401.065 363.175 377.165 369.356 360.441 386.216C358.365 388.309 356.307 390.527 354.492 392.85C352.941 394.257 350.915 395.651 350.973 397.975C351.054 401.238 354.185 404.594 355.318 407.671C351.933 415.3 345.22 420.221 337.577 423.153C328.968 426.454 320.025 425.944 311.328 423.157L265.389 533.506Q260.864 544.159 256.587 554.914C255.01 558.813 253.624 563.323 251.386 566.877C249.984 569.104 246.908 570.585 244.703 571.944C240.676 573.185 236.937 573.151 232.94 571.763C228.383 570.182 223.967 567.58 221.974 562.97C217.752 553.203 230.002 533.74 233.939 524.423C237.893 518.833 244.135 502.674 247.292 495.743L285.787 409.152C281.706 406.255 278.577 403.049 275.515 399.104C269.399 390.288 266.518 380.686 266.493 369.935C269.1 368.356 272.003 367.259 274.55 365.576C282.824 360.106 282.299 349.15 284.194 340.089C277.441 344.103 253.715 369.269 249.477 369.398C261.111 358.851 272.373 347.886 284.228 337.584C284.265 337.423 284.304 337.263 284.339 337.102C287.31 323.392 284.54 307.666 276.799 295.986C274.522 292.55 270.663 287.304 266.278 286.803C263.93 286.535 262.773 287.72 261.043 289.082L258.892 288.362C264.364 283.102 270.191 276.323 273.689 269.566Z"/>
	<path fill="#54282A" d="M246.251 259.334C247.468 260.414 248.902 261.725 250.548 262C252.904 262.395 255.672 259.43 257.352 258.04L257.614 258.513C256.367 259.936 254.998 261.33 254.089 262.996C254.252 266.961 259.075 270.825 261.522 273.817C258.825 271.604 255.961 268.711 252.65 267.567C252.499 267.515 252.346 267.468 252.193 267.419C250.402 267.855 248.286 269.824 246.775 270.925L246.709 270.677C247.84 268.878 248.762 267.296 249.335 265.24C248.961 263.04 247.449 261.177 246.251 259.334Z"/>
	<path fill="#A62122" d="M248.76 294.504C248.854 294.48 248.948 294.454 249.043 294.43C253.627 293.29 255.552 291.512 258.892 288.362L261.043 289.082C258.539 291.408 255.506 294.096 255.278 297.738C254.979 302.503 261.333 308.079 264.33 311.534C261.176 309.038 255.398 302.833 251.281 302.66C246.614 302.465 241.654 308.227 238.189 311.021C240.504 307.608 245.012 302.424 244.63 298.142C244.264 294.043 239.444 290.606 236.626 288.023C240.593 290.411 244.472 292.732 248.76 294.504Z"/>
	<path fill="#FEFEFE" d="M456.445 322.354Q456.248 305.469 456.411 288.584C468.961 288.859 481.546 288.682 494.099 288.668Q494.065 305.351 494.404 322.031C481.749 322.12 469.102 322.408 456.445 322.354Z"/>
	<path fill="#FEFEFE" d="M506.872 322.179Q506.848 305.353 506.574 288.529C519.218 288.525 531.875 288.804 544.52 288.958Q544.561 305.687 544.889 322.413Q525.879 322.477 506.872 322.179Z"/>
	<path fill="#8A395D" d="M201.603 414.397C210.356 405.746 219.438 397.504 228.384 389.059C235.352 382.481 242.174 375.601 249.477 369.398C253.715 369.269 277.441 344.103 284.194 340.089C282.299 349.15 282.824 360.106 274.55 365.576C272.003 367.259 269.1 368.356 266.493 369.935C266.518 380.686 269.399 390.288 275.515 399.104C278.577 403.049 281.706 406.255 285.787 409.152L247.292 495.743C244.135 502.674 237.893 518.833 233.939 524.423Q231.432 513.754 229.826 502.912Q228.22 492.071 227.527 481.133C226.893 472.044 226.807 462.921 226.037 453.842C206.9 458.712 187.991 465.022 169.073 470.714C162.928 472.563 156.722 474.777 150.497 476.291C147.749 476.959 146.269 476.907 143.853 475.46C143.17 474.555 142.838 473.981 142.964 472.806C143.228 470.337 144.843 468.083 146.427 466.265C148.88 463.448 151.932 461.036 154.676 458.499L169.67 444.529C180.292 434.592 190.563 423.807 201.603 414.397Z"/>
	<path fill="#F1A01D" d="M646.544 389.314C647.773 391.575 648.66 394.047 649.635 396.427C652.145 402.747 654.632 409.067 656.615 415.578C650.603 410.641 645.642 404.029 640.733 398.028L637.587 394.381Q624.298 399.263 610.862 403.722C617.65 397.149 625.78 391.529 632.971 385.339C630.803 376.634 627.799 368.188 625.757 359.427C631.497 366.013 636.496 372.902 641.497 380.051C650.707 376.486 659.467 372.036 668.934 369.11C661.653 376.072 654.493 383.109 646.544 389.314Z"/>
	<path fill="#FEFEFE" d="M418.313 426.665C419.95 413.286 423.768 399.863 426.866 386.754C428.756 390.705 427.578 420.839 427.463 427.455C440.649 430.517 454.226 433.074 467.161 437.044C453.767 437.462 440.166 437.175 426.771 436.733C425.776 443.709 423.592 450.803 421.88 457.636C420.401 463.538 419.223 469.79 417.14 475.505C415.459 470.485 416.199 441.739 416.938 435.644Q396.831 431.347 377.052 425.727C390.763 425.487 404.621 425.934 418.313 426.665Z"/>
	<path fill="#F1A01D" d="M739.286 417.344C742.858 410.842 746.773 404.599 750.775 398.356C751.987 402.641 747.387 415.999 745.895 420.853C752.614 424.486 758.643 429.268 764.771 433.794L743.275 428.669C740.32 434.113 736.346 442.077 731.728 446.159C732.81 439.109 734.392 432.301 736.395 425.465C729.248 421.186 722.242 416.84 715.281 412.254Q727.216 415.118 739.286 417.344Z"/>
	<path fill="#F1A01D" d="M545.195 449.676C539.319 450.475 533.324 449.753 528.085 446.841Q527.576 446.564 527.083 446.261Q526.589 445.958 526.111 445.63Q525.634 445.302 525.173 444.95Q524.713 444.598 524.271 444.223Q523.83 443.849 523.408 443.452Q522.986 443.055 522.584 442.637Q522.183 442.219 521.804 441.781Q521.425 441.343 521.068 440.886Q520.712 440.429 520.379 439.955Q520.047 439.48 519.739 438.99Q519.431 438.499 519.149 437.993Q518.866 437.487 518.61 436.968Q518.354 436.448 518.124 435.916Q517.895 435.384 517.693 434.841Q517.491 434.298 517.317 433.745Q517.143 433.193 516.998 432.632C515.372 426.21 516.332 418.619 519.939 413.016C523.662 407.23 529.228 404.572 535.699 403.082C541.025 402.714 545.979 402.756 550.895 405.22Q551.391 405.469 551.874 405.742Q552.357 406.016 552.827 406.312Q553.296 406.609 553.75 406.928Q554.204 407.247 554.642 407.588Q555.08 407.929 555.5 408.292Q555.921 408.654 556.323 409.036Q556.726 409.419 557.109 409.82Q557.492 410.222 557.855 410.642Q558.218 411.062 558.56 411.499Q558.902 411.936 559.222 412.39Q559.542 412.843 559.839 413.312Q560.137 413.781 560.411 414.263Q560.685 414.746 560.935 415.242Q561.185 415.737 561.41 416.245Q561.636 416.752 561.836 417.269Q562.036 417.787 562.211 418.314C564.221 424.398 563.764 431.626 560.851 437.346C557.528 443.873 551.994 447.551 545.195 449.676Z"/>
	<path fill="#FEFEFE" d="M673.645 486.944C672.001 475.555 671.327 463.863 671.069 452.366C674.049 455.396 680.726 479.589 682.776 485.367C694.578 485.448 706.758 485.28 718.527 484.486C707.596 489.126 695.862 492.171 684.452 495.358Q684.504 506.859 684.891 518.354C685.017 522.351 685.586 526.608 685.214 530.575L684.624 530.329C681.141 519.414 678.351 508.245 674.601 497.43C662.437 497.677 650.275 499.653 638.142 499.557Q656.052 493.697 673.645 486.944Z"/>
	<path fill="#F1A01D" d="M620.182 490.346C619.432 490.832 618.763 491.706 618.136 492.353C616.61 492.398 617.464 491.424 616.267 490.576L614.895 491.623C612.994 491.853 614.35 490.518 612.783 489.586L610.962 490.6L610.448 490.223C610.688 488.926 610.999 488.301 611.825 487.272C611.971 487.091 612.121 486.914 612.268 486.735C611.677 486.763 610.937 486.849 610.339 486.778C609.016 486.621 608.856 486.535 608.053 485.565C608.407 484.901 608.743 484.48 609.258 483.904C609.452 483.687 609.652 483.476 609.849 483.261C608.738 482.394 607.915 481.657 607.037 480.533L607.198 479.73C608.183 479.397 608.774 479.289 609.523 478.54L608.574 476.858L609.025 476.253C611.767 475.615 610.386 474.797 611.923 473.227C612.868 473.688 613.267 473.951 614.341 473.935L615.095 471.147L615.939 471.821L615.722 471.994L615.916 472.246C617.958 473.021 617.534 471.687 619.476 471.229L620.027 473.393C621.136 473.388 621.867 472.428 622.712 471.735L623.354 472.056L622.746 474.254L623.251 474.955L625.949 474.647L626.32 475.238C625.826 476.382 625.488 476.906 625.642 478.192C626.758 478.364 626.292 478.344 627.458 478.306C627.736 478.297 628.014 478.281 628.291 478.269C628.468 479.46 627.45 480.274 626.752 481.223C626.707 482.757 627.997 482.306 628.779 483.673C628.255 484.191 627.82 484.497 627.173 484.884C626.938 485.025 626.698 485.159 626.46 485.297C626.599 485.667 626.877 486.363 626.936 486.736C627.123 487.919 626.646 488.159 625.89 488.931C624.951 488.918 624.321 488.954 623.441 489.291L622.973 491.739L622.324 491.899L620.182 490.346Z"/>
	<path fill="#F1A01D" d="M340.796 501.378C336.152 493.978 330.28 487.252 325.384 479.99C332.313 482.183 342.223 489.981 348.437 494.394C355.458 489.844 361.78 484.356 368.958 479.99C365.548 487.547 360.293 494.455 355.608 501.28C360.704 507.73 365.376 515.288 369.388 522.489L369.001 522.817L367.116 521.743C360.698 517.355 354.32 513.001 348.476 507.85C341.07 513.652 333.709 518.872 325.237 523.043C330.129 515.445 334.822 508.189 340.796 501.378Z"/>
	<path fill="#F1A01D" d="M731.548 553.575L730.235 552.54C728.149 552.598 725.501 552.664 723.57 551.882C723.554 551.08 723.511 550.639 723.32 549.893C722.157 549.302 721.356 548.972 720.488 547.956C720.91 547.036 721.003 546.856 720.929 545.804L718.809 544.894C718.632 543.64 720.202 543.522 720.28 541.901L718.713 540.399C719.291 539.439 719.945 539.019 720.82 538.354L720.495 536.755L720.965 536.093C722.017 536.072 722.877 536.055 723.878 535.715C724.185 534.961 724.386 534.306 724.556 533.502C724.614 533.227 724.664 532.951 724.719 532.675L725.601 532.595C726.112 533.299 726.318 533.466 727.088 533.986C727.864 533.637 728.06 533.42 728.591 532.701C728.757 532.476 728.909 532.242 729.068 532.013C729.167 532.044 729.277 532.053 729.367 532.108C730.512 532.806 730.967 533.342 732.365 533.509C732.688 533.547 733.014 533.574 733.338 533.606C734.305 534.656 734.355 534.553 734.318 535.965C734.943 537.024 736.939 536.239 738.31 536.932C739.052 538.779 737.632 538.475 737.814 540.246L740.303 540.976L740.42 541.685C739.556 542.303 739.102 542.523 738.627 543.501L739.691 544.927C739.646 546.662 738.411 545.778 737.621 547.22L738.363 549.028L737.739 549.513L736.471 549.14C734.722 550.055 736.327 550.739 735.007 552.193L733.588 551.445C732.239 551.83 732.231 552.426 731.548 553.575Z"/>
	<path fill="#54282A" d="M241.503 556.409C240.162 556.697 238.526 557.154 237.244 556.432C236.116 555.798 235.512 554.817 235.321 553.564C234.908 550.862 236.519 548.449 238.089 546.451C239.564 546.456 241.257 546.466 242.546 547.302C243.636 548.008 244.361 548.872 244.515 550.202C244.815 552.785 243.113 554.66 241.503 556.409Z"/>
	<path fill="#F1A01D" d="M619.126 577.166C618.63 576.494 618.185 576.111 617.496 575.641C616.817 576.257 617.008 575.986 616.574 576.725C616.477 576.89 616.389 577.059 616.297 577.225L615.401 576.8C615.108 575.684 614.99 574.689 614.005 573.968L612.256 574.672C610.983 573.39 612.526 572.894 611.913 571.33C610.885 571.293 610.043 571.204 609.054 570.915L608.705 570.102C609.682 569.328 610.058 569.151 610.595 567.999C610.017 567.581 609.446 567.203 608.833 566.835L608.18 566.448L608.371 565.742C609.522 565.129 610.303 564.835 611.078 563.741C610.51 562.659 610.786 563.057 610.022 562.11C609.844 561.89 609.66 561.674 609.479 561.456L609.761 561.124L612.532 561.201L613.061 560.593L612.594 558.589L613.015 557.939C614.588 557.518 616.311 556.93 617.947 556.904C619.135 556.884 619.574 556.192 620.471 555.451C621.441 556.455 621.243 557.822 622.475 558.457C623.219 557.801 623.939 557.206 624.765 556.656L625.443 557.253L625.086 559.748L625.751 560.392L628.518 560.177L628.926 560.761L627.671 562.581C627.86 564.316 629.353 563.497 629.95 565.193C629.274 565.847 628.71 566.466 628.165 567.233C628.708 567.802 629.139 568.348 629.567 569.008C628.694 570.516 627.632 570.031 626.612 571.255L627.753 573.006L627.428 573.641L627.148 573.309C626.011 573.302 625.431 573.272 624.357 573.704C624.233 574.659 624.107 575.408 623.708 576.288C622.65 575.91 622.98 576.104 622.138 575.55C621.958 575.431 621.783 575.304 621.605 575.182C620.871 575.986 620.201 576.814 619.528 577.669L619.126 577.166Z"/>
	<path fill="#F1A01D" d="M253.186 603.615C266.577 602.777 280.274 603.46 293.701 603.479L368.818 603.403C379.978 603.369 391.631 603.978 402.729 603.105L756.791 603.427Q769.115 603.59 781.439 603.406C779.141 611.352 776.496 619.389 774.819 627.485C770.874 646.531 769.026 666.002 767.912 685.396C764.747 740.535 769.336 795.1 778.244 849.517C772.128 849.485 737.716 848.445 734.794 849.952C733.909 849.342 733.217 849.387 732.174 849.362C717.602 849.014 702.961 849.324 688.38 849.293L579.33 849.432L275.915 849.28L275.841 860.578C275.578 856.88 275.698 853.123 275.7 849.414Q253.427 849.202 231.158 849.713C245.498 788.356 245.845 719.3 238.668 656.872C236.639 639.227 233.501 621.636 230.552 604.126C237.522 604.131 246.478 605.377 253.186 603.615ZM540.009 627.787L535.195 628.116C536.249 659.127 535.526 690.426 535.491 721.467L544.25 721.48C545.842 721.496 547.781 721.76 549.175 720.897C550.398 712.727 549.46 700.452 549.469 691.872L549.481 627.414C546.338 627.502 543.136 627.477 540.009 627.787ZM680.5 628.572C677.919 630.172 675.702 631.937 675.079 635.088C674.703 636.993 675.375 638.831 676.457 640.38C677.914 642.467 680.256 643.362 682.482 644.409C680.074 649.203 676.752 652.081 672.744 655.497C673.891 657.008 674.953 658.734 676.681 659.607L677.747 659.588C684.456 655.876 689.931 651.047 691.987 643.314C692.893 639.907 693.326 635.234 691.293 632.123C690.073 630.256 687.634 628.951 685.485 628.538C683.867 628.227 682.125 628.404 680.5 628.572ZM279.039 634.616C280.418 643.932 282.528 653.114 284.431 662.333C288.678 682.918 293.254 703.471 296.376 724.265C301.664 724.46 306.896 724.295 312.178 724.027C316.681 701.037 320.66 677.866 325.503 654.956C327.903 678.134 332.224 700.867 335.704 723.88Q343.682 723.983 351.659 723.878Q358.891 688.196 367.695 652.869C369.159 646.725 370.458 640.488 372.461 634.493L356.308 634.417C354.619 643.622 353.381 652.895 351.71 662.099C349.138 676.272 346.206 690.368 344.025 704.611C341.288 681.008 336.539 657.848 333.254 634.362C328.447 634.54 323.626 634.81 318.815 634.619C314.101 656.375 309.607 680.555 306.451 702.585C304.123 693.237 303.263 683.298 301.663 673.784C299.464 660.709 296.576 647.606 295.064 634.442L279.039 634.616ZM397.561 652.129C390.563 653.474 385.218 657.033 381.175 662.913C374.203 673.052 372.822 688.365 375.111 700.182C376.623 707.994 380.65 715.861 387.494 720.264C394.799 724.962 404.282 724.708 412.436 722.749C414.789 722.184 417.006 721.436 419.251 720.536C419.173 716.746 419.479 712.502 418.863 708.784C411.857 711.349 404.251 713.961 396.942 710.72C392.903 708.928 390.316 705.517 388.937 701.39C387.875 698.211 387.487 694.689 387.399 691.35C398.924 691.008 410.451 691.554 421.976 691.405C422.247 680.187 423.185 667.034 414.843 658.149C411.086 654.149 405.93 652.228 400.503 652.054C399.523 652.023 398.54 652.071 397.561 652.129ZM448.303 652.654C443.058 653.447 438.317 654.918 433.74 657.672L437.553 667.96C443.883 664.662 448.84 663.616 456.007 664.684C458.941 666.627 460.89 668.373 461.533 671.981C461.879 673.919 461.923 675.918 461.974 677.882C452.066 678.312 443.001 680.773 436.173 688.437C431.908 693.222 429.829 699.219 430.377 705.621C430.881 711.494 433.692 717.417 438.174 721.302C438.302 721.413 438.439 721.514 438.571 721.62C442.951 723.987 447.322 725.105 452.223 723.572C457.333 721.974 460.508 718.072 463.005 713.565C462.991 716.711 463.036 719.87 462.958 723.014C467.233 723.022 471.521 723.098 475.794 722.995Q475.548 708.299 475.508 693.601C475.514 685.569 476.386 676.55 474.632 668.708C473.693 664.508 471.829 660.448 468.7 657.427C464.041 652.929 458.056 652.185 451.879 652.438Q450.089 652.516 448.303 652.654ZM504.434 652.567C498.886 654.061 493.844 656.631 490.8 661.737C488.091 666.282 487.107 672.714 488.59 677.815C492.479 691.193 516.501 694.943 510.835 706.6C509.707 708.918 507.564 710.758 505.118 711.567C499.993 713.261 493.956 710.954 489.284 708.816C488.601 712.452 487.872 716.044 486.952 719.628C492.321 722.959 498.038 723.592 504.221 723.709C509.906 723.168 515.616 720.832 519.338 716.34C522.877 712.069 524.502 705.783 523.897 700.319C523.11 693.209 519.1 688.133 513.606 683.939C509.818 681.046 501.821 676.988 501.087 671.777Q501.039 671.436 501.027 671.093Q501.016 670.749 501.041 670.406Q501.066 670.063 501.127 669.724Q501.189 669.386 501.286 669.056Q501.383 668.726 501.515 668.408Q501.647 668.091 501.812 667.789Q501.977 667.487 502.173 667.205Q502.369 666.922 502.594 666.662C504.372 664.602 507.3 664.045 509.898 663.973C513.512 663.873 516.772 665.121 520.013 666.591C520.636 663.295 522.261 658.327 520.308 655.227C519.255 653.555 517.414 652.94 515.561 652.691C512.015 652.214 507.994 652.268 504.434 652.567ZM585.548 652.591C578.304 654.337 572.846 657.798 568.92 664.273C562.495 674.871 561.05 689.792 564.11 701.679C565.931 708.754 569.648 715.784 576.084 719.643C583.31 723.977 592.934 723.702 600.837 721.565C602.817 721.029 604.794 720.426 606.686 719.629C606.527 715.558 606.499 711.44 605.74 707.428C600.518 710.628 594.792 712.76 588.61 711.177C584.388 710.096 580.881 707.227 578.734 703.464C576.399 699.373 575.964 695.06 575.411 690.483L609.93 690.558C610.553 680.054 610.36 667.14 603.054 658.676C599.927 655.052 595.311 652.704 590.509 652.47C588.889 652.391 587.165 652.476 585.548 652.591ZM716.124 652.647C710.454 653.481 705.032 655.672 701.408 660.333C698.243 664.403 696.582 671.157 697.432 676.218C698.317 681.49 701.978 685.791 706.351 688.658C710.919 691.652 718.17 694.465 719.354 700.44C719.669 702.032 719.67 703.527 718.738 704.929C717.348 707.019 714.895 708.156 712.481 708.53C707.467 709.305 702.757 707.198 698.178 705.472C697.183 708.804 696.238 712.162 695.166 715.47C700.459 717.781 705.066 719.582 710.932 719.627C716.931 719.476 722.964 718.529 727.294 713.943C731.037 709.978 732.684 704.286 732.504 698.907C732.331 693.741 730.138 689.412 726.37 685.914C721.907 681.773 710.302 677.744 709.747 671.105C709.593 669.268 710.515 667.528 711.81 666.291C713.77 664.42 716.28 663.578 718.966 663.782C722.128 664.022 725.481 665.265 728.345 666.596C729.449 662.764 730.445 659.004 731.123 655.072C726.048 653.085 721.621 652.241 716.124 652.647ZM616.182 653.76L615.209 654.154C614.672 656.971 632.241 707.965 634.438 714.215C632.892 719.861 630.199 726.292 624.834 729.261C621.221 731.261 618.321 730.949 614.382 730.483C613.954 734.717 613.386 738.987 613.438 743.247C620.035 744.476 626.107 743.926 631.861 740.146C642.459 733.185 645.684 717.896 649.456 706.551C655.306 689.082 660.22 671.349 665.954 653.856L651.517 654.017C648.714 668.971 643.861 683.574 641.649 698.629C636.951 684.034 633.097 668.562 630.236 653.497C625.555 653.564 620.859 653.553 616.182 653.76ZM295.705 748.219L288.798 748.513C288.077 768.83 289.119 789.187 288.857 809.509L297.483 809.52Q297.161 795.546 297.023 781.569C301.643 781.511 308.68 780.659 312.267 784.286C315.564 787.619 315.886 795.505 316.637 799.956L318.454 809.332C321.603 809.35 324.771 809.433 327.918 809.309C326.198 801.893 324.506 785.546 317.955 781.29C316.498 780.343 314.692 779.795 313.061 779.215C318.458 776.909 324.19 774.222 326.513 768.385C327.872 764.971 327.605 761.337 325.99 758.057C323.855 753.72 319.676 750.956 315.17 749.518C309.121 747.588 301.981 747.656 295.705 748.219ZM588 747.972C586.514 749.784 585.452 751.564 585.671 753.997C585.8 755.426 586.429 756.762 587.691 757.524C589.376 758.542 591.076 758.327 592.845 757.732C594.336 756.369 595.768 754.975 595.855 752.816C595.908 751.503 595.303 750.339 594.346 749.483C592.538 747.869 590.309 747.752 588 747.972ZM566.257 753.726C564.165 753.972 562.018 754.129 559.974 754.648L559.742 764.374C557.76 764.34 555.009 763.946 553.356 765.213C552.337 765.993 551.978 766.705 551.866 767.934C552.58 769.009 553.159 769.887 554.494 770.267C556.037 770.707 558.185 770.398 559.773 770.336C559.613 778.44 558.31 793.423 559.859 800.825C560.347 803.155 561.37 805.427 563.08 807.115C565.744 809.747 569.319 810.386 572.929 810.207C574.937 810.107 576.891 809.776 578.864 809.408C579.91 807.739 579.307 804.338 579.226 802.375C576.526 802.971 573.845 803.806 571.261 802.356C569.306 801.259 568.289 798.901 567.952 796.795C566.826 789.743 568.016 777.956 568.153 770.455L579.264 770.428L579.245 764.017C575.499 764.081 571.731 764.233 567.987 764.176C568.047 761.42 568.738 756.076 567.454 753.71L566.257 753.726ZM394.755 762.6C389.908 764.144 387.829 766.011 385.094 770.261L385.13 763.613L378.019 763.599L378.002 809.014L386.042 808.987C385.986 800.051 383.894 778.791 390.17 772.206C390.962 771.375 391.874 770.71 392.839 770.095C395.748 769.366 398.94 769.016 401.598 770.726C404.256 772.438 405.531 775.463 406.087 778.469C407.768 787.55 406.473 799.683 406.513 809.091L415.168 809.194C415.114 798.289 417.343 773.725 409.563 766.189C406.283 763.011 402.343 762.248 397.935 762.431Q396.344 762.5 394.755 762.6ZM440.904 762.556C435.053 764.226 430.553 766.992 427.451 772.433C423.592 779.2 423.15 788.593 425.289 796.01C426.756 801.1 429.752 805.51 434.467 808.077C438.913 810.498 443.643 810.585 448.52 809.907C454.313 808.381 459.08 805.5 462.253 800.268C466.018 794.059 466.413 785.972 464.565 779.055C463.024 773.288 459.665 767.752 454.366 764.753C450.033 762.302 445.723 762.217 440.904 762.556ZM476.238 762.738C473.483 762.835 470.724 762.968 467.968 763.018C474.346 778.194 478.789 794.067 484.598 809.453L492.931 809.821C496.852 798.542 500.439 787.009 504.736 775.878C506.447 771.728 508.087 767.53 509.904 763.427C506.885 763.389 503.853 763.3 500.834 763.339C497.38 775.913 493.594 788.827 489.064 801.056C487.516 796.157 478.526 764.237 476.809 762.722L476.238 762.738ZM349.475 763.055C343.686 764.577 339.307 767.306 336.199 772.567C332.245 779.262 331.561 788.066 333.771 795.461C335.321 800.648 338.452 805.164 343.307 807.719C348.458 810.43 355.599 811.013 361.102 809.083C363.488 808.247 366.58 806.413 367.657 803.986C368.218 802.721 368.199 802.484 367.782 801.253C366.655 800.687 366.344 800.488 365.055 800.999C363.992 801.421 362.824 802.293 361.86 802.899C357.744 804.5 353.613 805.179 349.404 803.425C345.851 801.943 343.257 798.791 341.844 795.272C340.931 793.002 340.677 790.413 340.383 788.001L370.399 787.971C370.268 780.653 369.927 772.753 364.446 767.187C361.756 764.454 357.843 762.84 354.015 762.801C352.511 762.786 350.974 762.94 349.475 763.055ZM526.23 763.088C522.293 763.858 518.792 765.017 515.274 766.984L517.533 772.552C521.574 770.338 526.683 768.188 531.357 769.468C533.517 770.059 535.167 771.521 536.205 773.482C537.254 775.465 537.172 778.277 537.325 780.481C529.5 781.274 520.313 781.896 514.93 788.495C512.457 791.525 511.666 795.47 512.145 799.299C512.615 803.048 514.499 806.1 517.443 808.407C521.205 810.283 525.451 811.358 529.578 809.935C532.757 808.839 535.514 804.742 538.317 804.36C539.396 805.589 539.295 806.716 539.454 808.247C539.497 808.661 539.551 809.073 539.599 809.487L547.293 809.588C545.339 798.255 547.814 782.581 545.436 773.567C544.583 770.334 542.812 767.422 540.025 765.511C535.98 762.736 530.934 762.748 526.23 763.088ZM622.467 763.076C616.383 764.528 611.702 767.794 608.463 773.221C604.546 779.783 603.629 788.031 605.762 795.35C607.356 800.816 610.78 805.857 615.933 808.503C619.861 810.52 623.822 810.649 628.117 810.429C633.927 809.231 638.441 806.391 641.775 801.411C645.754 795.467 646.869 787.676 645.399 780.729C644.14 774.782 640.99 768.878 635.689 765.631C631.526 763.08 627.215 762.859 622.467 763.076ZM715.589 764.124C710.966 764.985 707.478 766.217 704.814 770.311C703.163 772.848 701.846 776.066 702.479 779.136C703.271 782.969 706.741 785.806 709.907 787.766C712.799 789.556 720.341 792.58 721.468 795.731C722.036 797.319 721.633 800.173 720.814 801.62C719.87 803.291 718.52 804.217 716.692 804.667C712.63 805.666 704.232 802.587 701.529 805.163C701.396 806.408 701.322 807.386 702.154 808.43C704.295 811.116 709.939 811.35 713.117 811.48C717.866 810.673 722.769 809.291 725.69 805.123C727.609 802.385 728.551 797.932 727.935 794.639C727.277 791.12 724.907 788.628 721.981 786.75C718.31 784.393 710.902 782.216 709.671 777.658C709.244 776.079 709.584 774.083 710.527 772.757C711.744 771.045 714.621 769.733 716.689 769.556C719.25 769.337 722.768 770.662 725.085 771.67C725.744 769.615 726.485 767.558 726.996 765.462C723.157 764.508 719.57 763.904 715.589 764.124ZM586.603 764.76C586.097 779.549 586.514 794.416 586.422 809.216L594.875 809.252C594.648 794.312 594.738 779.385 594.668 764.446L586.603 764.76ZM656.004 764.585C656.348 780.012 656.567 795.37 656.446 810.806L663.504 810.646C663.51 803.01 662.389 786.428 664.225 779.522Q664.428 778.75 664.735 778.012Q665.041 777.275 665.446 776.586Q665.85 775.898 666.345 775.271Q666.84 774.644 667.416 774.091C669.554 772.021 672.487 770.764 675.485 770.904C677.824 771.014 680.111 772.048 681.672 773.806C684.75 777.273 684.59 781.541 684.803 785.875L685.002 810.539L692.223 810.694C692.326 800.229 694.788 776.046 687.523 768.211C685.047 765.54 681.83 764.398 678.243 764.311C673.065 764.186 669.02 766.274 665.428 769.894C664.522 770.807 663.644 771.735 662.807 772.711C662.666 770.088 662.484 767.46 662.407 764.834C660.276 764.703 658.139 764.511 656.004 764.585Z"/>
	<path fill="#54282A" d="M535.195 628.116L540.009 627.787C543.136 627.477 546.338 627.502 549.481 627.414L549.469 691.872C549.46 700.452 550.398 712.727 549.175 720.897C547.781 721.76 545.842 721.496 544.25 721.48L535.491 721.467C535.526 690.426 536.249 659.127 535.195 628.116Z"/>
	<path fill="#54282A" d="M682.482 644.409C680.256 643.362 677.914 642.467 676.457 640.38C675.375 638.831 674.703 636.993 675.079 635.088C675.702 631.937 677.919 630.172 680.5 628.572C682.125 628.404 683.867 628.227 685.485 628.538C687.634 628.951 690.073 630.256 691.293 632.123C693.326 635.234 692.893 639.907 691.987 643.314C689.931 651.047 684.456 655.876 677.747 659.588L676.681 659.607C674.953 658.734 673.891 657.008 672.744 655.497C676.752 652.081 680.074 649.203 682.482 644.409Z"/>
	<path fill="#54282A" d="M296.376 724.265C293.254 703.471 288.678 682.918 284.431 662.333C282.528 653.114 280.418 643.932 279.039 634.616L295.064 634.442C296.576 647.606 299.464 660.709 301.663 673.784C303.263 683.298 304.123 693.237 306.451 702.585C309.607 680.555 314.101 656.375 318.815 634.619C323.626 634.81 328.447 634.54 333.254 634.362C336.539 657.848 341.288 681.008 344.025 704.611C346.206 690.368 349.138 676.272 351.71 662.099C353.381 652.895 354.619 643.622 356.308 634.417L372.461 634.493C370.458 640.488 369.159 646.725 367.695 652.869Q358.891 688.196 351.659 723.878Q343.682 723.983 335.704 723.88C332.224 700.867 327.903 678.134 325.503 654.956C320.66 677.866 316.681 701.037 312.178 724.027C306.896 724.295 301.664 724.46 296.376 724.265Z"/>
	<path fill="#54282A" d="M419.251 720.536C417.006 721.436 414.789 722.184 412.436 722.749C404.282 724.708 394.799 724.962 387.494 720.264C380.65 715.861 376.623 707.994 375.111 700.182C372.822 688.365 374.203 673.052 381.175 662.913C385.218 657.033 390.563 653.474 397.561 652.129C398.54 652.071 399.523 652.023 400.503 652.054C405.93 652.228 411.086 654.149 414.843 658.149C423.185 667.034 422.247 680.187 421.976 691.405C410.451 691.554 398.924 691.008 387.399 691.35C387.487 694.689 387.875 698.211 388.937 701.39C390.316 705.517 392.903 708.928 396.942 710.72C404.251 713.961 411.857 711.349 418.863 708.784C419.479 712.502 419.173 716.746 419.251 720.536ZM397.511 663.05C393.731 664.838 391.635 667.352 390.172 671.291C388.963 674.548 388.395 678.014 387.878 681.434C391.903 681.496 395.96 681.451 399.98 681.628C403.12 681.733 406.273 681.893 409.414 681.877C409.1 676.372 409.132 669.001 404.577 665.074C402.484 663.27 400.184 662.942 397.511 663.05Z"/>
	<path fill="#54282A" d="M433.74 657.672C438.317 654.918 443.058 653.447 448.303 652.654Q450.089 652.516 451.879 652.438C458.056 652.185 464.041 652.929 468.7 657.427C471.829 660.448 473.693 664.508 474.632 668.708C476.386 676.55 475.514 685.569 475.508 693.601Q475.548 708.299 475.794 722.995C471.521 723.098 467.233 723.022 462.958 723.014C463.036 719.87 462.991 716.711 463.005 713.565C460.508 718.072 457.333 721.974 452.223 723.572C447.322 725.105 442.951 723.987 438.571 721.62C438.439 721.514 438.302 721.413 438.174 721.302C433.692 717.417 430.881 711.494 430.377 705.621C429.829 699.219 431.908 693.222 436.173 688.437C443.001 680.773 452.066 678.312 461.974 677.882C461.923 675.918 461.879 673.919 461.533 671.981C460.89 668.373 458.941 666.627 456.007 664.684C448.84 663.616 443.883 664.662 437.553 667.96L433.74 657.672ZM455.49 688.595C451.236 689.446 448.63 690.681 446.256 694.446C444.121 697.833 443.169 702.831 444.254 706.726C444.949 709.221 446.438 711.398 448.78 712.581C449.538 712.964 450.312 713.157 451.132 713.356C455.095 712.145 458.366 710.628 460.359 706.783C462.992 701.703 461.972 694.039 461.888 688.448L455.49 688.595Z"/>
	<path fill="#54282A" d="M489.284 708.816C493.956 710.954 499.993 713.261 505.118 711.567C507.564 710.758 509.707 708.918 510.835 706.6C516.501 694.943 492.479 691.193 488.59 677.815C487.107 672.714 488.091 666.282 490.8 661.737C493.844 656.631 498.886 654.061 504.434 652.567C507.994 652.268 512.015 652.214 515.561 652.691C517.414 652.94 519.255 653.555 520.308 655.227C522.261 658.327 520.636 663.295 520.013 666.591C516.772 665.121 513.512 663.873 509.898 663.973C507.3 664.045 504.372 664.602 502.594 666.662Q502.369 666.922 502.173 667.205Q501.977 667.487 501.812 667.789Q501.647 668.091 501.515 668.408Q501.383 668.726 501.286 669.056Q501.189 669.386 501.127 669.724Q501.066 670.063 501.041 670.406Q501.016 670.749 501.027 671.093Q501.039 671.436 501.087 671.777C501.821 676.988 509.818 681.046 513.606 683.939C519.1 688.133 523.11 693.209 523.897 700.319C524.502 705.783 522.877 712.069 519.338 716.34C515.616 720.832 509.906 723.168 504.221 723.709C498.038 723.592 492.321 722.959 486.952 719.628C487.872 716.044 488.601 712.452 489.284 708.816Z"/>
	<path fill="#54282A" d="M606.686 719.629C604.794 720.426 602.817 721.029 600.837 721.565C592.934 723.702 583.31 723.977 576.084 719.643C569.648 715.784 565.931 708.754 564.11 701.679C561.05 689.792 562.495 674.871 568.92 664.273C572.846 657.798 578.304 654.337 585.548 652.591C587.165 652.476 588.889 652.391 590.509 652.47C595.311 652.704 599.927 655.052 603.054 658.676C610.36 667.14 610.553 680.054 609.93 690.558L575.411 690.483C575.964 695.06 576.399 699.373 578.734 703.464C580.881 707.227 584.388 710.096 588.61 711.177C594.792 712.76 600.518 710.628 605.74 707.428C606.499 711.44 606.527 715.558 606.686 719.629ZM585.593 663.56C581.762 665.427 579.428 667.536 577.938 671.624C576.942 674.357 576.453 677.367 576.035 680.234C580.062 680.459 584.066 680.476 588.098 680.459L597.025 680.409C596.973 675.591 597.075 669.187 593.295 665.612C591.392 663.812 589.505 663.305 586.941 663.445C586.491 663.469 586.042 663.516 585.593 663.56Z"/>
	<path fill="#54282A" d="M698.178 705.472C702.757 707.198 707.467 709.305 712.481 708.53C714.895 708.156 717.348 707.019 718.738 704.929C719.67 703.527 719.669 702.032 719.354 700.44C718.17 694.465 710.919 691.652 706.351 688.658C701.978 685.791 698.317 681.49 697.432 676.218C696.582 671.157 698.243 664.403 701.408 660.333C705.032 655.672 710.454 653.481 716.124 652.647C721.621 652.241 726.048 653.085 731.123 655.072C730.445 659.004 729.449 662.764 728.345 666.596C725.481 665.265 722.128 664.022 718.966 663.782C716.28 663.578 713.77 664.42 711.81 666.291C710.515 667.528 709.593 669.268 709.747 671.105C710.302 677.744 721.907 681.773 726.37 685.914C730.138 689.412 732.331 693.741 732.504 698.907C732.684 704.286 731.037 709.978 727.294 713.943C722.964 718.529 716.931 719.476 710.932 719.627C705.066 719.582 700.459 717.781 695.166 715.47C696.238 712.162 697.183 708.804 698.178 705.472Z"/>
	<path fill="#54282A" d="M634.438 714.215C632.241 707.965 614.672 656.971 615.209 654.154L616.182 653.76C620.859 653.553 625.555 653.564 630.236 653.497C633.097 668.562 636.951 684.034 641.649 698.629C643.861 683.574 648.714 668.971 651.517 654.017L665.954 653.856C660.22 671.349 655.306 689.082 649.456 706.551C645.684 717.896 642.459 733.185 631.861 740.146C626.107 743.926 620.035 744.476 613.438 743.247C613.386 738.987 613.954 734.717 614.382 730.483C618.321 730.949 621.221 731.261 624.834 729.261C630.199 726.292 632.892 719.861 634.438 714.215Z"/>
	<path fill="#F1A01D" d="M387.878 681.434C388.395 678.014 388.963 674.548 390.172 671.291C391.635 667.352 393.731 664.838 397.511 663.05C400.184 662.942 402.484 663.27 404.577 665.074C409.132 669.001 409.1 676.372 409.414 681.877C406.273 681.893 403.12 681.733 399.98 681.628C395.96 681.451 391.903 681.496 387.878 681.434Z"/>
	<path fill="#F1A01D" d="M576.035 680.234C576.453 677.367 576.942 674.357 577.938 671.624C579.428 667.536 581.762 665.427 585.593 663.56C586.042 663.516 586.491 663.469 586.941 663.445C589.505 663.305 591.392 663.812 593.295 665.612C597.075 669.187 596.973 675.591 597.025 680.409L588.098 680.459C584.066 680.476 580.062 680.459 576.035 680.234Z"/>
	<path fill="#F1A01D" d="M451.132 713.356C450.312 713.157 449.538 712.964 448.78 712.581C446.438 711.398 444.949 709.221 444.254 706.726C443.169 702.831 444.121 697.833 446.256 694.446C448.63 690.681 451.236 689.446 455.49 688.595L461.888 688.448C461.972 694.039 462.992 701.703 460.359 706.783C458.366 710.628 455.095 712.145 451.132 713.356Z"/>
	<path fill="#54282A" d="M288.798 748.513L295.705 748.219C301.981 747.656 309.121 747.588 315.17 749.518C319.676 750.956 323.855 753.72 325.99 758.057C327.605 761.337 327.872 764.971 326.513 768.385C324.19 774.222 318.458 776.909 313.061 779.215C314.692 779.795 316.498 780.343 317.955 781.29C324.506 785.546 326.198 801.893 327.918 809.309C324.771 809.433 321.603 809.35 318.454 809.332L316.637 799.956C315.886 795.505 315.564 787.619 312.267 784.286C308.68 780.659 301.643 781.511 297.023 781.569Q297.161 795.546 297.483 809.52L288.857 809.509C289.119 789.187 288.077 768.83 288.798 748.513ZM297.077 753.186L297.07 776.595C303.399 776.618 309.089 777.305 314.371 773.119C316.593 770.356 318.774 766.206 318.328 762.527C318 759.819 316.433 757.623 314.281 756.025C309.285 752.314 302.932 752.783 297.077 753.186Z"/>
	<path fill="#54282A" d="M592.845 757.732C591.076 758.327 589.376 758.542 587.691 757.524C586.429 756.762 585.8 755.426 585.671 753.997C585.452 751.564 586.514 749.784 588 747.972C590.309 747.752 592.538 747.869 594.346 749.483C595.303 750.339 595.908 751.503 595.855 752.816C595.768 754.975 594.336 756.369 592.845 757.732Z"/>
	<path fill="#F1A01D" d="M297.07 776.595L297.077 753.186C302.932 752.783 309.285 752.314 314.281 756.025C316.433 757.623 318 759.819 318.328 762.527C318.774 766.206 316.593 770.356 314.371 773.119C309.089 777.305 303.399 776.618 297.07 776.595Z"/>
	<path fill="#54282A" d="M559.974 754.648C562.018 754.129 564.165 753.972 566.257 753.726L567.454 753.71C568.738 756.076 568.047 761.42 567.987 764.176C571.731 764.233 575.499 764.081 579.245 764.017L579.264 770.428L568.153 770.455C568.016 777.956 566.826 789.743 567.952 796.795C568.289 798.901 569.306 801.259 571.261 802.356C573.845 803.806 576.526 802.971 579.226 802.375C579.307 804.338 579.91 807.739 578.864 809.408C576.891 809.776 574.937 810.107 572.929 810.207C569.319 810.386 565.744 809.747 563.08 807.115C561.37 805.427 560.347 803.155 559.859 800.825C558.31 793.423 559.613 778.44 559.773 770.336C558.185 770.398 556.037 770.707 554.494 770.267C553.159 769.887 552.58 769.009 551.866 767.934C551.978 766.705 552.337 765.993 553.356 765.213C555.009 763.946 557.76 764.34 559.742 764.374L559.974 754.648Z"/>
	<path fill="#54282A" d="M385.094 770.261C387.829 766.011 389.908 764.144 394.755 762.6Q396.344 762.5 397.935 762.431C402.343 762.248 406.283 763.011 409.563 766.189C417.343 773.725 415.114 798.289 415.168 809.194L406.513 809.091C406.473 799.683 407.768 787.55 406.087 778.469C405.531 775.463 404.256 772.438 401.598 770.726C398.94 769.016 395.748 769.366 392.839 770.095C391.874 770.71 390.962 771.375 390.17 772.206C383.894 778.791 385.986 800.051 386.042 808.987L378.002 809.014L378.019 763.599L385.13 763.613L385.094 770.261Z"/>
	<path fill="#54282A" d="M448.52 809.907C443.643 810.585 438.913 810.498 434.467 808.077C429.752 805.51 426.756 801.1 425.289 796.01C423.15 788.593 423.592 779.2 427.451 772.433C430.553 766.992 435.053 764.226 440.904 762.556C445.723 762.217 450.033 762.302 454.366 764.753C459.665 767.752 463.024 773.288 464.565 779.055C466.413 785.972 466.018 794.059 462.253 800.268C459.08 805.5 454.313 808.381 448.52 809.907ZM441.54 769.578C437.322 771.786 435.145 774.513 433.751 779.104C432.036 784.753 432.075 792.586 434.996 797.777C436.494 800.439 438.851 802.492 441.848 803.249C443.787 803.739 445.815 803.419 447.738 803.013C451.835 801.015 454.321 798.388 455.771 794.008C457.592 788.507 457.337 781.056 454.589 775.927C453.018 772.996 450.28 770.55 447.034 769.663C445.308 769.191 443.302 769.361 441.54 769.578Z"/>
	<path fill="#54282A" d="M467.968 763.018C470.724 762.968 473.483 762.835 476.238 762.738L476.809 762.722C478.526 764.237 487.516 796.157 489.064 801.056C493.594 788.827 497.38 775.913 500.834 763.339C503.853 763.3 506.885 763.389 509.904 763.427C508.087 767.53 506.447 771.728 504.736 775.878C500.439 787.009 496.852 798.542 492.931 809.821L484.598 809.453C478.789 794.067 474.346 778.194 467.968 763.018Z"/>
	<path fill="#54282A" d="M361.86 802.899C362.824 802.293 363.992 801.421 365.055 800.999C366.344 800.488 366.655 800.687 367.782 801.253C368.199 802.484 368.218 802.721 367.657 803.986C366.58 806.413 363.488 808.247 361.102 809.083C355.599 811.013 348.458 810.43 343.307 807.719C338.452 805.164 335.321 800.648 333.771 795.461C331.561 788.066 332.245 779.262 336.199 772.567C339.307 767.306 343.686 764.577 349.475 763.055C350.974 762.94 352.511 762.786 354.015 762.801C357.843 762.84 361.756 764.454 364.446 767.187C369.927 772.753 370.268 780.653 370.399 787.971L340.383 788.001C340.677 790.413 340.931 793.002 341.844 795.272C343.257 798.791 345.851 801.943 349.404 803.425C353.613 805.179 357.744 804.5 361.86 802.899ZM352.218 767.567C348.095 768.902 345.353 770.788 343.282 774.689C341.861 777.365 341.209 780.22 340.6 783.155C344.068 783.229 347.52 783.269 350.988 783.181L362.695 783.199C362.201 778.556 361.813 772.734 357.996 769.486C356.375 768.107 354.313 767.583 352.218 767.567Z"/>
	<path fill="#54282A" d="M515.274 766.984C518.792 765.017 522.293 763.858 526.23 763.088C530.934 762.748 535.98 762.736 540.025 765.511C542.812 767.422 544.583 770.334 545.436 773.567C547.814 782.581 545.339 798.255 547.293 809.588L539.599 809.487C539.551 809.073 539.497 808.661 539.454 808.247C539.295 806.716 539.396 805.589 538.317 804.36C535.514 804.742 532.757 808.839 529.578 809.935C525.451 811.358 521.205 810.283 517.443 808.407C514.499 806.1 512.615 803.048 512.145 799.299C511.666 795.47 512.457 791.525 514.93 788.495C520.313 781.896 529.5 781.274 537.325 780.481C537.172 778.277 537.254 775.465 536.205 773.482C535.167 771.521 533.517 770.059 531.357 769.468C526.683 768.188 521.574 770.338 517.533 772.552L515.274 766.984ZM530.29 786.614C526.231 787.835 523.212 789.167 521.18 793.163C520.219 795.054 519.794 797.446 520.605 799.469C521.302 801.207 522.869 802.566 524.614 803.199C525.817 803.635 527.239 803.706 528.5 803.788C531.508 802.931 534.452 801.859 536.107 799.011C538.214 795.384 537.581 790.29 537.546 786.234L530.29 786.614Z"/>
	<path fill="#54282A" d="M628.117 810.429C623.822 810.649 619.861 810.52 615.933 808.503C610.78 805.857 607.356 800.816 605.762 795.35C603.629 788.031 604.546 779.783 608.463 773.221C611.702 767.794 616.383 764.528 622.467 763.076C627.215 762.859 631.526 763.08 635.689 765.631C640.99 768.878 644.14 774.782 645.399 780.729C646.869 787.676 645.754 795.467 641.775 801.411C638.441 806.391 633.927 809.231 628.117 810.429ZM623.026 769.52C618.535 771.785 615.946 775.046 614.421 779.859C612.626 785.525 612.909 792.966 615.869 798.21C617.599 801.275 620.18 803.331 623.625 804.122C625.114 804.464 626.627 804.416 628.112 804.091C632.254 802.214 634.9 799.575 636.565 795.289C638.727 789.721 638.688 782.37 636.107 776.945C634.62 773.819 632.082 771.124 628.761 769.961C626.946 769.326 624.921 769.389 623.026 769.52Z"/>
	<path fill="#54282A" d="M713.117 811.48C709.939 811.35 704.295 811.116 702.154 808.43C701.322 807.386 701.396 806.408 701.529 805.163C704.232 802.587 712.63 805.666 716.692 804.667C718.52 804.217 719.87 803.291 720.814 801.62C721.633 800.173 722.036 797.319 721.468 795.731C720.341 792.58 712.799 789.556 709.907 787.766C706.741 785.806 703.271 782.969 702.479 779.136C701.846 776.066 703.163 772.848 704.814 770.311C707.478 766.217 710.966 764.985 715.589 764.124C719.57 763.904 723.157 764.508 726.996 765.462C726.485 767.558 725.744 769.615 725.085 771.67C722.768 770.662 719.25 769.337 716.689 769.556C714.621 769.733 711.744 771.045 710.527 772.757C709.584 774.083 709.244 776.079 709.671 777.658C710.902 782.216 718.31 784.393 721.981 786.75C724.907 788.628 727.277 791.12 727.935 794.639C728.551 797.932 727.609 802.385 725.69 805.123C722.769 809.291 717.866 810.673 713.117 811.48Z"/>
	<path fill="#54282A" d="M586.422 809.216C586.514 794.416 586.097 779.549 586.603 764.76L594.668 764.446C594.738 779.385 594.648 794.312 594.875 809.252L586.422 809.216Z"/>
	<path fill="#54282A" d="M656.446 810.806C656.567 795.37 656.348 780.012 656.004 764.585C658.139 764.511 660.276 764.703 662.407 764.834C662.484 767.46 662.666 770.088 662.807 772.711C663.644 771.735 664.522 770.807 665.428 769.894C669.02 766.274 673.065 764.186 678.243 764.311C681.83 764.398 685.047 765.54 687.523 768.211C694.788 776.046 692.326 800.229 692.223 810.694L685.002 810.539L684.803 785.875C684.59 781.541 684.75 777.273 681.672 773.806C680.111 772.048 677.824 771.014 675.485 770.904C672.487 770.764 669.554 772.021 667.416 774.091Q666.84 774.644 666.345 775.271Q665.85 775.898 665.446 776.586Q665.041 777.275 664.735 778.012Q664.428 778.75 664.225 779.522C662.389 786.428 663.51 803.01 663.504 810.646L656.446 810.806Z"/>
	<path fill="#F1A01D" d="M340.6 783.155C341.209 780.22 341.861 777.365 343.282 774.689C345.353 770.788 348.095 768.902 352.218 767.567C354.313 767.583 356.375 768.107 357.996 769.486C361.813 772.734 362.201 778.556 362.695 783.199L350.988 783.181C347.52 783.269 344.068 783.229 340.6 783.155Z"/>
	<path fill="#F1A01D" d="M447.738 803.013C445.815 803.419 443.787 803.739 441.848 803.249C438.851 802.492 436.494 800.439 434.996 797.777C432.075 792.586 432.036 784.753 433.751 779.104C435.145 774.513 437.322 771.786 441.54 769.578C443.302 769.361 445.308 769.191 447.034 769.663C450.28 770.55 453.018 772.996 454.589 775.927C457.337 781.056 457.592 788.507 455.771 794.008C454.321 798.388 451.835 801.015 447.738 803.013Z"/>
	<path fill="#F1A01D" d="M628.112 804.091C626.627 804.416 625.114 804.464 623.625 804.122C620.18 803.331 617.599 801.275 615.869 798.21C612.909 792.966 612.626 785.525 614.421 779.859C615.946 775.046 618.535 771.785 623.026 769.52C624.921 769.389 626.946 769.326 628.761 769.961C632.082 771.124 634.62 773.819 636.107 776.945C638.688 782.37 638.727 789.721 636.565 795.289C634.9 799.575 632.254 802.214 628.112 804.091Z"/>
	<path fill="#F1A01D" d="M528.5 803.788C527.239 803.706 525.817 803.635 524.614 803.199C522.869 802.566 521.302 801.207 520.605 799.469C519.794 797.446 520.219 795.054 521.18 793.163C523.212 789.167 526.231 787.835 530.29 786.614L537.546 786.234C537.581 790.29 538.214 795.384 536.107 799.011C534.452 801.859 531.508 802.931 528.5 803.788Z"/>
	<path fill="#8A395D" d="M275.915 849.28L579.33 849.432L688.38 849.293C702.961 849.324 717.602 849.014 732.174 849.362C733.217 849.387 733.909 849.342 734.794 849.952C734.949 856.512 736.883 870.511 731.901 875.572C731.663 875.814 731.195 876.243 730.924 876.386C728.48 877.676 722.967 877.479 720.192 877.508C689.986 877.829 659.745 877.527 629.536 877.518L454.967 877.504L335.464 877.489L296.492 877.517C292.131 877.525 287.71 877.869 283.363 877.762C281.283 877.711 279.207 877.25 277.785 875.618C274.776 872.165 275.754 864.917 275.841 860.578L275.915 849.28Z"/>
</svg>
